<svg width="256" height="161" viewBox="0 0 256 161" fill="none" xmlns="http://www.w3.org/2000/svg">
<path d="M116.974 155.483C122.867 162.305 133.443 162.305 139.337 155.483L251.806 25.2923C260.077 15.7189 253.276 0.856552 240.625 0.856552H15.6857C3.03467 0.856552 -3.76622 15.7189 4.50407 25.2923L116.974 155.483Z" fill="#213A8A"/>
<g clip-path="url(#clip0_64_155)">
<path fill-rule="evenodd" clip-rule="evenodd" d="M72.4574 22H56V25.6326H65.1277H71.766C73.0106 25.6326 73.9787 26.6106 73.9787 27.8681V45.4724C73.9787 46.7298 73.0106 47.7078 71.766 47.7078H64.1596V27.1695H56V51.4802H72.4574C77.8511 51.4802 82.2766 47.0093 82.2766 41.5603V31.7802C82.1383 26.4709 77.8511 22 72.4574 22ZM101.362 22H94.7234C89.3298 22 84.9043 26.4709 84.9043 31.9199V41.7C84.9043 47.149 89.3298 51.6199 94.7234 51.6199H101.362C106.755 51.6199 111.181 47.149 111.181 41.7V31.9199C111.043 26.4709 106.755 22 101.362 22ZM103.021 45.6121C103.021 46.8695 102.053 47.8476 100.809 47.8476H95.4149C94.1702 47.8476 93.2021 46.8695 93.2021 45.6121V27.8681C93.2021 26.6106 94.1702 25.6326 95.4149 25.6326H100.809C102.053 25.6326 103.021 26.6106 103.021 27.8681V45.6121ZM172.862 22V25.6326H179.085H191.947H199V22H172.862ZM132.479 22H114.638V25.6326H125.564H130.404C131.649 25.6326 132.617 26.6106 132.617 27.8681V32.7582C132.617 34.0156 131.649 34.9936 130.404 34.9936H122.66V27.1695H114.5V51.4802H132.202C136.904 51.4802 140.638 47.7078 140.638 42.9575V42.5383C140.638 40.1631 139.532 38.0674 137.734 36.6702C139.532 35.4128 140.638 33.1773 140.638 30.8021V30.5227C140.915 25.7723 137.043 22 132.479 22ZM132.755 45.6121C132.755 46.8695 131.787 47.8476 130.543 47.8476H122.798V38.4865H130.543C131.787 38.4865 132.755 39.4646 132.755 40.722V45.6121ZM181.851 51.4802H190.011V27.1695H181.851V51.4802ZM160.968 22H154.33C148.936 22 144.511 26.4709 144.511 31.9199V41.7C144.511 47.149 148.936 51.6199 154.33 51.6199H160.968C166.362 51.6199 170.787 47.149 170.787 41.7V31.9199C170.649 26.4709 166.362 22 160.968 22ZM162.489 45.6121C162.489 46.8695 161.521 47.8476 160.277 47.8476H154.883C153.638 47.8476 152.67 46.8695 152.67 45.6121V27.8681C152.67 26.6106 153.638 25.6326 154.883 25.6326H160.277C161.521 25.6326 162.489 26.6106 162.489 27.8681V45.6121Z" fill="white"/>
</g>
<defs>
<clipPath id="clip0_64_155">
<rect width="143" height="28.9213" fill="white" transform="translate(56 22)"/>
</clipPath>
</defs>
</svg>
