<svg width="124" height="120" viewBox="0 0 124 120" fill="none" xmlns="http://www.w3.org/2000/svg">
<g clip-path="url(#clip0_827_13494)">
<path d="M88.8626 79.5063C89.0243 79.8994 89.1388 80.3103 89.2038 80.7306C89.2038 80.9265 88.7408 81.0734 88.7408 81.0734V81.4161H89.3012C89.5098 82.0483 89.6727 82.6947 89.7885 83.3504C89.7885 83.5463 89.35 83.6443 89.35 83.6443V83.987H89.8617C90.1491 84.6571 90.3695 85.3543 90.5195 86.0683C90.5195 86.2886 89.9348 86.509 89.9348 86.509L89.6424 87.2925L83.5752 91.8222L80.4075 89.741L76.582 76.2254L78.7263 72.1364L83.4046 71.2305L87.7174 73.9483L88.8626 79.5063Z" fill="white" stroke="#616161" stroke-width="2" stroke-linejoin="round"/>
<path d="M113.229 86.8022C113.229 86.8022 114.131 87.5123 114.18 87.7326C114.228 87.953 113.911 88.2468 113.911 88.2468L114.106 88.5651L114.569 88.1979C115.087 88.6653 115.575 89.1641 116.031 89.6914C116.031 89.8873 115.763 90.1811 115.763 90.1811L115.983 90.4505L116.397 90.1566C116.998 90.6065 117.553 91.115 118.054 91.6747C118.054 91.9195 117.737 92.3603 117.737 92.3603V93.2172L114.521 100.244H110.451L100.145 90.0342V85.3331L103.946 82.248L109.428 82.4929L113.229 86.8022Z" fill="white" stroke="#616161" stroke-width="2" stroke-linejoin="round"/>
<path d="M89.7894 69.0996L91.3732 70.03C91.8245 70.0436 92.2756 69.9942 92.7133 69.8831C93.0034 69.8155 93.2665 69.662 93.4687 69.4423L93.7611 69.7606L93.5418 71.1808L95.0281 72.454L92.3479 73.3599L88.9609 69.5158L89.3021 68.7812L89.7894 69.0996Z" fill="white" stroke="#616161" stroke-width="2" stroke-linejoin="round"/>
<path d="M83.3577 72.6014L79.1667 74.3154L73.0508 71.8669L74.0254 70.7651L78.8987 69.0021L82.846 66.0395L87.0858 65.8926L92.3001 67.582L90.2534 68.4145L89.3518 69.8346L87.0127 72.4545L83.3577 72.6014Z" fill="white" stroke="#616161" stroke-width="2" stroke-linejoin="round"/>
<path d="M77.5322 66.5039L74.0234 71.1805L79.0673 69.589L82.1861 70.7398C82.1861 70.7398 83.307 70.1277 83.7456 70.2991C84.0472 70.3979 84.3406 70.5207 84.6228 70.6663L85.2807 70.5194C85.2807 70.5194 83.7456 69.4421 83.5994 68.8789C83.4437 68.2246 83.3217 67.5626 83.2339 66.8957L77.5322 66.5039Z" fill="white" stroke="#616161" stroke-width="2" stroke-linejoin="round"/>
<path d="M92.1771 75.5897C92.1771 75.5897 86.8652 82.2496 85.4032 82.2496C84.6552 82.3201 83.9008 82.2368 83.1859 82.0047C82.1381 81.613 81.2366 80.805 81.1391 80.2418C81.0018 79.7455 80.9121 79.2372 80.8711 78.7237C80.8908 78.0879 81.0401 77.4629 81.3097 76.8874C81.5534 76.3242 85.9393 70.4479 85.9393 70.4479L84.5504 67.9994L87.5231 67.1914L92.2745 73.4595L92.1771 75.5897Z" fill="white" stroke="#616161" stroke-width="2" stroke-linejoin="round"/>
<path d="M115.738 82.5903C115.738 82.5903 112.327 91.0866 110.865 91.6008C110.09 91.9091 109.262 92.059 108.428 92.0415C107.906 92.0481 107.388 91.9473 106.906 91.7452C106.424 91.543 105.989 91.2439 105.626 90.8662C105.303 90.409 105.034 89.916 104.822 89.3971C104.616 88.741 104.549 88.0485 104.627 87.3649C104.627 86.7038 107.356 79.2849 107.356 79.2849L104.92 77.1057L107.844 75.3184L115.154 80.2153L115.738 82.5903Z" fill="white" stroke="#616161" stroke-width="2" stroke-linejoin="round"/>
<path d="M92.5898 68.1436L93.7838 69.6862V71.1552L95.0265 72.4529L99.8997 66.4297L92.5898 68.1436Z" fill="white" stroke="#616161" stroke-width="2" stroke-linejoin="round"/>
<path d="M101.827 66.9199L99.1953 72.4535L100.852 74.1674L109.405 73.5063L111.646 69.3194L109.38 67.5565L101.827 66.9199Z" fill="white" stroke="#616161" stroke-width="2" stroke-linejoin="round"/>
<path d="M101.046 54.4833L101.753 54.0426V53.3325C101.753 53.3325 104.19 52.5735 104.531 52.5735C104.872 52.5735 104.799 53.2835 104.799 53.2835L106.772 52.9163C106.772 52.9163 106.772 52.2307 107.114 52.1572L109.55 51.8145L110.111 52.5735L112.913 52.7449L113.205 52.0838C113.205 52.0838 115.13 51.8634 115.496 51.8879C115.861 51.9124 116.641 52.8428 116.641 52.8428L117.81 53.5284L118.03 55.7565L117.128 56.0014L117.299 56.491L118.127 56.7114L118.371 58.915L117.518 59.5027V60.2127L118.468 60.0903L118.712 62.1715L117.835 62.7592V63.5916H118.761L119.053 64.8893L117.445 72.749L100.754 71.5492L103.191 63.5672L101.022 57.7643L101.046 54.4833Z" fill="white" stroke="#616161" stroke-width="2" stroke-linejoin="round"/>
<path d="M99.5127 48.5559C99.9987 48.9553 100.44 49.4069 100.828 49.9026C100.868 50.465 100.868 51.0295 100.828 51.592L100 52.0817L100.658 52.7428V54.0895L100.365 56.0972L90.7652 59.0109L78.582 52.5469L81.6766 45.2015L88.9864 37.6602L97.0029 38.2968L99.2934 41.9205L99.5127 48.5559Z" fill="white" stroke="#616161" stroke-width="2" stroke-linejoin="round"/>
<path d="M83.2823 40.4297C83.2823 40.4297 86.1331 40.9684 86.8398 41.1887C87.9808 41.4616 89.0793 41.8899 90.1048 42.4619C90.5567 42.8728 90.8572 43.425 90.9577 44.029C91.1864 44.3887 91.3315 44.7957 91.3821 45.2196C91.4327 45.6435 91.3876 46.0735 91.2501 46.4774C90.982 48.0689 90.8115 49.2687 89.5444 49.9788C87.0182 50.6979 84.4333 51.1895 81.8203 51.4478L83.2823 40.4297Z" fill="white" stroke="#616161" stroke-width="2" stroke-linejoin="round"/>
<path d="M82.2357 36.3877L81.6509 36.1428V36.8284L80.4082 36.9508L83.3809 38.3464V40.4032C85.7064 40.8515 87.9773 41.5493 90.1547 42.4844C90.5901 42.8563 90.9042 43.351 91.0563 43.9045L90.9344 41.2846L90.5446 37.9547L83.3565 35.7266L81.7727 36.2407" fill="white"/>
<path d="M82.2357 36.3877L81.6509 36.1428V36.8284L80.4082 36.9508L83.3809 38.3464V40.4032C85.7064 40.8515 87.9773 41.5493 90.1547 42.4844C90.5901 42.8563 90.9042 43.351 91.0563 43.9045L90.9344 41.2846L90.5446 37.9547L83.3565 35.7266L81.7727 36.2407" stroke="#616161" stroke-width="2" stroke-linejoin="round"/>
<path d="M100.778 54.9977L100.607 56.1485L104.774 56.6627L105.432 58.7194C105.869 59.7543 105.988 60.897 105.773 62.0004C105.484 62.6319 105.318 63.3136 105.286 64.0081L103.678 64.4733L101.509 66.3342C101.425 67.0439 101.534 67.7633 101.826 68.4154C102.311 68.9468 102.9 69.3719 103.556 69.6641L108.429 69.1499C108.429 69.1499 109.209 68.4888 108.648 68.0236C108.316 67.7659 108.042 67.4405 107.844 67.0687L108.283 66.5056L107.771 65.4282L110.208 64.8896L110.062 61.4862L108.526 61.6576V58.6704L109.257 55.316L100.875 54.7773" fill="white"/>
<path d="M100.778 54.9977L100.607 56.1485L104.774 56.6627L105.432 58.7194C105.869 59.7543 105.988 60.897 105.773 62.0004C105.484 62.6319 105.318 63.3136 105.286 64.0081L103.678 64.4733L101.509 66.3342C101.425 67.0439 101.534 67.7633 101.826 68.4154C102.311 68.9468 102.9 69.3719 103.556 69.6641L108.429 69.1499C108.429 69.1499 109.209 68.4888 108.648 68.0236C108.316 67.7659 108.042 67.4405 107.844 67.0687L108.283 66.5056L107.771 65.4282L110.208 64.8896L110.062 61.4862L108.526 61.6576V58.6704L109.257 55.316L100.875 54.7773" stroke="#616161" stroke-width="2" stroke-linejoin="round"/>
<path d="M69.4678 55.9273C69.4678 55.9273 70.7349 56.9802 70.2719 57.5678C69.7184 58.1714 69.1241 58.7359 68.4932 59.2572L67.9815 67.2883L57.041 69.3205L55.043 60.8732L56.4318 54.3848L69.4678 55.9273Z" fill="white" stroke="#616161" stroke-width="2" stroke-linejoin="round"/>
<path d="M43.5648 50.8086L41.5424 51.2738L41.3231 52.0083L30.2608 51.4452L26.8008 62.6592V75.2199L36.1331 76.8604L40.2753 79.7986L50.0218 84.01L54.8951 72.7715L57.3317 51.7145L43.5648 50.8086Z" fill="white" stroke="#616161" stroke-width="2" stroke-linejoin="round"/>
<path d="M104.531 34.5755C104.531 34.5755 106.797 34.2817 107.284 34.3061C107.771 34.3306 111.402 35.4814 111.402 35.4814L105.286 36.877L100.413 37.685C99.9898 37.5543 99.5748 37.3989 99.1699 37.2198C100.888 36.204 102.68 35.3201 104.531 34.5755Z" fill="white" stroke="#616161" stroke-width="2" stroke-linejoin="round"/>
<path d="M52.6053 59.2324H47.3422L46.9523 60.2118L46.0751 60.726L45.5391 70.2261L53.848 70.373L54.384 61.0198L53.117 60.4077L52.6053 59.2324Z" fill="white" stroke="#616161" stroke-width="2" stroke-linejoin="round"/>
<path d="M89.5703 39.204V39.9875C89.5703 39.9875 90.545 41.2608 91.0567 41.1628C91.5858 40.9303 92.0656 40.5978 92.4699 40.1834L93.9563 39.8896L94.9065 39.1551V38.0288L93.6395 37.5391L89.5703 39.204Z" fill="white" stroke="#616161" stroke-width="2" stroke-linejoin="round"/>
<path d="M76.0703 25.7852L91.1043 30.2904L91.3723 37.0971L87.1326 36.6319L87.2544 35.5791L84.4767 34.5017L83.9163 34.9425L76.1921 32.0533L76.0703 25.7852Z" fill="white" stroke="#616161" stroke-width="2" stroke-linejoin="round"/>
<path d="M78.1672 24.293L75.9742 25.5907L75.7793 27.5984C75.7793 27.5984 77.8748 27.7698 78.2159 28.5533C78.3731 30.7241 78.3241 32.9049 78.0697 35.0663L80.1896 36.1681H81.4079L82.675 36.4129V37.0985L87.3776 38.9104L88.2792 38.5921V39.1552C88.2792 39.1552 93.1525 38.8369 93.5667 38.6411C93.9809 38.4452 93.8103 37.8086 93.8103 37.8086L104.239 36.266L104.263 28.3819L102.68 27.1332L92.9332 28.6513C92.4458 28.6513 91.0569 30.2183 91.0569 30.2183L91.4712 37.0496L87.2071 36.4619L87.4264 35.4825L84.6486 34.3807L83.9907 34.7235L78.5083 32.7892L76.827 26.7414L78.1672 24.293Z" fill="white" stroke="#616161" stroke-width="2" stroke-linejoin="round"/>
<path d="M78.2885 24.4395L92.762 28.6998L90.9589 30.2668L75.998 25.7127L78.2885 24.4395Z" fill="white" stroke="#616161" stroke-width="2" stroke-linejoin="round"/>
<path d="M41.1534 43.2937L40.7148 48.1906L56.7479 55.683L59.0383 36.8542L47.3668 31.2227L41.1534 43.2937Z" fill="white" stroke="#616161" stroke-width="2" stroke-linejoin="round"/>
<path d="M38.6456 19.7617L32.3104 22.8713L30.7266 26.4216L38.7187 38.1743L40.6924 41.039L42.7635 39.0557L44.396 30.8288L44.9808 28.1355L40.9604 21.4267L38.6456 19.7617Z" fill="white" stroke="#616161" stroke-width="2" stroke-linejoin="round"/>
<path d="M58.966 25.4668C58.8441 25.1975 58.3081 25.0995 58.3081 25.0995L55.5059 24.1446C55.2864 24.0598 55.0433 24.0598 54.8237 24.1446C54.5531 24.3252 54.3211 24.5583 54.1414 24.8302L53.4592 25.6872L50.3159 24.414V23.7284C50.4092 23.4756 50.4092 23.1976 50.3159 22.9449C50.1659 22.7197 49.9415 22.5549 49.6824 22.4797L47.0265 21.4023L45.3696 23.3122L44.5898 29.8496L58.8198 36.9257L60.2086 27.6705L58.4786 26.9114L58.6492 26.5686C58.6492 26.5686 59.0878 25.7362 58.966 25.4668Z" fill="white" stroke="#616161" stroke-width="2" stroke-linejoin="round"/>
<path d="M39.3521 18.1484C40.025 18.7382 40.6372 19.3944 41.1796 20.1072C41.3014 20.5235 40.8141 20.9152 40.8141 20.9152L41.6425 21.0376L42.9827 22.8985V23.7555H43.8111C43.8111 23.7555 44.5665 24.8818 44.8589 25.2735C45.1513 25.6653 44.6883 26.3019 44.6883 26.3019H45.6142C45.6142 26.3019 46.5889 27.5751 46.7838 27.9668C46.9787 28.3586 45.8335 29.8277 45.8335 29.8277L44.3715 29.4114L43.8598 27.5996L38.6211 20.5724V19.0054L39.3521 18.1484Z" fill="white" stroke="#616161" stroke-width="2" stroke-linejoin="round"/>
<path d="M28.6797 25.1497V27.3289L37.7683 38.9347L41.472 40.1589L32.0666 25.468L29.8736 24.0234L28.6797 25.1497Z" fill="white" stroke="#616161" stroke-width="2" stroke-linejoin="round"/>
<path d="M33.089 15.7467L35.8424 15.5508L37.3775 16.7505L39.4486 18.3176L31.4565 25.0754L27.6797 24.2184V22.382L33.089 15.7467Z" fill="white" stroke="#616161" stroke-width="2" stroke-linejoin="round"/>
<path d="M30.043 13.6911L32.2116 11.4141L33.5273 13.6177C33.5924 13.8165 33.5924 14.031 33.5273 14.2298C33.3921 14.4756 33.2195 14.6987 33.0157 14.8909L33.3081 15.4296L33.9903 15.9927V16.8497L32.9669 17.927L30.043 13.6911Z" fill="white" stroke="#616161" stroke-width="2" stroke-linejoin="round"/>
<path d="M22.0996 8.32812L19.8579 10.899L18.4203 10.2624L16.1055 12.564L18.1279 14.5228V15.8205L19.2731 15.0859L22.7331 14.6942L24.3656 13.2985L26.2418 15.8939L26.8023 15.3063L22.0996 8.32812Z" fill="white" stroke="#616161" stroke-width="2" stroke-linejoin="round"/>
<path d="M19.15 1.83984C19.4903 2.10839 19.7935 2.42128 20.0516 2.77027L20.9044 3.89657L14.8372 8.30383L13.4727 8.91595V7.5448L19.15 1.83984Z" fill="white" stroke="#616161" stroke-width="2" stroke-linejoin="round"/>
<path d="M9.13691 12.7842L11.1349 11.0947L13.3279 9.03798L14.7655 8.35241L17.5676 6.34465L19.4926 4.53278L22.3922 3.18611L26.1446 2.99023L25.1699 4.0186H24.5851L23.7323 5.04696L22.3434 5.19387L20.0774 6.68744L19.9555 7.37301L18.1768 9.03798V9.62562L17.9331 10.0663L15.8133 12.0986L17.056 13.6901L17.8113 15.6489L13.864 18.0974H5.75L8.55212 14.3512L9.13691 12.7842Z" fill="white" stroke="#616161" stroke-width="2" stroke-linejoin="round"/>
<path d="M3.0451 18.5879H11.3053L9.4778 29.6795H1.14453L3.0451 18.5879Z" fill="white" stroke="#616161" stroke-width="2" stroke-linejoin="round"/>
<path d="M2.92188 18.7359L6.82048 16.5567V15.5284L7.86823 14.4265L8.23372 12.9085L10.6704 10.3131L11.4501 9.99479V9.18679L13.2044 7.74219V9.06437L12.1811 10.1172C12.1811 10.1172 11.7668 10.8028 11.4988 11.1701C10.7247 11.7793 9.91062 12.3356 9.06218 12.835L9.42767 13.3247L8.47739 14.3776L8.59922 14.9407L7.6733 15.8467V16.4098L6.55245 17.7075H13.2044L17.2005 16.2139C17.986 15.8763 18.7509 15.492 19.4909 15.0631L22.22 14.7204L14.1547 18.589H11.4013L2.92188 18.7359Z" fill="white" stroke="#616161" stroke-width="2" stroke-linejoin="round"/>
<path d="M9.50195 29.5803L11.4025 18.7335L14.1803 18.5866L22.4404 14.669C22.8064 14.6447 23.1727 14.71 23.508 14.8592C23.8433 15.0085 24.1375 15.2373 24.3654 15.526C25.2881 16.3468 25.9705 17.405 26.3391 18.5866C26.3477 20.3942 25.8495 22.1677 24.9014 23.7039C23.9268 25.0751 17.421 31.7349 17.421 31.7349L9.50195 29.5803Z" fill="white" stroke="#616161" stroke-width="2" stroke-linejoin="round"/>
<path d="M1.14453 29.6797L6.01779 31.4671V30.9529C6.01779 30.9529 4.26342 30.5856 4.19032 30.3408C4.11722 30.0959 11.2078 30.5611 11.2078 30.5611L17.3237 31.8833L9.42907 29.7042L1.14453 29.6797Z" fill="white" stroke="#616161" stroke-width="2" stroke-linejoin="round"/>
<path d="M6.23687 30.4629L6.01758 32.7645C6.01758 32.7645 12.4746 33.9642 12.6939 33.8418C12.9684 33.1291 13.1724 32.391 13.3031 31.6382L14.0341 31.883L14.2777 31.2464L11.2076 30.5119L6.23687 30.4629Z" fill="white" stroke="#616161" stroke-width="2" stroke-linejoin="round"/>
<path d="M10.7461 33.5235L11.2578 30.4629" stroke="#616161" stroke-width="2" stroke-linejoin="round"/>
<path d="M12.1823 22.5547L14.1316 22.7261L13.6442 26.913L11.5 26.7416L12.1823 22.5547Z" fill="white" stroke="#616161" stroke-width="2" stroke-linejoin="round"/>
<path d="M14.229 18.7852C14.2386 19.8453 14.1406 20.9036 13.9366 21.9437C13.6929 22.262 11.1101 21.7233 11.1101 21.7233L10.4766 25.6899C10.7132 25.8175 10.9142 26.0027 11.0614 26.2285C11.1461 26.5078 11.1461 26.8062 11.0614 27.0855L12.9619 27.3793C12.91 28.4809 12.7797 29.5774 12.5721 30.6603" stroke="#616161" stroke-width="2" stroke-linejoin="round"/>
<path d="M13.888 22.1133L15.0576 22.5295C15.0576 22.5295 14.1316 26.7654 14.0342 27.1327C13.9367 27.4999 13.0352 27.402 13.0352 27.402" stroke="#616161" stroke-width="2" stroke-linejoin="round"/>
<path d="M19.9556 19.7871C19.9748 19.3646 20.1173 18.9571 20.3653 18.6154C20.6133 18.2737 20.9559 18.0129 21.3504 17.8656C21.7449 17.7182 22.1738 17.6907 22.5837 17.7866C22.9936 17.8824 23.3664 18.0974 23.6556 18.4047C23.9448 18.712 24.1376 19.098 24.2099 19.5146C24.2823 19.9312 24.2311 20.36 24.0626 20.7476C23.8941 21.1352 23.6159 21.4643 23.2625 21.6941C22.9092 21.9239 22.4964 22.044 22.0755 22.0397C21.4981 22.0205 20.9516 21.7731 20.5547 21.3513C20.1578 20.9296 19.9425 20.3674 19.9556 19.7871Z" fill="white" stroke="#616161" stroke-width="2" stroke-linejoin="round"/>
<path d="M21.3684 19.8869C21.355 19.6051 21.4522 19.3293 21.639 19.1187C21.8258 18.9081 22.0873 18.7795 22.3674 18.7606C22.5927 18.7358 22.8201 18.7803 23.0197 18.888C23.2193 18.9958 23.3818 19.1619 23.4856 19.3643C23.5894 19.5667 23.6297 19.7959 23.6012 20.0218C23.5727 20.2477 23.4767 20.4596 23.326 20.6296C23.1752 20.7996 22.9767 20.9197 22.7566 20.974C22.5366 21.0283 22.3053 21.0143 22.0933 20.9339C21.8813 20.8535 21.6986 20.7104 21.5692 20.5234C21.4397 20.3365 21.3698 20.1146 21.3684 19.8869Z" fill="white" stroke="#616161" stroke-width="2" stroke-linejoin="round"/>
<path d="M21.9278 8.59766L21.1968 9.20978H20.807L19.6618 10.3361L18.6384 9.89535H17.5906C17.5906 9.89535 15.154 10.9237 15.154 11.5358C15.154 12.148 15.0078 12.6132 15.0078 12.6132H16.0799L18.5166 10.3361L19.7592 11.0461L21.9278 8.59766Z" fill="white" stroke="#616161" stroke-width="2" stroke-linejoin="round"/>
<path d="M14.9355 12.5401L16.1539 13.7399C16.3137 13.6679 16.4944 13.6581 16.6609 13.7124C16.8275 13.7667 16.9681 13.8812 17.0554 14.0337C17.3384 14.5162 17.4897 15.0652 17.494 15.6252L16.2757 16.5801L18.225 15.7966V14.5234L16.0808 12.5156L14.9355 12.5401Z" fill="white" stroke="#616161" stroke-width="2" stroke-linejoin="round"/>
<path d="M22.6591 12.8579C22.6399 12.8082 22.6311 12.755 22.6331 12.7018C22.6351 12.6485 22.6479 12.5962 22.6707 12.548C22.6935 12.4999 22.7258 12.4569 22.7657 12.4218C22.8057 12.3867 22.8523 12.3601 22.9028 12.3437C22.9847 12.3066 23.0759 12.2956 23.1642 12.3123C23.2525 12.329 23.3336 12.3725 23.3965 12.437C23.4593 12.5015 23.501 12.5838 23.5158 12.6729C23.5306 12.7619 23.5178 12.8534 23.4792 12.9349C23.4405 13.0164 23.3779 13.084 23.2998 13.1286C23.2217 13.1732 23.1318 13.1926 23.0424 13.1842C22.9529 13.1758 22.8682 13.14 22.7996 13.0817C22.7311 13.0233 22.682 12.9452 22.6591 12.8579Z" fill="white" stroke="#616161" stroke-width="2" stroke-linejoin="round"/>
<path d="M6.69922 8.03524V8.54942H6.91852L7.30838 8.79427V9.11257H11.7187L13.4974 7.66797H6.74795L6.69922 8.03524Z" fill="white" stroke="#616161" stroke-width="2" stroke-linejoin="round"/>
<path d="M6.72461 7.44819L13.0598 1.71875H19.1027L13.4741 7.54613L6.72461 7.44819Z" fill="white" stroke="#616161" stroke-width="2" stroke-linejoin="round"/>
<path d="M8.89265 14.474H9.67237L12.109 12.0255L12.8644 12.2459L11.2318 14.425H12.84L14.8868 11.9766V12.5397L15.3741 13.2253L13.7172 15.1351L8.84391 15.282L8.42969 14.6209" stroke="#616161" stroke-width="2" stroke-linejoin="round"/>
<path d="M13.0848 10.2617H15.2778V11.2411L13.7183 11.4615L13.0117 10.629L13.0848 10.2617Z" stroke="#616161" stroke-width="2" stroke-linejoin="round"/>
<path d="M13.571 9.16016L12.9375 10.213H15.3741L16.5681 9.20913L13.571 9.16016Z" stroke="#616161" stroke-width="2" stroke-linejoin="round"/>
<path d="M24.3652 24.6859L25.1937 26.008C25.1937 26.008 25.9734 26.008 26.1927 25.8366C26.412 25.6652 24.9988 23.9023 24.9988 23.9023L24.3652 24.6859Z" fill="white" stroke="#616161" stroke-width="2" stroke-linejoin="round"/>
<path d="M24.9507 23.8513L26.1447 25.5897L28.5813 23.1412L28.4595 22.8474L30.6768 21.158L33.1135 18.7095C33.186 18.4868 33.186 18.2466 33.1135 18.0239C32.8454 17.7791 29.9946 13.6901 29.9946 13.6901L34.3074 9.28283V8.54829L34.6242 8.22998L32.1875 4.67969L28.4839 7.96065L22.2461 8.10756L25.3893 12.7107L27.2899 15.1592L26.632 15.7958L27.2412 16.6283L25.9985 17.6321L26.4127 19.0033L26.0229 21.0355L25.8036 22.3087L24.9507 23.8513Z" fill="white" stroke="#616161" stroke-width="2" stroke-linejoin="round"/>
<path d="M29.6765 9.84613L29.043 11.2418L30.1395 12.5884L31.4796 12.4415L32.1131 11.0214L31.2847 9.69922L29.6765 9.84613Z" fill="white" stroke="#616161" stroke-width="2" stroke-linejoin="round"/>
<path d="M32.2849 7.61956L31.6758 8.99071L32.7723 10.3619L34.1124 10.1905L34.7216 8.79484L33.8931 7.47266L32.2849 7.61956Z" fill="white" stroke="#616161" stroke-width="2" stroke-linejoin="round"/>
<path d="M30.2148 6.49281L30.6291 7.03147L31.9936 6.86008L32.6271 5.46445L32.0667 4.92578" fill="white"/>
<path d="M30.2148 6.49281L30.6291 7.03147L31.9936 6.86008L32.6271 5.46445L32.0667 4.92578" stroke="#616161" stroke-width="2" stroke-linejoin="round"/>
<path d="M26.8013 8.23047L24.8763 9.23435C24.7244 9.64913 24.6581 10.0907 24.6814 10.532C24.8032 10.8748 26.4601 13.4212 26.4601 13.4212L27.4835 14.9393L26.8013 15.1597L22.0742 8.30392L26.8013 8.23047Z" fill="white" stroke="#616161" stroke-width="2" stroke-linejoin="round"/>
<path d="M24.3653 13.3984L22.9277 14.7206C23.4543 14.8312 23.9471 15.0662 24.3653 15.4062C24.967 16.0824 25.5284 16.7937 26.0466 17.5364L27.3624 16.5325L26.7289 15.7L26.3146 15.9938L24.3653 13.3984Z" fill="white" stroke="#616161" stroke-width="2" stroke-linejoin="round"/>
<path d="M21.125 7.44725L25.1942 3.89696L28.7029 0.420114C30.8891 0.20623 33.0876 0.148955 35.2818 0.24872C35.16 0.542538 27.9719 6.95756 27.9719 6.95756L21.125 7.44725Z" fill="white" stroke="#616161" stroke-width="2" stroke-linejoin="round"/>
<path d="M21.125 7.56977L21.9291 8.59813L22.4164 8.1574L28.5811 7.91255L35.891 1.27717L35.6473 0.322266L27.9719 7.0311L21.125 7.56977Z" fill="white" stroke="#616161" stroke-width="2" stroke-linejoin="round"/>
<path d="M27.9473 7.03125L28.4346 7.83925" stroke="#616161" stroke-width="2" stroke-linejoin="round"/>
<path d="M18.6875 9.55211L20.783 7.74023L21.7089 8.57272L21.1729 9.20932L20.7586 9.06241L19.7596 10.1642L18.6875 9.77247V9.55211Z" fill="white" stroke="#616161" stroke-width="2" stroke-linejoin="round"/>
<path d="M23.7812 5.07227L22.2949 5.21917L20.0776 6.73723V7.42281L18.2988 9.08777V9.65092H18.7862V9.40608L20.7111 7.76559L21.2959 7.98596V7.42281L23.7812 5.07227Z" fill="white" stroke="#616161" stroke-width="2" stroke-linejoin="round"/>
<path d="M34.1113 18.9787L35.8413 21.0599C36.5919 21.165 37.35 21.206 38.1074 21.1823C38.2259 21.0332 38.3563 20.894 38.4973 20.7661L38.6678 18.3176L36.8404 16.5547L34.1113 18.9787Z" fill="white" stroke="#616161" stroke-width="2" stroke-linejoin="round"/>
<path d="M27.4609 24.3423L29.5564 24.9055C29.9309 25.2502 30.3699 25.5165 30.8478 25.689C31.4326 25.689 32.188 25.9093 32.188 25.9093L33.2357 25.0768L33.3819 23.6812L34.8196 22.8242L35.4774 21.6735L34.6734 20.4492L32.651 21.5755L31.6763 21.0369L28.6549 23.3629L27.4609 24.3423Z" fill="white" stroke="#616161" stroke-width="2" stroke-linejoin="round"/>
<path d="M31.6759 21.0352L28.752 23.3367L29.6779 24.0958L32.48 21.6473L31.6759 21.0352Z" fill="white" stroke="#616161" stroke-width="2" stroke-linejoin="round"/>
<path d="M31.3344 24.2431C31.3149 24.1371 31.3189 24.0281 31.346 23.9238C31.3731 23.8196 31.4227 23.7226 31.4913 23.6397C31.5599 23.5569 31.6458 23.4902 31.743 23.4445C31.8401 23.3987 31.946 23.375 32.0533 23.375C32.1605 23.375 32.2664 23.3987 32.3636 23.4445C32.4607 23.4902 32.5466 23.5569 32.6152 23.6397C32.6838 23.7226 32.7334 23.8196 32.7605 23.9238C32.7876 24.0281 32.7916 24.1371 32.7721 24.2431C32.7916 24.3491 32.7876 24.4581 32.7605 24.5623C32.7334 24.6666 32.6838 24.7636 32.6152 24.8465C32.5466 24.9293 32.4607 24.996 32.3636 25.0417C32.2664 25.0875 32.1605 25.1112 32.0533 25.1112C31.946 25.1112 31.8401 25.0875 31.743 25.0417C31.6458 24.996 31.5599 24.9293 31.4913 24.8465C31.4227 24.7636 31.3731 24.6666 31.346 24.5623C31.3189 24.4581 31.3149 24.3491 31.3344 24.2431Z" fill="white" stroke="#616161" stroke-width="2" stroke-linejoin="round"/>
<path d="M36.5488 19.6905C36.5536 19.5464 36.6005 19.4069 36.6837 19.2893C36.7669 19.1718 36.8826 19.0815 37.0166 19.0296C37.1505 18.9777 37.2966 18.9666 37.4368 18.9977C37.5769 19.0287 37.7049 19.1006 37.8047 19.2042C37.9045 19.3078 37.9717 19.4387 37.998 19.5805C38.0243 19.7223 38.0085 19.8687 37.9525 20.0015C37.8965 20.1343 37.8029 20.2476 37.6833 20.3273C37.5637 20.4069 37.4233 20.4495 37.2798 20.4496C37.0837 20.4432 36.8978 20.3604 36.7614 20.2188C36.625 20.0771 36.5487 19.8877 36.5488 19.6905Z" fill="white" stroke="#616161" stroke-width="2" stroke-linejoin="round"/>
<path d="M25.3164 26.1288C25.3164 26.1288 25.9743 27.451 26.2423 27.3775L26.9002 27.2551L26.3642 27.9162C26.3642 27.9162 27.7287 29.6056 28.0211 29.826C28.1165 29.8844 28.2261 29.9153 28.3378 29.9153C28.4496 29.9153 28.5591 29.8844 28.6546 29.826L28.216 30.4136L30.1409 32.6417L30.6283 32.4704L30.4333 33.2294L32.0902 35.1637H33.0405L26.4129 25.4922L25.9499 26.0309L25.3164 26.1288Z" fill="white" stroke="#616161" stroke-width="2" stroke-linejoin="round"/>
<path d="M33.0645 35.1895L36.8656 42.7308C38.8584 42.7134 40.8462 42.9354 42.7866 43.3919C42.3832 42.3573 41.9278 41.3439 41.4221 40.3557L37.9864 39.2784C36.9229 38.9153 35.9266 38.3775 35.0381 37.6869C34.233 36.9835 33.5639 36.1368 33.0645 35.1895Z" fill="white" stroke="#616161" stroke-width="2" stroke-linejoin="round"/>
<path d="M26.4375 25.4177L27.3878 24.5117L29.3371 24.879L29.1909 26.1032L28.8498 26.8133L30.7747 28.9924C30.7747 28.9924 30.3117 29.2618 30.531 29.4576C30.7471 29.6008 31.0037 29.6696 31.262 29.6535L32.7727 31.7837C32.7727 31.7837 32.1879 31.7837 32.3829 32.151C32.5778 32.5182 33.2357 32.3469 33.2357 32.3469L34.722 34.4036C34.722 34.4036 34.1616 34.7219 34.4053 34.9422C34.6624 35.0678 34.9493 35.1187 35.2337 35.0892L36.7201 37.1459L38.2064 36.8276C38.2064 36.8276 39.8146 39.3985 40.0826 39.8637C40.3506 40.3289 37.9628 39.4474 36.2815 38.5905C35.6752 38.2324 35.1182 37.7961 34.6246 37.2928L33.5281 35.8237L26.4619 25.3687" fill="white"/>
<path d="M26.4375 25.4177L27.3878 24.5117L29.3371 24.879L29.1909 26.1032L28.8498 26.8133L30.7747 28.9924C30.7747 28.9924 30.3117 29.2618 30.531 29.4576C30.7471 29.6008 31.0037 29.6696 31.262 29.6535L32.7727 31.7837C32.7727 31.7837 32.1879 31.7837 32.3829 32.151C32.5778 32.5182 33.2357 32.3469 33.2357 32.3469L34.722 34.4036C34.722 34.4036 34.1616 34.7219 34.4053 34.9422C34.6624 35.0678 34.9493 35.1187 35.2337 35.0892L36.7201 37.1459L38.2064 36.8276C38.2064 36.8276 39.8146 39.3985 40.0826 39.8637C40.3506 40.3289 37.9628 39.4474 36.2815 38.5905C35.6752 38.2324 35.1182 37.7961 34.6246 37.2928L33.5281 35.8237L26.4619 25.3687" stroke="#616161" stroke-width="2" stroke-linejoin="round"/>
<path d="M58.6733 36.8047L83.4294 38.4452L81.2608 56.1477L56.8945 55.7804L58.6733 36.8047Z" fill="white" stroke="#616161" stroke-width="2" stroke-linejoin="round"/>
<path d="M60.6471 38.1758L82.5768 39.4245L80.4082 55.1682L58.4785 54.6785L60.6471 38.1758Z" fill="white" stroke="#616161" stroke-width="2" stroke-linejoin="round"/>
<path d="M80.8468 39.5469L78.4102 54.2378L80.2376 55.2171L82.455 39.6938L80.8468 39.5469Z" fill="white" stroke="#616161" stroke-width="2" stroke-linejoin="round"/>
<path d="M78.337 54.1403L70.3205 48.8516H59.112L58.4785 54.6545L80.4082 55.2176L78.337 54.1403Z" fill="white" stroke="#616161" stroke-width="2" stroke-linejoin="round"/>
<path d="M66.8121 38.7148L64.9603 40.2574L63.6445 52.3284L65.1309 54.3117L66.1299 54.6789H70.0772L72.5139 52.6712L74.1464 40.6247L73.1717 39.7187L72.5139 39.1066L66.8121 38.7148Z" fill="white" stroke="#616161" stroke-width="2" stroke-linejoin="round"/>
<path d="M68.0304 38.8359L65.9349 40.6233L64.6191 52.6943L66.1298 54.6776L71.0031 54.9225L73.4397 52.9147L74.9504 40.8682L73.2935 39.1542L68.0304 38.8359Z" fill="white" stroke="#616161" stroke-width="2" stroke-linejoin="round"/>
<path d="M49.293 23.1421L55.8719 21.9668L78.1183 28.3818L63.4985 29.1164L49.3173 24.6846L49.293 23.1421Z" fill="white" stroke="#616161" stroke-width="2" stroke-linejoin="round"/>
<path d="M66.8114 33.0352L66.2754 37.0752L75.0472 37.7362L75.3396 33.6718L66.8114 33.0352Z" fill="white" stroke="#616161" stroke-width="2" stroke-linejoin="round"/>
<path d="M47.0742 21.4023L55.3831 21.8431C56.8362 22.1533 58.2443 22.6469 59.5741 23.3122C59.7934 23.7774 59.233 23.8019 59.233 23.8019L54.1892 23.9977L50.4368 23.6549L50.1687 22.8959L47.0742 21.4023Z" fill="white" stroke="#616161" stroke-width="2" stroke-linejoin="round"/>
<path d="M66.7627 29.7031L66.2754 32.8372L71.3679 33.1555L71.7822 29.85L66.7627 29.7031Z" fill="white" stroke="#616161" stroke-width="2" stroke-linejoin="round"/>
<path d="M71.7819 30.2188L71.6113 32.4469L75.5099 32.6183L75.7536 30.4881L71.7819 30.2188Z" fill="white" stroke="#616161" stroke-width="2" stroke-linejoin="round"/>
<path d="M78.2385 28.3824C76.8518 28.0438 75.4168 27.9527 73.9988 28.1131L62.0349 27.8438L60.9141 37.0011L77.6781 38.1519C77.6781 38.1519 78.3603 34.2588 78.5309 31.9572C78.7014 29.6556 79.0182 29.0435 78.2385 28.3824Z" fill="white" stroke="#616161" stroke-width="2" stroke-linejoin="round"/>
<path d="M62.0599 27.9657C62.0599 27.9657 60.4274 27.2556 60.2812 27.476C60.135 27.6964 58.7461 36.7068 58.7461 36.7068H60.9878L62.0599 27.9657Z" fill="white" stroke="#616161" stroke-width="2" stroke-linejoin="round"/>
<path d="M61.7918 23.4844L55.2129 23.8761L58.8435 25.1493L67.7372 25.4921L61.7918 23.4844Z" fill="white" stroke="#616161" stroke-width="2" stroke-linejoin="round"/>
<path d="M67.6649 25.541L58.9418 25.2227C58.9836 25.4821 58.9836 25.7467 58.9418 26.0062C58.8607 26.2376 58.7545 26.4593 58.625 26.6673C58.625 26.8631 67.8598 27.0345 67.8598 27.0345L67.6649 25.541Z" fill="white" stroke="#616161" stroke-width="2" stroke-linejoin="round"/>
<path d="M77.9727 24.268L87.4755 23.1172L102.656 27.2551L92.7386 28.7732L77.9727 24.268Z" fill="white" stroke="#616161" stroke-width="2" stroke-linejoin="round"/>
<path d="M111.476 35.5547C111.554 35.8925 111.603 36.2366 111.622 36.583C111.442 36.9705 111.213 37.3327 110.94 37.6604L110.038 37.7828L109.648 37.3666L100.535 39.0315L100.023 39.7416V38.4684L100.511 37.6604L111.476 35.5547Z" fill="white" stroke="#616161" stroke-width="2" stroke-linejoin="round"/>
<path d="M94.8828 37.8822L95.1752 39.4003L96.0768 40.1103H97.1732L98.489 38.8371L97.4656 40.5511V41.5794L98.0504 42.0936V44.1993L98.8789 44.9583L97.7824 46.354L97.5144 47.7251L98.4647 48.8024L99.9023 48.4352V38.4943L100.365 37.7598L99.9023 37.5149L99.2931 37.0742L94.8828 37.8822Z" fill="white" stroke="#616161" stroke-width="2" stroke-linejoin="round"/>
<path d="M38.0365 48.9005H36.9644L36.2577 48.166L34.1135 47.9701L33.6262 48.6801H31.1896L30.3367 47.8477H28.1438V48.5822L26.9498 49.2923L26.1701 49.4881L25.7071 51.7652L26.2432 52.3529L25.5122 52.6956L25.2929 54.7279L25.6828 55.4624H25.0005L24.4888 57.5681L25.1711 58.2047L24.2695 58.6944V60.9225L24.7569 61.3877L24.8787 65.3053L24.7081 68.0231L30.4586 74.7809L30.8972 73.067L28.4605 69.5902C28.4605 69.5902 28.7529 67.6559 28.9235 66.7499C29.0941 65.844 28.1681 65.5012 28.1681 65.5012L29.2403 61.7061C29.2403 61.7061 29.9956 56.0501 29.9469 55.8787C30.0794 54.8386 30.5406 53.8688 31.2627 53.1119C31.8564 52.7999 32.5176 52.6401 33.1876 52.6467L38.4751 52.7691L38.7918 52.1325L41.0335 52.2794L37.9877 48.876" fill="white"/>
<path d="M38.0365 48.9005H36.9644L36.2577 48.166L34.1135 47.9701L33.6262 48.6801H31.1896L30.3367 47.8477H28.1438V48.5822L26.9498 49.2923L26.1701 49.4881L25.7071 51.7652L26.2432 52.3529L25.5122 52.6956L25.2929 54.7279L25.6828 55.4624H25.0005L24.4888 57.5681L25.1711 58.2047L24.2695 58.6944V60.9225L24.7569 61.3877L24.8787 65.3053L24.7081 68.0231L30.4586 74.7809L30.8972 73.067L28.4605 69.5902C28.4605 69.5902 28.7529 67.6559 28.9235 66.7499C29.0941 65.844 28.1681 65.5012 28.1681 65.5012L29.2403 61.7061C29.2403 61.7061 29.9956 56.0501 29.9469 55.8787C30.0794 54.8386 30.5406 53.8688 31.2627 53.1119C31.8564 52.7999 32.5176 52.6401 33.1876 52.6467L38.4751 52.7691L38.7918 52.1325L41.0335 52.2794L37.9877 48.876" stroke="#616161" stroke-width="2" stroke-linejoin="round"/>
<path d="M47.7081 70.1282C47.1721 70.4567 46.7409 70.9325 46.4654 71.4993C46.0845 72.3855 45.9336 73.3543 46.0268 74.3151C46.173 75.1475 47.9761 79.6038 48.0736 79.9955C48.171 80.3873 50.8513 85.8474 50.8513 85.8474L59.014 78.502L58.1125 76.7391C58.1125 76.7391 55.3591 72.3808 54.9692 71.8421C54.6105 71.3899 54.2196 70.9644 53.7996 70.5689C53.7996 70.5689 51.2168 69.0019 50.8757 69.1733C50.5346 69.3447 50.2909 69.1733 49.7061 69.3446C49.1758 69.492 48.655 69.6719 48.1467 69.8833L47.7081 70.1282Z" fill="white" stroke="#616161" stroke-width="2" stroke-linejoin="round"/>
<path d="M24.4883 61.1908L25.2193 61.7294L27.8752 49.487L30.6286 49.2422L33.918 52.6456" stroke="#616161" stroke-width="2" stroke-linejoin="round"/>
<path d="M38.6682 49.5371H39.1068L43.9801 54.1892L41.9577 54.581L38.717 57.7885L38.3027 57.3233L40.0815 55.4624L41.5434 54.1158L41.9577 53.7975L40.8856 52.1815L38.6682 49.5371Z" fill="white" stroke="#616161" stroke-width="2" stroke-linejoin="round"/>
<path d="M30.4324 75.0979C30.4095 72.4542 30.5642 69.812 30.8954 67.1893C31.2853 66.5771 32.2599 64.0797 34.1117 63.8348C34.8587 63.7102 35.6229 63.737 36.3594 63.9136C37.0959 64.0902 37.7898 64.4131 38.4002 64.8632C38.6195 65.4019 34.4772 64.3735 34.4772 64.3735L31.8213 67.0179L31.6751 77.1546L30.9685 78.134L32.065 81.2435C32.065 81.2435 32.5523 86.6302 32.6741 87.1933C33.0064 88.4573 33.6328 89.6238 34.5016 90.5967C33.7526 90.2334 33.1629 89.6059 32.8447 88.8338C32.1417 87.5392 31.6715 86.1302 31.4558 84.6714C31.1634 83.3492 31.2853 81.9046 31.1634 81.6353C30.8223 80.9008 25.681 74.9509 25.681 74.9509C25.453 75.4056 25.4009 75.929 25.5348 76.42C25.681 77.4484 26.0221 78.8685 26.0221 78.8685L24.3652 74.5102V68.0952" fill="white"/>
<path d="M30.4324 75.0979C30.4095 72.4542 30.5642 69.812 30.8954 67.1893C31.2853 66.5771 32.2599 64.0797 34.1117 63.8348C34.8587 63.7102 35.6229 63.737 36.3594 63.9136C37.0959 64.0902 37.7898 64.4131 38.4002 64.8632C38.6195 65.4019 34.4772 64.3735 34.4772 64.3735L31.8213 67.0179L31.6751 77.1546L30.9685 78.134L32.065 81.2435C32.065 81.2435 32.5523 86.6302 32.6741 87.1933C33.0064 88.4573 33.6328 89.6238 34.5016 90.5967C33.7526 90.2334 33.1629 89.6059 32.8447 88.8338C32.1417 87.5392 31.6715 86.1302 31.4558 84.6714C31.1634 83.3492 31.2853 81.9046 31.1634 81.6353C30.8223 80.9008 25.681 74.9509 25.681 74.9509C25.453 75.4056 25.4009 75.929 25.5348 76.42C25.681 77.4484 26.0221 78.8685 26.0221 78.8685L24.3652 74.5102V68.0952" stroke="#616161" stroke-width="2" stroke-linejoin="round"/>
<path d="M31.0893 78.1589L34.1107 77.3509L34.2569 75.9062L36.2306 75.3186L36.7179 76.9346L38.8134 76.298L38.4235 65.1085C37.3988 64.467 36.1858 64.199 34.9879 64.3494C34.2704 64.3803 33.5797 64.6316 33.0088 65.0694C32.438 65.5073 32.0147 66.1106 31.7959 66.7979C30.7725 68.6587 31.0893 78.1589 31.0893 78.1589Z" fill="white" stroke="#616161" stroke-width="2" stroke-linejoin="round"/>
<path d="M53.6055 88.9567L56.0421 87.1448L56.5294 87.8304L59.7945 84.9901L59.2828 84.4759L61.7194 82.6641C61.7194 82.6641 64.6921 87.7569 64.9845 88.467C65.5451 89.6044 65.9704 90.8043 66.2516 92.0417C66.2148 93.751 65.7809 95.4279 64.9845 96.9387C63.8346 97.684 62.5219 98.1377 61.159 98.2609C60.1312 97.7089 59.2207 96.9603 58.4787 96.0573C57.085 94.3611 55.7992 92.5784 54.6289 90.7196L53.6055 88.9567Z" fill="white" stroke="#616161" stroke-width="2" stroke-linejoin="round"/>
<path d="M19.6387 87.8555L17.6894 89.9612L18.1036 90.6957L14.7654 94.8336L14.1562 97.527L17.2751 101.836L23.0499 105.215L25.0967 104.677L24.9749 103.942L28.4105 100.808H29.7994L30.7497 98.7512L29.9943 95.1274L19.3219 87.9779" fill="white"/>
<path d="M19.6387 87.8555L17.6894 89.9612L18.1036 90.6957L14.7654 94.8336L14.1562 97.527L17.2751 101.836L23.0499 105.215L25.0967 104.677L24.9749 103.942L28.4105 100.808H29.7994L30.7497 98.7512L29.9943 95.1274L19.3219 87.9779" stroke="#616161" stroke-width="2" stroke-linejoin="round"/>
<path d="M18.468 99.8514L19.2477 100.782L17.5664 101.835L23.0732 105.238L24.9494 104.553L19.7837 99.2148L18.468 99.8514Z" fill="white" stroke="#616161" stroke-width="2" stroke-linejoin="round"/>
<path d="M26.4863 99.2408L28.923 100.734C29.271 100.787 29.6268 100.736 29.9463 100.587C30.2389 100.347 30.4654 100.035 30.6042 99.6815C30.752 99.3993 30.8743 99.1043 30.9697 98.8001C30.9966 98.5616 30.9452 98.3209 30.8235 98.1145L29.6783 97.3555L28.0458 97.6248L26.4863 99.2408Z" fill="white" stroke="#616161" stroke-width="2" stroke-linejoin="round"/>
<path d="M23.5612 94.4907L23.8293 95.1763L22.6597 96.376L21.3683 96.1801L18.9316 99.1673L21.9287 102.424L23.3907 101.126L24.2191 101.42L24.9501 100.661L24.3653 100.098L25.3156 99.0204L26.4608 99.2163L28.2396 97.5268L26.5827 93.6582H23.6831L23.5612 94.4907Z" fill="white" stroke="#616161" stroke-width="2" stroke-linejoin="round"/>
<path d="M25.706 74.9023L25.5842 77.3508L25.9497 78.9178L24.8776 80.1911L25.2674 80.8522L24.7801 81.3418L24.2197 80.9256L22.8308 82.6151L23.2694 83.3496L22.5871 83.9617L22.3191 83.472L20.7353 85.1615L21.3201 85.6757L20.6378 86.2388L20.248 85.8471L18.7129 87.61L19.1759 88.1976L18.8835 89.6667L22.8064 94.5636L24.9507 94.2943L26.3152 95.3471V96.1062L27.3386 96.7183L28.1183 97.6977C28.1183 97.6977 29.3366 97.1835 29.7264 97.4284C30.1181 97.6894 30.4925 97.9757 30.8473 98.2853L31.5783 98.5302L33.0159 96.8652L32.4067 96.3021L32.9184 95.8613L33.552 96.1796L34.7703 94.4902L34.2586 93.9025L34.7703 93.3394L35.5013 93.7556L36.6952 92.36V91.4051L34.7703 90.9154L33.1621 89.2994L32.3093 86.8509L31.3346 84.4024L31.0666 80.6563L25.706 74.9023Z" fill="white" stroke="#616161" stroke-width="2" stroke-linejoin="round"/>
<path d="M28.7997 78.7461L19.8086 89.4215L22.8544 93.0452L24.4869 91.1599L24.1702 90.5723L24.3895 90.2784L24.7306 90.7926L26.5337 88.9318L25.9976 88.0748H26.29L26.7286 88.589L28.6048 86.4833L27.9957 85.7732L28.2393 85.6508L28.8729 86.0915L30.3348 83.9858L29.9693 83.3737L30.3592 83.1289L30.7003 83.7165L31.1633 83.5206C31.1633 83.5206 31.1633 81.0721 30.5054 80.5825C29.8475 80.0928 28.7997 78.7461 28.7997 78.7461Z" fill="white" stroke="#616161" stroke-width="2" stroke-linejoin="round"/>
<path d="M43.6386 101.592L42.2254 104.285L42.8833 104.922L40.6172 110.161L40.7634 113.075L45.3686 116.283L52.5567 117.801L54.5547 116.576L54.2136 115.891L56.8939 111.631L58.3315 111.092L58.7213 108.643L56.7964 105.24L43.3462 101.837" fill="white"/>
<path d="M43.6386 101.592L42.2254 104.285L42.8833 104.922L40.6172 110.161L40.7634 113.075L45.3686 116.283L52.5567 117.801L54.5547 116.576L54.2136 115.891L56.8939 111.631L58.3315 111.092L58.7213 108.643L56.7964 105.24L43.3462 101.837" stroke="#616161" stroke-width="2" stroke-linejoin="round"/>
<path d="M46.0774 114.077L47.1982 114.738L45.6875 116.256L52.5588 117.872L54.3619 116.55L47.2957 113L46.0774 114.077Z" fill="white" stroke="#616161" stroke-width="2" stroke-linejoin="round"/>
<path d="M54.3848 110.822L57.3087 111.556C57.6988 111.502 58.0637 111.331 58.3565 111.067C58.5956 110.737 58.739 110.347 58.7707 109.94C58.844 109.619 58.8848 109.291 58.8925 108.961C58.8484 108.711 58.7294 108.48 58.5514 108.3L57.0894 107.908L55.4325 108.716L54.3848 110.822Z" fill="white" stroke="#616161" stroke-width="2" stroke-linejoin="round"/>
<path d="M49.8768 107.077L50.3397 107.664L49.4869 109.256L48.0493 109.476L46.2949 113.296L50.4128 115.5L51.5824 113.737H52.5814L53.1175 112.757L52.2647 112.39L52.9469 110.994L54.214 110.823L55.5785 108.546L52.6302 105.191L49.6087 106.244L49.8768 107.077Z" fill="white" stroke="#616161" stroke-width="2" stroke-linejoin="round"/>
<path d="M46.1239 86.6562L46.733 89.1047L47.5859 90.5738L46.8305 92.1898L47.464 92.7285L47.0742 93.3896L46.3675 93.1447L45.4173 95.2994L46.1239 95.9115L45.5878 96.744L45.1492 96.3522L43.9797 98.5559L44.7594 98.8742L44.1989 99.6577L43.6629 99.3883L42.5664 101.665L43.2243 102.131L43.3949 103.673L49.0478 107.321L51.2652 106.342L53.0195 106.954L53.2145 107.713L54.5059 108.007L55.6267 108.717C55.6267 108.717 56.7719 107.811 57.2593 107.934C57.7466 108.056 58.7213 108.423 58.7213 108.423H59.5497L60.5731 106.293L59.7446 105.926L60.1589 105.338H60.9386L61.6939 103.232L60.9142 102.865L61.2797 102.155L62.2056 102.327L63.4727 100.123C63.4727 100.123 62.8148 99.2904 62.498 99.4863L62.961 98.8252L63.8138 99.07L64.7154 97.3071C64.0274 97.735 63.2679 98.0337 62.4737 98.1886C61.2553 98.4334 61.3528 98.5803 60.037 98.1886C59.1253 97.733 58.3005 97.1197 57.6004 96.3767L55.31 94.0507L53.2632 90.5493L46.1239 86.6562Z" fill="white" stroke="#616161" stroke-width="2" stroke-linejoin="round"/>
<path d="M50.5834 89.4219L44.2969 103.109L48.7315 105.778L49.8768 103.329L49.3651 102.84L49.4869 102.497L50.023 102.864L51.3387 100.416L50.5103 99.73L50.827 99.5831L51.4362 99.9748L52.8007 97.2325L51.9235 96.7183L52.1428 96.5225L52.9469 96.7428L53.8728 94.1474L53.3124 93.6577L53.6048 93.266L54.1409 93.7802L54.5794 93.4129C54.5794 93.4129 53.751 90.9644 52.9956 90.6706C52.2403 90.3768 50.5834 89.4219 50.5834 89.4219Z" fill="white" stroke="#616161" stroke-width="2" stroke-linejoin="round"/>
<path d="M31.9434 81.1464L39.3994 78.8203L41.1782 81.0239C41.2173 83.2643 41.0378 85.5031 40.6421 87.7083C39.5872 89.2229 38.1826 90.458 36.5486 91.3076C35.9286 91.2342 35.3314 91.0279 34.7976 90.7026C34.2637 90.3774 33.8055 89.9407 33.4541 89.4222C32.9531 88.5398 32.5526 87.6035 32.2601 86.631L31.9434 81.1464Z" fill="white" stroke="#616161" stroke-width="2" stroke-linejoin="round"/>
<path d="M30.9941 78.3806L31.9201 81.2209L39.2299 78.7724L35.3801 78.2582L36.3791 77.5482L36.6959 76.9115L36.0867 75.418L34.1374 75.8587V77.1319L30.9941 78.3806Z" fill="white" stroke="#616161" stroke-width="2" stroke-linejoin="round"/>
<path d="M39.5703 78.5026C40.5633 80.2316 41.7048 81.8701 42.9816 83.3995C43.5552 83.7483 44.101 84.1412 44.6141 84.5748V86.1908L47.4406 91.0877L47.6355 90.5001L46.8071 89.0065L46.1736 86.7295L52.4844 89.1779C53.9856 91.5099 55.6125 93.7577 57.3577 95.9112C57.9912 96.4254 59.0146 97.4538 59.9162 98.0659C60.3244 98.2666 60.7593 98.4068 61.2076 98.4822C60.3815 98.2328 59.6451 97.748 59.0877 97.0865C58.7222 96.6703 58.3323 96.0337 57.9425 95.5929C56.7773 94.1179 55.7032 92.5724 54.7261 90.9653C54.3606 90.3777 53.6053 88.9576 53.6053 88.9576L51.3149 86.8519V85.1134C49.9 82.6906 48.6228 80.1891 47.4894 77.6211C47.168 76.8962 46.8913 76.1521 46.6609 75.393C46.5008 74.7365 46.4352 74.0604 46.466 73.3852C46.457 72.4355 46.8051 71.5174 47.4406 70.8143C47.9323 70.3828 48.4625 69.9975 49.0244 69.6635C49.7992 69.3564 50.6475 69.2882 51.4611 69.4677C51.9822 69.5994 52.4948 69.7629 52.9961 69.9574C53.379 70.1045 53.7274 70.3295 54.0195 70.6184C53.419 69.8847 52.6052 69.3581 51.6921 69.1122C50.7789 68.8663 49.8121 68.9136 48.927 69.2473C48.0759 69.5497 47.3251 70.0837 46.7584 70.7898C46.4923 71.1091 46.2859 71.4741 46.1492 71.8672C46.0494 72.2135 45.9681 72.565 45.9055 72.92C45.7047 74.0215 45.7716 75.1555 46.1005 76.2255C46.9948 78.7644 48.1034 81.2218 49.4143 83.5709H49.0975L43.4689 81.9304L39.5703 78.5026Z" fill="white" stroke="#616161" stroke-width="2" stroke-linejoin="round"/>
<path d="M44.6134 57.9841L40.0569 57.3965V58.4004L39.4477 59.2084L39.1797 76.3477C39.3131 76.6463 39.5048 76.915 39.7433 77.1379C39.9819 77.3608 40.2625 77.5334 40.5686 77.6454C41.6163 78.0127 45.2469 78.8696 45.2469 78.8696C45.2469 78.8696 43.7605 77.6699 43.6874 76.764C43.6144 75.858 43.8824 72.8219 43.8824 72.8219L42.396 72.2343L42.5179 69.7858L41.8112 69.4185H43.2489C43.1243 68.2466 43.1243 67.0646 43.2489 65.8927C43.4682 65.6723 42.2011 65.8927 42.2011 65.8927L43.4682 65.3785C43.2955 64.5083 43.222 63.6211 43.2489 62.7342C43.4194 62.3669 42.2255 62.3424 42.2255 62.3424L43.2732 61.8772C43.1332 61.0178 43.1332 60.1412 43.2732 59.2818C43.6562 58.7874 44.1075 58.3504 44.6134 57.9841Z" fill="white" stroke="#616161" stroke-width="2" stroke-linejoin="round"/>
<path d="M51.5092 86.7769L54.1407 84.6956L53.6534 83.2266L51.2168 85.0384L51.5092 86.7769Z" fill="white" stroke="#616161" stroke-width="2" stroke-linejoin="round"/>
<path d="M57.041 79.8002L57.3821 82.0283L59.4533 80.4858L59.1122 78.3066L57.041 79.8002Z" fill="white" stroke="#616161" stroke-width="2" stroke-linejoin="round"/>
<path d="M51.3633 86.8764L54.2385 84.6973L56.0416 87.1457L53.605 88.9087L51.3633 86.8764Z" fill="white" stroke="#616161" stroke-width="2" stroke-linejoin="round"/>
<path d="M57.4297 82.2475L59.4521 80.7539L61.7425 82.8351L59.3059 84.647L57.4297 82.2475Z" fill="white" stroke="#616161" stroke-width="2" stroke-linejoin="round"/>
<path d="M54.9451 85.7016L57.3818 83.5225L58.9168 85.1874L56.1634 87.44L56.5533 87.8563L59.7209 85.0895L57.2112 82.2493L56.7726 79.8008L53.3613 82.739L54.1654 84.7957L54.9451 85.7016Z" fill="white" stroke="#616161" stroke-width="2" stroke-linejoin="round"/>
<path d="M44.4438 50.1484C44.0728 50.2911 43.764 50.5611 43.5722 50.9107C43.3804 51.2603 43.318 51.6668 43.396 52.0583C43.6153 53.5518 43.8834 54.0905 44.322 53.7477C44.6749 53.4173 44.9425 53.0055 45.1017 52.548C45.1017 52.548 45.1017 53.6253 45.7108 53.7722C46.0405 53.8915 46.3341 54.0938 46.5637 54.3598C46.5637 54.3598 46.1251 55.1678 46.783 55.0944C47.4409 55.0209 48.4399 55.0944 48.4399 55.0944L49.0734 54.0415C49.0429 54.6413 49.1341 55.2411 49.3414 55.8044C49.6338 56.1472 49.6095 56.5879 49.9506 56.49C50.1996 56.4062 50.4437 56.3081 50.6816 56.1962L51.6075 56.3921C51.7405 56.365 51.8651 56.3065 51.9711 56.2213C52.077 56.1361 52.1612 56.0268 52.2166 55.9024C52.3385 55.5351 52.4603 56.7838 52.4603 56.7838C52.4603 56.7838 53.703 57.1511 53.8979 56.7838C54.0928 56.4165 54.9457 56.1717 54.9457 56.1717L55.0675 55.0209L44.4438 50.1484Z" fill="white" stroke="#616161" stroke-width="2" stroke-linejoin="round"/>
<path d="M32.4068 54.6055L31.6758 62.661H37.3531L38.1572 54.63L32.4068 54.6055Z" fill="white" stroke="#616161" stroke-width="2" stroke-linejoin="round"/>
<path d="M57.8448 58.3516L55.7493 58.474C55.7493 58.474 54.5797 58.9882 54.531 59.7962C54.5387 60.4467 54.6121 61.0948 54.7503 61.7305L56.0417 62.6609L55.6762 63.1506L54.8478 64.4972L54.994 65.9419C54.994 65.9419 54.3848 65.9419 54.1899 66.9457C54.0904 67.5373 54.0904 68.1415 54.1899 68.7331L55.2376 69.7615L57.0407 69.4187L57.5524 65.5256L57.1382 65.1094L57.2844 62.9302L58.0154 62.7588L57.8448 58.3516Z" fill="white" stroke="#616161" stroke-width="2" stroke-linejoin="round"/>
<path d="M58.4785 58.8652L68.6149 58.9877C68.6149 58.9877 69.9063 59.3304 70.2231 60.016C70.4144 60.5671 70.5132 61.1463 70.5155 61.73L59.0389 61.583C59.0389 61.583 59.4532 59.9426 59.0389 59.7222C58.8872 59.6312 58.7579 59.5068 58.6608 59.3584C58.5637 59.2099 58.5014 59.0413 58.4785 58.8652Z" fill="white" stroke="#616161" stroke-width="2" stroke-linejoin="round"/>
<path d="M58.9664 61.4854L58.0161 69.2716L57.2852 69.5164C61.1894 69.7135 65.1011 69.7135 69.0053 69.5164C69.7503 66.875 70.3041 64.1828 70.6622 61.4609L58.9664 61.4854Z" fill="white" stroke="#616161" stroke-width="2" stroke-linejoin="round"/>
<path d="M83.2116 40.625C84.6259 40.8613 86.0253 41.1801 87.4026 41.5799C88.2009 41.8761 89.0142 42.1295 89.8392 42.3389C90.3561 42.7964 90.8071 43.3237 91.1794 43.906C91.5021 44.4676 91.6937 45.0955 91.7398 45.7423C91.7318 46.4754 91.6084 47.2026 91.3743 47.897C91.0373 48.5765 90.593 49.1967 90.0585 49.7333C89.0839 50.9331 82.0664 51.3738 82.0664 51.3738L83.2116 40.625Z" fill="white" stroke="#616161" stroke-width="2" stroke-linejoin="round"/>
<path d="M78.1175 36.2891L83.3806 38.2723L77.752 38.1744L78.1175 36.2891Z" fill="white" stroke="#616161" stroke-width="2" stroke-linejoin="round"/>
<path d="M93.2981 60.4082L104.214 58.7188C104.142 60.9844 103.914 63.2424 103.532 65.4766C99.8865 66.5067 96.1847 67.3242 92.4453 67.925L93.2981 60.4082Z" fill="white" stroke="#616161" stroke-width="2" stroke-linejoin="round"/>
<path d="M109.965 74.0705L111.719 75.1968L112.085 74.6092L115.204 76.2252L114.862 77.1801L116.617 78.2574C116.617 78.2574 118.517 74.095 118.907 72.9442C119.424 71.4185 119.823 69.855 120.101 68.2676C120.101 67.1413 120.247 64.1786 118.176 63.8114C116.105 63.4441 115.496 63.4196 114.862 63.9338C114.381 64.3923 113.941 64.892 113.547 65.4274C113.11 66.1657 112.727 66.9349 112.401 67.7289C112.085 68.2186 109.965 74.0705 109.965 74.0705Z" fill="white" stroke="#616161" stroke-width="2" stroke-linejoin="round"/>
<path d="M69.7344 56.1734L72.439 57.1773C72.5682 58.187 72.8304 59.1751 73.2187 60.1154C74.0889 60.7998 75.0003 61.4294 75.9478 62.0008L78.7986 63.5923C78.7986 63.5923 78.5306 65.4776 79.1154 65.7224L82.0637 66.8977H86.937L92.4437 67.8771C92.4437 67.8771 93.589 67.265 93.5402 66.408C93.4915 65.5511 93.1016 58.8177 93.1016 58.8177C92.7873 58.178 92.2621 57.6675 91.6153 57.3731L84.3054 55.4143L83.1358 56.3203L82.0881 55.904L81.4058 55.3164L81.1134 56.1979L69.7344 56.1734Z" fill="white" stroke="#616161" stroke-width="2" stroke-linejoin="round"/>
<path d="M91.9824 57.5927L103.288 55.8053C103.288 55.8053 103.654 55.6339 104.044 56.8337C104.272 57.4412 104.272 58.1115 104.044 58.719L93.2495 60.2126C93.2716 59.7053 93.1972 59.1983 93.0302 58.719C92.8107 58.24 92.4433 57.845 91.9824 57.5927Z" fill="white" stroke="#616161" stroke-width="2" stroke-linejoin="round"/>
<path d="M95.5164 51.3246L95.687 49.5372C95.3632 49.1448 94.9953 48.7915 94.5905 48.4844C94.2217 48.4865 93.8542 48.5275 93.494 48.6068L92.6899 50.1249L92.4219 51.9123L95.5164 51.3246Z" fill="white" stroke="#616161" stroke-width="2" stroke-linejoin="round"/>
<path d="M81.6998 53.2337L83.4298 53.9193L83.844 53.2582L85.5009 52.793L87.9375 52.9644L86.8898 54.409L84.8674 54.2865V55.2414C84.8674 55.2414 83.8684 56.4167 83.4298 56.3678C83.0284 56.2611 82.6544 56.069 82.3333 55.8046L81.4805 55.3149L81.6998 53.2337Z" fill="white" stroke="#616161" stroke-width="2" stroke-linejoin="round"/>
<path d="M100.9 54.5547H109.258C109.258 54.5547 110.501 55.2892 110.549 56.1217C110.537 56.7 110.321 57.2551 109.94 57.6887L110.208 59.3292L109.94 60.7004H108.722L108.04 58.5702V55.9993L100.9 55.0199V54.5547Z" fill="white" stroke="#616161" stroke-width="2" stroke-linejoin="round"/>
<path d="M108.574 61.608L109.768 61.4121C109.768 61.4121 110.962 62.0242 111.181 62.5139C111.321 62.8678 111.321 63.2619 111.181 63.6157L110.304 64.9624L108.867 65.1093L108.574 61.608Z" fill="white" stroke="#616161" stroke-width="2" stroke-linejoin="round"/>
<path d="M111.498 55.3137C111.498 55.3137 111.961 55.3137 111.498 55.9993C111.315 56.3622 111.001 56.642 110.621 56.7828L111.766 65.1076C112.473 64.514 113.222 63.9738 114.008 63.4916C115.262 63.2652 116.535 63.1586 117.809 63.1733L117.078 55.3137L116.201 55.4361L115.835 54.5547L111.498 55.3137Z" fill="white" stroke="#616161" stroke-width="2" stroke-linejoin="round"/>
<path d="M101.411 67.3125L98.5605 72.8706L99.2428 75.0987L107.917 75.8822L109.891 73.8745L112.961 66.7249C113.224 66.2497 113.517 65.7917 113.838 65.3538C114.185 64.7477 114.714 64.2676 115.349 63.9826C116.23 63.7478 117.142 63.6487 118.054 63.6888C117.074 63.5828 116.09 63.5337 115.105 63.5419C113.968 64.1693 113.043 65.1244 112.449 66.2842C110.963 68.7327 108.916 72.4054 108.916 72.4054L107.381 73.1399L100.485 72.4544L99.9982 71.475L101.411 67.3125Z" fill="white" stroke="#616161" stroke-width="2" stroke-linejoin="round"/>
<path d="M107.965 75.809L109.939 73.9727L111.717 75.1724L109.744 76.9598L107.965 75.809Z" fill="white" stroke="#616161" stroke-width="2" stroke-linejoin="round"/>
<path d="M113.035 78.7717L114.765 77.3516L116.666 78.3799L114.936 80.2408L113.035 78.7717Z" fill="white" stroke="#616161" stroke-width="2" stroke-linejoin="round"/>
<path d="M84.8181 70.668H85.8415C85.8415 70.668 81.2606 76.6178 81.09 77.2789C80.7658 78.3904 80.8172 79.5787 81.2362 80.6578C81.7967 81.9799 83.8191 82.3227 83.8191 82.3227C83.8191 82.3227 80.8951 82.2493 80.4078 79.8008C80.1124 78.4832 80.2938 77.103 80.9195 75.9077L84.8181 70.668Z" fill="white" stroke="#616161" stroke-width="2" stroke-linejoin="round"/>
<path d="M106.14 79.799L107.187 79.3828C107.187 79.3828 104.361 86.9486 104.41 87.7076C104.451 88.9637 104.925 90.1663 105.75 91.111C106.215 91.4827 106.752 91.7548 107.326 91.9106C107.9 92.0664 108.499 92.1026 109.088 92.017C109.088 92.017 105.92 92.8494 104.629 90.5968C103.85 89.3601 103.563 87.8741 103.825 86.4344L106.14 79.799Z" fill="white" stroke="#616161" stroke-width="2" stroke-linejoin="round"/>
<path d="M75.5347 61.9023L77.1185 65.7954C77.1185 65.7954 72.2452 72.3084 72.2452 72.6512C72.0701 73.3219 71.9962 74.0152 72.0259 74.7079C72.3072 75.5157 72.737 76.2632 73.293 76.9115C72.975 75.8056 72.7468 74.6756 72.6107 73.5326C72.6107 72.9695 77.7033 66.7258 77.7033 66.7258L81.7724 66.8728L79.3358 65.7709L77.484 64.5957L76.9967 63.5428C76.9967 63.5428 76.8505 63.1021 77.1916 62.9062" fill="white"/>
<path d="M75.5347 61.9023L77.1185 65.7954C77.1185 65.7954 72.2452 72.3084 72.2452 72.6512C72.0701 73.3219 71.9962 74.0152 72.0259 74.7079C72.3072 75.5157 72.737 76.2632 73.293 76.9115C72.975 75.8056 72.7468 74.6756 72.6107 73.5326C72.6107 72.9695 77.7033 66.7258 77.7033 66.7258L81.7724 66.8728L79.3358 65.7709L77.484 64.5957L76.9967 63.5428C76.9967 63.5428 76.8505 63.1021 77.1916 62.9062" stroke="#616161" stroke-width="2" stroke-linejoin="round"/>
<path d="M95.979 78.8929L95.4186 80.3375C94.9099 81.9773 94.5351 83.656 94.2978 85.3569C94.1924 86.538 94.1924 87.7262 94.2978 88.9072C94.4402 89.6019 94.7221 90.2601 95.1262 90.8415C95.4674 91.4536 97.3923 92.2127 97.3923 92.2127C96.5243 91.4159 95.733 90.5388 95.0288 89.5928C94.8338 89.0296 96.2958 80.9986 96.2958 80.9986L96.7588 80.1906L97.5629 79.4071L98.172 78.5991L101.364 78.3053L106.042 78.8929V79.7989L107.139 79.3092C107.139 79.3092 106.067 78.4522 105.384 77.7666C105.384 77.7666 104.775 77.2035 104.995 76.9831C105.214 76.7628 107.114 75.8568 107.163 75.7589C104.502 75.3427 101.815 75.1055 99.1223 75.0488L96.9537 76.8362L95.979 78.8929Z" fill="white" stroke="#616161" stroke-width="2" stroke-linejoin="round"/>
<path d="M81.6018 67.5566L79.75 68.0953L81.2363 69.9317L82.9907 68.8299L81.6018 67.5566Z" stroke="#616161" stroke-width="2" stroke-linejoin="round"/>
<path d="M98.0239 77.5482L95.7335 81.7106L94.7832 85.873L95.0269 88.4684C95.0269 88.4684 98.5112 85.7506 98.7305 85.4568C98.9498 85.163 101.167 80.2415 101.167 80.2415L101.703 76.8871C101.025 76.6516 100.322 76.4955 99.6077 76.4219C99.0574 76.7645 98.5285 77.1406 98.0239 77.5482Z" fill="white" stroke="#616161" stroke-width="2" stroke-linejoin="round"/>
<path d="M75.9004 88.1485L76.8507 89.4462L77.2893 90.7194L79.3604 95.0777L80.067 96.4244L84.0875 98.3587C84.0875 98.3587 84.453 97.4283 84.3068 97.11C84.1606 96.7917 83.0153 95.0043 83.0153 95.0043L82.5524 93.1434L83.3077 93.3148L83.0153 91.5029L75.9735 87.7812L75.9004 88.1485Z" fill="white" stroke="#616161" stroke-width="2" stroke-linejoin="round"/>
<path d="M105.601 100.905L107.136 101.59L108.209 102.496L112.302 105.386L113.618 106.267L118.321 105.998C118.321 105.998 118.174 104.994 117.882 104.773C117.59 104.553 115.64 103.5 115.64 103.5L114.276 102.08L115.055 101.884L113.886 100.391L105.504 100.538L105.601 100.905Z" fill="white" stroke="#616161" stroke-width="2" stroke-linejoin="round"/>
<path d="M73.5373 72.0625L79.2877 74.3641C78.8681 74.696 78.5339 75.1242 78.3131 75.6128C78.1353 75.9711 78.0356 76.3635 78.0207 76.7636L72.6844 74.9027C72.6844 74.9027 72.1728 73.654 72.6844 73.0419C72.9254 72.6798 73.2121 72.3506 73.5373 72.0625Z" fill="white" stroke="#616161" stroke-width="2" stroke-linejoin="round"/>
<path d="M95.3197 87.6594L101.801 86.9004C101.586 87.4016 101.494 87.9475 101.533 88.4919C101.55 88.8996 101.649 89.2996 101.826 89.6672L96.0264 90.72C96.0264 90.72 95.0273 89.8386 95.0273 89.104C95.0566 88.611 95.155 88.1247 95.3197 87.6594Z" fill="white" stroke="#616161" stroke-width="2" stroke-linejoin="round"/>
<path d="M72.2949 74.6834L76.291 87.8807L82.1633 91.2351L82.6019 90.1823L77.9723 75.6628L73.099 73.7285L72.2949 74.6834Z" fill="white" stroke="#616161" stroke-width="2" stroke-linejoin="round"/>
<path d="M95.4922 90.6218L105.848 100.416H112.938L112.817 99.3874L101.194 88.6875L95.7846 89.3486L95.4922 90.6218Z" fill="white" stroke="#616161" stroke-width="2" stroke-linejoin="round"/>
<path d="M93.4446 71.207C93.0198 71.5162 92.5071 71.6793 91.9826 71.6722C91.5006 71.582 91.0332 71.4255 90.5938 71.207L92.2994 73.3372L95.0284 72.4558L93.4446 71.207Z" fill="white" stroke="#616161" stroke-width="2" stroke-linejoin="round"/>
<path d="M73.0973 77.0078L72.4395 77.8648L73.1217 79.946L73.5847 80.0929L73.7065 80.5336H73.2435L73.7552 82.419L74.2913 82.6148V83.0066H73.8527L74.5837 84.9899H75.0954V85.4061L74.6324 85.553L75.1928 87.3404L76.4843 88.0994L77.069 87.8056L74.0476 77.2282L73.0973 77.0078Z" fill="white" stroke="#616161" stroke-width="2" stroke-linejoin="round"/>
<path d="M97.4645 92.2617L97.2695 93.3635L98.9508 94.9061H99.4625L99.7793 95.2244L99.3894 95.4692L100.778 96.8893H101.387L101.582 97.2076L101.266 97.5504L102.923 98.9706L103.483 98.8236L103.629 99.2154L103.264 99.5827L104.677 100.905H106.261L106.651 100.366L98.5366 92.3841L97.4645 92.2617Z" fill="white" stroke="#616161" stroke-width="2" stroke-linejoin="round"/>
<path d="M77.8022 79.1387L77.0469 80.0201L77.8022 82.1503L78.3139 82.2972V82.7379H77.9728L78.5332 84.6233L79.118 84.8436V85.2109L78.655 85.3578L79.4348 87.3656L80.0196 87.5125V87.9287L79.5079 88.0756L80.1414 89.8875L81.5546 90.671L82.1882 90.3772L78.8743 79.6039L77.8022 79.1387Z" fill="white" stroke="#616161" stroke-width="2" stroke-linejoin="round"/>
<path d="M102.826 92.043L102.582 93.1693L104.361 94.7118H104.897L105.238 95.0301L104.775 95.2995L106.261 96.744H106.919L107.114 97.0868L106.773 97.4296L108.503 98.8497L109.112 98.6783V99.0946L108.698 99.4864L110.209 100.809H112.085L112.523 100.221L104.068 92.2389L102.826 92.043Z" fill="white" stroke="#616161" stroke-width="2" stroke-linejoin="round"/>
<path d="M82.4551 93.0706L83.113 94.9559L84.3556 96.9637L84.0876 98.3103C84.0876 98.3103 84.0876 98.8 84.5018 98.5307C84.9161 98.2614 90.6421 95.2497 90.6421 95.2497C90.9467 94.8699 91.1631 94.4266 91.2757 93.952C91.2757 93.4623 90.0086 89.5938 90.0086 89.5938L83.3079 93.242L82.4551 93.0706Z" fill="white" stroke="#616161" stroke-width="2" stroke-linejoin="round"/>
<path d="M114.131 102.082L115.715 103.453L117.859 104.629L118.297 105.951C118.297 105.951 118.614 106.367 118.785 105.951C118.955 105.535 122.805 100.026 122.805 100.026C122.922 99.5429 122.922 99.0392 122.805 98.5565C122.464 98.0913 119.394 95.2266 119.394 95.2266L115.032 101.837L114.131 102.082Z" fill="white" stroke="#616161" stroke-width="2" stroke-linejoin="round"/>
<path d="M82.2363 91.0872C82.4984 90.6465 82.818 90.243 83.1866 89.8875C83.7137 89.5478 84.3506 89.425 84.9653 89.5447C85.3263 89.8327 85.6534 90.1613 85.94 90.5241V91.7728L83.2597 93.2908L82.8455 91.43L82.2363 91.0872Z" fill="white" stroke="#616161" stroke-width="2" stroke-linejoin="round"/>
<path d="M112.938 100.392C112.965 99.8766 113.055 99.3668 113.206 98.8736C113.543 98.3086 114.07 97.8831 114.692 97.6738C115.176 97.7644 115.649 97.9039 116.105 98.0901L116.836 99.1429L115.13 101.836L113.79 100.367L112.938 100.392Z" fill="white" stroke="#616161" stroke-width="2" stroke-linejoin="round"/>
<path d="M99.901 78.5513L98.2441 80.8774V82.6403C98.2441 82.6403 99.0482 80.9019 99.6574 80.8529C100.681 80.955 101.699 81.1185 102.703 81.3426C102.703 81.3426 103.507 80.2897 104.141 80.1183C104.739 80.0316 105.346 80.0316 105.944 80.1183L106.09 78.8941L103.483 77.3516L99.901 78.5513Z" fill="white" stroke="#616161" stroke-width="2" stroke-linejoin="round"/>
<path d="M85.8906 90.3765V89.691L87.913 88.3443C88.1567 88.1729 88.2785 87.5363 88.2785 87.5363L89.1801 87.1445C89.1801 87.1445 90.3497 87.7811 90.4959 87.9036C90.6673 88.3558 90.7258 88.8434 90.6664 89.3237C90.6664 89.544 86.183 91.7722 86.183 91.7722L85.8906 90.3765Z" fill="white" stroke="#616161" stroke-width="2" stroke-linejoin="round"/>
<path d="M115.957 97.9675L115.689 97.3309L116.883 95.1272C117.03 94.8579 116.883 94.2213 116.883 94.2213L117.395 93.3398C117.395 93.3398 118.784 93.3398 118.979 93.3398C119.367 93.6597 119.668 94.0722 119.856 94.5396C119.856 94.76 117.005 99.0448 117.005 99.0448L115.957 97.9675Z" fill="white" stroke="#616161" stroke-width="2" stroke-linejoin="round"/>
<path d="M100.51 78.4029L99.9492 79.2354L101.947 80.3617L102.191 79.6516L103.117 78.8681L102.946 78.4029L101.362 78.207L100.51 78.4029Z" fill="white" stroke="#616161" stroke-width="2" stroke-linejoin="round"/>
<path d="M95.3691 87.7588L98.3418 82.5191C98.3418 82.5191 99.0484 80.9276 99.6332 80.9276C100.682 81.0409 101.723 81.2126 102.752 81.4417C102.752 81.4417 102.947 80.291 103.776 80.193L105.774 79.9727L105.286 82.1273H103.873L100.169 85.1634V87.0977L95.3691 87.7588Z" fill="white" stroke="#616161" stroke-width="2" stroke-linejoin="round"/>
<path d="M110.818 76.1758L112.694 76.9103L113.327 77.3021L112.986 78.8201L109.965 76.8124L110.818 76.1758Z" fill="white" stroke="#616161" stroke-width="2" stroke-linejoin="round"/>
<path d="M112.668 76.8858L114.227 75.8574L115.153 76.2002L114.788 77.2286L113.107 78.7466L113.375 77.2775L112.668 76.8858Z" fill="white" stroke="#616161" stroke-width="2" stroke-linejoin="round"/>
</g>
<defs>
<clipPath id="clip0_827_13494">
<rect width="124" height="120" fill="white"/>
</clipPath>
</defs>
</svg>
