<svg width="291" height="219" viewBox="0 0 291 219" fill="none" xmlns="http://www.w3.org/2000/svg">
<g clip-path="url(#clip0_908_6840)">
<path d="M12.0971 218.557L0.516113 89.7635L92.0576 75.8719L133.587 52.3005L173.198 62.6453L213.326 39.5172L290.557 138.236L236.709 168.163L188.025 162.103L131.595 192.399L12.0971 218.557Z" fill="white"/>
<path d="M12.0971 218.557L0.516113 89.7635L92.0576 75.8719L133.587 52.3005L173.198 62.6453L213.326 39.5172L290.557 138.236L236.709 168.163L188.025 162.103L131.595 192.399L12.0971 218.557Z" stroke="#509ADB" stroke-width="1.3465" stroke-miterlimit="10" stroke-linejoin="round"/>
<path d="M92.6475 76.1675L130.046 192.251" stroke="#509ADB" stroke-width="1.3465" stroke-miterlimit="10" stroke-linejoin="round"/>
<path d="M134.325 52.1527L188.394 161.882" stroke="#509ADB" stroke-width="1.3465" stroke-miterlimit="10" stroke-linejoin="round"/>
<path d="M173.641 62.6453L236.857 168.163" stroke="#509ADB" stroke-width="1.3465" stroke-miterlimit="10" stroke-linejoin="round"/>
<path d="M14.605 99.9606L19.2521 111.266L20.3586 98.1133L14.605 99.9606Z" fill="white"/>
<path d="M14.605 99.9606L19.2521 111.266L20.3586 98.1133L14.605 99.9606Z" stroke="#509ADB" stroke-width="1.3465" stroke-miterlimit="10" stroke-linejoin="round"/>
<path d="M7.74497 97.3744C7.37614 94.8621 11.4332 92.202 16.7442 91.4631C22.0552 90.7241 26.6286 92.1281 26.9974 94.6404C27.3663 97.1527 23.3092 99.8128 17.9982 100.552C12.7609 101.217 8.11379 99.8128 7.74497 97.3744Z" fill="white"/>
<path d="M7.74497 97.3744C7.37614 94.8621 11.4332 92.202 16.7442 91.4631C22.0552 90.7241 26.6286 92.1281 26.9974 94.6404C27.3663 97.1527 23.3092 99.8128 17.9982 100.552C12.7609 101.217 8.11379 99.8128 7.74497 97.3744Z" stroke="#509ADB" stroke-width="1.3465" stroke-miterlimit="10" stroke-linejoin="round"/>
<path d="M7.59766 83.4828C7.59766 83.4828 13.13 86.069 13.2775 88.8769C13.4988 91.6847 10.3269 96.6355 10.3269 96.6355C10.3269 96.6355 13.7201 98.4828 16.892 98.335C20.1376 98.1133 23.6045 95.601 23.6045 95.601C23.6045 95.601 18.5148 89.7636 18.5885 87.9902C18.6623 86.1429 21.4653 80.5271 21.4653 80.5271L7.59766 83.4828Z" fill="white"/>
<path d="M7.59766 83.4828C7.59766 83.4828 13.13 86.069 13.2775 88.8769C13.4988 91.6847 10.3269 96.6355 10.3269 96.6355C10.3269 96.6355 13.7201 98.4828 16.892 98.335C20.1376 98.1133 23.6045 95.601 23.6045 95.601C23.6045 95.601 18.5148 89.7636 18.5885 87.9902C18.6623 86.1429 21.4653 80.5271 21.4653 80.5271L7.59766 83.4828Z" stroke="#509ADB" stroke-width="1.3465" stroke-miterlimit="10" stroke-linejoin="round"/>
<path d="M7.30266 82.4483C7.08136 80.9704 10.1795 79.3448 14.2365 78.7537C18.2198 78.1626 21.6867 78.9015 21.8342 80.3793C22.0555 81.8571 18.9574 83.4828 14.9004 84.0739C10.9171 84.5911 7.52395 83.8522 7.30266 82.4483Z" fill="white"/>
<path d="M7.30266 82.4483C7.08136 80.9704 10.1795 79.3448 14.2365 78.7537C18.2198 78.1626 21.6867 78.9015 21.8342 80.3793C22.0555 81.8571 18.9574 83.4828 14.9004 84.0739C10.9171 84.5911 7.52395 83.8522 7.30266 82.4483Z" stroke="#509ADB" stroke-width="1.3465" stroke-miterlimit="10" stroke-linejoin="round"/>
<path d="M91.0986 172.892L93.6804 189.148L96.1884 173.187L91.0986 172.892Z" fill="white"/>
<path d="M91.0986 172.892L93.6804 189.148L96.1884 173.187L91.0986 172.892Z" stroke="#509ADB" stroke-width="1.3465" stroke-miterlimit="10" stroke-linejoin="round"/>
<path d="M106.155 169.402C106.467 166.399 101.53 163.423 95.1279 162.757C88.7259 162.09 83.2834 163.984 82.9716 166.988C82.6599 169.991 87.5971 172.967 93.999 173.633C100.401 174.3 105.844 172.406 106.155 169.402Z" fill="white"/>
<path d="M106.155 169.402C106.467 166.398 101.53 163.423 95.1279 162.756C88.7259 162.09 83.2834 163.984 82.9716 166.988C82.6599 169.991 87.5971 172.967 93.999 173.633C100.401 174.3 105.844 172.406 106.155 169.402Z" stroke="#509ADB" stroke-width="1.3465" stroke-miterlimit="10" stroke-linejoin="round"/>
<path d="M86.7464 150.872C86.7464 150.872 92.4262 155.527 91.8361 158.852C91.246 162.177 86.1562 167.054 86.1562 167.054C86.1562 167.054 89.5494 170.232 93.3114 170.897C97.1471 171.562 101.942 169.714 101.942 169.714C101.942 169.714 97.7372 161.438 98.3274 159.369C98.9175 157.301 103.86 151.463 103.86 151.463L86.7464 150.872Z" fill="white"/>
<path d="M86.7464 150.872C86.7464 150.872 92.4262 155.527 91.8361 158.852C91.246 162.177 86.1562 167.054 86.1562 167.054C86.1562 167.054 89.5494 170.232 93.3114 170.897C97.1471 171.562 101.942 169.714 101.942 169.714C101.942 169.714 97.7372 161.438 98.3274 159.369C98.9175 157.301 103.86 151.463 103.86 151.463L86.7464 150.872Z" stroke="#509ADB" stroke-width="1.3465" stroke-miterlimit="10" stroke-linejoin="round"/>
<path d="M86.7464 149.468C86.8939 147.695 91.0247 146.66 95.8194 147.177C100.688 147.695 104.45 149.542 104.229 151.315C104.081 153.089 99.9502 154.123 95.1555 153.606C90.3609 153.089 86.5251 151.241 86.7464 149.468Z" fill="white"/>
<path d="M86.7464 149.468C86.8939 147.695 91.0247 146.66 95.8194 147.177C100.688 147.695 104.45 149.542 104.229 151.315C104.081 153.089 99.9502 154.123 95.1555 153.606C90.3609 153.089 86.5251 151.241 86.7464 149.468Z" stroke="#509ADB" stroke-width="1.3465" stroke-miterlimit="10" stroke-linejoin="round"/>
<path d="M213.031 183.163L199.753 171.044L208.531 186.34L213.031 183.163Z" fill="white"/>
<path d="M213.031 183.163L199.753 171.044L208.531 186.34L213.031 183.163Z" stroke="#509ADB" stroke-width="1.3465" stroke-miterlimit="10" stroke-linejoin="round"/>
<path d="M223.948 182.571C225.718 185.379 222.399 190.7 216.498 194.468C210.597 198.236 204.401 199.049 202.63 196.315C200.86 193.507 204.179 188.187 210.08 184.419C215.908 180.65 222.178 179.837 223.948 182.571Z" fill="white"/>
<path d="M223.948 182.571C225.718 185.379 222.399 190.7 216.498 194.468C210.597 198.236 204.401 199.049 202.63 196.315C200.86 193.507 204.179 188.187 210.08 184.419C215.908 180.65 222.178 179.837 223.948 182.571Z" stroke="#509ADB" stroke-width="1.3465" stroke-miterlimit="10" stroke-linejoin="round"/>
<path d="M231.62 198.901C231.62 198.901 223.653 198.754 221.957 195.576C220.186 192.399 221.219 184.788 221.219 184.788C221.219 184.788 216.203 184.419 212.515 186.414C208.827 188.409 205.95 193.286 205.95 193.286C205.95 193.286 215.096 197.424 216.055 199.64C216.941 201.857 216.719 210.059 216.719 210.059L231.62 198.901Z" fill="white"/>
<path d="M231.62 198.901C231.62 198.901 223.653 198.754 221.957 195.576C220.186 192.399 221.219 184.788 221.219 184.788C221.219 184.788 216.203 184.419 212.515 186.414C208.827 188.409 205.95 193.286 205.95 193.286C205.95 193.286 215.096 197.424 216.055 199.64C216.941 201.857 216.719 210.059 216.719 210.059L231.62 198.901Z" stroke="#509ADB" stroke-width="1.3465" stroke-miterlimit="10" stroke-linejoin="round"/>
<path d="M232.579 200.084C233.611 201.709 230.808 205.33 226.382 208.212C221.957 211.094 217.457 212.054 216.424 210.429C215.392 208.803 218.195 205.182 222.62 202.301C227.046 199.419 231.546 198.458 232.579 200.084Z" fill="white"/>
<path d="M232.579 200.084C233.611 201.709 230.808 205.33 226.382 208.212C221.957 211.094 217.457 212.054 216.424 210.429C215.392 208.803 218.195 205.182 222.62 202.301C227.046 199.419 231.546 198.458 232.579 200.084Z" stroke="#509ADB" stroke-width="1.3465" stroke-miterlimit="10" stroke-linejoin="round"/>
<path d="M275.14 184.493C275.14 184.493 269.092 189.665 265.698 188.409C262.305 187.153 258.027 180.798 258.027 180.798C258.027 180.798 253.97 183.828 252.568 187.818C251.093 191.734 252.2 197.35 252.2 197.35C252.2 197.35 261.789 194.394 263.928 195.429C266.067 196.463 271.305 202.818 271.305 202.818C271.305 202.818 273.149 202.744 274.55 201.34C275.509 200.379 276.837 199.197 278.017 194.542C279.419 189.148 278.755 188.187 277.943 186.192C276.837 183.236 275.14 184.493 275.14 184.493Z" fill="white"/>
<path d="M275.14 184.493C275.14 184.493 269.092 189.665 265.698 188.409C262.305 187.153 258.027 180.798 258.027 180.798C258.027 180.798 253.97 183.828 252.568 187.818C251.093 191.734 252.2 197.35 252.2 197.35C252.2 197.35 261.789 194.394 263.928 195.429C266.067 196.463 271.305 202.818 271.305 202.818C271.305 202.818 273.149 202.744 274.55 201.34C275.509 200.379 276.837 199.197 278.017 194.542C279.419 189.148 278.755 188.187 277.943 186.192C276.837 183.236 275.14 184.493 275.14 184.493Z" stroke="#509ADB" stroke-width="1.3465" stroke-miterlimit="10" stroke-linejoin="round"/>
<path d="M258.543 177.399C261.715 178.286 262.748 184.493 260.83 191.217C258.912 197.941 254.781 202.67 251.609 201.783C248.438 200.897 247.405 194.69 249.323 187.966C251.314 181.241 255.371 176.512 258.543 177.399Z" fill="white"/>
<path d="M258.543 177.399C261.715 178.286 262.748 184.493 260.83 191.217C258.912 197.941 254.781 202.67 251.609 201.783C248.438 200.897 247.405 194.69 249.323 187.966C251.314 181.241 255.371 176.512 258.543 177.399Z" stroke="#509ADB" stroke-width="1.3465" stroke-miterlimit="10" stroke-linejoin="round"/>
<path d="M256.109 185.897L232.874 184.788L254.339 193.064C254.339 193.064 256.109 191.586 256.552 189.813C256.921 187.966 256.109 185.897 256.109 185.897Z" fill="white"/>
<path d="M256.109 185.897L232.874 184.788L254.339 193.064C254.339 193.064 256.109 191.586 256.552 189.813C256.994 188.039 256.109 185.897 256.109 185.897Z" stroke="#509ADB" stroke-width="1.3465" stroke-miterlimit="10" stroke-linejoin="round"/>
</g>
<g clip-path="url(#clip1_908_6840)">
<path d="M29.7002 32.2C29.7002 14.8 43.8002 0.700012 61.2002 0.700012C78.6002 0.700012 92.7002 14.8 92.7002 32.2C92.7002 33.5 92.6002 34.8 92.5002 36C90.6002 51.6 64.3002 100.9 64.3002 100.9C64.3002 100.9 32.1002 51.9 30.0002 36.6C29.8002 35.1 29.7002 33.7 29.7002 32.2Z" fill="white"/>
<path d="M29.7002 32.2C29.7002 14.8 43.8002 0.700012 61.2002 0.700012C78.6002 0.700012 92.7002 14.8 92.7002 32.2C92.7002 33.5 92.6002 34.8 92.5002 36C90.6002 51.6 64.3002 100.9 64.3002 100.9C64.3002 100.9 32.1002 51.9 30.0002 36.6C29.8002 35.1 29.7002 33.7 29.7002 32.2Z" stroke="#509ADB" stroke-width="1.3465" stroke-miterlimit="10" stroke-linejoin="round"/>
<path d="M70.7189 39.4086C75.8738 34.2537 75.8738 25.896 70.7189 20.7412C65.5641 15.5863 57.2064 15.5863 52.0515 20.7412C46.8966 25.896 46.8966 34.2537 52.0515 39.4086C57.2064 44.5635 65.5641 44.5635 70.7189 39.4086Z" fill="white"/>
<path d="M70.7189 39.4086C75.8738 34.2537 75.8738 25.896 70.7189 20.7412C65.5641 15.5863 57.2064 15.5863 52.0515 20.7412C46.8966 25.896 46.8966 34.2537 52.0515 39.4086C57.2064 44.5635 65.5641 44.5635 70.7189 39.4086Z" stroke="#509ADB" stroke-width="1.3465" stroke-miterlimit="10" stroke-linejoin="round"/>
</g>
<defs>
<clipPath id="clip0_908_6840">
<rect width="291" height="180" fill="white" transform="translate(0 39)"/>
</clipPath>
<clipPath id="clip1_908_6840">
<rect width="64.4" height="101.5" fill="white" transform="translate(29)"/>
</clipPath>
</defs>
</svg>
