<svg width="70" height="70" viewBox="0 0 70 70" fill="none" xmlns="http://www.w3.org/2000/svg">
<path d="M34.5215 69.0429C41.3492 69.0429 48.0236 67.0183 53.7006 63.225C59.3776 59.4318 63.8023 54.0402 66.4152 47.7323C69.028 41.4243 69.7116 34.4832 68.3796 27.7867C67.0476 21.0902 63.7598 14.939 58.9318 10.1111C54.1039 5.2832 47.9528 1.99535 41.2563 0.663334C34.5598 -0.668684 27.6187 0.0149622 21.3107 2.62781C15.0027 5.24066 9.61121 9.66536 5.81794 15.3424C2.02467 21.0194 0 27.6938 0 34.5215C0 43.6771 3.63709 52.4578 10.1111 58.9318C16.5851 65.4059 25.3658 69.0429 34.5215 69.0429Z" fill="#0A7EC2"/>
<path d="M23.6056 15.1978C22.4887 15.1765 21.379 15.3808 20.3429 15.7985C19.3068 16.2161 18.3656 16.8385 17.5757 17.6285C16.7857 18.4184 16.1633 19.3596 15.7456 20.3957C15.328 21.4318 15.1237 22.5415 15.145 23.6584V45.5412C15.1234 46.6557 15.328 47.7631 15.7462 48.7964C16.1644 49.8298 16.7877 50.7676 17.5784 51.5534C18.3691 52.3392 19.3108 52.9567 20.3467 53.3685C21.3826 53.7803 22.4912 53.978 23.6056 53.9496H45.3317C46.4461 53.978 47.5547 53.7803 48.5906 53.3685C49.6265 52.9567 50.5682 52.3392 51.3589 51.5534C52.1496 50.7676 52.7728 49.8298 53.1911 48.7964C53.6093 47.7631 53.8138 46.6557 53.7923 45.5412V23.6584C53.8136 22.5415 53.6093 21.4318 53.1916 20.3957C52.774 19.3596 52.1516 18.4184 51.3617 17.6285C50.5717 16.8385 49.6305 16.2161 48.5944 15.7985C47.5583 15.3808 46.4486 15.1765 45.3317 15.1978H23.6056Z" fill="white"/>
<path d="M26.5293 21.1519C25.1441 21.1519 23.8157 21.7021 22.8363 22.6815C21.8569 23.6609 21.3066 24.9893 21.3066 26.3745V42.3034C21.3066 43.6885 21.8569 45.0169 22.8363 45.9964C23.8157 46.9758 25.1441 47.526 26.5293 47.526H42.1971C43.5822 47.526 44.9106 46.9758 45.89 45.9964C46.8695 45.0169 47.4197 43.6885 47.4197 42.3034V26.5834C47.4197 25.1982 46.8695 23.8698 45.89 22.8904C44.9106 21.911 43.5822 21.3607 42.1971 21.3607L26.5293 21.1519Z" stroke="#0A7EC2" stroke-width="4.70035"/>
<path d="M40.004 47.5249H28.9843V56.0377H40.004V47.5249Z" fill="#0A7EC2"/>
<path d="M35.4089 39.1697H29.8729C29.4347 39.1835 29.0068 39.0347 28.6717 38.7519C28.5421 38.6316 28.4381 38.4863 28.3663 38.3247C28.2945 38.1631 28.2563 37.9886 28.2539 37.8118C28.2651 37.4502 28.3934 37.102 28.6195 36.8195L33.8421 27.471C34.0552 27.0579 34.3812 26.7138 34.7822 26.4787C35.217 26.2536 35.703 26.1456 36.1923 26.1654C36.8896 26.1587 37.5628 26.4205 38.0724 26.8965C38.3452 27.1878 38.5518 27.5347 38.678 27.9133C38.8042 28.2919 38.847 28.6933 38.8036 29.09V36.1406H39.2214C39.6426 36.1347 40.0513 36.2834 40.3704 36.5584C40.5189 36.6998 40.6371 36.87 40.7179 37.0585C40.7987 37.247 40.8404 37.45 40.8404 37.6551C40.8508 37.8617 40.8138 38.0678 40.7323 38.2579C40.6509 38.448 40.527 38.6169 40.3704 38.7519C40.0513 39.0269 39.6426 39.1755 39.2214 39.1697H38.6991V41.1543C38.7378 41.6355 38.6087 42.1154 38.3335 42.5121C37.9719 42.7833 37.5321 42.93 37.0801 42.93C36.6281 42.93 36.1883 42.7833 35.8267 42.5121C35.533 42.1222 35.3853 41.6418 35.4089 41.1543V39.1697ZM35.4089 36.1406V29.8734L32.3275 36.2972L35.4089 36.1406Z" fill="#0A7EC2"/>
</svg>
