<svg width="184" height="215" viewBox="0 0 184 215" fill="none" xmlns="http://www.w3.org/2000/svg">
<mask id="mask0_2_2732" style="mask-type:luminance" maskUnits="userSpaceOnUse" x="25" y="0" width="135" height="153">
<path d="M159.862 0H25V153H159.862V0Z" fill="white"/>
</mask>
<g mask="url(#mask0_2_2732)">
<mask id="mask1_2_2732" style="mask-type:luminance" maskUnits="userSpaceOnUse" x="-42" y="-10" width="247" height="175">
<path d="M204.913 -9.4502H-41.4084V164.701H204.913V-9.4502Z" fill="white"/>
</mask>
<g mask="url(#mask1_2_2732)">
<path d="M141.108 95.6044L141.606 110.29C141.606 110.29 141.869 111.226 142.513 112.045C143.156 112.864 144.18 113.567 144.18 113.567C144.18 113.567 145.145 113.332 145.965 112.718C146.579 112.25 146.988 111.051 147.135 110.641C147.515 109.676 147.339 94.8438 147.339 94.8438L141.255 95.1655L141.108 95.6044Z" fill="white"/>
</g>
<mask id="mask2_2_2732" style="mask-type:luminance" maskUnits="userSpaceOnUse" x="-42" y="-10" width="247" height="175">
<path d="M204.913 -9.4502H-41.4084V164.701H204.913V-9.4502Z" fill="white"/>
</mask>
<g mask="url(#mask2_2_2732)">
<path d="M141.108 95.6044L141.606 110.29C141.606 110.29 141.869 111.226 142.513 112.045C143.156 112.864 144.18 113.567 144.18 113.567C144.18 113.567 145.145 113.332 145.965 112.718C146.579 112.25 146.988 111.051 147.135 110.641C147.515 109.676 147.339 94.8438 147.339 94.8438L141.255 95.1655L141.108 95.6044Z" stroke="#192F7C" stroke-opacity="0.8" stroke-width="2" stroke-miterlimit="10" stroke-linejoin="round"/>
</g>
<mask id="mask3_2_2732" style="mask-type:luminance" maskUnits="userSpaceOnUse" x="-42" y="-10" width="247" height="175">
<path d="M204.913 -9.4502H-41.4084V164.701H204.913V-9.4502Z" fill="white"/>
</mask>
<g mask="url(#mask3_2_2732)">
<path d="M117.735 78.6341C117.735 78.6341 117.735 82.0861 118.788 84.3972C119.812 86.7082 120.66 87.2933 121.889 87.8492C123.088 88.405 124.493 88.3465 125.663 88.1417C126.804 87.9662 129.173 86.4742 130.314 86.2987C131.455 86.1232 132.099 85.8306 134.41 85.7429C136.721 85.6258 139.529 85.6258 139.529 85.6258L141.021 85.5966L141.051 82.9637L134.293 83.1685C134.293 83.1685 130.929 83.344 129.056 84.2509C127.184 85.1578 125.224 85.8014 125.224 85.8014C125.224 85.8014 123.586 86.4157 122.533 85.6551C121.479 84.8945 121.158 84.0754 120.543 82.1738C119.929 80.2723 119.988 78.4878 119.988 78.4878L117.735 78.6341Z" fill="white"/>
</g>
<mask id="mask4_2_2732" style="mask-type:luminance" maskUnits="userSpaceOnUse" x="-42" y="-10" width="247" height="175">
<path d="M204.913 -9.4502H-41.4084V164.701H204.913V-9.4502Z" fill="white"/>
</mask>
<g mask="url(#mask4_2_2732)">
<path d="M117.735 78.6341C117.735 78.6341 117.735 82.0861 118.788 84.3972C119.812 86.7082 120.66 87.2933 121.889 87.8492C123.088 88.405 124.493 88.3465 125.663 88.1417C126.833 87.9369 129.173 86.4742 130.314 86.2987C131.455 86.1232 132.099 85.8306 134.41 85.7429C136.721 85.6258 139.529 85.6258 139.529 85.6258L141.021 85.5966L141.051 82.9637L134.293 83.1685C134.293 83.1685 130.929 83.344 129.056 84.2509C127.184 85.1578 125.224 85.8014 125.224 85.8014C125.224 85.8014 123.586 86.4157 122.533 85.6551C121.479 84.8945 121.158 84.0754 120.543 82.1738C119.929 80.2723 119.988 78.4878 119.988 78.4878L117.735 78.6341Z" stroke="#192F7C" stroke-opacity="0.8" stroke-width="2" stroke-miterlimit="10" stroke-linejoin="round"/>
</g>
<mask id="mask5_2_2732" style="mask-type:luminance" maskUnits="userSpaceOnUse" x="-42" y="-10" width="247" height="175">
<path d="M204.913 -9.4502H-41.4084V164.701H204.913V-9.4502Z" fill="white"/>
</mask>
<g mask="url(#mask5_2_2732)">
<path d="M125.195 80.4485L130.197 80.3022L130.285 81.8527H125.195V80.4485Z" fill="white"/>
</g>
<mask id="mask6_2_2732" style="mask-type:luminance" maskUnits="userSpaceOnUse" x="-42" y="-10" width="247" height="175">
<path d="M204.913 -9.4502H-41.4084V164.701H204.913V-9.4502Z" fill="white"/>
</mask>
<g mask="url(#mask6_2_2732)">
<path d="M125.195 80.4485L130.197 80.3022L130.285 81.8527H125.195V80.4485Z" stroke="#192F7C" stroke-opacity="0.8" stroke-width="2" stroke-miterlimit="10" stroke-linejoin="round"/>
</g>
<mask id="mask7_2_2732" style="mask-type:luminance" maskUnits="userSpaceOnUse" x="-42" y="-10" width="247" height="175">
<path d="M204.913 -9.4502H-41.4084V164.701H204.913V-9.4502Z" fill="white"/>
</mask>
<g mask="url(#mask7_2_2732)">
<path d="M126.541 79.5414V80.6531L128.764 80.7116V79.4829L126.541 79.5414Z" fill="white"/>
</g>
<mask id="mask8_2_2732" style="mask-type:luminance" maskUnits="userSpaceOnUse" x="-42" y="-10" width="247" height="175">
<path d="M204.913 -9.4502H-41.4084V164.701H204.913V-9.4502Z" fill="white"/>
</mask>
<g mask="url(#mask8_2_2732)">
<path d="M126.541 79.5414V80.6531L128.764 80.7116V79.4829L126.541 79.5414Z" stroke="#192F7C" stroke-opacity="0.8" stroke-width="2" stroke-miterlimit="10" stroke-linejoin="round"/>
</g>
<mask id="mask9_2_2732" style="mask-type:luminance" maskUnits="userSpaceOnUse" x="-42" y="-10" width="247" height="175">
<path d="M204.913 -9.4502H-41.4084V164.701H204.913V-9.4502Z" fill="white"/>
</mask>
<g mask="url(#mask9_2_2732)">
<path d="M124.874 78.6648L124.933 79.2206L130.52 79.3084L130.433 78.1675L124.874 78.6648Z" fill="white"/>
</g>
<mask id="mask10_2_2732" style="mask-type:luminance" maskUnits="userSpaceOnUse" x="-42" y="-10" width="247" height="175">
<path d="M204.913 -9.4502H-41.4084V164.701H204.913V-9.4502Z" fill="white"/>
</mask>
<g mask="url(#mask10_2_2732)">
<path d="M124.874 78.6648L124.933 79.2206L130.52 79.3084L130.433 78.1675L124.874 78.6648Z" stroke="#192F7C" stroke-opacity="0.8" stroke-width="2" stroke-miterlimit="10" stroke-linejoin="round"/>
</g>
<mask id="mask11_2_2732" style="mask-type:luminance" maskUnits="userSpaceOnUse" x="-42" y="-10" width="247" height="175">
<path d="M204.913 -9.4502H-41.4084V164.701H204.913V-9.4502Z" fill="white"/>
</mask>
<g mask="url(#mask11_2_2732)">
<path d="M73.7076 6.05664L81.7232 6.70024L94.4781 19.7477C94.4781 19.7477 94.9462 20.0402 94.4489 20.7423C93.9223 21.4444 86.2576 20.596 86.2576 20.596L72.6837 7.1683L73.7076 6.05664Z" fill="white"/>
</g>
<mask id="mask12_2_2732" style="mask-type:luminance" maskUnits="userSpaceOnUse" x="-42" y="-10" width="247" height="175">
<path d="M204.913 -9.4502H-41.4084V164.701H204.913V-9.4502Z" fill="white"/>
</mask>
<g mask="url(#mask12_2_2732)">
<path d="M73.7076 6.05664L81.7232 6.70024L94.4781 19.7477C94.4781 19.7477 94.9462 20.0402 94.4489 20.7423C93.9223 21.4444 86.2576 20.596 86.2576 20.596L72.6837 7.1683L73.7076 6.05664Z" stroke="#192F7C" stroke-opacity="0.8" stroke-width="2" stroke-miterlimit="10" stroke-linejoin="round"/>
</g>
<mask id="mask13_2_2732" style="mask-type:luminance" maskUnits="userSpaceOnUse" x="-42" y="-10" width="247" height="175">
<path d="M204.913 -9.4502H-41.4084V164.701H204.913V-9.4502Z" fill="white"/>
</mask>
<g mask="url(#mask13_2_2732)">
<path d="M78.3306 9.21582L84.2693 10.8833L91.0562 17.524C88.9207 17.6411 86.0538 17.407 86.0538 17.407L78.3306 9.21582Z" stroke="#192F7C" stroke-opacity="0.8" stroke-width="2" stroke-miterlimit="10" stroke-linejoin="round"/>
</g>
<mask id="mask14_2_2732" style="mask-type:luminance" maskUnits="userSpaceOnUse" x="-42" y="-10" width="247" height="175">
<path d="M204.913 -9.4502H-41.4084V164.701H204.913V-9.4502Z" fill="white"/>
</mask>
<g mask="url(#mask14_2_2732)">
<path d="M119.374 54.4414L127.097 55.0557C127.097 55.0557 129.554 56.6062 129.701 57.2498C129.876 57.8934 123.001 57.6886 123.001 57.6886L119.374 54.4414Z" fill="white"/>
</g>
<mask id="mask15_2_2732" style="mask-type:luminance" maskUnits="userSpaceOnUse" x="-42" y="-10" width="247" height="175">
<path d="M204.913 -9.4502H-41.4084V164.701H204.913V-9.4502Z" fill="white"/>
</mask>
<g mask="url(#mask15_2_2732)">
<path d="M119.374 54.4414L127.097 55.0557C127.097 55.0557 129.554 56.6062 129.701 57.2498C129.876 57.8934 123.001 57.6886 123.001 57.6886L119.374 54.4414Z" stroke="#192F7C" stroke-opacity="0.8" stroke-width="2" stroke-miterlimit="10" stroke-linejoin="round"/>
</g>
<mask id="mask16_2_2732" style="mask-type:luminance" maskUnits="userSpaceOnUse" x="-42" y="-10" width="247" height="175">
<path d="M204.913 -9.4502H-41.4084V164.701H204.913V-9.4502Z" fill="white"/>
</mask>
<g mask="url(#mask16_2_2732)">
<path d="M123.821 54.8218C123.821 54.8218 124.757 55.1143 125.371 56.1382C125.956 57.1621 125.956 57.718 125.956 57.718" fill="white"/>
</g>
<mask id="mask17_2_2732" style="mask-type:luminance" maskUnits="userSpaceOnUse" x="-42" y="-10" width="247" height="175">
<path d="M204.913 -9.4502H-41.4084V164.701H204.913V-9.4502Z" fill="white"/>
</mask>
<g mask="url(#mask17_2_2732)">
<path d="M123.821 54.8218C123.821 54.8218 124.757 55.1143 125.371 56.1382C125.956 57.1621 125.956 57.718 125.956 57.718" stroke="#192F7C" stroke-opacity="0.8" stroke-width="2" stroke-miterlimit="10" stroke-linejoin="round"/>
</g>
<mask id="mask18_2_2732" style="mask-type:luminance" maskUnits="userSpaceOnUse" x="-42" y="-10" width="247" height="175">
<path d="M204.913 -9.4502H-41.4084V164.701H204.913V-9.4502Z" fill="white"/>
</mask>
<g mask="url(#mask18_2_2732)">
<path d="M88.0998 20.1558L94.3017 20.8286C94.3017 20.8286 93.3656 23.1397 94.1262 24.4854C94.8868 25.8311 121.45 55.8753 121.45 55.8753L112.059 55.846L85.0281 23.4322L88.0998 20.1558Z" fill="white"/>
</g>
<mask id="mask19_2_2732" style="mask-type:luminance" maskUnits="userSpaceOnUse" x="-42" y="-10" width="247" height="175">
<path d="M204.913 -9.4502H-41.4084V164.701H204.913V-9.4502Z" fill="white"/>
</mask>
<g mask="url(#mask19_2_2732)">
<path d="M88.0998 20.1558L94.3017 20.8286C94.3017 20.8286 93.3656 23.1397 94.1262 24.4854C94.8868 25.8311 121.45 55.8753 121.45 55.8753L112.059 55.846L85.0281 23.4322L88.0998 20.1558Z" stroke="#192F7C" stroke-opacity="0.8" stroke-width="2" stroke-miterlimit="10" stroke-linejoin="round"/>
</g>
<mask id="mask20_2_2732" style="mask-type:luminance" maskUnits="userSpaceOnUse" x="-42" y="-10" width="247" height="175">
<path d="M204.913 -9.4502H-41.4084V164.701H204.913V-9.4502Z" fill="white"/>
</mask>
<g mask="url(#mask20_2_2732)">
<path d="M56.0954 12.0807C56.0954 12.0807 58.9331 6.72712 60.3665 5.61545C61.8 4.50379 63.877 2.83629 66.8317 2.13419C69.7572 1.43209 72.9751 0.964019 75.9298 1.78314C78.8845 2.60226 84.2088 5.46918 85.5252 7.69251C86.8417 9.91583 87.9241 13.2508 88.0411 14.9183C88.0996 16.5858 87.3097 16.8784 87.3097 16.8784C87.3097 16.8784 86.0518 16.4395 85.3205 15.9715C84.5891 15.5034 83.7992 14.7135 83.7992 14.7135C83.7992 14.7135 84.3258 11.7589 82.395 9.30149C80.4642 6.84413 78.9138 5.73247 75.8128 4.65006C72.7118 3.56765 71.2491 4.21125 69.6986 4.47453C68.1189 4.70857 62.5899 9.44776 62.5899 9.44776L56.0954 12.0807Z" fill="white"/>
</g>
<mask id="mask21_2_2732" style="mask-type:luminance" maskUnits="userSpaceOnUse" x="-42" y="-10" width="247" height="175">
<path d="M204.913 -9.4502H-41.4084V164.701H204.913V-9.4502Z" fill="white"/>
</mask>
<g mask="url(#mask21_2_2732)">
<path d="M56.0954 12.0807C56.0954 12.0807 58.9331 6.72712 60.3665 5.61545C61.8 4.50379 63.877 2.83629 66.8317 2.13419C69.7572 1.43209 72.9751 0.964019 75.9298 1.78314C78.8845 2.60226 84.2088 5.46918 85.5252 7.69251C86.8417 9.91583 87.9241 13.2508 88.0411 14.9183C88.0996 16.5858 87.3097 16.8784 87.3097 16.8784C87.3097 16.8784 86.0518 16.4395 85.3205 15.9715C84.5891 15.5034 83.7992 14.7135 83.7992 14.7135C83.7992 14.7135 84.3258 11.7589 82.395 9.30149C80.4642 6.84413 78.9138 5.73247 75.8128 4.65006C72.7118 3.56765 71.2491 4.21125 69.6986 4.47453C68.1189 4.70857 62.5899 9.44776 62.5899 9.44776L56.0954 12.0807Z" stroke="#192F7C" stroke-opacity="0.8" stroke-width="2" stroke-miterlimit="10" stroke-linejoin="round"/>
</g>
<mask id="mask22_2_2732" style="mask-type:luminance" maskUnits="userSpaceOnUse" x="-42" y="-10" width="247" height="175">
<path d="M204.913 -9.4502H-41.4084V164.701H204.913V-9.4502Z" fill="white"/>
</mask>
<g mask="url(#mask22_2_2732)">
<path d="M85.4379 15.6801C85.4379 15.6801 85.8182 11.5552 84.2677 8.42504C82.7465 5.29483 80.0843 3.33479 78.2706 2.54492" stroke="#192F7C" stroke-opacity="0.8" stroke-width="2" stroke-miterlimit="10" stroke-linejoin="round"/>
</g>
<mask id="mask23_2_2732" style="mask-type:luminance" maskUnits="userSpaceOnUse" x="-42" y="-10" width="247" height="175">
<path d="M204.913 -9.4502H-41.4084V164.701H204.913V-9.4502Z" fill="white"/>
</mask>
<g mask="url(#mask23_2_2732)">
<path d="M64.3163 79.7469L82.7173 82.0287L72.7708 31.3018L65.6328 32.1794L64.3163 79.7469Z" fill="white"/>
</g>
<mask id="mask24_2_2732" style="mask-type:luminance" maskUnits="userSpaceOnUse" x="-42" y="-10" width="247" height="175">
<path d="M204.913 -9.4502H-41.4084V164.701H204.913V-9.4502Z" fill="white"/>
</mask>
<g mask="url(#mask24_2_2732)">
<path d="M64.3163 79.7469L82.7173 82.0287L72.7708 31.3018L65.6328 32.1794L64.3163 79.7469Z" stroke="#192F7C" stroke-opacity="0.8" stroke-width="2" stroke-miterlimit="10" stroke-linejoin="round"/>
</g>
<mask id="mask25_2_2732" style="mask-type:luminance" maskUnits="userSpaceOnUse" x="-42" y="-10" width="247" height="175">
<path d="M204.913 -9.4502H-41.4084V164.701H204.913V-9.4502Z" fill="white"/>
</mask>
<g mask="url(#mask25_2_2732)">
<path d="M82.425 42.4484L88.1881 84.2236L83.7122 84.6039L77.3348 40.2836L71.9812 31.5366L75.755 29.4888L82.425 42.4484Z" fill="white"/>
</g>
<mask id="mask26_2_2732" style="mask-type:luminance" maskUnits="userSpaceOnUse" x="-42" y="-10" width="247" height="175">
<path d="M204.913 -9.4502H-41.4084V164.701H204.913V-9.4502Z" fill="white"/>
</mask>
<g mask="url(#mask26_2_2732)">
<path d="M82.425 42.4484L88.1881 84.2236L83.7122 84.6039L77.3348 40.2836L71.9812 31.5366L75.755 29.4888L82.425 42.4484Z" stroke="#192F7C" stroke-opacity="0.8" stroke-width="2" stroke-miterlimit="10" stroke-linejoin="round"/>
</g>
<mask id="mask27_2_2732" style="mask-type:luminance" maskUnits="userSpaceOnUse" x="-42" y="-10" width="247" height="175">
<path d="M204.913 -9.4502H-41.4084V164.701H204.913V-9.4502Z" fill="white"/>
</mask>
<g mask="url(#mask27_2_2732)">
<path d="M68.0609 34.1396L72.332 40.7511L77.9488 82.4092L83.3316 83.0821L77.393 40.4001L71.6006 31.4482L67.8268 32.6184L68.0609 34.1396Z" fill="white"/>
</g>
<mask id="mask28_2_2732" style="mask-type:luminance" maskUnits="userSpaceOnUse" x="-42" y="-10" width="247" height="175">
<path d="M204.913 -9.4502H-41.4084V164.701H204.913V-9.4502Z" fill="white"/>
</mask>
<g mask="url(#mask28_2_2732)">
<path d="M68.0609 34.1396L72.332 40.7511L77.9488 82.4092L83.3316 83.0821L77.393 40.4001L71.6006 31.4482L67.8268 32.6184L68.0609 34.1396Z" stroke="#192F7C" stroke-opacity="0.8" stroke-width="2" stroke-miterlimit="10" stroke-linejoin="round"/>
</g>
<mask id="mask29_2_2732" style="mask-type:luminance" maskUnits="userSpaceOnUse" x="-42" y="-10" width="247" height="175">
<path d="M204.913 -9.4502H-41.4084V164.701H204.913V-9.4502Z" fill="white"/>
</mask>
<g mask="url(#mask29_2_2732)">
<path d="M70.4008 33.7295L74.0575 40.4287L80.2302 82.0283" stroke="#192F7C" stroke-opacity="0.8" stroke-width="2" stroke-miterlimit="10" stroke-linejoin="round"/>
</g>
<mask id="mask30_2_2732" style="mask-type:luminance" maskUnits="userSpaceOnUse" x="-42" y="-10" width="247" height="175">
<path d="M204.913 -9.4502H-41.4084V164.701H204.913V-9.4502Z" fill="white"/>
</mask>
<g mask="url(#mask30_2_2732)">
<path d="M79.0022 39.1128L85.7015 83.8426" stroke="#192F7C" stroke-opacity="0.8" stroke-width="2" stroke-miterlimit="10" stroke-linejoin="round"/>
</g>
<mask id="mask31_2_2732" style="mask-type:luminance" maskUnits="userSpaceOnUse" x="-42" y="-10" width="247" height="175">
<path d="M204.913 -9.4502H-41.4084V164.701H204.913V-9.4502Z" fill="white"/>
</mask>
<g mask="url(#mask31_2_2732)">
<path d="M111.211 69.3614C111.211 69.3614 109.222 68.63 108.169 69.5661C107.116 70.5023 106.852 71.3507 106.677 72.5208C106.531 73.691 106.443 75.3292 107.233 76.7919C108.023 78.2547 109.573 78.1669 110.685 78.2839C111.767 78.4009 128.822 78.4009 128.822 78.4009L128.676 57.7767L122.913 57.8937C122.913 57.8937 121.889 54.939 119.198 54.7342C116.477 54.5587 114.78 54.7049 114.78 54.7049L89.8848 26.5038C89.8848 26.5038 87.603 24.1927 88.0418 22.0864C88.4806 19.9801 88.3636 20.3311 88.3636 20.3311C88.3636 20.3311 87.1642 20.2434 85.994 19.1902C84.7946 18.1663 76.6619 8.98047 76.6619 8.98047L72.069 16.5866L72.6541 29.0782L111.211 69.3614Z" fill="white"/>
</g>
<mask id="mask32_2_2732" style="mask-type:luminance" maskUnits="userSpaceOnUse" x="-42" y="-10" width="247" height="175">
<path d="M204.913 -9.4502H-41.4084V164.701H204.913V-9.4502Z" fill="white"/>
</mask>
<g mask="url(#mask32_2_2732)">
<path d="M111.211 69.3614C111.211 69.3614 109.222 68.63 108.169 69.5661C107.116 70.5023 106.852 71.3507 106.677 72.5208C106.531 73.691 106.443 75.3292 107.233 76.7919C108.023 78.2547 109.573 78.1669 110.685 78.2839C111.796 78.4009 128.822 78.4009 128.822 78.4009L128.676 57.7767L122.913 57.8937C122.913 57.8937 121.889 54.939 119.198 54.7342C116.477 54.5587 114.78 54.7049 114.78 54.7049L89.8848 26.5038C89.8848 26.5038 87.603 24.1927 88.0418 22.0864C88.4806 19.9801 88.3636 20.3311 88.3636 20.3311C88.3636 20.3311 87.1642 20.2434 85.994 19.1902C84.7946 18.1663 76.6619 8.98047 76.6619 8.98047L72.069 16.5866L72.6541 29.0782L111.211 69.3614Z" stroke="#192F7C" stroke-opacity="0.8" stroke-width="2" stroke-miterlimit="10" stroke-linejoin="round"/>
</g>
<mask id="mask33_2_2732" style="mask-type:luminance" maskUnits="userSpaceOnUse" x="-42" y="-10" width="247" height="175">
<path d="M204.913 -9.4502H-41.4084V164.701H204.913V-9.4502Z" fill="white"/>
</mask>
<g mask="url(#mask33_2_2732)">
<path d="M107.146 70.9987C107.146 70.9987 107.526 69.0971 109.34 68.9509C111.154 68.8046 111.827 69.0094 111.827 69.0094C111.827 69.0094 111.183 68.7168 109.779 67.6637C108.375 66.6398 106.912 64.7968 106.912 64.7968L75.0247 28.1411L74.3226 30.2474L107.146 70.9987Z" fill="white"/>
</g>
<mask id="mask34_2_2732" style="mask-type:luminance" maskUnits="userSpaceOnUse" x="-42" y="-10" width="247" height="175">
<path d="M204.913 -9.4502H-41.4084V164.701H204.913V-9.4502Z" fill="white"/>
</mask>
<g mask="url(#mask34_2_2732)">
<path d="M107.146 70.9987C107.146 70.9987 107.526 69.0971 109.34 68.9509C111.154 68.8046 111.827 69.0094 111.827 69.0094C111.827 69.0094 111.183 68.7168 109.779 67.6637C108.375 66.6398 106.912 64.7968 106.912 64.7968L75.0247 28.1411L74.3226 30.2474L107.146 70.9987Z" stroke="#192F7C" stroke-opacity="0.8" stroke-width="2" stroke-miterlimit="10" stroke-linejoin="round"/>
</g>
<mask id="mask35_2_2732" style="mask-type:luminance" maskUnits="userSpaceOnUse" x="-42" y="-10" width="247" height="175">
<path d="M204.913 -9.4502H-41.4084V164.701H204.913V-9.4502Z" fill="white"/>
</mask>
<g mask="url(#mask35_2_2732)">
<path d="M72.7422 32.4144L106.443 70.2402L106.736 67.9876C106.736 67.9876 106.823 67.4025 106.063 66.4957C105.331 65.618 73.8538 29.2842 73.8538 29.2842L72.7422 32.4144Z" fill="white"/>
</g>
<mask id="mask36_2_2732" style="mask-type:luminance" maskUnits="userSpaceOnUse" x="-42" y="-10" width="247" height="175">
<path d="M204.913 -9.4502H-41.4084V164.701H204.913V-9.4502Z" fill="white"/>
</mask>
<g mask="url(#mask36_2_2732)">
<path d="M72.7422 32.4144L106.443 70.2402L106.736 67.9876C106.736 67.9876 106.823 67.4025 106.063 66.4957C105.331 65.618 73.8538 29.2842 73.8538 29.2842L72.7422 32.4144Z" stroke="#192F7C" stroke-opacity="0.8" stroke-width="2" stroke-miterlimit="10" stroke-linejoin="round"/>
</g>
<mask id="mask37_2_2732" style="mask-type:luminance" maskUnits="userSpaceOnUse" x="-42" y="-10" width="247" height="175">
<path d="M204.913 -9.4502H-41.4084V164.701H204.913V-9.4502Z" fill="white"/>
</mask>
<g mask="url(#mask37_2_2732)">
<path d="M99.3332 86.153C99.8987 86.153 100.357 85.5767 100.357 84.8658C100.357 84.1549 99.8987 83.5786 99.3332 83.5786C98.7677 83.5786 98.3093 84.1549 98.3093 84.8658C98.3093 85.5767 98.7677 86.153 99.3332 86.153Z" fill="white"/>
</g>
<mask id="mask38_2_2732" style="mask-type:luminance" maskUnits="userSpaceOnUse" x="-42" y="-10" width="247" height="175">
<path d="M204.913 -9.4502H-41.4084V164.701H204.913V-9.4502Z" fill="white"/>
</mask>
<g mask="url(#mask38_2_2732)">
<path d="M99.3332 86.153C99.8987 86.153 100.357 85.5767 100.357 84.8658C100.357 84.1549 99.8987 83.5786 99.3332 83.5786C98.7677 83.5786 98.3093 84.1549 98.3093 84.8658C98.3093 85.5767 98.7677 86.153 99.3332 86.153Z" stroke="#192F7C" stroke-opacity="0.8" stroke-width="2" stroke-miterlimit="10" stroke-linejoin="round"/>
</g>
<mask id="mask39_2_2732" style="mask-type:luminance" maskUnits="userSpaceOnUse" x="31" y="-121" width="191" height="258">
<path d="M48.1267 -120.291L31.8716 125.488L205.639 136.98L221.894 -108.799L48.1267 -120.291Z" fill="white"/>
</mask>
<g mask="url(#mask39_2_2732)">
<path d="M78.8331 19.651C79.3918 11.2035 74.6825 4.01404 68.3147 3.59289C61.9468 3.17174 56.3317 9.67837 55.773 18.1259C55.2144 26.5733 59.9236 33.7628 66.2915 34.1839C72.6593 34.6051 78.2744 28.0985 78.8331 19.651Z" fill="white"/>
</g>
<mask id="mask40_2_2732" style="mask-type:luminance" maskUnits="userSpaceOnUse" x="31" y="-121" width="191" height="258">
<path d="M48.1267 -120.291L31.8716 125.488L205.639 136.98L221.894 -108.799L48.1267 -120.291Z" fill="white"/>
</mask>
<g mask="url(#mask40_2_2732)">
<path d="M78.8331 19.651C79.3918 11.2035 74.6825 4.01404 68.3147 3.59289C61.9468 3.17174 56.3317 9.67837 55.773 18.1259C55.2144 26.5733 59.9236 33.7628 66.2915 34.1839C72.6593 34.6051 78.2744 28.0985 78.8331 19.651Z" stroke="#192F7C" stroke-opacity="0.8" stroke-width="2" stroke-miterlimit="10" stroke-linejoin="round"/>
</g>
<mask id="mask41_2_2732" style="mask-type:luminance" maskUnits="userSpaceOnUse" x="31" y="-121" width="191" height="259">
<path d="M48.0829 -120L31.8285 125.779L205.596 137.271L221.851 -108.508L48.0829 -120Z" fill="white"/>
</mask>
<g mask="url(#mask41_2_2732)">
<path d="M76.9015 19.6684C77.3589 12.7524 73.4954 6.86588 68.2721 6.52044C63.0489 6.17501 58.4438 11.5015 57.9864 18.4175C57.529 25.3334 61.3925 31.22 66.6158 31.5654C71.8391 31.9108 76.4441 26.5844 76.9015 19.6684Z" fill="white"/>
</g>
<mask id="mask42_2_2732" style="mask-type:luminance" maskUnits="userSpaceOnUse" x="31" y="-121" width="191" height="259">
<path d="M48.0829 -120L31.8285 125.779L205.596 137.271L221.851 -108.508L48.0829 -120Z" fill="white"/>
</mask>
<g mask="url(#mask42_2_2732)">
<path d="M76.9015 19.6684C77.3589 12.7524 73.4954 6.86588 68.2721 6.52044C63.0489 6.17501 58.4438 11.5015 57.9864 18.4175C57.529 25.3334 61.3925 31.22 66.6158 31.5654C71.8391 31.9108 76.4441 26.5844 76.9015 19.6684Z" stroke="#192F7C" stroke-opacity="0.8" stroke-width="2" stroke-miterlimit="10" stroke-linejoin="round"/>
</g>
<mask id="mask43_2_2732" style="mask-type:luminance" maskUnits="userSpaceOnUse" x="31" y="-121" width="191" height="258">
<path d="M47.5786 -120.426L31.3232 125.354L205.091 136.846L221.346 -108.933L47.5786 -120.426Z" fill="white"/>
</mask>
<g mask="url(#mask43_2_2732)">
<path d="M74.2022 19.5966C74.5711 14.0187 71.6291 9.28253 67.6311 9.01811C63.633 8.75368 60.0929 13.0611 59.724 18.639C59.3551 24.217 62.2971 28.9531 66.2951 29.2176C70.2932 29.482 73.8333 25.1745 74.2022 19.5966Z" fill="white"/>
</g>
<mask id="mask44_2_2732" style="mask-type:luminance" maskUnits="userSpaceOnUse" x="31" y="-121" width="191" height="258">
<path d="M47.5788 -120.426L31.3232 125.354L205.091 136.846L221.346 -108.933L47.5788 -120.426Z" fill="white"/>
</mask>
<g mask="url(#mask44_2_2732)">
<path d="M74.2022 19.5952C74.5711 14.0172 71.6291 9.28107 67.6311 9.01665C63.633 8.75222 60.0929 13.0597 59.724 18.6376C59.3551 24.2155 62.2971 28.9517 66.2951 29.2161C70.2932 29.4805 73.8333 25.1731 74.2022 19.5952Z" stroke="#192F7C" stroke-opacity="0.8" stroke-width="2" stroke-miterlimit="10" stroke-linejoin="round"/>
</g>
<mask id="mask45_2_2732" style="mask-type:luminance" maskUnits="userSpaceOnUse" x="-42" y="-10" width="247" height="175">
<path d="M204.913 -9.4502H-41.4084V164.701H204.913V-9.4502Z" fill="white"/>
</mask>
<g mask="url(#mask45_2_2732)">
<path d="M68.792 70.0929C68.792 70.0929 69.7281 69.5663 69.6111 70.3269C69.4941 71.0875 67.183 73.8959 67.183 73.8959L67.4463 75.5342C67.4463 75.5342 68.3824 74.1885 69.143 73.1353C69.9036 72.0822 70.518 70.7657 70.518 70.7657C70.518 70.7657 70.9275 68.7764 70.3132 68.2791C69.6988 67.7818 68.792 70.0929 68.792 70.0929Z" fill="white"/>
</g>
<mask id="mask46_2_2732" style="mask-type:luminance" maskUnits="userSpaceOnUse" x="-42" y="-10" width="247" height="175">
<path d="M204.913 -9.4502H-41.4084V164.701H204.913V-9.4502Z" fill="white"/>
</mask>
<g mask="url(#mask46_2_2732)">
<path d="M68.792 70.0921C68.792 70.0921 69.7281 69.5655 69.6111 70.3262C69.4941 71.0868 67.183 73.8952 67.183 73.8952L67.4463 75.5334C67.4463 75.5334 68.3824 74.1877 69.143 73.1346C69.9036 72.0814 70.518 70.765 70.518 70.765C70.518 70.765 70.9275 68.7757 70.3132 68.2784C69.6403 67.7518 68.792 70.0921 68.792 70.0921Z" stroke="#192F7C" stroke-opacity="0.8" stroke-width="2" stroke-miterlimit="10" stroke-linejoin="round"/>
</g>
<mask id="mask47_2_2732" style="mask-type:luminance" maskUnits="userSpaceOnUse" x="-42" y="-10" width="247" height="175">
<path d="M204.913 -9.4502H-41.4084V164.701H204.913V-9.4502Z" fill="white"/>
</mask>
<g mask="url(#mask47_2_2732)">
<path d="M59.8701 78.5472L58.5244 68.8055C58.5244 68.8055 58.3196 67.1088 58.4366 65.7631C58.5829 64.4174 58.5244 64.7392 59.0802 63.3935C59.4898 62.3403 59.9871 61.1409 60.3966 60.1755C61.3035 57.9814 58.4951 37.9715 58.4951 37.9715L54.2532 33.1738C54.2532 33.1738 53.1708 32.2084 52.5857 30.8627C52.0007 29.517 51.9422 27.791 51.9422 27.791C51.9422 27.791 51.2108 24.7485 51.5033 20.2434C51.7666 16.2063 52.2639 12.2862 55.716 12.0522C59.168 11.8181 59.8116 12.1399 60.9232 12.6665C61.5668 12.9591 62.971 14.2755 64.0242 15.3286C64.7848 16.0893 64.9311 16.177 65.3699 17.435C65.8379 18.6929 65.8672 20.3604 65.8672 20.3604L71.601 63.1887C71.601 63.1887 71.6303 64.2418 71.3963 65.178C71.1622 66.1141 70.6649 66.904 70.6649 66.904L68.4123 70.5315C68.4123 70.5315 67.3299 72.8719 67.1836 73.6617C67.0374 74.4516 67.5639 77.5818 67.5639 77.5818L67.8272 79.22L60.2211 80.0977L59.8701 78.5472Z" fill="white"/>
</g>
<mask id="mask48_2_2732" style="mask-type:luminance" maskUnits="userSpaceOnUse" x="-42" y="-10" width="247" height="175">
<path d="M204.913 -9.4502H-41.4084V164.701H204.913V-9.4502Z" fill="white"/>
</mask>
<g mask="url(#mask48_2_2732)">
<path d="M59.8701 78.5472L58.5244 68.8055C58.5244 68.8055 58.3196 67.1088 58.4366 65.7631C58.5829 64.4174 58.5244 64.7392 59.0802 63.3935C59.4898 62.3403 59.9871 61.1409 60.3966 60.1755C61.3035 57.9814 58.4951 37.9715 58.4951 37.9715L54.2532 33.1738C54.2532 33.1738 53.1708 32.2084 52.5857 30.8627C52.0007 29.517 51.9422 27.791 51.9422 27.791C51.9422 27.791 51.2108 24.7485 51.5033 20.2434C51.7666 16.2063 52.2639 12.2862 55.716 12.0522C59.168 11.8181 59.8116 12.1399 60.9232 12.6665C61.5668 12.9591 62.971 14.2755 64.0242 15.3286C64.7848 16.0893 64.9311 16.177 65.3699 17.435C65.8379 18.6929 65.8672 20.3604 65.8672 20.3604L71.601 63.1887C71.601 63.1887 71.6303 64.2418 71.3963 65.178C71.1622 66.1141 70.6649 66.904 70.6649 66.904L68.4123 70.5315C68.4123 70.5315 67.3299 72.8719 67.1836 73.6617C67.0374 74.4516 67.5639 77.5818 67.5639 77.5818L67.8272 79.22L60.2211 80.0977L59.8701 78.5472Z" stroke="#192F7C" stroke-opacity="0.8" stroke-width="2" stroke-miterlimit="10" stroke-linejoin="round"/>
</g>
<mask id="mask49_2_2732" style="mask-type:luminance" maskUnits="userSpaceOnUse" x="21" y="-131" width="191" height="259">
<path d="M37.2901 -130.202L21.0351 115.577L194.803 127.07L211.058 -118.71L37.2901 -130.202Z" fill="white"/>
</mask>
<g mask="url(#mask49_2_2732)">
<path d="M61.1572 20.0151C61.3875 16.5329 59.5355 13.5752 57.0206 13.4089C54.5057 13.2425 52.2803 15.9306 52.05 19.4127C51.8197 22.8949 53.6717 25.8526 56.1866 26.0189C58.7015 26.1853 60.9269 23.4972 61.1572 20.0151Z" fill="white"/>
</g>
<mask id="mask50_2_2732" style="mask-type:luminance" maskUnits="userSpaceOnUse" x="21" y="-131" width="191" height="259">
<path d="M37.2901 -130.202L21.0351 115.577L194.803 127.07L211.058 -118.71L37.2901 -130.202Z" fill="white"/>
</mask>
<g mask="url(#mask50_2_2732)">
<path d="M61.1572 20.0151C61.3875 16.5329 59.5355 13.5752 57.0206 13.4089C54.5057 13.2425 52.2803 15.9306 52.05 19.4127C51.8197 22.8949 53.6717 25.8526 56.1866 26.0189C58.7015 26.1853 60.9269 23.4972 61.1572 20.0151Z" stroke="#192F7C" stroke-opacity="0.8" stroke-width="2" stroke-miterlimit="10" stroke-linejoin="round"/>
</g>
<mask id="mask51_2_2732" style="mask-type:luminance" maskUnits="userSpaceOnUse" x="-42" y="-10" width="247" height="175">
<path d="M204.913 -9.4502H-41.4084V164.701H204.913V-9.4502Z" fill="white"/>
</mask>
<g mask="url(#mask51_2_2732)">
<path d="M52.5556 19.2484C52.7311 16.6741 54.3694 14.6848 56.2124 14.8018C58.0554 14.9188 59.4304 17.1129 59.2548 19.6873C59.0793 22.2616 57.4411 24.2509 55.5981 24.1339C53.755 23.9876 52.4093 21.8228 52.5556 19.2484Z" fill="white"/>
</g>
<mask id="mask52_2_2732" style="mask-type:luminance" maskUnits="userSpaceOnUse" x="-42" y="-10" width="247" height="175">
<path d="M204.913 -9.4502H-41.4084V164.701H204.913V-9.4502Z" fill="white"/>
</mask>
<g mask="url(#mask52_2_2732)">
<path d="M52.5556 19.2484C52.7311 16.6741 54.3694 14.6848 56.2124 14.8018C58.0554 14.9188 59.4304 17.1129 59.2548 19.6873C59.0793 22.2616 57.4411 24.2509 55.5981 24.1339C53.755 23.9876 52.4093 21.8228 52.5556 19.2484Z" stroke="#192F7C" stroke-opacity="0.8" stroke-width="2" stroke-miterlimit="10" stroke-linejoin="round"/>
</g>
<mask id="mask53_2_2732" style="mask-type:luminance" maskUnits="userSpaceOnUse" x="-42" y="-10" width="247" height="175">
<path d="M204.913 -9.4502H-41.4084V164.701H204.913V-9.4502Z" fill="white"/>
</mask>
<g mask="url(#mask53_2_2732)">
<path d="M107.758 65.7626C107.758 65.7626 111.181 68.8928 112.321 69.1854C113.433 69.4779 114.282 69.9752 116.417 69.8582C118.523 69.7412 120.162 68.9806 121.507 67.5764C122.853 66.1722 123.701 63.4515 123.701 61.8718C123.701 60.2921 123.292 58.9171 122.824 57.6592" stroke="#192F7C" stroke-opacity="0.8" stroke-width="2" stroke-miterlimit="10" stroke-linejoin="round"/>
</g>
<mask id="mask54_2_2732" style="mask-type:luminance" maskUnits="userSpaceOnUse" x="-42" y="-10" width="247" height="175">
<path d="M204.913 -9.4502H-41.4084V164.701H204.913V-9.4502Z" fill="white"/>
</mask>
<g mask="url(#mask54_2_2732)">
<path d="M116.243 67.8131C118.877 67.8131 121.012 65.2721 121.012 62.1377C121.012 59.0033 118.877 56.4624 116.243 56.4624C113.61 56.4624 111.475 59.0033 111.475 62.1377C111.475 65.2721 113.61 67.8131 116.243 67.8131Z" fill="white"/>
</g>
<mask id="mask55_2_2732" style="mask-type:luminance" maskUnits="userSpaceOnUse" x="-42" y="-10" width="247" height="175">
<path d="M204.913 -9.4502H-41.4084V164.701H204.913V-9.4502Z" fill="white"/>
</mask>
<g mask="url(#mask55_2_2732)">
<path d="M116.243 67.8131C118.877 67.8131 121.012 65.2721 121.012 62.1377C121.012 59.0033 118.877 56.4624 116.243 56.4624C113.61 56.4624 111.475 59.0033 111.475 62.1377C111.475 65.2721 113.61 67.8131 116.243 67.8131Z" stroke="#192F7C" stroke-opacity="0.8" stroke-width="2" stroke-miterlimit="10" stroke-linejoin="round"/>
</g>
<mask id="mask56_2_2732" style="mask-type:luminance" maskUnits="userSpaceOnUse" x="-42" y="-10" width="247" height="175">
<path d="M204.913 -9.4502H-41.4084V164.701H204.913V-9.4502Z" fill="white"/>
</mask>
<g mask="url(#mask56_2_2732)">
<path d="M115.862 66.5816C117.72 66.5816 119.226 64.6432 119.226 62.252C119.226 59.8608 117.72 57.9224 115.862 57.9224C114.004 57.9224 112.498 59.8608 112.498 62.252C112.498 64.6432 114.004 66.5816 115.862 66.5816Z" fill="white"/>
</g>
<mask id="mask57_2_2732" style="mask-type:luminance" maskUnits="userSpaceOnUse" x="-42" y="-10" width="247" height="175">
<path d="M204.913 -9.4502H-41.4084V164.701H204.913V-9.4502Z" fill="white"/>
</mask>
<g mask="url(#mask57_2_2732)">
<path d="M115.862 66.5816C117.72 66.5816 119.226 64.6432 119.226 62.252C119.226 59.8608 117.72 57.9224 115.862 57.9224C114.004 57.9224 112.498 59.8608 112.498 62.252C112.498 64.6432 114.004 66.5816 115.862 66.5816Z" stroke="#192F7C" stroke-opacity="0.8" stroke-width="2" stroke-miterlimit="10" stroke-linejoin="round"/>
</g>
<mask id="mask58_2_2732" style="mask-type:luminance" maskUnits="userSpaceOnUse" x="-42" y="-10" width="247" height="175">
<path d="M204.913 -9.4502H-41.4084V164.701H204.913V-9.4502Z" fill="white"/>
</mask>
<g mask="url(#mask58_2_2732)">
<path d="M129.466 57.5127L146.96 57.1909L146.901 78.02L128.852 78.0785L128.647 57.6882L129.466 57.5127Z" fill="white"/>
</g>
<mask id="mask59_2_2732" style="mask-type:luminance" maskUnits="userSpaceOnUse" x="-42" y="-10" width="247" height="175">
<path d="M204.913 -9.4502H-41.4084V164.701H204.913V-9.4502Z" fill="white"/>
</mask>
<g mask="url(#mask59_2_2732)">
<path d="M129.466 57.5127L146.96 57.1909L146.901 78.02L128.852 78.0785L128.647 57.6882L129.466 57.5127Z" stroke="#192F7C" stroke-opacity="0.8" stroke-width="2" stroke-miterlimit="10" stroke-linejoin="round"/>
</g>
<mask id="mask60_2_2732" style="mask-type:luminance" maskUnits="userSpaceOnUse" x="-42" y="-10" width="247" height="175">
<path d="M204.913 -9.4502H-41.4084V164.701H204.913V-9.4502Z" fill="white"/>
</mask>
<g mask="url(#mask60_2_2732)">
<path d="M147.019 57.1909L152.869 57.5127L152.811 78.1077L146.785 78.1662L147.019 57.1909Z" fill="white"/>
</g>
<mask id="mask61_2_2732" style="mask-type:luminance" maskUnits="userSpaceOnUse" x="-42" y="-10" width="247" height="175">
<path d="M204.913 -9.4502H-41.4084V164.701H204.913V-9.4502Z" fill="white"/>
</mask>
<g mask="url(#mask61_2_2732)">
<path d="M147.019 57.1909L152.869 57.5127L152.811 78.1077L146.785 78.1662L147.019 57.1909Z" stroke="#192F7C" stroke-opacity="0.8" stroke-width="2" stroke-miterlimit="10" stroke-linejoin="round"/>
</g>
<mask id="mask62_2_2732" style="mask-type:luminance" maskUnits="userSpaceOnUse" x="-42" y="-10" width="247" height="175">
<path d="M204.913 -9.4502H-41.4084V164.701H204.913V-9.4502Z" fill="white"/>
</mask>
<g mask="url(#mask62_2_2732)">
<path d="M139.999 78.4309L140.087 80.1569L148.132 80.1862L148.19 78.2554L139.999 78.4309Z" fill="white"/>
</g>
<mask id="mask63_2_2732" style="mask-type:luminance" maskUnits="userSpaceOnUse" x="-42" y="-10" width="247" height="175">
<path d="M204.913 -9.4502H-41.4084V164.701H204.913V-9.4502Z" fill="white"/>
</mask>
<g mask="url(#mask63_2_2732)">
<path d="M139.999 78.4309L140.087 80.1569L148.132 80.1862L148.19 78.2554L139.999 78.4309Z" stroke="#192F7C" stroke-opacity="0.8" stroke-width="2" stroke-miterlimit="10" stroke-linejoin="round"/>
</g>
<mask id="mask64_2_2732" style="mask-type:luminance" maskUnits="userSpaceOnUse" x="-42" y="-10" width="247" height="175">
<path d="M204.913 -9.4502H-41.4084V164.701H204.913V-9.4502Z" fill="white"/>
</mask>
<g mask="url(#mask64_2_2732)">
<path d="M141.198 80.5072L141.256 87.8208L146.317 87.9086L146.142 80.4487L141.198 80.5072Z" fill="white"/>
</g>
<mask id="mask65_2_2732" style="mask-type:luminance" maskUnits="userSpaceOnUse" x="-42" y="-10" width="247" height="175">
<path d="M204.913 -9.4502H-41.4084V164.701H204.913V-9.4502Z" fill="white"/>
</mask>
<g mask="url(#mask65_2_2732)">
<path d="M141.198 80.5072L141.256 87.8208L146.317 87.9086L146.142 80.4487L141.198 80.5072Z" stroke="#192F7C" stroke-opacity="0.8" stroke-width="2" stroke-miterlimit="10" stroke-linejoin="round"/>
</g>
<mask id="mask66_2_2732" style="mask-type:luminance" maskUnits="userSpaceOnUse" x="-42" y="-10" width="247" height="175">
<path d="M204.913 -9.4502H-41.4084V164.701H204.913V-9.4502Z" fill="white"/>
</mask>
<g mask="url(#mask66_2_2732)">
<path d="M139.53 95.4856L139.325 112.775C139.325 112.775 139.208 113.477 138.769 113.945C138.33 114.413 136.282 114.384 136.282 114.384C136.282 114.384 134.673 111.049 133.737 110.552C132.772 110.054 129.905 109.674 129.905 109.674C129.905 109.674 129.174 108.709 129.408 108.065C129.612 107.421 133.328 107.655 133.328 107.655C133.328 107.655 134.469 106.427 133.825 106.134C133.182 105.842 130.081 105.754 130.081 105.754C130.081 105.754 129.437 105.754 129.437 104.964C129.437 104.174 129.671 103.823 129.671 103.823L132.86 103.765C132.86 103.765 133.825 103.735 133.825 103.063C133.825 102.39 134.001 101.834 134.001 101.834H129.876C129.876 101.834 129.466 101.571 129.525 100.927C129.554 100.283 129.7 99.9323 129.7 99.9323L133.62 99.786C133.62 99.786 134.176 98.9084 133.767 98.4403C133.357 97.943 129.876 98.0015 129.876 98.0015C129.876 98.0015 129.291 97.709 129.378 97.0946C129.466 96.4803 129.817 96.1292 129.817 96.1292L133.357 96.1L135.785 96.1292L136.048 95.0176L139.53 95.4856Z" fill="white"/>
</g>
<mask id="mask67_2_2732" style="mask-type:luminance" maskUnits="userSpaceOnUse" x="-42" y="-10" width="247" height="175">
<path d="M204.913 -9.4502H-41.4084V164.701H204.913V-9.4502Z" fill="white"/>
</mask>
<g mask="url(#mask67_2_2732)">
<path d="M139.53 95.4856L139.325 112.775C139.325 112.775 139.208 113.477 138.769 113.945C138.33 114.413 136.282 114.384 136.282 114.384C136.282 114.384 134.673 111.049 133.737 110.552C132.772 110.054 129.905 109.674 129.905 109.674C129.905 109.674 129.174 108.709 129.408 108.065C129.612 107.421 133.328 107.655 133.328 107.655C133.328 107.655 134.469 106.427 133.825 106.134C133.182 105.842 130.081 105.754 130.081 105.754C130.081 105.754 129.437 105.754 129.437 104.964C129.437 104.174 129.671 103.823 129.671 103.823L132.86 103.765C132.86 103.765 133.825 103.735 133.825 103.063C133.825 102.39 134.001 101.834 134.001 101.834H129.876C129.876 101.834 129.466 101.571 129.525 100.927C129.554 100.283 129.7 99.9323 129.7 99.9323L133.62 99.786C133.62 99.786 134.176 98.9084 133.767 98.4403C133.357 97.943 129.876 98.0015 129.876 98.0015C129.876 98.0015 129.291 97.709 129.378 97.0946C129.466 96.4803 129.817 96.1292 129.817 96.1292L133.357 96.1L135.785 96.1292L136.048 95.0176L139.53 95.4856Z" stroke="#192F7C" stroke-opacity="0.8" stroke-width="2" stroke-miterlimit="10" stroke-linejoin="round"/>
</g>
<mask id="mask68_2_2732" style="mask-type:luminance" maskUnits="userSpaceOnUse" x="-42" y="-10" width="247" height="175">
<path d="M204.913 -9.4502H-41.4084V164.701H204.913V-9.4502Z" fill="white"/>
</mask>
<g mask="url(#mask68_2_2732)">
<path d="M132.042 103.939V105.695" stroke="#192F7C" stroke-opacity="0.8" stroke-width="2" stroke-miterlimit="10" stroke-linejoin="round"/>
</g>
<mask id="mask69_2_2732" style="mask-type:luminance" maskUnits="userSpaceOnUse" x="-42" y="-10" width="247" height="175">
<path d="M204.913 -9.4502H-41.4084V164.701H204.913V-9.4502Z" fill="white"/>
</mask>
<g mask="url(#mask69_2_2732)">
<path d="M132.333 108.006V109.761" stroke="#192F7C" stroke-opacity="0.8" stroke-width="2" stroke-miterlimit="10" stroke-linejoin="round"/>
</g>
<mask id="mask70_2_2732" style="mask-type:luminance" maskUnits="userSpaceOnUse" x="-42" y="-10" width="247" height="175">
<path d="M204.913 -9.4502H-41.4084V164.701H204.913V-9.4502Z" fill="white"/>
</mask>
<g mask="url(#mask70_2_2732)">
<path d="M131.982 100.021L132.011 101.776" stroke="#192F7C" stroke-opacity="0.8" stroke-width="2" stroke-miterlimit="10" stroke-linejoin="round"/>
</g>
<mask id="mask71_2_2732" style="mask-type:luminance" maskUnits="userSpaceOnUse" x="-42" y="-10" width="247" height="175">
<path d="M204.913 -9.4502H-41.4084V164.701H204.913V-9.4502Z" fill="white"/>
</mask>
<g mask="url(#mask71_2_2732)">
<path d="M131.982 96.3345L132.011 98.0897" stroke="#192F7C" stroke-opacity="0.8" stroke-width="2" stroke-miterlimit="10" stroke-linejoin="round"/>
</g>
<mask id="mask72_2_2732" style="mask-type:luminance" maskUnits="userSpaceOnUse" x="-42" y="-10" width="247" height="175">
<path d="M204.913 -9.4502H-41.4084V164.701H204.913V-9.4502Z" fill="white"/>
</mask>
<g mask="url(#mask72_2_2732)">
<path d="M133.414 98.2646L136.193 98.2354C136.193 98.2354 136.632 99.3178 136.076 99.7858C135.491 100.254 133.619 99.7566 133.619 99.7566" stroke="#192F7C" stroke-opacity="0.8" stroke-width="2" stroke-miterlimit="10" stroke-linejoin="round"/>
</g>
<mask id="mask73_2_2732" style="mask-type:luminance" maskUnits="userSpaceOnUse" x="-42" y="-10" width="247" height="175">
<path d="M204.913 -9.4502H-41.4084V164.701H204.913V-9.4502Z" fill="white"/>
</mask>
<g mask="url(#mask73_2_2732)">
<path d="M133.738 102.068L136.224 102.039C136.224 102.039 136.663 103.121 136.107 103.589C135.522 104.057 133.65 103.56 133.65 103.56" stroke="#192F7C" stroke-opacity="0.8" stroke-width="2" stroke-miterlimit="10" stroke-linejoin="round"/>
</g>
<mask id="mask74_2_2732" style="mask-type:luminance" maskUnits="userSpaceOnUse" x="-42" y="-10" width="247" height="175">
<path d="M204.913 -9.4502H-41.4084V164.701H204.913V-9.4502Z" fill="white"/>
</mask>
<g mask="url(#mask74_2_2732)">
<path d="M133.621 106.103L136.107 106.074C136.107 106.074 136.546 107.157 135.99 107.625C135.405 108.093 133.533 107.595 133.533 107.595" stroke="#192F7C" stroke-opacity="0.8" stroke-width="2" stroke-miterlimit="10" stroke-linejoin="round"/>
</g>
<mask id="mask75_2_2732" style="mask-type:luminance" maskUnits="userSpaceOnUse" x="-42" y="-10" width="247" height="175">
<path d="M204.913 -9.4502H-41.4084V164.701H204.913V-9.4502Z" fill="white"/>
</mask>
<g mask="url(#mask75_2_2732)">
<path d="M133.326 110.375L135.842 110.609C135.842 110.609 136.486 110.463 136.778 111.867C137.042 113.271 137.042 114.266 137.042 114.266" stroke="#192F7C" stroke-opacity="0.8" stroke-width="2" stroke-miterlimit="10" stroke-linejoin="round"/>
</g>
<mask id="mask76_2_2732" style="mask-type:luminance" maskUnits="userSpaceOnUse" x="-42" y="-10" width="247" height="175">
<path d="M204.913 -9.4502H-41.4084V164.701H204.913V-9.4502Z" fill="white"/>
</mask>
<g mask="url(#mask76_2_2732)">
<path d="M148.365 95.4564L148.599 112.746C148.599 112.746 148.716 113.448 149.184 113.916C149.652 114.384 151.729 114.355 151.729 114.355C151.729 114.355 153.367 111.02 154.333 110.522C155.298 110.025 158.253 109.645 158.253 109.645C158.253 109.645 158.984 108.679 158.78 108.036C158.546 107.392 154.801 107.626 154.801 107.626C154.801 107.626 153.631 106.397 154.304 106.105C154.976 105.812 158.136 105.725 158.136 105.725C158.136 105.725 158.809 105.725 158.809 104.935C158.809 104.145 158.546 103.794 158.546 103.794L155.298 103.735C155.298 103.735 154.333 103.706 154.333 103.033C154.333 102.36 154.157 101.805 154.157 101.805H158.37C158.37 101.805 158.78 101.541 158.75 100.898C158.721 100.254 158.575 99.903 158.575 99.903L154.596 99.7567C154.596 99.7567 154.04 98.8791 154.45 98.411C154.859 97.9137 158.399 97.9722 158.399 97.9722C158.399 97.9722 159.014 97.6797 158.926 97.0653C158.838 96.451 158.487 96.0999 158.487 96.0999L154.889 96.0707L152.402 96.0999L152.139 94.9883L148.365 95.4564Z" fill="white"/>
</g>
<mask id="mask77_2_2732" style="mask-type:luminance" maskUnits="userSpaceOnUse" x="-42" y="-10" width="247" height="175">
<path d="M204.913 -9.4502H-41.4084V164.701H204.913V-9.4502Z" fill="white"/>
</mask>
<g mask="url(#mask77_2_2732)">
<path d="M148.365 95.4564L148.599 112.746C148.599 112.746 148.716 113.448 149.184 113.916C149.652 114.384 151.729 114.355 151.729 114.355C151.729 114.355 153.367 111.02 154.333 110.522C155.298 110.025 158.253 109.645 158.253 109.645C158.253 109.645 158.984 108.679 158.78 108.036C158.546 107.392 154.801 107.626 154.801 107.626C154.801 107.626 153.631 106.397 154.304 106.105C154.976 105.812 158.136 105.725 158.136 105.725C158.136 105.725 158.809 105.725 158.809 104.935C158.809 104.145 158.546 103.794 158.546 103.794L155.298 103.735C155.298 103.735 154.333 103.706 154.333 103.033C154.333 102.36 154.157 101.805 154.157 101.805H158.37C158.37 101.805 158.78 101.541 158.75 100.898C158.721 100.254 158.575 99.903 158.575 99.903L154.596 99.7567C154.596 99.7567 154.04 98.8791 154.45 98.411C154.859 97.9137 158.399 97.9722 158.399 97.9722C158.399 97.9722 159.014 97.6797 158.926 97.0653C158.838 96.451 158.487 96.0999 158.487 96.0999L154.889 96.0707L152.402 96.0999L152.139 94.9883L148.365 95.4564Z" stroke="#192F7C" stroke-opacity="0.8" stroke-width="2" stroke-miterlimit="10" stroke-linejoin="round"/>
</g>
<mask id="mask78_2_2732" style="mask-type:luminance" maskUnits="userSpaceOnUse" x="-42" y="-10" width="247" height="175">
<path d="M204.913 -9.4502H-41.4084V164.701H204.913V-9.4502Z" fill="white"/>
</mask>
<g mask="url(#mask78_2_2732)">
<path d="M156.03 103.939L156.001 105.695" stroke="#192F7C" stroke-opacity="0.8" stroke-width="2" stroke-miterlimit="10" stroke-linejoin="round"/>
</g>
<mask id="mask79_2_2732" style="mask-type:luminance" maskUnits="userSpaceOnUse" x="-42" y="-10" width="247" height="175">
<path d="M204.913 -9.4502H-41.4084V164.701H204.913V-9.4502Z" fill="white"/>
</mask>
<g mask="url(#mask79_2_2732)">
<path d="M155.737 107.979L155.708 109.763" stroke="#192F7C" stroke-opacity="0.8" stroke-width="2" stroke-miterlimit="10" stroke-linejoin="round"/>
</g>
<mask id="mask80_2_2732" style="mask-type:luminance" maskUnits="userSpaceOnUse" x="-42" y="-10" width="247" height="175">
<path d="M204.913 -9.4502H-41.4084V164.701H204.913V-9.4502Z" fill="white"/>
</mask>
<g mask="url(#mask80_2_2732)">
<path d="M156.088 100.021L156.059 101.776" stroke="#192F7C" stroke-opacity="0.8" stroke-width="2" stroke-miterlimit="10" stroke-linejoin="round"/>
</g>
<mask id="mask81_2_2732" style="mask-type:luminance" maskUnits="userSpaceOnUse" x="-42" y="-10" width="247" height="175">
<path d="M204.913 -9.4502H-41.4084V164.701H204.913V-9.4502Z" fill="white"/>
</mask>
<g mask="url(#mask81_2_2732)">
<path d="M156.088 96.3052L156.059 98.0604" stroke="#192F7C" stroke-opacity="0.8" stroke-width="2" stroke-miterlimit="10" stroke-linejoin="round"/>
</g>
<mask id="mask82_2_2732" style="mask-type:luminance" maskUnits="userSpaceOnUse" x="-42" y="-10" width="247" height="175">
<path d="M204.913 -9.4502H-41.4084V164.701H204.913V-9.4502Z" fill="white"/>
</mask>
<g mask="url(#mask82_2_2732)">
<path d="M154.625 98.2646L151.817 98.2354C151.817 98.2354 151.349 99.3178 151.934 99.7858C152.519 100.254 154.45 99.7566 154.45 99.7566" stroke="#192F7C" stroke-opacity="0.8" stroke-width="2" stroke-miterlimit="10" stroke-linejoin="round"/>
</g>
<mask id="mask83_2_2732" style="mask-type:luminance" maskUnits="userSpaceOnUse" x="-42" y="-10" width="247" height="175">
<path d="M204.913 -9.4502H-41.4084V164.701H204.913V-9.4502Z" fill="white"/>
</mask>
<g mask="url(#mask83_2_2732)">
<path d="M154.273 102.068L151.728 102.039C151.728 102.039 151.26 103.121 151.845 103.589C152.43 104.057 154.361 103.56 154.361 103.56" stroke="#192F7C" stroke-opacity="0.8" stroke-width="2" stroke-miterlimit="10" stroke-linejoin="round"/>
</g>
<mask id="mask84_2_2732" style="mask-type:luminance" maskUnits="userSpaceOnUse" x="-42" y="-10" width="247" height="175">
<path d="M204.913 -9.4502H-41.4084V164.701H204.913V-9.4502Z" fill="white"/>
</mask>
<g mask="url(#mask84_2_2732)">
<path d="M154.419 106.103L151.874 106.074C151.874 106.074 151.406 107.157 151.991 107.625C152.576 108.093 154.507 107.595 154.507 107.595" stroke="#192F7C" stroke-opacity="0.8" stroke-width="2" stroke-miterlimit="10" stroke-linejoin="round"/>
</g>
<mask id="mask85_2_2732" style="mask-type:luminance" maskUnits="userSpaceOnUse" x="-42" y="-10" width="247" height="175">
<path d="M204.913 -9.4502H-41.4084V164.701H204.913V-9.4502Z" fill="white"/>
</mask>
<g mask="url(#mask85_2_2732)">
<path d="M154.684 110.375L152.138 110.609C152.138 110.609 151.466 110.463 151.202 111.867C150.939 113.271 150.939 114.266 150.939 114.266" stroke="#192F7C" stroke-opacity="0.8" stroke-width="2" stroke-miterlimit="10" stroke-linejoin="round"/>
</g>
<mask id="mask86_2_2732" style="mask-type:luminance" maskUnits="userSpaceOnUse" x="-42" y="-10" width="247" height="175">
<path d="M204.913 -9.4502H-41.4084V164.701H204.913V-9.4502Z" fill="white"/>
</mask>
<g mask="url(#mask86_2_2732)">
<path d="M130.635 88.3769C130.986 88.0843 131.688 87.9966 131.688 87.9966H143.215L143.098 94.9298L141.138 95.1054L141.05 94.5788L139.675 94.6081L139.529 95.1931L135.901 94.9884L135.872 95.8367L133.473 95.8952C133.473 95.8952 133.444 95.3394 132.888 95.1639C132.332 94.9884 130.313 94.9298 130.313 94.9298L130.343 89.1668C130.313 89.2253 130.284 88.6694 130.635 88.3769Z" fill="white"/>
</g>
<mask id="mask87_2_2732" style="mask-type:luminance" maskUnits="userSpaceOnUse" x="-42" y="-10" width="247" height="175">
<path d="M204.913 -9.4502H-41.4084V164.701H204.913V-9.4502Z" fill="white"/>
</mask>
<g mask="url(#mask87_2_2732)">
<path d="M130.635 88.3769C130.986 88.0843 131.688 87.9966 131.688 87.9966H143.215L143.098 94.9298L141.138 95.1054L141.05 94.5788L139.675 94.6081L139.529 95.1931L135.901 94.9884L135.872 95.8367L133.473 95.8952C133.473 95.8952 133.444 95.3394 132.888 95.1639C132.332 94.9884 130.313 94.9298 130.313 94.9298L130.343 89.1668C130.313 89.2253 130.284 88.6694 130.635 88.3769Z" stroke="#192F7C" stroke-opacity="0.8" stroke-width="2" stroke-miterlimit="10" stroke-linejoin="round"/>
</g>
<mask id="mask88_2_2732" style="mask-type:luminance" maskUnits="userSpaceOnUse" x="-42" y="-10" width="247" height="175">
<path d="M204.913 -9.4502H-41.4084V164.701H204.913V-9.4502Z" fill="white"/>
</mask>
<g mask="url(#mask88_2_2732)">
<path d="M135.756 88.0537C135.756 88.0537 134.293 88.083 133.854 88.1415C133.445 88.2292 133.181 88.6973 133.094 89.2239C132.889 90.277 132.889 95.2503 132.889 95.2503" stroke="#192F7C" stroke-opacity="0.8" stroke-width="2" stroke-miterlimit="10" stroke-linejoin="round"/>
</g>
<mask id="mask89_2_2732" style="mask-type:luminance" maskUnits="userSpaceOnUse" x="-42" y="-10" width="247" height="175">
<path d="M204.913 -9.4502H-41.4084V164.701H204.913V-9.4502Z" fill="white"/>
</mask>
<g mask="url(#mask89_2_2732)">
<path d="M157.55 88.4648C157.17 88.1722 156.38 88.0845 156.38 88.0845H143.655L143.801 95.0177L145.966 95.1933L146.083 94.6667L147.575 94.6959L147.721 95.281L151.729 95.0762L151.758 95.9246L154.42 95.9831C154.42 95.9831 154.449 95.4273 155.064 95.2518C155.678 95.0763 157.901 95.0177 157.901 95.0177L157.872 89.2546C157.901 89.3132 157.931 88.7866 157.55 88.4648Z" fill="white"/>
</g>
<mask id="mask90_2_2732" style="mask-type:luminance" maskUnits="userSpaceOnUse" x="-42" y="-10" width="247" height="175">
<path d="M204.913 -9.4502H-41.4084V164.701H204.913V-9.4502Z" fill="white"/>
</mask>
<g mask="url(#mask90_2_2732)">
<path d="M157.55 88.4648C157.17 88.1722 156.38 88.0845 156.38 88.0845H143.655L143.801 95.0177L145.966 95.1933L146.083 94.6667L147.575 94.6959L147.721 95.281L151.729 95.0762L151.758 95.9246L154.42 95.9831C154.42 95.9831 154.449 95.4273 155.064 95.2518C155.678 95.0763 157.901 95.0177 157.901 95.0177L157.872 89.2546C157.901 89.3132 157.931 88.7866 157.55 88.4648Z" stroke="#192F7C" stroke-opacity="0.8" stroke-width="2" stroke-miterlimit="10" stroke-linejoin="round"/>
</g>
<mask id="mask91_2_2732" style="mask-type:luminance" maskUnits="userSpaceOnUse" x="-42" y="-10" width="247" height="175">
<path d="M204.913 -9.4502H-41.4084V164.701H204.913V-9.4502Z" fill="white"/>
</mask>
<g mask="url(#mask91_2_2732)">
<path d="M151.905 88.1416C151.905 88.1416 153.543 88.1709 154.011 88.2294C154.479 88.3171 154.742 88.7852 154.859 89.3118C155.094 90.3649 155.094 95.3382 155.094 95.3382" stroke="#192F7C" stroke-opacity="0.8" stroke-width="2" stroke-miterlimit="10" stroke-linejoin="round"/>
</g>
<mask id="mask92_2_2732" style="mask-type:luminance" maskUnits="userSpaceOnUse" x="-42" y="-10" width="247" height="175">
<path d="M204.913 -9.4502H-41.4084V164.701H204.913V-9.4502Z" fill="white"/>
</mask>
<g mask="url(#mask92_2_2732)">
<path d="M29.5918 142.146L29.6503 145.423L73.9706 151.273C73.9706 151.273 81.1087 151.917 83.3905 151.273C85.6723 150.63 118.671 143.901 118.671 143.901L118.408 140.215L29.5918 142.146Z" fill="white"/>
</g>
<mask id="mask93_2_2732" style="mask-type:luminance" maskUnits="userSpaceOnUse" x="-42" y="-10" width="247" height="175">
<path d="M204.913 -9.4502H-41.4084V164.701H204.913V-9.4502Z" fill="white"/>
</mask>
<g mask="url(#mask93_2_2732)">
<path d="M29.5918 142.146L29.6503 145.423L73.9706 151.273C73.9706 151.273 81.1087 151.917 83.3905 151.273C85.6723 150.63 118.671 143.901 118.671 143.901L118.408 140.215L29.5918 142.146Z" stroke="#192F7C" stroke-opacity="0.8" stroke-width="2" stroke-miterlimit="10" stroke-linejoin="round"/>
</g>
<mask id="mask94_2_2732" style="mask-type:luminance" maskUnits="userSpaceOnUse" x="-42" y="-10" width="247" height="175">
<path d="M204.913 -9.4502H-41.4084V164.701H204.913V-9.4502Z" fill="white"/>
</mask>
<g mask="url(#mask94_2_2732)">
<path d="M28.7738 112.423C28.6276 112.833 28.6861 114.062 28.6861 114.062L28.6276 141.707L74.3228 147.265C74.3228 147.265 80.7587 147.704 83.3624 147.119C85.9367 146.534 119.638 140.391 119.638 140.391L119.345 114.179V112.979C119.345 112.979 119.374 111.604 119.111 111.575C118.146 111.517 116.537 111.487 116.537 111.487L29.9733 112.453H29.2712C29.2712 112.453 28.9201 112.014 28.7738 112.423Z" fill="white"/>
</g>
<mask id="mask95_2_2732" style="mask-type:luminance" maskUnits="userSpaceOnUse" x="-42" y="-10" width="247" height="175">
<path d="M204.913 -9.4502H-41.4084V164.701H204.913V-9.4502Z" fill="white"/>
</mask>
<g mask="url(#mask95_2_2732)">
<path d="M28.7738 112.423C28.6276 112.833 28.6861 114.062 28.6861 114.062L28.6276 141.707L74.3228 147.265C74.3228 147.265 80.7587 147.704 83.3624 147.119C85.9367 146.534 119.638 140.391 119.638 140.391L119.345 114.179V112.979C119.345 112.979 119.374 111.604 119.111 111.575C118.146 111.517 116.537 111.487 116.537 111.487L29.9733 112.453H29.2712C29.2712 112.453 28.9201 112.014 28.7738 112.423Z" stroke="#192F7C" stroke-opacity="0.8" stroke-width="2" stroke-miterlimit="10" stroke-linejoin="round"/>
</g>
<mask id="mask96_2_2732" style="mask-type:luminance" maskUnits="userSpaceOnUse" x="-42" y="-10" width="247" height="175">
<path d="M204.913 -9.4502H-41.4084V164.701H204.913V-9.4502Z" fill="white"/>
</mask>
<g mask="url(#mask96_2_2732)">
<path d="M74.6139 115.583L74.7309 146.856" stroke="#192F7C" stroke-opacity="0.8" stroke-width="2" stroke-miterlimit="10" stroke-linejoin="round"/>
</g>
<mask id="mask97_2_2732" style="mask-type:luminance" maskUnits="userSpaceOnUse" x="-42" y="-10" width="247" height="175">
<path d="M204.913 -9.4502H-41.4084V164.701H204.913V-9.4502Z" fill="white"/>
</mask>
<g mask="url(#mask97_2_2732)">
<path d="M82.4835 115.669L82.9516 147.089" stroke="#192F7C" stroke-opacity="0.8" stroke-width="2" stroke-miterlimit="10" stroke-linejoin="round"/>
</g>
<mask id="mask98_2_2732" style="mask-type:luminance" maskUnits="userSpaceOnUse" x="-42" y="-10" width="247" height="175">
<path d="M204.913 -9.4502H-41.4084V164.701H204.913V-9.4502Z" fill="white"/>
</mask>
<g mask="url(#mask98_2_2732)">
<path d="M42.3172 110.933L28.948 112.249L72.0395 115.409C72.0395 115.409 80.026 115.847 82.6296 115.379C85.2625 114.911 119.11 111.605 119.11 111.605L42.3172 110.933Z" fill="white"/>
</g>
<mask id="mask99_2_2732" style="mask-type:luminance" maskUnits="userSpaceOnUse" x="-42" y="-10" width="247" height="175">
<path d="M204.913 -9.4502H-41.4084V164.701H204.913V-9.4502Z" fill="white"/>
</mask>
<g mask="url(#mask99_2_2732)">
<path d="M42.3172 110.933L28.948 112.249L72.0395 115.409C72.0395 115.409 80.026 115.847 82.6296 115.379C85.2625 114.911 119.11 111.605 119.11 111.605L42.3172 110.933Z" stroke="#192F7C" stroke-opacity="0.8" stroke-width="2" stroke-miterlimit="10" stroke-linejoin="round"/>
</g>
<mask id="mask100_2_2732" style="mask-type:luminance" maskUnits="userSpaceOnUse" x="-42" y="-10" width="247" height="175">
<path d="M204.913 -9.4502H-41.4084V164.701H204.913V-9.4502Z" fill="white"/>
</mask>
<g mask="url(#mask100_2_2732)">
<path d="M43.7505 83.7822L51.1226 84.3088C51.1226 84.3088 51.6492 85.5082 50.3327 86.2103C49.0163 86.9417 42.8729 87.9948 42.8729 87.9948" stroke="#192F7C" stroke-opacity="0.8" stroke-width="2" stroke-miterlimit="10" stroke-linejoin="round"/>
</g>
<mask id="mask101_2_2732" style="mask-type:luminance" maskUnits="userSpaceOnUse" x="-42" y="-10" width="247" height="175">
<path d="M204.913 -9.4502H-41.4084V164.701H204.913V-9.4502Z" fill="white"/>
</mask>
<g mask="url(#mask101_2_2732)">
<path d="M43.43 109.587L42.172 109.674V110.961L76.3703 113.36L107.292 111.108L107.234 109.323L43.43 109.587Z" fill="white"/>
</g>
<mask id="mask102_2_2732" style="mask-type:luminance" maskUnits="userSpaceOnUse" x="-42" y="-10" width="247" height="175">
<path d="M204.913 -9.4502H-41.4084V164.701H204.913V-9.4502Z" fill="white"/>
</mask>
<g mask="url(#mask102_2_2732)">
<path d="M43.43 109.587L42.172 109.674V110.961L76.3703 113.36L107.292 111.108L107.234 109.323L43.43 109.587Z" stroke="#192F7C" stroke-opacity="0.8" stroke-width="2" stroke-miterlimit="10" stroke-linejoin="round"/>
</g>
<mask id="mask103_2_2732" style="mask-type:luminance" maskUnits="userSpaceOnUse" x="-42" y="-10" width="247" height="175">
<path d="M204.913 -9.4502H-41.4084V164.701H204.913V-9.4502Z" fill="white"/>
</mask>
<g mask="url(#mask103_2_2732)">
<path d="M88.1595 79.6294L88.218 82.7011L87.5744 107.333L104.571 106.69L105.01 84.6611L99.5687 79.9804L88.1595 79.6294Z" fill="white"/>
</g>
<mask id="mask104_2_2732" style="mask-type:luminance" maskUnits="userSpaceOnUse" x="-42" y="-10" width="247" height="175">
<path d="M204.913 -9.4502H-41.4084V164.701H204.913V-9.4502Z" fill="white"/>
</mask>
<g mask="url(#mask104_2_2732)">
<path d="M88.1595 79.6294L88.218 82.7011L87.5744 107.333L104.571 106.69L105.01 84.6611L99.5687 79.9804L88.1595 79.6294Z" stroke="#192F7C" stroke-opacity="0.8" stroke-width="2" stroke-miterlimit="10" stroke-linejoin="round"/>
</g>
<mask id="mask105_2_2732" style="mask-type:luminance" maskUnits="userSpaceOnUse" x="-42" y="-10" width="247" height="175">
<path d="M204.913 -9.4502H-41.4084V164.701H204.913V-9.4502Z" fill="white"/>
</mask>
<g mask="url(#mask105_2_2732)">
<path d="M100.855 103.355C101.421 103.355 101.879 102.778 101.879 102.067C101.879 101.357 101.421 100.78 100.855 100.78C100.29 100.78 99.8311 101.357 99.8311 102.067C99.8311 102.778 100.29 103.355 100.855 103.355Z" fill="white"/>
</g>
<mask id="mask106_2_2732" style="mask-type:luminance" maskUnits="userSpaceOnUse" x="-42" y="-10" width="247" height="175">
<path d="M204.913 -9.4502H-41.4084V164.701H204.913V-9.4502Z" fill="white"/>
</mask>
<g mask="url(#mask106_2_2732)">
<path d="M100.855 103.355C101.421 103.355 101.879 102.778 101.879 102.067C101.879 101.357 101.421 100.78 100.855 100.78C100.29 100.78 99.8311 101.357 99.8311 102.067C99.8311 102.778 100.29 103.355 100.855 103.355Z" stroke="#192F7C" stroke-opacity="0.8" stroke-width="2" stroke-miterlimit="10" stroke-linejoin="round"/>
</g>
<mask id="mask107_2_2732" style="mask-type:luminance" maskUnits="userSpaceOnUse" x="-42" y="-10" width="247" height="175">
<path d="M204.913 -9.4502H-41.4084V164.701H204.913V-9.4502Z" fill="white"/>
</mask>
<g mask="url(#mask107_2_2732)">
<path d="M43.5445 80.653L54.3101 78.9855L83.3303 79.3073C83.3303 79.3073 87.6892 80.2434 89.1812 85.2459C90.6731 90.2484 89.5322 103.559 89.5322 103.559C89.5322 103.559 89.5907 105.022 90.8194 105.344C92.0773 105.665 102.609 104.554 102.609 104.554C102.609 104.554 103.574 104.378 103.604 103.15C103.633 101.95 103.194 86.7086 103.194 86.7086C103.194 86.7086 102.346 82.1742 100.005 81.1503C97.6649 80.1264 92.6039 79.9801 92.6039 79.9801L88.011 79.5998L87.6307 78.7515L98.5425 79.6583C98.5425 79.6583 101.878 80.1264 104.306 81.9987C106.734 83.871 106.617 86.5039 106.617 86.5039L106.266 109.615L80.4927 111.663C80.4927 111.663 77.889 111.867 76.7481 111.633C75.6072 111.37 43.486 109.468 43.486 109.468L43.5445 80.653Z" fill="white"/>
</g>
<mask id="mask108_2_2732" style="mask-type:luminance" maskUnits="userSpaceOnUse" x="-42" y="-10" width="247" height="175">
<path d="M204.913 -9.4502H-41.4084V164.701H204.913V-9.4502Z" fill="white"/>
</mask>
<g mask="url(#mask108_2_2732)">
<path d="M43.5445 80.653L54.3101 78.9855L83.3303 79.3073C83.3303 79.3073 87.6892 80.2434 89.1812 85.2459C90.6731 90.2484 89.5322 103.559 89.5322 103.559C89.5322 103.559 89.5907 105.022 90.8194 105.344C92.0773 105.665 102.609 104.554 102.609 104.554C102.609 104.554 103.574 104.378 103.604 103.15C103.633 101.95 103.194 86.7086 103.194 86.7086C103.194 86.7086 102.346 82.1742 100.005 81.1503C97.6649 80.1264 92.6039 79.9801 92.6039 79.9801L88.011 79.5998L87.6307 78.7515L98.5425 79.6583C98.5425 79.6583 101.878 80.1264 104.306 81.9987C106.734 83.871 106.617 86.5039 106.617 86.5039L106.266 109.615L80.4927 111.663C80.4927 111.663 77.889 111.867 76.7481 111.633C75.6072 111.37 43.486 109.468 43.486 109.468L43.5445 80.653Z" stroke="#192F7C" stroke-opacity="0.8" stroke-width="2" stroke-miterlimit="10" stroke-linejoin="round"/>
</g>
<mask id="mask109_2_2732" style="mask-type:luminance" maskUnits="userSpaceOnUse" x="-42" y="-10" width="247" height="175">
<path d="M204.913 -9.4502H-41.4084V164.701H204.913V-9.4502Z" fill="white"/>
</mask>
<g mask="url(#mask109_2_2732)">
<path d="M43.6921 82.3203L70.1965 82.6714C70.1965 82.6714 73.2389 82.6421 74.4091 84.5144C75.5793 86.3867 75.1404 89.0488 75.1404 89.0488L74.7601 106.66C74.7601 106.66 74.7016 108.327 73.0049 109.146C71.3081 109.966 28.0995 108.152 28.0995 108.152C28.0995 108.152 25.9932 107.362 26.0517 105.46C26.1102 103.559 26.315 87.2935 26.315 87.2935C26.315 87.2935 26.2565 84.6314 28.0703 83.9878C29.8548 83.3735 43.7798 83.666 43.7798 83.666L43.6921 82.3203Z" fill="white"/>
</g>
<mask id="mask110_2_2732" style="mask-type:luminance" maskUnits="userSpaceOnUse" x="-42" y="-10" width="247" height="175">
<path d="M204.913 -9.4502H-41.4084V164.701H204.913V-9.4502Z" fill="white"/>
</mask>
<g mask="url(#mask110_2_2732)">
<path d="M43.6921 82.3203L70.1965 82.6714C70.1965 82.6714 73.2389 82.6421 74.4091 84.5144C75.5793 86.3867 75.1404 89.0488 75.1404 89.0488L74.7601 106.66C74.7601 106.66 74.7016 108.327 73.0049 109.146C71.3081 109.966 28.0995 108.152 28.0995 108.152C28.0995 108.152 25.9932 107.362 26.0517 105.46C26.1102 103.559 26.315 87.2935 26.315 87.2935C26.315 87.2935 26.2565 84.6314 28.0703 83.9878C29.8548 83.3735 43.7798 83.666 43.7798 83.666L43.6921 82.3203Z" stroke="#192F7C" stroke-opacity="0.8" stroke-width="2" stroke-miterlimit="10" stroke-linejoin="round"/>
</g>
<mask id="mask111_2_2732" style="mask-type:luminance" maskUnits="userSpaceOnUse" x="-42" y="-10" width="247" height="175">
<path d="M204.913 -9.4502H-41.4084V164.701H204.913V-9.4502Z" fill="white"/>
</mask>
<g mask="url(#mask111_2_2732)">
<path d="M28.2748 84.2534L40.9712 84.3704C40.9712 84.3704 42.4047 84.3119 42.7557 86.5938C43.1068 88.8756 42.5217 107.306 42.5217 107.306C42.5217 107.306 41.527 108.359 39.9473 108.622" stroke="#192F7C" stroke-opacity="0.8" stroke-width="2" stroke-miterlimit="10" stroke-linejoin="round"/>
</g>
<mask id="mask112_2_2732" style="mask-type:luminance" maskUnits="userSpaceOnUse" x="-42" y="-10" width="247" height="175">
<path d="M204.913 -9.4502H-41.4084V164.701H204.913V-9.4502Z" fill="white"/>
</mask>
<g mask="url(#mask112_2_2732)">
<path d="M51.3854 84.2534C51.3854 84.2534 51.9997 84.9848 52.38 87.0618C52.7603 89.1389 52.4678 106.37 52.4678 106.37C52.4678 106.37 51.5902 107.686 50.4785 108.154C49.3668 108.622 41.6729 108.388 41.6729 108.388" stroke="#192F7C" stroke-opacity="0.8" stroke-width="2" stroke-miterlimit="10" stroke-linejoin="round"/>
</g>
<mask id="mask113_2_2732" style="mask-type:luminance" maskUnits="userSpaceOnUse" x="-42" y="-10" width="247" height="175">
<path d="M204.913 -9.4502H-41.4084V164.701H204.913V-9.4502Z" fill="white"/>
</mask>
<g mask="url(#mask113_2_2732)">
<path d="M51.2109 84.4551L62.3568 84.6891C62.3568 84.6891 64.3753 85.3327 64.5509 87.2635C64.7264 89.1943 64.4046 106.308 64.4046 106.308C64.4046 106.308 64.2583 106.922 63.9365 107.244C63.6147 107.566 63.0589 107.566 63.0589 107.566L51.796 107.244" stroke="#192F7C" stroke-opacity="0.8" stroke-width="2" stroke-miterlimit="10" stroke-linejoin="round"/>
</g>
<mask id="mask114_2_2732" style="mask-type:luminance" maskUnits="userSpaceOnUse" x="-42" y="-10" width="247" height="175">
<path d="M204.913 -9.4502H-41.4084V164.701H204.913V-9.4502Z" fill="white"/>
</mask>
<g mask="url(#mask114_2_2732)">
<path d="M43.5168 83.4634L69.4361 83.7267C69.4361 83.7267 72.3908 83.5511 73.2099 85.5404C74.029 87.5297 73.795 106.691 73.795 106.691C73.795 106.691 73.6195 108.3 71.9812 108.651C70.343 109.002 63.6145 109.149 63.6145 109.149C63.6145 109.149 64.9309 109.061 65.399 107.364C65.8671 105.667 65.633 86.5058 65.633 86.5058C65.633 86.5058 65.3405 85.7452 64.6676 85.0139C64.2288 84.5458 63.3805 83.8729 62.6198 83.6682" stroke="#192F7C" stroke-opacity="0.8" stroke-width="2" stroke-miterlimit="10" stroke-linejoin="round"/>
</g>
<mask id="mask115_2_2732" style="mask-type:luminance" maskUnits="userSpaceOnUse" x="-42" y="-10" width="247" height="175">
<path d="M204.913 -9.4502H-41.4084V164.701H204.913V-9.4502Z" fill="white"/>
</mask>
<g mask="url(#mask115_2_2732)">
<path d="M76.1649 147.5L76.1356 151.478" stroke="#192F7C" stroke-opacity="0.8" stroke-width="2" stroke-miterlimit="10" stroke-linejoin="round"/>
</g>
<mask id="mask116_2_2732" style="mask-type:luminance" maskUnits="userSpaceOnUse" x="-42" y="-10" width="247" height="175">
<path d="M204.913 -9.4502H-41.4084V164.701H204.913V-9.4502Z" fill="white"/>
</mask>
<g mask="url(#mask116_2_2732)">
<path d="M83.5972 147.266L83.6264 151.127" stroke="#192F7C" stroke-opacity="0.8" stroke-width="2" stroke-miterlimit="10" stroke-linejoin="round"/>
</g>
</g>
<path d="M51.4299 208H44.1305V187.409H51.4902C53.5614 187.409 55.3443 187.821 56.8391 188.646C58.3338 189.463 59.4834 190.64 60.2877 192.175C61.0987 193.71 61.5043 195.546 61.5043 197.684C61.5043 199.829 61.0987 201.673 60.2877 203.214C59.4834 204.756 58.3271 205.939 56.819 206.763C55.3175 207.588 53.5212 208 51.4299 208ZM48.484 204.27H51.2489C52.5359 204.27 53.6184 204.042 54.4964 203.586C55.3812 203.124 56.0448 202.41 56.4872 201.445C56.9363 200.473 57.1608 199.219 57.1608 197.684C57.1608 196.163 56.9363 194.919 56.4872 193.954C56.0448 192.989 55.3846 192.278 54.5065 191.823C53.6284 191.367 52.5459 191.139 51.259 191.139H48.484V204.27ZM83.0851 197.704C83.0851 199.95 82.6594 201.86 81.8082 203.435C80.9636 205.011 79.8107 206.214 78.3495 207.045C76.895 207.869 75.2595 208.282 73.443 208.282C71.6131 208.282 69.9709 207.866 68.5164 207.035C67.0619 206.204 65.9124 205 65.0678 203.425C64.2232 201.85 63.801 199.943 63.801 197.704C63.801 195.459 64.2232 193.549 65.0678 191.973C65.9124 190.398 67.0619 189.198 68.5164 188.374C69.9709 187.543 71.6131 187.127 73.443 187.127C75.2595 187.127 76.895 187.543 78.3495 188.374C79.8107 189.198 80.9636 190.398 81.8082 191.973C82.6594 193.549 83.0851 195.459 83.0851 197.704ZM78.6712 197.704C78.6712 196.25 78.4534 195.023 78.0177 194.025C77.5887 193.026 76.9821 192.268 76.1979 191.752C75.4137 191.236 74.4954 190.978 73.443 190.978C72.3907 190.978 71.4724 191.236 70.6881 191.752C69.9039 192.268 69.294 193.026 68.8583 194.025C68.4293 195.023 68.2148 196.25 68.2148 197.704C68.2148 199.159 68.4293 200.386 68.8583 201.384C69.294 202.383 69.9039 203.14 70.6881 203.657C71.4724 204.173 72.3907 204.431 73.443 204.431C74.4954 204.431 75.4137 204.173 76.1979 203.657C76.9821 203.14 77.5887 202.383 78.0177 201.384C78.4534 200.386 78.6712 199.159 78.6712 197.704ZM85.7437 208V187.409H93.9882C95.5031 187.409 96.7666 187.633 97.7787 188.082C98.7908 188.532 99.5516 189.155 100.061 189.953C100.57 190.744 100.825 191.655 100.825 192.687C100.825 193.492 100.664 194.199 100.343 194.809C100.021 195.412 99.5784 195.908 99.0154 196.297C98.459 196.679 97.8223 196.95 97.1051 197.111V197.312C97.8893 197.346 98.6233 197.567 99.3069 197.976C99.9973 198.385 100.557 198.958 100.986 199.695C101.415 200.426 101.629 201.297 101.629 202.309C101.629 203.402 101.358 204.377 100.815 205.235C100.279 206.086 99.4846 206.76 98.4322 207.256C97.3799 207.752 96.0829 208 94.5412 208H85.7437ZM90.0972 204.441H93.6464C94.8596 204.441 95.7444 204.21 96.3007 203.747C96.8571 203.278 97.1352 202.654 97.1352 201.877C97.1352 201.307 96.9978 200.804 96.723 200.369C96.4482 199.933 96.0561 199.591 95.5466 199.343C95.0439 199.095 94.444 198.971 93.7469 198.971H90.0972V204.441ZM90.0972 196.025H93.3247C93.9212 196.025 94.4507 195.921 94.9132 195.714C95.3824 195.499 95.7511 195.198 96.0192 194.809C96.294 194.42 96.4314 193.954 96.4314 193.411C96.4314 192.667 96.1667 192.067 95.6371 191.612C95.1143 191.156 94.3703 190.928 93.4051 190.928H90.0972V196.025ZM122.818 197.704C122.818 199.95 122.393 201.86 121.541 203.435C120.697 205.011 119.544 206.214 118.083 207.045C116.628 207.869 114.993 208.282 113.176 208.282C111.346 208.282 109.704 207.866 108.25 207.035C106.795 206.204 105.645 205 104.801 203.425C103.956 201.85 103.534 199.943 103.534 197.704C103.534 195.459 103.956 193.549 104.801 191.973C105.645 190.398 106.795 189.198 108.25 188.374C109.704 187.543 111.346 187.127 113.176 187.127C114.993 187.127 116.628 187.543 118.083 188.374C119.544 189.198 120.697 190.398 121.541 191.973C122.393 193.549 122.818 195.459 122.818 197.704ZM118.404 197.704C118.404 196.25 118.187 195.023 117.751 194.025C117.322 193.026 116.715 192.268 115.931 191.752C115.147 191.236 114.228 190.978 113.176 190.978C112.124 190.978 111.205 191.236 110.421 191.752C109.637 192.268 109.027 193.026 108.591 194.025C108.162 195.023 107.948 196.25 107.948 197.704C107.948 199.159 108.162 200.386 108.591 201.384C109.027 202.383 109.637 203.14 110.421 203.657C111.205 204.173 112.124 204.431 113.176 204.431C114.228 204.431 115.147 204.173 115.931 203.657C116.715 203.14 117.322 202.383 117.751 201.384C118.187 200.386 118.404 199.159 118.404 197.704ZM123.753 190.998V187.409H140.664V190.998H134.36V208H130.057V190.998H123.753Z" fill="#213A8A" fill-opacity="0.8"/>
</svg>
