<svg width="256" height="161" viewBox="0 0 256 161" fill="none" xmlns="http://www.w3.org/2000/svg">
<path opacity="0.2" d="M116.974 155.483C122.867 162.305 133.443 162.305 139.337 155.483L251.806 25.2923C260.077 15.7189 253.276 0.856552 240.625 0.856552H15.6857C3.03467 0.856552 -3.76622 15.7189 4.50407 25.2923L116.974 155.483Z" fill="#213A8A"/>
<path d="M120.532 137.822C124.515 142.433 131.663 142.433 135.646 137.822L211.657 49.8346C217.246 43.3645 212.65 33.32 204.1 33.32H52.0779C43.5279 33.32 38.9316 43.3645 44.521 49.8345L120.532 137.822Z" fill="#213A8A"/>
<g opacity="0.52" clip-path="url(#clip0_374_1288)">
<path fill-rule="evenodd" clip-rule="evenodd" d="M81.6954 44H68V47.0145H75.5957H81.1199C82.1557 47.0145 82.9613 47.8261 82.9613 48.8696V63.4783C82.9613 64.5217 82.1557 65.3333 81.1199 65.3333H74.7901V48.2899H68V68.4638H81.6954C86.1838 68.4638 89.8665 64.7536 89.8665 60.2319V52.1159C89.7515 47.7101 86.1838 44 81.6954 44ZM105.749 44H100.224C95.736 44 92.0532 47.7101 92.0532 52.2319V60.3478C92.0532 64.8696 95.736 68.5797 100.224 68.5797H105.749C110.237 68.5797 113.92 64.8696 113.92 60.3478V52.2319C113.805 47.7101 110.237 44 105.749 44ZM107.13 63.5942C107.13 64.6377 106.324 65.4493 105.288 65.4493H100.8C99.764 65.4493 98.9584 64.6377 98.9584 63.5942V48.8696C98.9584 47.8261 99.764 47.0145 100.8 47.0145H105.288C106.324 47.0145 107.13 47.8261 107.13 48.8696V63.5942ZM165.249 44V47.0145H170.427H181.131H187V44H165.249ZM131.643 44H116.797V47.0145H125.889H129.917C130.953 47.0145 131.758 47.8261 131.758 48.8696V52.9275C131.758 53.971 130.953 54.7826 129.917 54.7826H123.472V48.2899H116.682V68.4638H131.413C135.326 68.4638 138.433 65.3333 138.433 61.3913V61.0435C138.433 59.0725 137.513 57.3333 136.016 56.1739C137.513 55.1304 138.433 53.2754 138.433 51.3043V51.0725C138.663 47.1304 135.441 44 131.643 44ZM131.873 63.5942C131.873 64.6377 131.068 65.4493 130.032 65.4493H123.587V57.6812H130.032C131.068 57.6812 131.873 58.4928 131.873 59.5362V63.5942ZM172.729 68.4638H179.519V48.2899H172.729V68.4638ZM155.351 44H149.827C145.338 44 141.656 47.7101 141.656 52.2319V60.3478C141.656 64.8696 145.338 68.5797 149.827 68.5797H155.351C159.839 68.5797 163.522 64.8696 163.522 60.3478V52.2319C163.407 47.7101 159.839 44 155.351 44ZM156.617 63.5942C156.617 64.6377 155.811 65.4493 154.776 65.4493H150.287C149.251 65.4493 148.446 64.6377 148.446 63.5942V48.8696C148.446 47.8261 149.251 47.0145 150.287 47.0145H154.776C155.811 47.0145 156.617 47.8261 156.617 48.8696V63.5942Z" fill="white"/>
</g>
<defs>
<clipPath id="clip0_374_1288">
<rect width="119" height="24" fill="white" transform="translate(68 44)"/>
</clipPath>
</defs>
</svg>
