<svg width="1920" height="1181" viewBox="0 0 1920 1181" fill="none" xmlns="http://www.w3.org/2000/svg">
<g clip-path="url(#clip0_1329_71808)">
<rect width="1920" height="1181" fill="#D5D4D4"/>
<rect x="-53.3789" y="-139.236" width="2048.11" height="1178.05" fill="#D5D4D4"/>
<path d="M-53 -139H1995V4008H-53V-139Z" fill="#099AD7"/>
<mask id="mask0_1329_71808" style="mask-type:luminance" maskUnits="userSpaceOnUse" x="66" y="-153" width="1920" height="1337">
<path d="M1986 -153H66V1184H1986V-153Z" fill="white"/>
</mask>
<g mask="url(#mask0_1329_71808)">
<mask id="mask1_1329_71808" style="mask-type:luminance" maskUnits="userSpaceOnUse" x="66" y="-152" width="1920" height="1336">
<path d="M1986 -152H66V1184H1986V-152Z" fill="white"/>
</mask>
<g mask="url(#mask1_1329_71808)">
<path d="M2067 -221.7H15.6992V1272.2H2067V-221.7Z" fill="#099AD7"/>
</g>
<mask id="mask2_1329_71808" style="mask-type:luminance" maskUnits="userSpaceOnUse" x="66" y="-152" width="1920" height="1336">
<path d="M1986 -152H66V1184H1986V-152Z" fill="white"/>
</mask>
<g mask="url(#mask2_1329_71808)">
<path d="M1344.4 752C1318.9 763.7 1291.6 772.9 1267 786.3C1246.8 797.3 1227.9 813.6 1210.9 828.9C1205.4 833.8 1201 840 1195.4 844.9C1186.1 853.1 1178 862.2 1167.8 869.4C1165.7 870.9 1159.4 874.5 1158.8 877.4C1156.5 889.2 1178 889.6 1182.3 893.9C1186.4 898 1180.2 906.1 1179.3 910.4C1177.9 917.5 1181.2 924.2 1182.3 930.9C1183.2 936.1 1181.7 941.6 1180.3 946.4C1175.7 962.5 1170.1 978.4 1165.3 994.5C1163.1 1001.7 1162.7 1009.4 1160.3 1016.5C1158.1 1023.1 1156.1 1030.6 1155.3 1037.5C1154.5 1045.1 1154.2 1052.9 1153.3 1060.5C1150.8 1080.8 1153.7 1105.4 1164.8 1123.1C1169.6 1130.9 1181.1 1146 1188.8 1150.7C1198.4 1156.5 1210.3 1159.1 1221.4 1160.7C1228.6 1161.7 1235.4 1164.9 1242.4 1166.7C1252.5 1169.2 1265.9 1169.3 1274.5 1175.7C1279.1 1179.1 1276 1202 1277 1207.3C1280.5 1226.7 1287.6 1247.1 1298 1263.9C1306.9 1278.2 1321.2 1282.7 1336.6 1286.9C1352.5 1291.3 1371.2 1292.5 1387.7 1291.9C1397.7 1291.5 1407.5 1287.2 1416.8 1283.9C1429.6 1279.2 1442.4 1275.4 1454.9 1269.9C1466.7 1264.7 1478.6 1253.2 1479.9 1239.8C1480.6 1232.5 1479.7 1225.1 1480.4 1217.8C1481.1 1210 1484.7 1200.1 1483.4 1192.3C1482.2 1185.1 1474.3 1178.4 1475.4 1170.8C1478.7 1148 1485.1 1125.2 1488.4 1102.2C1490.4 1087.9 1490.9 1073.4 1492.9 1059.1C1495 1044.2 1499.7 1026 1495.4 1011C1492.2 999.9 1485.2 991.8 1476.4 984.5C1473.5 982.1 1465.7 979.3 1464.4 975.5C1463.3 972.3 1467.3 966.7 1467.9 963.5C1469.4 955.1 1469.3 947.8 1468.4 939.5C1465.3 911.7 1442.4 882.9 1424.8 861.9C1415.7 850.9 1403.2 840.7 1396.7 827.8C1393.7 821.9 1394.4 813.6 1391.7 807.3C1386.9 796.2 1377.8 781.9 1368.2 774.2C1361.2 768.7 1354.6 747.3 1344.4 752Z" fill="#12B6FB"/>
</g>
<mask id="mask3_1329_71808" style="mask-type:luminance" maskUnits="userSpaceOnUse" x="66" y="-152" width="1920" height="1336">
<path d="M1986 -152H66V1184H1986V-152Z" fill="white"/>
</mask>
<g mask="url(#mask3_1329_71808)">
<path d="M1166.9 473.2C1167 473.2 1171.4 470.2 1171.1 462.2C1170.9 456.7 1168.3 452.4 1167.1 447.1C1164.3 434.9 1160.2 422.7 1156.7 410.6C1154.7 403.9 1152.4 397.8 1149.7 391.3C1149.7 391.2 1147.1 385.5 1146.8 385.7C1145.7 386.7 1148 392.4 1148.3 393.5C1149.8 399.5 1151.7 405.2 1153.6 411C1157.5 423.2 1156.6 436.2 1161.5 450.5C1163.4 456.2 1162.7 461.7 1164.1 464.5C1164.7 466.1 1166.2 473.1 1166.9 473.2Z" fill="#A85B9F"/>
</g>
<mask id="mask4_1329_71808" style="mask-type:luminance" maskUnits="userSpaceOnUse" x="66" y="-152" width="1920" height="1336">
<path d="M1986 -152H66V1184H1986V-152Z" fill="white"/>
</mask>
<g mask="url(#mask4_1329_71808)">
<path d="M1166.9 473.2C1167 473.2 1171.4 470.2 1171.1 462.2C1170.9 456.7 1168.3 452.4 1167.1 447.1C1164.3 434.9 1160.2 422.7 1156.7 410.6C1154.7 403.9 1152.4 397.8 1149.7 391.3C1149.7 391.2 1147.1 385.5 1146.8 385.7C1145.7 386.7 1148 392.4 1148.3 393.5C1149.8 399.5 1151.7 405.2 1153.6 411C1157.5 423.2 1156.6 436.2 1161.5 450.5C1163.4 456.2 1162.7 461.7 1164.1 464.5C1164.7 466.1 1166.2 473.1 1166.9 473.2Z" stroke="#A85B9F" stroke-width="5.0932" stroke-miterlimit="10" stroke-linecap="round" stroke-linejoin="round"/>
</g>
<mask id="mask5_1329_71808" style="mask-type:luminance" maskUnits="userSpaceOnUse" x="66" y="-152" width="1920" height="1336">
<path d="M1986 -152H66V1184H1986V-152Z" fill="white"/>
</mask>
<g mask="url(#mask5_1329_71808)">
<path d="M1256.8 659.2C1253.6 657.2 1251.4 653.9 1247.9 651.9C1240.2 647.5 1231.9 644.4 1225.5 638.2C1221.3 634.1 1214 620.2 1207.2 620.2C1197.8 620.1 1195.8 634.5 1197 641C1199.4 654.7 1209.5 662.5 1218.2 672.3C1221 675.5 1223.5 680 1227 682.5" stroke="white" stroke-width="5.0932" stroke-miterlimit="10" stroke-linecap="round" stroke-linejoin="round"/>
</g>
<mask id="mask6_1329_71808" style="mask-type:luminance" maskUnits="userSpaceOnUse" x="66" y="-152" width="1920" height="1336">
<path d="M1986 -152H66V1184H1986V-152Z" fill="white"/>
</mask>
<g mask="url(#mask6_1329_71808)">
<path d="M1197.5 625.3C1198.3 625.2 1196.8 623.7 1196.4 623.2C1194.1 620 1190.6 618.7 1187.3 616.7C1181.4 613.2 1177.3 604 1168.9 604.7C1162.9 605.3 1160 610.8 1156.8 614.9C1146.4 628 1150.8 634.9 1160.9 645.7C1162.2 647.1 1164.1 649.8 1165.8 650.6" stroke="white" stroke-width="5.0932" stroke-miterlimit="10" stroke-linecap="round" stroke-linejoin="round"/>
</g>
<mask id="mask7_1329_71808" style="mask-type:luminance" maskUnits="userSpaceOnUse" x="66" y="-152" width="1920" height="1336">
<path d="M1986 -152H66V1184H1986V-152Z" fill="white"/>
</mask>
<g mask="url(#mask7_1329_71808)">
<path d="M1185.3 616.7C1186 616.2 1185.4 624 1185.3 624.8C1184.3 631.2 1180.7 637 1174.6 639.5" stroke="white" stroke-width="5.0932" stroke-miterlimit="10" stroke-linecap="round" stroke-linejoin="round"/>
</g>
<mask id="mask8_1329_71808" style="mask-type:luminance" maskUnits="userSpaceOnUse" x="66" y="-152" width="1920" height="1336">
<path d="M1986 -152H66V1184H1986V-152Z" fill="white"/>
</mask>
<g mask="url(#mask8_1329_71808)">
<path d="M1165.8 651.2C1166.1 653.2 1180.8 659.4 1183.9 661.8C1199.9 674.2 1219.9 684.4 1233 700.1C1237.7 705.8 1241.2 717.2 1235.9 723.2C1221.6 739.3 1206.2 722.8 1193.9 713.8C1185.9 707.9 1174.9 703.5 1165.8 699.3C1157.8 695.7 1145 696.6 1140.8 687.3C1134.4 673 1140.3 657.4 1156.4 654.6C1159.7 654 1164.5 653.3 1167.7 654.4" stroke="white" stroke-width="5.0932" stroke-miterlimit="10" stroke-linecap="round" stroke-linejoin="round"/>
</g>
<mask id="mask9_1329_71808" style="mask-type:luminance" maskUnits="userSpaceOnUse" x="66" y="-152" width="1920" height="1336">
<path d="M1986 -152H66V1184H1986V-152Z" fill="white"/>
</mask>
<g mask="url(#mask9_1329_71808)">
<path d="M1147.1 698C1143.7 694 1136.8 700 1134.4 702.8C1128.4 709.7 1124.5 721.5 1128.5 730.2C1132.9 739.7 1144.9 741 1154 742.9C1173.6 747.1 1188.6 760.8 1207 767.6C1214.7 770.4 1224.2 772.1 1229.8 764.7C1240.9 749.9 1228.4 741.4 1215.8 733.7C1208.7 729.3 1202.4 723.8 1194.9 720C1184.8 714.9 1174.2 711.3 1164.3 706.1C1159.3 703.5 1149.7 701 1147.1 698Z" stroke="white" stroke-width="5.0932" stroke-miterlimit="10" stroke-linecap="round" stroke-linejoin="round"/>
</g>
<mask id="mask10_1329_71808" style="mask-type:luminance" maskUnits="userSpaceOnUse" x="66" y="-152" width="1920" height="1336">
<path d="M1986 -152H66V1184H1986V-152Z" fill="white"/>
</mask>
<g mask="url(#mask10_1329_71808)">
<path d="M1214.3 770.7C1224.7 777.6 1216.8 790.6 1206.7 791.3C1198.8 791.9 1189.2 787.4 1181.6 785.5C1167.4 781.9 1149.1 782.7 1136.3 775C1130.5 771.5 1125.2 760.1 1129 753.5C1131.2 749.7 1135.4 747.8 1138.9 745.8C1140.8 744.7 1144.8 742.3 1146.9 742.6" stroke="white" stroke-width="5.0932" stroke-miterlimit="10" stroke-linecap="round" stroke-linejoin="round"/>
</g>
<mask id="mask11_1329_71808" style="mask-type:luminance" maskUnits="userSpaceOnUse" x="66" y="-152" width="1920" height="1336">
<path d="M1986 -152H66V1184H1986V-152Z" fill="white"/>
</mask>
<g mask="url(#mask11_1329_71808)">
<path d="M1283.4 646.5C1279.1 652.1 1267.2 654.8 1261 658.2C1247.8 665.4 1235.3 676.4 1226 688.3" stroke="white" stroke-width="5.0932" stroke-miterlimit="10" stroke-linecap="round" stroke-linejoin="round"/>
</g>
<mask id="mask12_1329_71808" style="mask-type:luminance" maskUnits="userSpaceOnUse" x="66" y="-152" width="1920" height="1336">
<path d="M1986 -152H66V1184H1986V-152Z" fill="white"/>
</mask>
<g mask="url(#mask12_1329_71808)">
<path d="M1132.7 738.9C1122.9 743.6 1112.5 761.3 1120.2 771.5C1123.9 776.5 1131.6 776.6 1137.2 777.2" stroke="white" stroke-width="5.0932" stroke-miterlimit="10" stroke-linecap="round" stroke-linejoin="round"/>
</g>
<mask id="mask13_1329_71808" style="mask-type:luminance" maskUnits="userSpaceOnUse" x="66" y="-152" width="1920" height="1336">
<path d="M1986 -152H66V1184H1986V-152Z" fill="white"/>
</mask>
<g mask="url(#mask13_1329_71808)">
<path d="M1283.9 649.1C1281.8 648.2 1288.3 654.2 1288.6 654.6C1291.5 657.9 1294.5 661.1 1297.2 664.6C1305.1 674.9 1311.5 685.9 1318.3 697C1323.8 706 1329.5 715.7 1332.4 725.8C1333.7 730.4 1333.4 735.8 1335.2 740.2C1337.3 745.4 1346.9 748.8 1350.9 752.6C1357.6 758.8 1361.9 767.1 1368.3 773.5C1375.6 780.7 1383.6 788.8 1387.5 798.5C1390.9 806.7 1391.9 816.1 1395.5 824.2C1398.9 831.9 1404.5 839.6 1409.5 846.4C1419.4 859.7 1431.4 871.4 1441.3 884.7C1449.2 895.3 1454.5 908.4 1459.7 920.5C1463.4 929.1 1467.3 939.2 1466.6 948.8C1464.3 979.5 1457.9 1008.4 1439.6 1034.3C1436.5 1038.7 1416.9 1059.8 1418.1 1062.9" stroke="white" stroke-width="5.0932" stroke-miterlimit="10" stroke-linecap="round" stroke-linejoin="round"/>
</g>
<mask id="mask14_1329_71808" style="mask-type:luminance" maskUnits="userSpaceOnUse" x="66" y="-152" width="1920" height="1336">
<path d="M1986 -152H66V1184H1986V-152Z" fill="white"/>
</mask>
<g mask="url(#mask14_1329_71808)">
<path d="M1455.6 1006.8C1454.6 1005.6 1457 1008.9 1457.5 1010.3C1458.5 1013.3 1458.9 1016.1 1459.5 1019.2C1461.1 1027.7 1458.3 1035.3 1454.7 1043C1448.5 1056.1 1439.1 1066.1 1427.8 1075.1C1425.8 1076.7 1415.9 1084.5 1417 1082.7" stroke="white" stroke-width="5.0932" stroke-miterlimit="10" stroke-linecap="round" stroke-linejoin="round"/>
</g>
<mask id="mask15_1329_71808" style="mask-type:luminance" maskUnits="userSpaceOnUse" x="66" y="-152" width="1920" height="1336">
<path d="M1986 -152H66V1184H1986V-152Z" fill="white"/>
</mask>
<g mask="url(#mask15_1329_71808)">
<path d="M1462.9 978.6C1468.6 979 1476.1 984.7 1480.3 988.4C1502.3 1007.6 1496.5 1037.2 1494.5 1063.7C1493.9 1071.1 1492.3 1078.2 1491.3 1085.5C1490.3 1093.4 1489.4 1101.2 1488 1109.1C1486.4 1118.2 1484.6 1127.3 1482 1136.1C1478.7 1147.8 1476.3 1159.7 1473 1171.3" stroke="white" stroke-width="5.0932" stroke-miterlimit="10" stroke-linecap="round" stroke-linejoin="round"/>
</g>
<mask id="mask16_1329_71808" style="mask-type:luminance" maskUnits="userSpaceOnUse" x="66" y="-152" width="1920" height="1336">
<path d="M1986 -152H66V1184H1986V-152Z" fill="white"/>
</mask>
<g mask="url(#mask16_1329_71808)">
<path d="M1318.1 1383.5C1282.3 1349.8 1243.1 1321 1250.2 1265.2C1252.8 1245 1260.1 1225.2 1267.3 1206.3C1270 1199.1 1275.9 1185.3 1272.9 1177.2C1271.6 1173.7 1263.4 1172.4 1260.3 1171.7C1247.4 1168.6 1234.2 1166.1 1221.1 1164C1189.8 1159.1 1179.8 1147.4 1164.9 1119.7C1138.9 1071.4 1160.3 1010.9 1174.9 962.4C1178.1 951.8 1181.4 941.4 1182.2 930.3C1182.6 924.9 1179.6 919.3 1180.5 913.8C1181.1 910.3 1186.5 897.1 1184 893.6C1182.9 892.1 1174.2 891.8 1172.1 891C1168 889.4 1163.9 885.4 1161.2 881.9C1157.6 877.2 1154.9 870.8 1154.2 865C1153.8 861.9 1155.6 853.2 1153.2 850.9C1146.1 844.2 1137.3 839.9 1131.9 830.9C1123.4 816.7 1118.4 793 1117.9 776.5" stroke="white" stroke-width="5.0932" stroke-miterlimit="10" stroke-linecap="round" stroke-linejoin="round"/>
</g>
<mask id="mask17_1329_71808" style="mask-type:luminance" maskUnits="userSpaceOnUse" x="66" y="-152" width="1920" height="1336">
<path d="M1986 -152H66V1184H1986V-152Z" fill="white"/>
</mask>
<g mask="url(#mask17_1329_71808)">
<path d="M1344.9 752C1344.3 751.7 1315.8 767.3 1310.6 769C1272.3 781.2 1234 803.6 1204.5 830.6C1195.2 839.2 1170.4 874.1 1157.5 874.5" stroke="white" stroke-width="5.0932" stroke-miterlimit="10" stroke-linecap="round" stroke-linejoin="round"/>
</g>
<mask id="mask18_1329_71808" style="mask-type:luminance" maskUnits="userSpaceOnUse" x="66" y="-152" width="1920" height="1336">
<path d="M1986 -152H66V1184H1986V-152Z" fill="white"/>
</mask>
<g mask="url(#mask18_1329_71808)">
<path d="M1342.6 756.8C1344.7 764.3 1350.3 770.8 1353.9 777.7C1362.3 794.1 1371 809.9 1377.8 827.1C1393.6 867.1 1400 908.9 1411.6 950C1414.4 959.8 1416.9 969.8 1420.8 979.2C1423.1 984.8 1427.3 989.7 1429 995.5C1432.2 1006.8 1424.6 1043.6 1419 1054.2C1414.3 1063.1 1400.5 1078.7 1402.4 1089.5C1405.2 1105.6 1424.4 1120.1 1434.9 1131C1448.3 1144.9 1455.7 1159.6 1464.6 1176.1" stroke="white" stroke-width="5.0932" stroke-miterlimit="10" stroke-linecap="round" stroke-linejoin="round"/>
</g>
<mask id="mask19_1329_71808" style="mask-type:luminance" maskUnits="userSpaceOnUse" x="66" y="-152" width="1920" height="1336">
<path d="M1986 -152H66V1184H1986V-152Z" fill="white"/>
</mask>
<g mask="url(#mask19_1329_71808)">
<path d="M1200.8 621.6C1202.5 615.9 1198.8 606.3 1196.7 600.7C1191.2 585.6 1187.9 569.1 1184.1 553.5C1180.5 538.6 1176.6 523.7 1173.3 508.7C1170 493.7 1167 478.8 1163.1 464C1162.5 461.8 1161.1 451.8 1158 451.4C1153.9 450.8 1156.7 461 1157 462.3C1159 473.4 1162.3 484 1165.4 494.8C1173.5 523.3 1177.2 554.5 1187.8 582.2C1191.3 591.3 1194.7 603.3 1195.9 613C1196 613.7 1197.6 622 1198.2 621.9C1199.7 621.8 1200.6 622.6 1200.8 621.6Z" fill="white"/>
</g>
<mask id="mask20_1329_71808" style="mask-type:luminance" maskUnits="userSpaceOnUse" x="66" y="-152" width="1920" height="1336">
<path d="M1986 -152H66V1184H1986V-152Z" fill="white"/>
</mask>
<g mask="url(#mask20_1329_71808)">
<path d="M1200.8 621.6C1202.5 615.9 1198.8 606.3 1196.7 600.7C1191.2 585.6 1187.9 569.1 1184.1 553.5C1180.5 538.6 1176.6 523.7 1173.3 508.7C1170 493.7 1167 478.8 1163.1 464C1162.5 461.8 1161.1 451.8 1158 451.4C1153.9 450.8 1156.7 461 1157 462.3C1159 473.4 1162.3 484 1165.4 494.8C1173.5 523.3 1177.2 554.5 1187.8 582.2C1191.3 591.3 1194.7 603.3 1195.9 613C1196 613.7 1197.6 622 1198.2 621.9C1199.7 621.8 1200.6 622.6 1200.8 621.6Z" stroke="white" stroke-width="5.0932" stroke-miterlimit="10" stroke-linecap="round" stroke-linejoin="round"/>
</g>
<mask id="mask21_1329_71808" style="mask-type:luminance" maskUnits="userSpaceOnUse" x="66" y="-152" width="1920" height="1336">
<path d="M1986 -152H66V1184H1986V-152Z" fill="white"/>
</mask>
<g mask="url(#mask21_1329_71808)">
<path d="M1158.4 455.2C1159.3 455.5 1160.3 456.8 1161.2 456.3C1161.9 455.8 1160.9 454.6 1160.7 453.7C1158.8 445.9 1157 438.1 1155.2 430.2C1151 411.8 1145.7 393.6 1142 375.1C1133.2 331.6 1121.9 287.6 1107.9 245.6C1104.6 235.7 1101.2 225.7 1098.9 215.5C1098.2 212.6 1096.9 206.2 1092.5 207.7C1086.4 209.7 1094.4 232.5 1095.8 236.7C1106.1 265.8 1111.2 296.8 1121.5 326C1124.3 334 1125.3 342.3 1126.9 350.6C1131.5 376.1 1136.9 402.6 1145 427.2C1146 430.1 1152.6 454.3 1154.6 454.9C1156.7 455.3 1158.1 455.1 1158.4 455.2Z" fill="white"/>
</g>
<mask id="mask22_1329_71808" style="mask-type:luminance" maskUnits="userSpaceOnUse" x="66" y="-152" width="1920" height="1336">
<path d="M1986 -152H66V1184H1986V-152Z" fill="white"/>
</mask>
<g mask="url(#mask22_1329_71808)">
<path d="M1158.4 455.2C1159.3 455.5 1160.3 456.8 1161.2 456.3C1161.9 455.8 1160.9 454.6 1160.7 453.7C1158.8 445.9 1157 438.1 1155.2 430.2C1151 411.8 1145.7 393.6 1142 375.1C1133.2 331.6 1121.9 287.6 1107.9 245.6C1104.6 235.7 1101.2 225.7 1098.9 215.5C1098.2 212.6 1096.9 206.2 1092.5 207.7C1086.4 209.7 1094.4 232.5 1095.8 236.7C1106.1 265.8 1111.2 296.8 1121.5 326C1124.3 334 1125.3 342.3 1126.9 350.6C1131.5 376.1 1136.9 402.6 1145 427.2C1146 430.1 1152.6 454.3 1154.6 454.9C1156.7 455.3 1158.1 455.1 1158.4 455.2Z" stroke="white" stroke-width="5.0932" stroke-miterlimit="10" stroke-linecap="round" stroke-linejoin="round"/>
</g>
<mask id="mask23_1329_71808" style="mask-type:luminance" maskUnits="userSpaceOnUse" x="66" y="-152" width="1920" height="1336">
<path d="M1986 -152H66V1184H1986V-152Z" fill="white"/>
</mask>
<g mask="url(#mask23_1329_71808)">
<path d="M1160.5 456.7C1162.8 457.8 1165.6 457.7 1167.9 458.9C1178.5 464.2 1170.8 471.8 1167.7 478" stroke="white" stroke-width="5.0932" stroke-miterlimit="10" stroke-linecap="round" stroke-linejoin="round"/>
</g>
<mask id="mask24_1329_71808" style="mask-type:luminance" maskUnits="userSpaceOnUse" x="66" y="-152" width="1920" height="1336">
<path d="M1986 -152H66V1184H1986V-152Z" fill="white"/>
</mask>
<g mask="url(#mask24_1329_71808)">
<path d="M1173 468.2C1175.7 460.7 1169.4 449.6 1168.1 442.3C1164.6 423.2 1155.5 406.4 1150.1 387.9C1148.1 380.9 1143.8 374.6 1142.5 367.4" stroke="white" stroke-width="5.0932" stroke-miterlimit="10" stroke-linecap="round" stroke-linejoin="round"/>
</g>
<mask id="mask25_1329_71808" style="mask-type:luminance" maskUnits="userSpaceOnUse" x="66" y="-152" width="1920" height="1336">
<path d="M1986 -152H66V1184H1986V-152Z" fill="white"/>
</mask>
<g mask="url(#mask25_1329_71808)">
<path d="M1089.6 216.9C1083.3 217.2 1073.5 226.8 1068.5 230.3C1050.6 242.5 1034.7 257.1 1016.2 268.7C981.201 290.7 946.401 312.1 913.101 336.7C910.301 338.8 884.701 357.6 885.201 359.4C886.601 365.2 892.401 371.4 895.601 376.2C904.301 389.1 914.801 400.9 923.301 413.9C932.601 428.1 940.401 443.2 950.101 457.1C966.001 479.9 982.601 502.4 997.801 525.8C1005.8 538.1 1014.7 549.4 1023.3 561.3C1025.1 563.8 1031 573.8 1033.8 574.5C1038.6 575.9 1058.3 555.8 1063.1 552.5C1073.2 545.4 1083.4 538.6 1093.7 531.8C1104 524.9 1112.5 515.6 1123 508.8C1133.6 502 1152.6 493.7 1159.8 483.1" fill="#A85B9F"/>
</g>
<mask id="mask26_1329_71808" style="mask-type:luminance" maskUnits="userSpaceOnUse" x="66" y="-152" width="1920" height="1336">
<path d="M1986 -152H66V1184H1986V-152Z" fill="white"/>
</mask>
<g mask="url(#mask26_1329_71808)">
<path d="M1089.6 216.9C1083.3 217.2 1073.5 226.8 1068.5 230.3C1050.6 242.5 1034.7 257.1 1016.2 268.7C981.201 290.7 946.401 312.1 913.101 336.7C910.301 338.8 884.701 357.6 885.201 359.4C886.601 365.2 892.401 371.4 895.601 376.2C904.301 389.1 914.801 400.9 923.301 413.9C932.601 428.1 940.401 443.2 950.101 457.1C966.001 479.9 982.601 502.4 997.801 525.8C1005.8 538.1 1014.7 549.4 1023.3 561.3C1025.1 563.8 1031 573.8 1033.8 574.5C1038.6 575.9 1058.3 555.9 1063.1 552.5C1073.2 545.4 1083.4 538.6 1093.7 531.8C1104 524.9 1112.5 515.6 1123 508.8C1133.6 502 1152.6 493.7 1159.8 483.1" stroke="white" stroke-width="5.0932" stroke-miterlimit="10" stroke-linecap="round" stroke-linejoin="round"/>
</g>
<mask id="mask27_1329_71808" style="mask-type:luminance" maskUnits="userSpaceOnUse" x="66" y="-152" width="1920" height="1336">
<path d="M1986 -152H66V1184H1986V-152Z" fill="white"/>
</mask>
<g mask="url(#mask27_1329_71808)">
<path d="M1209.5 663.8C1209.6 669.6 1212 674.6 1212.5 680.2" stroke="white" stroke-width="5.0932" stroke-miterlimit="10" stroke-linecap="round" stroke-linejoin="round"/>
</g>
<mask id="mask28_1329_71808" style="mask-type:luminance" maskUnits="userSpaceOnUse" x="66" y="-152" width="1920" height="1336">
<path d="M1986 -152H66V1184H1986V-152Z" fill="white"/>
</mask>
<g mask="url(#mask28_1329_71808)">
<path d="M1215.1 680.1C1215 680.3 1215.1 677.7 1215 676.8C1214.7 674.3 1213.9 672 1213.5 669.5" stroke="white" stroke-width="5.0932" stroke-miterlimit="10" stroke-linecap="round" stroke-linejoin="round"/>
</g>
<mask id="mask29_1329_71808" style="mask-type:luminance" maskUnits="userSpaceOnUse" x="66" y="-152" width="1920" height="1336">
<path d="M1986 -152H66V1184H1986V-152Z" fill="white"/>
</mask>
<g mask="url(#mask29_1329_71808)">
<path d="M1216.8 673.2C1217.1 676.8 1218.4 680.4 1218.2 684" stroke="white" stroke-width="5.0932" stroke-miterlimit="10" stroke-linecap="round" stroke-linejoin="round"/>
</g>
<mask id="mask30_1329_71808" style="mask-type:luminance" maskUnits="userSpaceOnUse" x="66" y="-152" width="1920" height="1336">
<path d="M1986 -152H66V1184H1986V-152Z" fill="white"/>
</mask>
<g mask="url(#mask30_1329_71808)">
<path d="M1474.2 1163.3C1474.6 1175.5 1484.1 1186 1486.8 1197.9" stroke="white" stroke-width="5.0932" stroke-miterlimit="10" stroke-linecap="round" stroke-linejoin="round"/>
</g>
<mask id="mask31_1329_71808" style="mask-type:luminance" maskUnits="userSpaceOnUse" x="66" y="-152" width="1920" height="1336">
<path d="M1986 -152H66V1184H1986V-152Z" fill="white"/>
</mask>
<g mask="url(#mask31_1329_71808)">
<path d="M1665.7 860.6C1665.9 860.6 1658.1 862.1 1655.8 863.2C1650.4 866 1646.1 870.8 1641.3 874.4C1629.9 883 1625.4 896.6 1631.8 909.6C1632.8 911.7 1634.4 915.7 1636.3 917.3C1638.4 919.1 1642.8 909.8 1643.6 908.5C1647 902.6 1652.4 898.2 1657.9 894.2C1675.2 881.4 1694.9 875.1 1714.8 868C1730.2 862.5 1746.9 860.4 1763 860.3C1767.6 860.3 1772.2 859.1 1776.9 859.7C1779.7 860.1 1782.8 860.1 1785.2 861.6C1787.7 863.1 1799.5 885.5 1801.5 868.9C1801.6 867.9 1801.9 866.8 1801.9 865.8C1802.2 847.1 1794.1 843.3 1777 839.3C1754.1 834 1731.4 835.5 1709.1 843.4C1698.8 847 1688.6 850.8 1678.7 855.5C1676.8 856.5 1664.2 861 1665.7 860.6Z" fill="#A85B9F"/>
</g>
<mask id="mask32_1329_71808" style="mask-type:luminance" maskUnits="userSpaceOnUse" x="66" y="-152" width="1920" height="1336">
<path d="M1986 -152H66V1184H1986V-152Z" fill="white"/>
</mask>
<g mask="url(#mask32_1329_71808)">
<path d="M1803 875.7C1788.3 872.5 1777.2 868.9 1762 870.8C1747.7 872.6 1732.5 875.2 1718.1 876.6C1701.6 878.3 1680.6 884.7 1666.1 893.5C1656.2 899.5 1640.8 909.7 1642 923.3C1642.5 928.6 1642.5 935.7 1644.9 940.1C1646.9 943.9 1658.5 950.2 1662.9 950.9C1666 951.4 1680.2 938.3 1683.6 936.2C1686.4 934.5 1689.7 933.6 1692.7 932.4C1704 927.8 1714.8 927.6 1726.9 925.1C1739.8 922.5 1754 918.1 1766.9 915.5C1771.3 914.6 1773.4 916.5 1778 917.3C1781.8 917.9 1788 915.7 1791.8 916.6C1797 917.9 1798.5 927.6 1804 923.7C1807.3 921.3 1813.4 915.3 1815.8 907.8C1817.7 901.9 1816.6 894.5 1815.6 891.6C1814.1 887.3 1810.7 884.3 1807.8 880.9C1807.2 879.9 1803.8 875.8 1803 875.7Z" fill="#9E5BA8"/>
</g>
<mask id="mask33_1329_71808" style="mask-type:luminance" maskUnits="userSpaceOnUse" x="66" y="-152" width="1920" height="1336">
<path d="M1986 -152H66V1184H1986V-152Z" fill="white"/>
</mask>
<g mask="url(#mask33_1329_71808)">
<path d="M1688.9 1110.1C1692.5 1097.2 1688.5 1083 1686.7 1070.4C1683.1 1045 1682.2 1019.4 1677.7 994C1676.3 985.9 1674.8 977.6 1673.2 969.5C1671.7 962 1666.6 952.5 1672.2 945.5C1675.2 941.7 1679.9 939.9 1684.2 938C1691.9 934.6 1699.5 930.6 1707.7 928.5C1715.7 926.5 1724.1 925.9 1732.2 924C1746 920.8 1759.2 915.7 1773.7 917C1779 917.5 1787.9 916.6 1792.7 919C1807.5 926.4 1808.4 951.2 1812.7 965C1820.9 991.2 1826.2 1018.4 1833.2 1044.9C1836.5 1057.5 1839.5 1070.2 1842.7 1082.9C1843.7 1087.1 1844.7 1091.3 1845.7 1095.4C1846.1 1097.2 1846.2 1100.9 1846.2 1100.9C1846.2 1100.9 1845.7 1099.4 1845.2 1098.9C1842.1 1095.8 1838.2 1093.5 1833.7 1092.9C1824.9 1091.8 1815.1 1091.9 1806.2 1092.4C1789.6 1093.4 1772.9 1092.6 1756.3 1093.4C1741.4 1094.1 1726.7 1098.3 1712.3 1101.9C1709.5 1102.5 1688.4 1111.9 1688.9 1110.1Z" stroke="white" stroke-width="5.0932" stroke-miterlimit="10" stroke-linecap="round" stroke-linejoin="round"/>
</g>
<mask id="mask34_1329_71808" style="mask-type:luminance" maskUnits="userSpaceOnUse" x="66" y="-152" width="1920" height="1336">
<path d="M1986 -152H66V1184H1986V-152Z" fill="white"/>
</mask>
<g mask="url(#mask34_1329_71808)">
<path d="M1691.4 1107.2C1693.6 1107.6 1686 1112.7 1685.1 1113.4C1680.1 1117.3 1674.3 1122.8 1672.4 1129.1C1670.1 1137 1681.4 1141 1682.2 1148.1C1682.7 1152.9 1682.8 1158.2 1681.3 1162.9C1679.8 1167.5 1675.7 1174.6 1677.3 1179.6" stroke="white" stroke-width="5.0932" stroke-miterlimit="10" stroke-linecap="round" stroke-linejoin="round"/>
</g>
<mask id="mask35_1329_71808" style="mask-type:luminance" maskUnits="userSpaceOnUse" x="66" y="-152" width="1920" height="1336">
<path d="M1986 -152H66V1184H1986V-152Z" fill="white"/>
</mask>
<g mask="url(#mask35_1329_71808)">
<path d="M1678.6 1184C1684.6 1175.7 1703.2 1171.2 1712.5 1167.8C1750 1154.1 1798.9 1153.9 1838 1160.4C1849.3 1162.3 1859.3 1166.4 1868.6 1173.2C1870.5 1174.5 1876.2 1179.1 1878.8 1177.7C1880.5 1176.8 1879.7 1172.1 1879.5 1170.9C1878.5 1163.3 1876.5 1155 1871.9 1148.6C1869 1144.6 1867.7 1140.5 1867.2 1135.7C1866.3 1126.7 1872.4 1113.4 1863.1 1106.7C1858.5 1103.3 1852.6 1103.3 1847.2 1102.4" stroke="white" stroke-width="5.0932" stroke-miterlimit="10" stroke-linecap="round" stroke-linejoin="round"/>
</g>
<mask id="mask36_1329_71808" style="mask-type:luminance" maskUnits="userSpaceOnUse" x="66" y="-152" width="1920" height="1336">
<path d="M1986 -152H66V1184H1986V-152Z" fill="white"/>
</mask>
<g mask="url(#mask36_1329_71808)">
<path d="M1878.5 1179.3C1878.8 1182.7 1880.2 1185.7 1880.9 1189" stroke="white" stroke-width="5.0932" stroke-miterlimit="10" stroke-linecap="round" stroke-linejoin="round"/>
</g>
<mask id="mask37_1329_71808" style="mask-type:luminance" maskUnits="userSpaceOnUse" x="66" y="-152" width="1920" height="1336">
<path d="M1986 -152H66V1184H1986V-152Z" fill="white"/>
</mask>
<g mask="url(#mask37_1329_71808)">
<path d="M1669.9 950.1C1667.4 952.6 1661.9 951.3 1659.1 950.1C1651.4 946.8 1643.7 940 1641.3 931.7C1634.6 908.8 1663.6 890.4 1682 885.5C1704.2 879.7 1726.6 874.5 1749.4 871.9C1761.8 870.5 1776.4 867.8 1788.7 871.1C1796 873 1806 875.5 1811.3 881.3C1823.4 894.8 1818.4 916.1 1802.9 923.8" stroke="white" stroke-width="5.0932" stroke-miterlimit="10" stroke-linecap="round" stroke-linejoin="round"/>
</g>
<mask id="mask38_1329_71808" style="mask-type:luminance" maskUnits="userSpaceOnUse" x="66" y="-152" width="1920" height="1336">
<path d="M1986 -152H66V1184H1986V-152Z" fill="white"/>
</mask>
<g mask="url(#mask38_1329_71808)">
<path d="M1801.1 871.7C1803.1 871.7 1802.4 865.8 1802.4 864.4C1802.4 858.7 1800.5 853 1796.4 848.9C1786.4 838.9 1767.2 836.5 1753.9 835.5C1741.5 834.5 1728.5 838.3 1716.7 841.5C1690.8 848.6 1664.5 856.8 1642.5 873C1628.8 883.1 1619.3 901.1 1634.1 914.7C1636 916.4 1637.3 918.5 1639.6 919.7" stroke="white" stroke-width="5.0932" stroke-miterlimit="10" stroke-linecap="round" stroke-linejoin="round"/>
</g>
<mask id="mask39_1329_71808" style="mask-type:luminance" maskUnits="userSpaceOnUse" x="66" y="-152" width="1920" height="1336">
<path d="M1986 -152H66V1184H1986V-152Z" fill="white"/>
</mask>
<g mask="url(#mask39_1329_71808)">
<path d="M1645.3 909.2C1643.5 903.9 1648.9 899.4 1652.6 896.3C1660.6 889.7 1671.3 883.7 1680.9 880C1702.8 871.6 1724.5 865.3 1747.5 861.1C1756.5 859.5 1768.9 857.6 1777.9 860.3C1781.2 861.3 1785.4 863.5 1787.6 866.3C1788.5 867.4 1789.1 870.6 1790 871" stroke="white" stroke-width="5.0932" stroke-miterlimit="10" stroke-linecap="round" stroke-linejoin="round"/>
</g>
<mask id="mask40_1329_71808" style="mask-type:luminance" maskUnits="userSpaceOnUse" x="66" y="-152" width="1920" height="1336">
<path d="M1986 -152H66V1184H1986V-152Z" fill="white"/>
</mask>
<g mask="url(#mask40_1329_71808)">
<path d="M1654.4 865.1C1654.4 844.9 1633.3 830.3 1619.2 819C1601.9 805.2 1582.4 786.8 1575.6 765C1573.2 757.4 1572.7 749.5 1570.6 741.8C1566.1 725.6 1557.7 710.7 1552.7 694.6C1550.1 686.2 1550.5 677.2 1548.8 668.6C1546.5 657.2 1538 647.9 1536.5 636.2C1535.2 625.9 1547.9 626.1 1554.7 628.4C1563.9 631.5 1576.7 646.3 1580.4 655C1587.9 672.2 1590.5 691.4 1599.4 708.1C1601 711.1 1603.7 713.5 1605.6 716.2C1607.2 718.5 1608.4 721.2 1610.4 723.2" stroke="white" stroke-width="5.0932" stroke-miterlimit="10" stroke-linecap="round" stroke-linejoin="round"/>
</g>
<mask id="mask41_1329_71808" style="mask-type:luminance" maskUnits="userSpaceOnUse" x="66" y="-152" width="1920" height="1336">
<path d="M1986 -152H66V1184H1986V-152Z" fill="white"/>
</mask>
<g mask="url(#mask41_1329_71808)">
<path d="M1609.4 746.9C1609.4 742.2 1610.8 737.4 1611.1 732.6C1612.4 707.5 1613.8 681.7 1612.8 656.6C1612.2 641.2 1610.3 625.4 1607.8 610.2C1606.7 603.5 1604.2 597.3 1603 590.6C1601.7 583.3 1602.4 575.8 1601 568.5C1599.5 560.7 1597.2 553.1 1596 545.3C1594.3 534.2 1591 520.1 1597.7 510.1C1600.7 505.6 1607.3 501.8 1612.5 505.1C1623.8 512.2 1627.5 534.6 1630.1 546.8C1633.9 564.1 1641 581 1647.4 597.4C1652.2 609.9 1654 623.5 1656.6 636.5C1658.8 647.4 1660.8 658.3 1663.9 668.9C1664.1 669.7 1666.1 676.6 1668.1 675.9C1671 674.9 1669.5 665.3 1669.2 663.6C1667.7 652.5 1664.4 641.2 1661.7 630.3C1658.2 616.1 1655.1 601.9 1652.2 587.5C1650 576.6 1649 565.4 1646.3 554.5C1644.8 548.6 1641.9 543 1640.1 537.2C1637.4 528.1 1635 518.8 1632.8 509.5C1630 497.7 1627 477.1 1643.4 473.4C1660.1 469.7 1665 505.5 1668.6 515.6C1671.6 524.1 1675.3 532.2 1678.7 540.5C1681.9 548.2 1683.9 556.3 1687.1 564C1689 568.7 1691.9 573.2 1693.5 578C1699 594.5 1700.5 612.8 1704.4 629.7C1705.9 636.2 1707.9 642.9 1710.6 649C1712.3 652.9 1715.6 658.1 1715.6 662.4" stroke="white" stroke-width="5.0932" stroke-miterlimit="10" stroke-linecap="round" stroke-linejoin="round"/>
</g>
<mask id="mask42_1329_71808" style="mask-type:luminance" maskUnits="userSpaceOnUse" x="66" y="-152" width="1920" height="1336">
<path d="M1986 -152H66V1184H1986V-152Z" fill="white"/>
</mask>
<g mask="url(#mask42_1329_71808)">
<path d="M1707 635.6C1705.5 632.6 1706.5 627.2 1706.2 623.9C1705.6 617.3 1705.1 610.7 1704.8 604C1704.5 597.5 1705.7 590.5 1704.2 584.1C1702 574.6 1695.8 566.7 1692.7 557.5C1690.8 551.8 1691.5 545.4 1688.2 540.2C1683.6 532.8 1672.8 524.3 1675.3 514.2C1677.5 505.4 1688.5 502.9 1695.7 506.9C1699 508.7 1701.1 512.9 1703.2 515.8C1709.4 524 1715.9 532 1721.4 540.7C1726.1 548.1 1731.2 555.6 1734.8 563.6C1738.3 571.3 1739.4 580.5 1740.7 588.8C1742.5 600.2 1744 611.4 1745.2 622.9C1746.5 635.9 1749.4 649.2 1749.4 662.3" stroke="white" stroke-width="5.0932" stroke-miterlimit="10" stroke-linecap="round" stroke-linejoin="round"/>
</g>
<mask id="mask43_1329_71808" style="mask-type:luminance" maskUnits="userSpaceOnUse" x="66" y="-152" width="1920" height="1336">
<path d="M1986 -152H66V1184H1986V-152Z" fill="white"/>
</mask>
<g mask="url(#mask43_1329_71808)">
<path d="M1725.2 546.7C1732.5 534.6 1740 544.4 1745.3 552C1750.6 559.6 1753.6 568.6 1758.2 576.6C1764.6 587.9 1772.9 598.9 1776.7 611.5C1778.1 616.3 1780.5 620.9 1780.9 626C1781.5 634.7 1780.1 643.1 1779.8 651.7C1779.3 664.6 1778.6 677.9 1779.2 690.8C1779.7 702.1 1780.9 713.4 1782.6 724.6C1784.1 734.5 1786.1 744.5 1785.1 754.5C1783.6 769.5 1776 783.7 1774.8 798.7C1773.9 810.1 1775.6 824.4 1779.3 835.3" stroke="white" stroke-width="5.0932" stroke-miterlimit="10" stroke-linecap="round" stroke-linejoin="round"/>
</g>
<mask id="mask44_1329_71808" style="mask-type:luminance" maskUnits="userSpaceOnUse" x="66" y="-152" width="1920" height="1336">
<path d="M1986 -152H66V1184H1986V-152Z" fill="white"/>
</mask>
<g mask="url(#mask44_1329_71808)">
<path d="M1355.9 613.1C1357.5 598.7 1372.4 597.3 1383.3 601.8C1392.4 605.6 1399.4 616.1 1402.7 625.1" stroke="white" stroke-width="5.0932" stroke-miterlimit="10" stroke-linecap="round" stroke-linejoin="round"/>
</g>
<mask id="mask45_1329_71808" style="mask-type:luminance" maskUnits="userSpaceOnUse" x="66" y="-152" width="1920" height="1336">
<path d="M1986 -152H66V1184H1986V-152Z" fill="white"/>
</mask>
<g mask="url(#mask45_1329_71808)">
<path d="M1582.6 1049.8C1586.6 1055.3 1590.5 1061 1594.7 1066.4C1598.2 1070.9 1602.2 1075.1 1605.7 1079.6C1608.6 1083.3 1620.2 1102.5 1616.9 1107.7C1613.9 1112.4 1595.4 1117.5 1590 1118.8C1584.4 1120.2 1577.7 1120.2 1572 1120.8" stroke="white" stroke-width="5.0932" stroke-miterlimit="10" stroke-linecap="round" stroke-linejoin="round"/>
</g>
<mask id="mask46_1329_71808" style="mask-type:luminance" maskUnits="userSpaceOnUse" x="66" y="-152" width="1920" height="1336">
<path d="M1986 -152H66V1184H1986V-152Z" fill="white"/>
</mask>
<g mask="url(#mask46_1329_71808)">
<path d="M1535.6 674C1527.2 670.1 1511.5 664.1 1502.1 667.5C1495.8 669.8 1489.9 673.3 1483.6 675.7C1476.4 678.5 1467.7 681.4 1461.3 685.8C1450.4 693.3 1444.5 698.7 1447.5 712.6C1448.1 715.3 1448.4 718.8 1450.1 721C1453.9 725.8 1463 723.1 1467.6 721.6C1482.4 717 1494.9 706.2 1510.8 705.4C1519.1 705 1541.7 709.9 1538.7 721.6C1537.2 727.2 1527.9 733.6 1523.5 736.5C1518.4 739.9 1512.4 742.9 1507.1 745.9C1498 751.1 1487.7 753.3 1479.4 759.9" stroke="white" stroke-width="5.0932" stroke-miterlimit="10" stroke-linecap="round" stroke-linejoin="round"/>
</g>
<mask id="mask47_1329_71808" style="mask-type:luminance" maskUnits="userSpaceOnUse" x="66" y="-152" width="1920" height="1336">
<path d="M1986 -152H66V1184H1986V-152Z" fill="white"/>
</mask>
<g mask="url(#mask47_1329_71808)">
<path d="M1496 789.2C1499.2 790.7 1517.4 781.9 1521.3 780.4C1538.2 773.9 1556.2 770.4 1573.1 764.2" stroke="white" stroke-width="5.0932" stroke-miterlimit="10" stroke-linecap="round" stroke-linejoin="round"/>
</g>
<mask id="mask48_1329_71808" style="mask-type:luminance" maskUnits="userSpaceOnUse" x="66" y="-152" width="1920" height="1336">
<path d="M1986 -152H66V1184H1986V-152Z" fill="white"/>
</mask>
<g mask="url(#mask48_1329_71808)">
<path d="M1546.2 664.4C1540.2 663.7 1537.5 658.1 1533.9 653.6C1522.7 639.5 1528.7 617.8 1518.6 602.4C1511.4 591.4 1498 584.2 1487.3 577.2C1480.9 573.1 1474.4 568.2 1467.5 565.1C1458.6 561 1452.9 572.6 1454.5 580.3C1456.8 591.2 1464.1 599.8 1472.2 607C1476.1 610.5 1483 613.8 1485.3 618.8C1488.4 625.7 1489.4 634.2 1491.7 641.6C1493.4 647.1 1498 651.6 1499.4 656.9C1500.2 659.9 1499.9 663.3 1500.6 666.5" stroke="white" stroke-width="5.0932" stroke-miterlimit="10" stroke-linecap="round" stroke-linejoin="round"/>
</g>
<mask id="mask49_1329_71808" style="mask-type:luminance" maskUnits="userSpaceOnUse" x="66" y="-152" width="1920" height="1336">
<path d="M1986 -152H66V1184H1986V-152Z" fill="white"/>
</mask>
<g mask="url(#mask49_1329_71808)">
<path d="M1475.2 568.6C1471.7 564.3 1470 559.4 1465.4 555.8C1459 550.7 1451.6 546.601 1446.5 540.201C1444.5 537.701 1441 531.401 1437.7 530.201C1426.1 525.901 1421 543.401 1423.1 551.901C1425.6 562.401 1432 572.101 1437.3 581.401C1439.9 586.001 1445.7 591.901 1445.9 597.201C1446.2 607.801 1446.1 619.301 1449.4 629.501C1450.9 634.201 1453.9 638.901 1454.1 644.001C1454.5 659.301 1448 672.601 1451.3 688.201" stroke="white" stroke-width="5.0932" stroke-miterlimit="10" stroke-linecap="round" stroke-linejoin="round"/>
</g>
<mask id="mask50_1329_71808" style="mask-type:luminance" maskUnits="userSpaceOnUse" x="66" y="-152" width="1920" height="1336">
<path d="M1986 -152H66V1184H1986V-152Z" fill="white"/>
</mask>
<g mask="url(#mask50_1329_71808)">
<path d="M1595.3 797.6C1593.9 804.4 1596.1 812 1594.9 819.1C1593.3 829 1589.9 839.2 1590.9 849.3C1593 871.8 1603.6 893.1 1604.7 915.9" stroke="white" stroke-width="5.0932" stroke-miterlimit="10" stroke-linecap="round" stroke-linejoin="round"/>
</g>
<mask id="mask51_1329_71808" style="mask-type:luminance" maskUnits="userSpaceOnUse" x="66" y="-152" width="1920" height="1336">
<path d="M1986 -152H66V1184H1986V-152Z" fill="white"/>
</mask>
<g mask="url(#mask51_1329_71808)">
<path d="M1529.4 869.3C1529.9 871.3 1542 871.2 1543.8 871.3C1551.2 871.4 1561.7 868.5 1567.9 864.3" stroke="white" stroke-width="5.0932" stroke-miterlimit="10" stroke-linecap="round" stroke-linejoin="round"/>
</g>
<mask id="mask52_1329_71808" style="mask-type:luminance" maskUnits="userSpaceOnUse" x="66" y="-152" width="1920" height="1336">
<path d="M1986 -152H66V1184H1986V-152Z" fill="white"/>
</mask>
<g mask="url(#mask52_1329_71808)">
<path d="M1575 977.2C1580.8 978.9 1586.8 980.7 1592.8 981.3C1597.4 981.8 1601.8 981.8 1606.3 980.9C1630.9 976.3 1628.9 955.2 1642.4 940.4" stroke="white" stroke-width="5.0932" stroke-miterlimit="10" stroke-linecap="round" stroke-linejoin="round"/>
</g>
<mask id="mask53_1329_71808" style="mask-type:luminance" maskUnits="userSpaceOnUse" x="66" y="-152" width="1920" height="1336">
<path d="M1986 -152H66V1184H1986V-152Z" fill="white"/>
</mask>
<g mask="url(#mask53_1329_71808)">
<path d="M1637.7 951.5C1641.7 955.2 1644.4 962.3 1646.7 967.2C1653.1 980.7 1657.8 995.1 1661.1 1009.6C1663.2 1018.9 1664.9 1029 1664 1038.6C1663.4 1044.7 1659.7 1051.1 1660.3 1057.2C1661 1063.8 1665.3 1069.6 1665.6 1076.4C1666.1 1087.3 1664.3 1099.1 1663.6 1109.9C1663.2 1115.6 1661.1 1121.1 1661.4 1127C1661.7 1134.5 1664 1141.9 1664.9 1149.3C1666.6 1163 1668.3 1176.6 1668.9 1190.4" stroke="white" stroke-width="5.0932" stroke-miterlimit="10" stroke-linecap="round" stroke-linejoin="round"/>
</g>
<mask id="mask54_1329_71808" style="mask-type:luminance" maskUnits="userSpaceOnUse" x="66" y="-152" width="1920" height="1336">
<path d="M1986 -152H66V1184H1986V-152Z" fill="white"/>
</mask>
<g mask="url(#mask54_1329_71808)">
<path d="M1548.4 907.4C1559 909.5 1569.5 911.9 1579.9 914.5C1590.3 917.1 1600.9 920.6 1611.8 919.7C1617.7 919.2 1628.5 917.6 1632.4 912.4" stroke="white" stroke-width="5.0932" stroke-miterlimit="10" stroke-linecap="round" stroke-linejoin="round"/>
</g>
<mask id="mask55_1329_71808" style="mask-type:luminance" maskUnits="userSpaceOnUse" x="66" y="-152" width="1920" height="1336">
<path d="M1986 -152H66V1184H1986V-152Z" fill="white"/>
</mask>
<g mask="url(#mask55_1329_71808)">
<path d="M1594.3 823.5C1612 835.1 1636.4 848.1 1642.2 869.3" stroke="white" stroke-width="5.0932" stroke-miterlimit="10" stroke-linecap="round" stroke-linejoin="round"/>
</g>
<mask id="mask56_1329_71808" style="mask-type:luminance" maskUnits="userSpaceOnUse" x="66" y="-152" width="1920" height="1336">
<path d="M1986 -152H66V1184H1986V-152Z" fill="white"/>
</mask>
<g mask="url(#mask56_1329_71808)">
<path d="M1402.6 625.6C1406.8 634.2 1411.7 642.5 1415.4 651.3C1419.7 661.3 1421.9 672.3 1428 681.5C1432.3 688 1438.4 693.5 1443.7 699.1" stroke="white" stroke-width="5.0932" stroke-miterlimit="10" stroke-linecap="round" stroke-linejoin="round"/>
</g>
<mask id="mask57_1329_71808" style="mask-type:luminance" maskUnits="userSpaceOnUse" x="66" y="-152" width="1920" height="1336">
<path d="M1986 -152H66V1184H1986V-152Z" fill="white"/>
</mask>
<g mask="url(#mask57_1329_71808)">
<path d="M1355.9 615.1C1355.1 619.5 1357.8 625 1358.8 629.2C1361.7 641.1 1365 652.4 1370.9 663.2C1375.5 671.6 1381.5 679.7 1385.2 688.5C1390.7 701.5 1393.1 715.6 1398.3 728.7C1402.4 739.1 1407.2 749.2 1411.1 759.7C1415.4 771.4 1419.3 783.7 1425.5 794.7C1430.5 803.6 1437.9 813.4 1446.5 819.2C1454 824.3 1463.2 827.4 1469.5 834.2C1480 845.5 1478.8 863.1 1487.3 875.4" stroke="white" stroke-width="5.0932" stroke-miterlimit="10" stroke-linecap="round" stroke-linejoin="round"/>
</g>
<mask id="mask58_1329_71808" style="mask-type:luminance" maskUnits="userSpaceOnUse" x="66" y="-152" width="1920" height="1336">
<path d="M1986 -152H66V1184H1986V-152Z" fill="white"/>
</mask>
<g mask="url(#mask58_1329_71808)">
<path d="M1479.8 850.2C1478.2 850.6 1484.1 853.5 1485.4 854.4C1489.6 857.1 1494.9 860.5 1500 860.7" stroke="white" stroke-width="5.0932" stroke-miterlimit="10" stroke-linecap="round" stroke-linejoin="round"/>
</g>
<mask id="mask59_1329_71808" style="mask-type:luminance" maskUnits="userSpaceOnUse" x="66" y="-152" width="1920" height="1336">
<path d="M1986 -152H66V1184H1986V-152Z" fill="white"/>
</mask>
<g mask="url(#mask59_1329_71808)">
<path d="M1521.8 783.9C1511.6 794.5 1507 812.4 1510.4 826.6" stroke="white" stroke-width="5.0932" stroke-miterlimit="10" stroke-linecap="round" stroke-linejoin="round"/>
</g>
<mask id="mask60_1329_71808" style="mask-type:luminance" maskUnits="userSpaceOnUse" x="66" y="-152" width="1920" height="1336">
<path d="M1986 -152H66V1184H1986V-152Z" fill="white"/>
</mask>
<g mask="url(#mask60_1329_71808)">
<path d="M1479.1 760.2C1469.3 766.3 1457.1 774.5 1449.2 783C1446.4 786 1441.3 788.6 1441.5 793.5C1441.8 800.1 1453.9 805.3 1459.1 805.2C1471.8 805 1486.4 795.1 1497 788.5" stroke="white" stroke-width="5.0932" stroke-miterlimit="10" stroke-linecap="round" stroke-linejoin="round"/>
</g>
<mask id="mask61_1329_71808" style="mask-type:luminance" maskUnits="userSpaceOnUse" x="66" y="-152" width="1920" height="1336">
<path d="M1986 -152H66V1184H1986V-152Z" fill="white"/>
</mask>
<g mask="url(#mask61_1329_71808)">
<path d="M1471.4 839.7C1472.2 838.8 1467.9 845.2 1467.2 847.7C1466 851.8 1465.2 856.1 1464.7 860.4C1462.9 875.5 1464.7 891 1457.7 904.6" stroke="white" stroke-width="5.0932" stroke-miterlimit="10" stroke-linecap="round" stroke-linejoin="round"/>
</g>
<mask id="mask62_1329_71808" style="mask-type:luminance" maskUnits="userSpaceOnUse" x="66" y="-152" width="1920" height="1336">
<path d="M1986 -152H66V1184H1986V-152Z" fill="white"/>
</mask>
<g mask="url(#mask62_1329_71808)">
<path d="M1488.8 876.4C1490.2 882.3 1494.3 885.8 1498.4 890C1512.5 904.4 1532.1 907.3 1551.2 907.1" stroke="white" stroke-width="5.0932" stroke-miterlimit="10" stroke-linecap="round" stroke-linejoin="round"/>
</g>
<mask id="mask63_1329_71808" style="mask-type:luminance" maskUnits="userSpaceOnUse" x="66" y="-152" width="1920" height="1336">
<path d="M1986 -152H66V1184H1986V-152Z" fill="white"/>
</mask>
<g mask="url(#mask63_1329_71808)">
<path d="M1470.8 937.5C1473 937 1476.8 942.2 1478.4 943.5C1485.9 949.7 1493.7 956.5 1502.1 961.3C1524.8 974.5 1555.1 982.7 1581.3 976.5" stroke="white" stroke-width="5.0932" stroke-miterlimit="10" stroke-linecap="round" stroke-linejoin="round"/>
</g>
<mask id="mask64_1329_71808" style="mask-type:luminance" maskUnits="userSpaceOnUse" x="66" y="-152" width="1920" height="1336">
<path d="M1986 -152H66V1184H1986V-152Z" fill="white"/>
</mask>
<g mask="url(#mask64_1329_71808)">
<path d="M1544 1047.2C1541.7 1048.6 1540.5 1051.4 1538.7 1053.5C1533.7 1059.7 1531 1062.2 1525 1067.8C1517 1075.2 1503.2 1084.9 1505.7 1097.8C1506.9 1104.2 1510.9 1108.7 1514.2 1114" stroke="white" stroke-width="5.0932" stroke-miterlimit="10" stroke-linecap="round" stroke-linejoin="round"/>
</g>
<mask id="mask65_1329_71808" style="mask-type:luminance" maskUnits="userSpaceOnUse" x="66" y="-152" width="1920" height="1336">
<path d="M1986 -152H66V1184H1986V-152Z" fill="white"/>
</mask>
<g mask="url(#mask65_1329_71808)">
<path d="M1514.8 1024.3C1515.3 1030.2 1529.5 1035.8 1534.3 1037.8C1551.8 1045.4 1571 1045.8 1589.4 1042.6C1595 1041.6 1604.2 1041.5 1609.3 1038.3" stroke="white" stroke-width="5.0932" stroke-miterlimit="10" stroke-linecap="round" stroke-linejoin="round"/>
</g>
<mask id="mask66_1329_71808" style="mask-type:luminance" maskUnits="userSpaceOnUse" x="66" y="-152" width="1920" height="1336">
<path d="M1986 -152H66V1184H1986V-152Z" fill="white"/>
</mask>
<g mask="url(#mask66_1329_71808)">
<path d="M1535 1016.8C1542.8 1025.1 1571.5 1023.3 1582.3 1022.7" stroke="white" stroke-width="5.0932" stroke-miterlimit="10" stroke-linecap="round" stroke-linejoin="round"/>
</g>
<mask id="mask67_1329_71808" style="mask-type:luminance" maskUnits="userSpaceOnUse" x="66" y="-152" width="1920" height="1336">
<path d="M1986 -152H66V1184H1986V-152Z" fill="white"/>
</mask>
<g mask="url(#mask67_1329_71808)">
<path d="M395.699 1199.1C391.899 1197.2 391.399 1189.8 390.599 1186C387.999 1173.7 386.899 1161.4 385.499 1149C380.099 1100.8 367.899 1054.2 360.999 1006.2C355.499 967.7 355.299 928.3 353.599 889.5C353.099 878.1 354.299 866.7 353.599 855.4C352.599 838.1 351.099 820.9 350.199 803.6C348.599 775.6 343.999 746.9 338.799 719.4C334.799 698.2 325.099 678.4 320.599 657.4C315.399 632.9 308.699 608.7 301.799 584.6C295.999 564.2 282.599 555.4 267.099 542.5C258.799 535.6 256.399 524.5 248.899 516.9C237.899 505.9 222.999 500.3 212.999 487.9C206.699 480 197.999 473.8 191.899 465.7C190.699 464.1 184.699 459.9 186.799 457.2C193.699 448 209.799 450.4 218.699 453.8C234.399 459.7 241.699 474 255.099 481.7C259.199 484 264.399 484.8 268.799 486.8C279.899 491.9 291.799 498.7 301.799 505.6C308.199 510 323.399 520.3 326.799 527.2" stroke="white" stroke-width="5.0932" stroke-miterlimit="10" stroke-linecap="round" stroke-linejoin="round"/>
</g>
<mask id="mask68_1329_71808" style="mask-type:luminance" maskUnits="userSpaceOnUse" x="66" y="-152" width="1920" height="1336">
<path d="M1986 -152H66V1184H1986V-152Z" fill="white"/>
</mask>
<g mask="url(#mask68_1329_71808)">
<path d="M299.001 501.4C294.901 495.9 292.101 489.6 287.601 484.3C285.301 481.6 281.501 479 280.801 475.2C279.101 466.8 290.101 459.5 297.901 462.1C304.101 464.2 305.401 471.7 309.301 476.3C317.201 485.7 326.801 492.7 335.501 501.3" stroke="white" stroke-width="5.0932" stroke-miterlimit="10" stroke-linecap="round" stroke-linejoin="round"/>
</g>
<mask id="mask69_1329_71808" style="mask-type:luminance" maskUnits="userSpaceOnUse" x="66" y="-152" width="1920" height="1336">
<path d="M1986 -152H66V1184H1986V-152Z" fill="white"/>
</mask>
<g mask="url(#mask69_1329_71808)">
<path d="M341.1 594.2C341.1 581.5 342.9 568.7 343.9 556.1C345.4 538.5 341.2 518.7 338.8 501.5C337.8 494.3 330.4 474.3 334.2 467.9C337.1 463 344.6 462.8 349.6 462.8C366.3 462.8 377 477.8 382.6 492.4C392.4 517.8 390.7 545.5 398.5 571.5C408.9 606.1 435.1 633.4 437.2 670.5C437.7 680.1 439.4 691.7 434.9 700.7" stroke="white" stroke-width="5.0932" stroke-miterlimit="10" stroke-linecap="round" stroke-linejoin="round"/>
</g>
<mask id="mask70_1329_71808" style="mask-type:luminance" maskUnits="userSpaceOnUse" x="66" y="-152" width="1920" height="1336">
<path d="M1986 -152H66V1184H1986V-152Z" fill="white"/>
</mask>
<g mask="url(#mask70_1329_71808)">
<path d="M416.801 696C428.901 700 443.901 699.8 448.701 714.2" stroke="white" stroke-width="5.0932" stroke-miterlimit="10" stroke-linecap="round" stroke-linejoin="round"/>
</g>
<mask id="mask71_1329_71808" style="mask-type:luminance" maskUnits="userSpaceOnUse" x="66" y="-152" width="1920" height="1336">
<path d="M1986 -152H66V1184H1986V-152Z" fill="white"/>
</mask>
<g mask="url(#mask71_1329_71808)">
<path d="M392.9 535.6C392.9 529.1 396.3 522.3 396.9 515.7C397.8 505.6 395.4 494 399.2 484.4C404.6 470.9 418.6 481.2 422.5 490.7C433.5 517.2 425.3 548.4 425.3 576.1" stroke="white" stroke-width="5.0932" stroke-miterlimit="10" stroke-linecap="round" stroke-linejoin="round"/>
</g>
<mask id="mask72_1329_71808" style="mask-type:luminance" maskUnits="userSpaceOnUse" x="66" y="-152" width="1920" height="1336">
<path d="M1986 -152H66V1184H1986V-152Z" fill="white"/>
</mask>
<g mask="url(#mask72_1329_71808)">
<path d="M412.801 558.9C414.001 562.4 419.001 565.9 421.301 569.1C425.501 574.8 429.301 585.8 429.301 593" stroke="white" stroke-width="5.0932" stroke-miterlimit="10" stroke-linecap="round" stroke-linejoin="round"/>
</g>
<mask id="mask73_1329_71808" style="mask-type:luminance" maskUnits="userSpaceOnUse" x="66" y="-152" width="1920" height="1336">
<path d="M1986 -152H66V1184H1986V-152Z" fill="white"/>
</mask>
<g mask="url(#mask73_1329_71808)">
<path d="M418.5 584.5C421.7 587.7 425.9 589 428.7 593C435.9 603.1 439 614.9 444.1 626C459.9 660.7 465.6 687.6 448.1 722.7" stroke="white" stroke-width="5.0932" stroke-miterlimit="10" stroke-linecap="round" stroke-linejoin="round"/>
</g>
<mask id="mask74_1329_71808" style="mask-type:luminance" maskUnits="userSpaceOnUse" x="66" y="-152" width="1920" height="1336">
<path d="M1986 -152H66V1184H1986V-152Z" fill="white"/>
</mask>
<g mask="url(#mask74_1329_71808)">
<path d="M450.9 721.1C450.9 730.4 444.8 738 446.3 749C446.9 753.4 449.7 757 451.4 761C456.8 773.2 464.1 787.4 465.6 800.8C468.5 826.7 470.4 852.9 475.3 878.8C479 898.7 484.9 919 490.1 938.6C495.5 959.1 498.1 980.5 502.6 1001.2C510.2 1036.2 519.8 1070.4 525.4 1105.9C529.3 1130.8 536.1 1155.3 541.3 1179.9C543.4 1189.8 547.6 1201 547.6 1211.2" stroke="white" stroke-width="5.0932" stroke-miterlimit="10" stroke-linecap="round" stroke-linejoin="round"/>
</g>
<mask id="mask75_1329_71808" style="mask-type:luminance" maskUnits="userSpaceOnUse" x="66" y="-152" width="1920" height="1336">
<path d="M1986 -152H66V1184H1986V-152Z" fill="white"/>
</mask>
<g mask="url(#mask75_1329_71808)">
<path d="M612.7 1028.4C609.7 1029.2 607.6 1032 605.1 1033.7C599.8 1037.3 594 1041 591.2 1046.9C590.5 1048.5 588.8 1060.6 591.5 1060C593.9 1059.5 595.7 1055 598.5 1054.8C599.6 1054.7 600.3 1063.3 602.3 1063.7C604.7 1064.2 609.5 1060 611.6 1059C620.9 1054.5 628.5 1046.2 638.6 1043.1C646.3 1040.7 654.2 1037.6 662.3 1037C669.8 1036.5 677.6 1038 685 1038.8C693.6 1039.8 702.3 1039.8 710.8 1040.7C717.6 1041.4 725.1 1042 731.8 1040.6C733.3 1040.3 737.9 1040.7 739.1 1039.7C740.1 1038.8 739.9 1036.7 741.4 1036.2C744.6 1035 748.2 1035.2 750.6 1032.2C755.7 1025.6 754.9 1014 746.6 1009.7C740.1 1006.3 729.5 1005.7 722.3 1005.5C713.3 1005.2 704 1009.4 694.8 1009.8C694.4 1009.8 687.4 1009.9 687.4 1009.9C687.3 1009 697 1004.7 698.2 1004.2C706.8 1000.4 724.3 997.2 733.4 999.6C735 1000 752.1 1010.3 751 1004.9C746.5 984 718.3 985.7 703 989.2C688.9 992.4 674.3 995.1 661.3 1001.7C648.6 1008.2 636.9 1017 624.6 1024.3C616.4 1029.2 607.4 1032.4 599.5 1037.7" fill="#12B6FB"/>
</g>
<mask id="mask76_1329_71808" style="mask-type:luminance" maskUnits="userSpaceOnUse" x="66" y="-152" width="1920" height="1336">
<path d="M1986 -152H66V1184H1986V-152Z" fill="white"/>
</mask>
<g mask="url(#mask76_1329_71808)">
<path d="M567.199 1188.6C563.999 1173.8 570.299 1150.1 578.699 1137.3C582.299 1131.7 589.299 1128.6 592.699 1123.3C594.399 1120.7 590.999 1110.9 590.499 1108.3C588.199 1097.6 584.899 1083.9 592.299 1074.5C597.099 1068.4 604.899 1063 611.399 1058.9C624.999 1050.5 641.099 1040.2 657.499 1039.1C675.299 1037.9 692.599 1041.1 710.399 1041.8C725.499 1042.3 743.299 1039.3 756.599 1047.9C767.599 1055.1 771.099 1064.2 773.799 1077.1C774.699 1081.4 774.699 1085.9 776.999 1089.9C778.299 1092.1 778.999 1096.6 781.199 1098C789.699 1103.5 796.399 1108.4 801.499 1118.1C806.299 1127.4 807.699 1138.2 810.399 1148.1C812.299 1155.3 816.299 1161.6 818.299 1168.9C819.999 1174.9 819.999 1181.8 822.799 1187.4" stroke="white" stroke-width="5.0932" stroke-miterlimit="10" stroke-linecap="round" stroke-linejoin="round"/>
</g>
<mask id="mask77_1329_71808" style="mask-type:luminance" maskUnits="userSpaceOnUse" x="66" y="-152" width="1920" height="1336">
<path d="M1986 -152H66V1184H1986V-152Z" fill="white"/>
</mask>
<g mask="url(#mask77_1329_71808)">
<path d="M597.199 1121.3C605.299 1114.8 614.999 1113.5 624.999 1113.9C626.899 1114 630.099 1115.8 631.799 1115.4C634.999 1114.7 638.299 1109.9 641.299 1108.4C647.399 1105.2 654.099 1103 660.599 1100.8C668.499 1098.2 675.399 1102.6 682.599 1101.1" stroke="white" stroke-width="5.0932" stroke-miterlimit="10" stroke-linecap="round" stroke-linejoin="round"/>
</g>
<mask id="mask78_1329_71808" style="mask-type:luminance" maskUnits="userSpaceOnUse" x="66" y="-152" width="1920" height="1336">
<path d="M1986 -152H66V1184H1986V-152Z" fill="white"/>
</mask>
<g mask="url(#mask78_1329_71808)">
<path d="M692.9 1097.3C698.9 1096 704.4 1094.7 710.6 1096C714.7 1096.9 718.2 1099.3 722.3 1099.5C728.8 1099.7 734 1094.2 740.9 1095.5C745.5 1096.4 749.3 1101.9 753.3 1102.3C758.8 1102.9 765 1098.7 770.5 1098.6C773.8 1098.6 777.8 1100 781 1100.9" stroke="white" stroke-width="5.0932" stroke-miterlimit="10" stroke-linecap="round" stroke-linejoin="round"/>
</g>
<mask id="mask79_1329_71808" style="mask-type:luminance" maskUnits="userSpaceOnUse" x="66" y="-152" width="1920" height="1336">
<path d="M1986 -152H66V1184H1986V-152Z" fill="white"/>
</mask>
<g mask="url(#mask79_1329_71808)">
<path d="M750.1 1106.1C755.4 1116 755.7 1127.6 757 1138.5C758.6 1151.9 762.8 1166.7 770.4 1178" stroke="white" stroke-width="5.0932" stroke-miterlimit="10" stroke-linecap="round" stroke-linejoin="round"/>
</g>
<mask id="mask80_1329_71808" style="mask-type:luminance" maskUnits="userSpaceOnUse" x="66" y="-152" width="1920" height="1336">
<path d="M1986 -152H66V1184H1986V-152Z" fill="white"/>
</mask>
<g mask="url(#mask80_1329_71808)">
<path d="M739.501 1040C738.301 1038 736.401 1022.6 735.701 1022.3C735.001 1022 730.901 1023.8 730.101 1024C724.001 1025.3 718.301 1026.4 712.001 1025.9C680.801 1023.2 649.901 1021.2 619.101 1027.8C610.101 1029.7 596.101 1033.8 591.401 1042.7C589.301 1046.7 588.301 1051.6 589.301 1056.1C589.601 1057.4 589.801 1058.6 590.101 1059.9C590.201 1060.5 590.001 1062.2 590.501 1061.8C593.301 1059.6 594.101 1054.4 597.401 1051.9C608.201 1043.3 628.801 1041.4 641.901 1042.9" stroke="white" stroke-width="5.0932" stroke-miterlimit="10" stroke-linecap="round" stroke-linejoin="round"/>
</g>
<mask id="mask81_1329_71808" style="mask-type:luminance" maskUnits="userSpaceOnUse" x="66" y="-152" width="1920" height="1336">
<path d="M1986 -152H66V1184H1986V-152Z" fill="white"/>
</mask>
<g mask="url(#mask81_1329_71808)">
<path d="M597.5 1054.9C597 1059.7 599.6 1062.8 602.4 1066.3" stroke="white" stroke-width="5.0932" stroke-miterlimit="10" stroke-linecap="round" stroke-linejoin="round"/>
</g>
<mask id="mask82_1329_71808" style="mask-type:luminance" maskUnits="userSpaceOnUse" x="66" y="-152" width="1920" height="1336">
<path d="M1986 -152H66V1184H1986V-152Z" fill="white"/>
</mask>
<g mask="url(#mask82_1329_71808)">
<path d="M651.101 1023.5C651.501 1025.2 667.901 1017.3 670.001 1016.5C682.001 1011.7 694.201 1006.9 706.601 1003.2C715.901 1000.4 725.601 999.2 735.101 1001.1C737.501 1001.6 748.101 1010.8 749.601 1008.5C751.601 1005.5 746.301 996.6 745.001 994C739.601 983 715.301 987.1 705.401 988.5C682.801 991.8 660.701 999.6 640.901 1011.3C634.201 1015.2 627.701 1019.1 621.001 1023C619.201 1024.1 617.801 1026.2 615.801 1026.6" stroke="white" stroke-width="5.0932" stroke-miterlimit="10" stroke-linecap="round" stroke-linejoin="round"/>
</g>
<mask id="mask83_1329_71808" style="mask-type:luminance" maskUnits="userSpaceOnUse" x="66" y="-152" width="1920" height="1336">
<path d="M1986 -152H66V1184H1986V-152Z" fill="white"/>
</mask>
<g mask="url(#mask83_1329_71808)">
<path d="M673 1016.3C692.9 1012 712.8 1006.2 733.5 1007.4C739.2 1007.7 744.2 1007.3 749.5 1010C755.5 1013 756.3 1029 750.9 1032.7C748.8 1034.1 738.2 1037.8 739.6 1035.6" stroke="white" stroke-width="5.0932" stroke-miterlimit="10" stroke-linecap="round" stroke-linejoin="round"/>
</g>
<mask id="mask84_1329_71808" style="mask-type:luminance" maskUnits="userSpaceOnUse" x="66" y="-152" width="1920" height="1336">
<path d="M1986 -152H66V1184H1986V-152Z" fill="white"/>
</mask>
<g mask="url(#mask84_1329_71808)">
<path d="M739.4 1035C740.8 1031.4 744.2 1028.7 744.1 1024.5C744 1014.4 717.2 1024.8 714.4 1025.4" stroke="white" stroke-width="5.0932" stroke-miterlimit="10" stroke-linecap="round" stroke-linejoin="round"/>
</g>
<mask id="mask85_1329_71808" style="mask-type:luminance" maskUnits="userSpaceOnUse" x="66" y="-152" width="1920" height="1336">
<path d="M1986 -152H66V1184H1986V-152Z" fill="white"/>
</mask>
<g mask="url(#mask85_1329_71808)">
<path d="M723.399 985.6C722.899 987.7 724.199 978.2 724.399 976.4C725.099 971 724.699 965.5 723.899 960C721.499 944.2 718.599 928 715.199 912.5C713.399 904 709.899 896 707.399 887.7C704.299 877.4 703.399 865.9 698.699 856.1C696.599 851.9 690.499 850.7 688.499 845.8C686.599 840.9 686.999 835.2 686.699 830.2C686.399 825.2 683.799 820.4 683.499 815.4C682.999 804.6 685.199 793.8 685.999 782.9C686.599 775.5 684.199 749.1 676.499 745.5C669.099 742.1 658.299 747.9 656.299 755.8C654.599 762.3 654.899 769 654.599 775.6C654.099 784 655.999 792.7 654.599 801.1C652.599 812.6 645.999 824.6 647.199 836.6C648.499 849.9 652.499 862.2 655.899 875.1C657.099 879.5 656.799 883.8 657.699 888.2" stroke="white" stroke-width="5.0932" stroke-miterlimit="10" stroke-linecap="round" stroke-linejoin="round"/>
</g>
<mask id="mask86_1329_71808" style="mask-type:luminance" maskUnits="userSpaceOnUse" x="66" y="-152" width="1920" height="1336">
<path d="M1986 -152H66V1184H1986V-152Z" fill="white"/>
</mask>
<g mask="url(#mask86_1329_71808)">
<path d="M648.701 832.4C643.301 831.8 639.401 828.6 634.301 828" stroke="white" stroke-width="5.0932" stroke-miterlimit="10" stroke-linecap="round" stroke-linejoin="round"/>
</g>
<mask id="mask87_1329_71808" style="mask-type:luminance" maskUnits="userSpaceOnUse" x="66" y="-152" width="1920" height="1336">
<path d="M1986 -152H66V1184H1986V-152Z" fill="white"/>
</mask>
<g mask="url(#mask87_1329_71808)">
<path d="M599.9 860.8C596.6 845.5 584.8 831.5 579 816.9C575.5 808.1 576.9 797.6 574.9 788.3C572.7 777.9 567.2 768.8 564.1 758.7C561.6 750.8 547.3 727.2 550.8 719.6C561.3 696.8 586.2 724.9 594.3 734.2C607.5 749.3 607.5 771.3 613.6 789.4C617.1 800 622.8 809.6 628.4 819.2C633.4 827.8 636.8 837.4 640.7 846.5" stroke="white" stroke-width="5.0932" stroke-miterlimit="10" stroke-linecap="round" stroke-linejoin="round"/>
</g>
<mask id="mask88_1329_71808" style="mask-type:luminance" maskUnits="userSpaceOnUse" x="66" y="-152" width="1920" height="1336">
<path d="M1986 -152H66V1184H1986V-152Z" fill="white"/>
</mask>
<g mask="url(#mask88_1329_71808)">
<path d="M576.8 801.9C568.5 791.5 561.2 781.2 552.4 771.7C548.5 767.5 547.8 759.8 545.3 754.8C540.8 745.7 535 736.8 530 727.6C524.8 718.1 516.1 696.3 505 692.5C487 686.3 486.6 708.9 490.3 719.6C494.8 732.5 497.7 746 502.2 759C504.4 765.3 508.3 770.9 510.6 777.2C513.4 784.9 516.3 795.9 521.5 802.3" stroke="white" stroke-width="5.0932" stroke-miterlimit="10" stroke-linecap="round" stroke-linejoin="round"/>
</g>
<mask id="mask89_1329_71808" style="mask-type:luminance" maskUnits="userSpaceOnUse" x="66" y="-152" width="1920" height="1336">
<path d="M1986 -152H66V1184H1986V-152Z" fill="white"/>
</mask>
<g mask="url(#mask89_1329_71808)">
<path d="M598.4 1032.4C598.1 1033.5 594.7 1024.8 593.7 1022.7C591 1017.3 587.8 1011.7 585.5 1006.2C577.8 987.6 569.1 968.1 559.4 950.3C552.6 937.8 546.1 924.7 539.9 912C537.7 907.5 536.3 901.5 532.9 897.7C514.9 877.7 497 858.5 483.2 835C479.3 828.3 473.3 822.1 470.4 815.1" stroke="white" stroke-width="5.0932" stroke-miterlimit="10" stroke-linecap="round" stroke-linejoin="round"/>
</g>
<mask id="mask90_1329_71808" style="mask-type:luminance" maskUnits="userSpaceOnUse" x="66" y="-152" width="1920" height="1336">
<path d="M1986 -152H66V1184H1986V-152Z" fill="white"/>
</mask>
<g mask="url(#mask90_1329_71808)">
<path d="M449.301 731.6C465.701 724.8 479.701 748 487.501 759.1C497.701 773.6 509.301 787.2 520.001 801.1C528.001 811.4 532.201 824.5 540.501 834.6C544.901 840 550.701 844.7 555.701 849.7C561.401 855.4 566.101 863.5 570.301 870.5" stroke="white" stroke-width="5.0932" stroke-miterlimit="10" stroke-linecap="round" stroke-linejoin="round"/>
</g>
<mask id="mask91_1329_71808" style="mask-type:luminance" maskUnits="userSpaceOnUse" x="66" y="-152" width="1920" height="1336">
<path d="M1986 -152H66V1184H1986V-152Z" fill="white"/>
</mask>
<g mask="url(#mask91_1329_71808)">
<path d="M584.2 720.4C578.9 701.6 572.5 682.5 569.4 663.3C567.7 652.6 570.5 641.7 570.7 630.9C571 615 570.6 597.5 567.9 581.8C565.6 568.8 561.5 555.9 559.8 542.9C559 536.8 555.7 529.5 558.1 523.3C562.6 511.6 585.7 525 590.7 529.4C613.3 548.8 609.1 586.4 614 612.9C615.8 622.8 621.7 630.5 627.1 638.5" stroke="white" stroke-width="5.0932" stroke-miterlimit="10" stroke-linecap="round" stroke-linejoin="round"/>
</g>
<mask id="mask92_1329_71808" style="mask-type:luminance" maskUnits="userSpaceOnUse" x="66" y="-152" width="1920" height="1336">
<path d="M1986 -152H66V1184H1986V-152Z" fill="white"/>
</mask>
<g mask="url(#mask92_1329_71808)">
<path d="M629.9 639.4C635.3 637.9 641.2 639 646.7 637.4" stroke="white" stroke-width="5.0932" stroke-miterlimit="10" stroke-linecap="round" stroke-linejoin="round"/>
</g>
<mask id="mask93_1329_71808" style="mask-type:luminance" maskUnits="userSpaceOnUse" x="66" y="-152" width="1920" height="1336">
<path d="M1986 -152H66V1184H1986V-152Z" fill="white"/>
</mask>
<g mask="url(#mask93_1329_71808)">
<path d="M645.4 638.3C649.9 634.3 652.2 625.3 654.9 619.9C659.8 610.1 665.7 601.2 667.8 590.3C669.6 581.3 667.7 571.9 666.2 563.1C664.3 552.3 665.7 541.2 664.7 530.4C663.6 518.9 659.7 503.6 664.4 492.5C668.8 482.1 682.1 479.4 690.1 487.5C696.7 494.2 698.6 506.2 701 514.8C707.5 538.1 713.7 564.5 713.5 588.9C713.4 604 708.8 618.5 709.3 634" stroke="white" stroke-width="5.0932" stroke-miterlimit="10" stroke-linecap="round" stroke-linejoin="round"/>
</g>
<mask id="mask94_1329_71808" style="mask-type:luminance" maskUnits="userSpaceOnUse" x="66" y="-152" width="1920" height="1336">
<path d="M1986 -152H66V1184H1986V-152Z" fill="white"/>
</mask>
<g mask="url(#mask94_1329_71808)">
<path d="M713.801 601.9C715.801 602.3 726.801 601 729.101 600.3" stroke="white" stroke-width="5.0932" stroke-miterlimit="10" stroke-linecap="round" stroke-linejoin="round"/>
</g>
<mask id="mask95_1329_71808" style="mask-type:luminance" maskUnits="userSpaceOnUse" x="66" y="-152" width="1920" height="1336">
<path d="M1986 -152H66V1184H1986V-152Z" fill="white"/>
</mask>
<g mask="url(#mask95_1329_71808)">
<path d="M723 617.2C730.1 604.6 734.7 591.3 741 578.6C745.4 569.6 753.7 562.2 756.5 552.6C761.1 537 762.5 520.6 767.6 505C769.9 498.1 773.1 491.6 775.6 484.9C778.8 476 779.6 465.1 789.5 461C820.9 447.9 812.2 488.1 808.3 505.1C803.5 526.3 800 548.2 794.2 569.2C790.3 583.4 780.7 595.7 773.1 608.2C767.5 617.3 763.5 627.4 758.3 636.7" stroke="white" stroke-width="5.0932" stroke-miterlimit="10" stroke-linecap="round" stroke-linejoin="round"/>
</g>
<mask id="mask96_1329_71808" style="mask-type:luminance" maskUnits="userSpaceOnUse" x="66" y="-152" width="1920" height="1336">
<path d="M1986 -152H66V1184H1986V-152Z" fill="white"/>
</mask>
<g mask="url(#mask96_1329_71808)">
<path d="M813.6 471.6C814.2 460 828.6 450.9 838.4 459.3C844.4 464.4 846 474.7 845.9 482.2C845.7 494.4 838.4 506.9 834.8 518.4C827.2 543.2 818.6 568.4 808.8 592.4C805.9 599.6 804.1 607.2 801.4 614.5C796.2 628.3 788.1 642 783.6 655.8C777.4 674.7 770.2 693 762.8 711.5C760.8 716.4 757.6 722.3 756.4 727.4C754.8 734 756.4 742.4 753 748.4C746.6 759.7 740.2 770.4 735.4 782.6C730.2 796.1 731.4 810.6 729.2 824.5C726.4 841.7 721.5 858.3 717.2 875C715.4 882.1 715.4 889.3 714 896.5" stroke="white" stroke-width="5.0932" stroke-miterlimit="10" stroke-linecap="round" stroke-linejoin="round"/>
</g>
<mask id="mask97_1329_71808" style="mask-type:luminance" maskUnits="userSpaceOnUse" x="66" y="-152" width="1920" height="1336">
<path d="M1986 -152H66V1184H1986V-152Z" fill="white"/>
</mask>
<g mask="url(#mask97_1329_71808)">
<path d="M572.599 978.6C570.599 989.1 560.999 1006 573.499 1013.1C576.499 1014.8 580.299 1014.6 583.499 1015.7C585.999 1016.6 588.899 1018.5 591.699 1017.8" stroke="white" stroke-width="5.0932" stroke-miterlimit="10" stroke-linecap="round" stroke-linejoin="round"/>
</g>
<mask id="mask98_1329_71808" style="mask-type:luminance" maskUnits="userSpaceOnUse" x="66" y="-152" width="1920" height="1336">
<path d="M1986 -152H66V1184H1986V-152Z" fill="white"/>
</mask>
<g mask="url(#mask98_1329_71808)">
<path d="M566.6 996C558.1 998.4 555.4 1009.2 560.7 1015.6C568.1 1024.5 584.3 1032.3 595.9 1032.9" stroke="white" stroke-width="5.0932" stroke-miterlimit="10" stroke-linecap="round" stroke-linejoin="round"/>
</g>
<mask id="mask99_1329_71808" style="mask-type:luminance" maskUnits="userSpaceOnUse" x="66" y="-152" width="1920" height="1336">
<path d="M1986 -152H66V1184H1986V-152Z" fill="white"/>
</mask>
<g mask="url(#mask99_1329_71808)">
<path d="M558.299 1009.1C553.199 1035.2 548.199 1060.8 541.399 1086.5C539.499 1093.8 531.599 1108.1 537.499 1115.3C543.499 1122.6 554.699 1127.9 563.499 1130.8C567.599 1132.2 573.199 1130.8 576.399 1134.3" stroke="white" stroke-width="5.0932" stroke-miterlimit="10" stroke-linecap="round" stroke-linejoin="round"/>
</g>
<mask id="mask100_1329_71808" style="mask-type:luminance" maskUnits="userSpaceOnUse" x="66" y="-152" width="1920" height="1336">
<path d="M1986 -152H66V1184H1986V-152Z" fill="white"/>
</mask>
<g mask="url(#mask100_1329_71808)">
<path d="M538.6 1096C529.4 1098.6 527.3 1115.2 533.3 1121.9C542.8 1132.4 554.3 1135.7 567.7 1138.3C570.1 1138.8 571.7 1140.2 574.2 1140.3" stroke="white" stroke-width="5.0932" stroke-miterlimit="10" stroke-linecap="round" stroke-linejoin="round"/>
</g>
<mask id="mask101_1329_71808" style="mask-type:luminance" maskUnits="userSpaceOnUse" x="66" y="-152" width="1920" height="1336">
<path d="M1986 -152H66V1184H1986V-152Z" fill="white"/>
</mask>
<g mask="url(#mask101_1329_71808)">
<path d="M791.101 1051.5C786.501 1049.7 778.901 1051.5 777.001 1055.3C775.301 1058.8 778.701 1064.2 783.501 1066.6C797.501 1073.7 816.801 1072.9 832.001 1072.6C838.001 1072.5 844.501 1074.6 850.401 1075.8C857.001 1077.1 864.001 1077.3 870.701 1077.3C877.201 1077.3 885.601 1078.8 890.401 1076.5C894.401 1074.5 895.501 1069.4 896.301 1062.9C897.701 1051.5 885.801 1057.4 878.701 1057.1C872.101 1056.8 863.401 1055.4 856.901 1054.6C844.501 1053.1 832.801 1051.1 820.301 1051.8C813.201 1052.2 806.401 1053.2 799.401 1052.9C797.701 1052.7 791.801 1051.8 791.101 1051.5Z" fill="#63BD4C"/>
</g>
<mask id="mask102_1329_71808" style="mask-type:luminance" maskUnits="userSpaceOnUse" x="66" y="-152" width="1920" height="1336">
<path d="M1986 -152H66V1184H1986V-152Z" fill="white"/>
</mask>
<g mask="url(#mask102_1329_71808)">
<path d="M894.201 1191.4C893.201 1184.3 894.301 1176.5 893.701 1169.3C892.501 1153.6 889.801 1138.1 888.701 1122.5C888.201 1115.3 890.301 1108.2 890.401 1101.1C890.601 1094.3 889.801 1087.3 890.101 1080.5C890.501 1073.6 898.901 1069.5 899.701 1062.2C900.401 1055.1 890.801 1053 892.001 1044.8C892.901 1038.2 897.301 1032 899.401 1025.8C903.101 1014.6 907.701 1003.3 909.901 991.6C913.401 972.4 906.001 952.7 905.401 933.6C904.901 916.1 907.801 898.8 907.001 881.1C906.201 864.2 906.501 847.8 907.801 830.8C908.501 821.8 910.201 813.8 908.901 804.8C907.101 792.3 905.001 778.2 888.401 783.4C877.501 786.8 876.601 803.3 874.001 812.4C865.601 841.7 869.001 873.7 859.301 902.7" stroke="white" stroke-width="5.0932" stroke-miterlimit="10" stroke-linecap="round" stroke-linejoin="round"/>
</g>
<mask id="mask103_1329_71808" style="mask-type:luminance" maskUnits="userSpaceOnUse" x="66" y="-152" width="1920" height="1336">
<path d="M1986 -152H66V1184H1986V-152Z" fill="white"/>
</mask>
<g mask="url(#mask103_1329_71808)">
<path d="M863.9 887.1C859.6 887.7 855.8 883.1 852.5 881.3C843.5 876.3 831.9 860.6 825.7 852.3C818.9 843.4 812.3 834 806.4 824.4C802.1 817.4 799.8 809.3 795.9 802.1C790.7 792.5 782.7 785.3 779.4 774.8C777.3 768 777.2 760.6 775.4 753.7C773.7 747.5 770.6 742.5 769.7 736C768.8 729.9 769.4 718.3 766 713.3" stroke="white" stroke-width="5.0932" stroke-miterlimit="10" stroke-linecap="round" stroke-linejoin="round"/>
</g>
<mask id="mask104_1329_71808" style="mask-type:luminance" maskUnits="userSpaceOnUse" x="66" y="-152" width="1920" height="1336">
<path d="M1986 -152H66V1184H1986V-152Z" fill="white"/>
</mask>
<g mask="url(#mask104_1329_71808)">
<path d="M739.9 779.9C742 783 741.7 789.2 742.2 792.8C743.1 798.9 744.2 804.4 746.2 810.2C749.7 820.1 756.9 828 760.7 837.7C765.2 849.4 770.1 862.8 771.8 875.2" stroke="white" stroke-width="5.0932" stroke-miterlimit="10" stroke-linecap="round" stroke-linejoin="round"/>
</g>
<mask id="mask105_1329_71808" style="mask-type:luminance" maskUnits="userSpaceOnUse" x="66" y="-152" width="1920" height="1336">
<path d="M1986 -152H66V1184H1986V-152Z" fill="white"/>
</mask>
<g mask="url(#mask105_1329_71808)">
<path d="M734.9 800.7C739.3 805.1 745.2 807.8 748.8 813" stroke="white" stroke-width="5.0932" stroke-miterlimit="10" stroke-linecap="round" stroke-linejoin="round"/>
</g>
<mask id="mask106_1329_71808" style="mask-type:luminance" maskUnits="userSpaceOnUse" x="66" y="-152" width="1920" height="1336">
<path d="M1986 -152H66V1184H1986V-152Z" fill="white"/>
</mask>
<g mask="url(#mask106_1329_71808)">
<path d="M720.4 885.1C721.6 893.3 727.8 902.4 732.3 909.3C741.7 923.7 752 938.4 757.2 954.9C762.1 970.5 767 987.7 775 1002.1C780.8 1012.6 788.5 1021.2 791.5 1033.1C792.5 1037 793.1 1044.8 791 1048.5C788.8 1052.4 771.2 1047.5 777.1 1062.1C781.1 1071.9 794.8 1070.9 803.2 1071.1C811.8 1071.3 820.5 1070.1 829.2 1071.7C847.5 1075 868.7 1079.9 887.1 1077.3" stroke="white" stroke-width="5.0932" stroke-miterlimit="10" stroke-linecap="round" stroke-linejoin="round"/>
</g>
<mask id="mask107_1329_71808" style="mask-type:luminance" maskUnits="userSpaceOnUse" x="66" y="-152" width="1920" height="1336">
<path d="M1986 -152H66V1184H1986V-152Z" fill="white"/>
</mask>
<g mask="url(#mask107_1329_71808)">
<path d="M790.699 1049.6C802.599 1055.3 816.999 1052.1 829.499 1051.5C845.699 1050.7 861.399 1056.9 877.299 1056.9C883.799 1056.9 889.499 1054.7 895.899 1053.7" stroke="white" stroke-width="5.0932" stroke-miterlimit="10" stroke-linecap="round" stroke-linejoin="round"/>
</g>
<mask id="mask108_1329_71808" style="mask-type:luminance" maskUnits="userSpaceOnUse" x="66" y="-152" width="1920" height="1336">
<path d="M1986 -152H66V1184H1986V-152Z" fill="white"/>
</mask>
<g mask="url(#mask108_1329_71808)">
<path fill-rule="evenodd" clip-rule="evenodd" d="M790.515 1070.09C791.848 1070.54 792.563 1071.98 792.113 1073.32C791.015 1076.57 790.947 1080.18 790.909 1084.22C790.908 1084.33 790.907 1084.43 790.906 1084.53C790.871 1088.33 790.832 1092.57 789.509 1096.43C789.053 1097.76 787.605 1098.47 786.274 1098.01C784.944 1097.55 784.235 1096.1 784.691 1094.77C785.732 1091.74 785.778 1088.25 785.816 1084.18L785.817 1084.1C785.853 1080.22 785.895 1075.81 787.287 1071.69C787.738 1070.35 789.183 1069.64 790.515 1070.09Z" fill="white"/>
</g>
</g>
<path d="M249.28 172.48C247.093 172.48 245.106 171.96 243.32 170.92C241.533 169.88 240.106 168.36 239.04 166.36C238 164.333 237.48 161.88 237.48 159C237.48 156.147 238.013 153.707 239.08 151.68C240.173 149.627 241.626 148.067 243.44 147C245.253 145.907 247.253 145.36 249.44 145.36C251.093 145.36 252.56 145.693 253.84 146.36C255.12 147.027 256.173 147.8 257 148.68L254.52 151.68C253.853 150.987 253.106 150.44 252.28 150.04C251.48 149.613 250.573 149.4 249.56 149.4C248.146 149.4 246.88 149.787 245.76 150.56C244.666 151.307 243.8 152.387 243.16 153.8C242.546 155.213 242.24 156.907 242.24 158.88C242.24 161.867 242.893 164.213 244.2 165.92C245.506 167.6 247.253 168.44 249.44 168.44C250.613 168.44 251.653 168.2 252.56 167.72C253.466 167.213 254.293 166.56 255.04 165.76L257.52 168.68C256.453 169.907 255.226 170.853 253.84 171.52C252.48 172.16 250.96 172.48 249.28 172.48ZM261.886 172V145.84H277.646V149.76H266.526V156.44H275.926V160.36H266.526V168.08H278.046V172H261.886ZM283.41 172V145.84H288.01V157.2C288.01 158.667 287.943 160.187 287.81 161.76C287.677 163.333 287.543 164.787 287.41 166.12H287.57L290.29 160.56L298.49 145.84H303.41V172H298.81V160.56C298.81 159.093 298.877 157.6 299.01 156.08C299.17 154.56 299.303 153.107 299.41 151.72H299.25L296.57 157.24L288.33 172H283.41ZM293.57 143.72C291.97 143.72 290.703 143.48 289.77 143C288.837 142.493 288.157 141.84 287.73 141.04C287.303 140.213 287.05 139.307 286.97 138.32H290.93C290.983 139.173 291.21 139.893 291.61 140.48C292.01 141.04 292.663 141.32 293.57 141.32C294.503 141.32 295.17 141.04 295.57 140.48C295.97 139.893 296.183 139.173 296.21 138.32H300.17C300.117 139.307 299.863 140.213 299.41 141.04C298.983 141.84 298.303 142.493 297.37 143C296.437 143.48 295.17 143.72 293.57 143.72ZM323.33 172V160.88C322.717 160.96 322.077 161.04 321.41 161.12C320.744 161.173 319.93 161.2 318.97 161.2C316.97 161.2 315.237 160.907 313.77 160.32C312.33 159.733 311.224 158.787 310.45 157.48C309.677 156.147 309.29 154.373 309.29 152.16V145.84H313.81V152.16C313.81 154.133 314.277 155.507 315.21 156.28C316.17 157.053 317.584 157.44 319.45 157.44C320.304 157.44 321.037 157.413 321.65 157.36C322.29 157.307 322.85 157.227 323.33 157.12V145.84H327.97V172H323.33ZM339.981 158.08L339.061 161.28H345.741L344.821 158.08C344.394 156.693 343.981 155.267 343.581 153.8C343.207 152.333 342.834 150.88 342.461 149.44H342.301C341.954 150.907 341.581 152.373 341.181 153.84C340.807 155.28 340.407 156.693 339.981 158.08ZM331.221 172L339.741 145.84H345.181L353.701 172H348.821L346.781 164.92H337.981L335.941 172H331.221ZM366.975 172.48C364.788 172.48 362.802 171.96 361.015 170.92C359.228 169.88 357.802 168.36 356.735 166.36C355.695 164.333 355.175 161.88 355.175 159C355.175 156.147 355.708 153.707 356.775 151.68C357.868 149.627 359.322 148.067 361.135 147C362.948 145.907 364.948 145.36 367.135 145.36C368.788 145.36 370.255 145.693 371.535 146.36C372.815 147.027 373.868 147.8 374.695 148.68L372.215 151.68C371.548 150.987 370.802 150.44 369.975 150.04C369.175 149.613 368.268 149.4 367.255 149.4C365.842 149.4 364.575 149.787 363.455 150.56C362.362 151.307 361.495 152.387 360.855 153.8C360.242 155.213 359.935 156.907 359.935 158.88C359.935 161.867 360.588 164.213 361.895 165.92C363.202 167.6 364.948 168.44 367.135 168.44C368.308 168.44 369.348 168.2 370.255 167.72C371.162 167.213 371.988 166.56 372.735 165.76L375.215 168.68C374.148 169.907 372.922 170.853 371.535 171.52C370.175 172.16 368.655 172.48 366.975 172.48ZM387.59 172V145.84H392.83L397.47 158.64C397.763 159.467 398.043 160.32 398.31 161.2C398.603 162.053 398.883 162.907 399.15 163.76H399.31C399.603 162.907 399.883 162.053 400.15 161.2C400.416 160.32 400.683 159.467 400.95 158.64L405.47 145.84H410.75V172H406.47V160.04C406.47 159.213 406.496 158.32 406.55 157.36C406.63 156.373 406.71 155.387 406.79 154.4C406.896 153.413 406.99 152.52 407.07 151.72H406.91L404.79 157.8L400.51 169.56H397.75L393.43 157.8L391.35 151.72H391.19C391.27 152.52 391.35 153.413 391.43 154.4C391.536 155.387 391.616 156.373 391.67 157.36C391.75 158.32 391.79 159.213 391.79 160.04V172H387.59ZM417.394 172V145.84H433.154V149.76H422.034V156.44H431.434V160.36H422.034V168.08H433.554V172H417.394ZM438.918 172V145.84H447.158C449.104 145.84 450.838 146.093 452.358 146.6C453.878 147.107 455.078 147.947 455.958 149.12C456.838 150.293 457.278 151.893 457.278 153.92C457.278 155.84 456.838 157.427 455.958 158.68C455.078 159.933 453.891 160.867 452.398 161.48C450.904 162.093 449.211 162.4 447.318 162.4H443.558V172H438.918ZM443.558 158.68H446.958C450.798 158.68 452.718 157.093 452.718 153.92C452.718 152.267 452.211 151.133 451.198 150.52C450.211 149.88 448.744 149.56 446.798 149.56H443.558V158.68ZM472.359 172.48C470.092 172.48 468.092 171.933 466.359 170.84C464.626 169.72 463.266 168.147 462.279 166.12C461.319 164.067 460.839 161.627 460.839 158.8C460.839 155.973 461.319 153.56 462.279 151.56C463.266 149.56 464.626 148.027 466.359 146.96C468.092 145.893 470.092 145.36 472.359 145.36C474.652 145.36 476.666 145.893 478.399 146.96C480.132 148.027 481.479 149.56 482.439 151.56C483.426 153.56 483.919 155.973 483.919 158.8C483.919 161.627 483.426 164.067 482.439 166.12C481.479 168.147 480.132 169.72 478.399 170.84C476.666 171.933 474.652 172.48 472.359 172.48ZM472.359 168.44C474.412 168.44 476.052 167.573 477.279 165.84C478.506 164.08 479.119 161.733 479.119 158.8C479.119 155.867 478.506 153.573 477.279 151.92C476.052 150.24 474.412 149.4 472.359 149.4C470.306 149.4 468.666 150.24 467.439 151.92C466.212 153.573 465.599 155.867 465.599 158.8C465.599 161.733 466.212 164.08 467.439 165.84C468.666 167.573 470.306 168.44 472.359 168.44ZM489.152 172V145.84H508.672V172H504.032V149.76H493.792V172H489.152ZM515.324 172V145.84H523.564C525.511 145.84 527.244 146.093 528.764 146.6C530.284 147.107 531.484 147.947 532.364 149.12C533.244 150.293 533.684 151.893 533.684 153.92C533.684 155.84 533.244 157.427 532.364 158.68C531.484 159.933 530.297 160.867 528.804 161.48C527.311 162.093 525.617 162.4 523.724 162.4H519.964V172H515.324ZM519.964 158.68H523.364C527.204 158.68 529.124 157.093 529.124 153.92C529.124 152.267 528.617 151.133 527.604 150.52C526.617 149.88 525.151 149.56 523.204 149.56H519.964V158.68ZM538.605 172V145.84H543.205V157.2C543.205 158.667 543.138 160.187 543.005 161.76C542.872 163.333 542.738 164.787 542.605 166.12H542.765L545.485 160.56L553.685 145.84H558.605V172H554.005V160.56C554.005 159.093 554.072 157.6 554.205 156.08C554.365 154.56 554.498 153.107 554.605 151.72H554.445L551.765 157.24L543.525 172H538.605ZM577.926 172V161.76H574.046L567.926 172H562.606L569.606 161.16C567.979 160.653 566.659 159.787 565.646 158.56C564.632 157.307 564.126 155.653 564.126 153.6C564.126 151.653 564.552 150.12 565.406 149C566.259 147.853 567.406 147.04 568.846 146.56C570.312 146.08 571.952 145.84 573.766 145.84H582.566V172H577.926ZM574.246 158.08H577.926V149.56H574.246C572.459 149.56 571.086 149.867 570.126 150.48C569.192 151.067 568.726 152.107 568.726 153.6C568.726 156.587 570.566 158.08 574.246 158.08ZM594.51 172V149.76H586.95V145.84H606.71V149.76H599.15V172H594.51ZM611.066 172V145.84H615.666V157.2C615.666 158.667 615.599 160.187 615.466 161.76C615.333 163.333 615.199 164.787 615.066 166.12H615.226L617.946 160.56L626.146 145.84H631.066V172H626.466V160.56C626.466 159.093 626.533 157.6 626.666 156.08C626.826 154.56 626.959 153.107 627.066 151.72H626.906L624.226 157.24L615.986 172H611.066ZM637.707 172V145.84H642.307V157.2C642.307 158.667 642.24 160.187 642.107 161.76C641.973 163.333 641.84 164.787 641.707 166.12H641.867L644.587 160.56L652.787 145.84H657.707V172H653.107V160.56C653.107 159.093 653.173 157.6 653.307 156.08C653.467 154.56 653.6 153.107 653.707 151.72H653.547L650.867 157.24L642.627 172H637.707ZM647.867 143.72C646.267 143.72 645 143.48 644.067 143C643.133 142.493 642.453 141.84 642.027 141.04C641.6 140.213 641.347 139.307 641.267 138.32H645.227C645.28 139.173 645.507 139.893 645.907 140.48C646.307 141.04 646.96 141.32 647.867 141.32C648.8 141.32 649.467 141.04 649.867 140.48C650.267 139.893 650.48 139.173 650.507 138.32H654.467C654.413 139.307 654.16 140.213 653.707 141.04C653.28 141.84 652.6 142.493 651.667 143C650.733 143.48 649.467 143.72 647.867 143.72ZM672.355 172V145.84H676.995V156.36H687.595V145.84H692.235V172H687.595V160.4H676.995V172H672.355ZM698.879 172V145.84H714.639V149.76H703.519V156.44H712.919V160.36H703.519V168.08H715.039V172H698.879ZM725.682 172V149.76H718.122V145.84H737.882V149.76H730.322V172H725.682ZM737.345 179.28L736.345 176.76C737.652 176.253 738.652 175.56 739.345 174.68C740.065 173.827 740.412 172.907 740.385 171.92C740.332 171.92 740.265 171.92 740.185 171.92C740.132 171.92 740.078 171.92 740.025 171.92C739.252 171.92 738.558 171.68 737.945 171.2C737.358 170.693 737.065 169.987 737.065 169.08C737.065 168.227 737.372 167.547 737.985 167.04C738.598 166.507 739.318 166.24 740.145 166.24C741.238 166.24 742.078 166.653 742.665 167.48C743.278 168.307 743.585 169.467 743.585 170.96C743.585 172.907 743.038 174.6 741.945 176.04C740.852 177.507 739.318 178.587 737.345 179.28ZM218.605 215V188.84H223.245V199.36H233.845V188.84H238.485V215H233.845V203.4H223.245V215H218.605ZM255.289 215.48C253.022 215.48 251.022 214.933 249.289 213.84C247.555 212.72 246.195 211.147 245.209 209.12C244.249 207.067 243.769 204.627 243.769 201.8C243.769 198.973 244.249 196.56 245.209 194.56C246.195 192.56 247.555 191.027 249.289 189.96C251.022 188.893 253.022 188.36 255.289 188.36C257.582 188.36 259.595 188.893 261.329 189.96C263.062 191.027 264.409 192.56 265.369 194.56C266.355 196.56 266.849 198.973 266.849 201.8C266.849 204.627 266.355 207.067 265.369 209.12C264.409 211.147 263.062 212.72 261.329 213.84C259.595 214.933 257.582 215.48 255.289 215.48ZM255.289 211.44C257.342 211.44 258.982 210.573 260.209 208.84C261.435 207.08 262.049 204.733 262.049 201.8C262.049 198.867 261.435 196.573 260.209 194.92C258.982 193.24 257.342 192.4 255.289 192.4C253.235 192.4 251.595 193.24 250.369 194.92C249.142 196.573 248.529 198.867 248.529 201.8C248.529 204.733 249.142 207.08 250.369 208.84C251.595 210.573 253.235 211.44 255.289 211.44ZM280.09 215V188.84H285.33L289.97 201.64C290.263 202.467 290.543 203.32 290.81 204.2C291.103 205.053 291.383 205.907 291.65 206.76H291.81C292.103 205.907 292.383 205.053 292.65 204.2C292.916 203.32 293.183 202.467 293.45 201.64L297.97 188.84H303.25V215H298.97V203.04C298.97 202.213 298.996 201.32 299.05 200.36C299.13 199.373 299.21 198.387 299.29 197.4C299.396 196.413 299.49 195.52 299.57 194.72H299.41L297.29 200.8L293.01 212.56H290.25L285.93 200.8L283.85 194.72H283.69C283.77 195.52 283.85 196.413 283.93 197.4C284.036 198.387 284.116 199.373 284.17 200.36C284.25 201.32 284.29 202.213 284.29 203.04V215H280.09ZM309.894 215V188.84H314.534V198.96H317.854C319.801 198.96 321.521 199.227 323.014 199.76C324.508 200.267 325.681 201.093 326.534 202.24C327.388 203.36 327.814 204.84 327.814 206.68C327.814 208.653 327.388 210.253 326.534 211.48C325.681 212.707 324.494 213.6 322.974 214.16C321.481 214.72 319.761 215 317.814 215H309.894ZM314.534 211.28H317.454C319.321 211.28 320.748 210.933 321.734 210.24C322.748 209.52 323.254 208.36 323.254 206.76C323.254 204.04 321.294 202.68 317.374 202.68H314.534V211.28ZM331.654 215V188.84H336.294V215H331.654ZM347.789 215L355.549 201.2L353.069 195.56C352.509 194.36 351.989 193.6 351.509 193.28C351.029 192.933 350.482 192.76 349.869 192.76C349.762 192.76 349.616 192.773 349.429 192.8C349.242 192.8 349.042 192.84 348.829 192.92L348.069 188.68C348.309 188.547 348.589 188.467 348.909 188.44C349.256 188.387 349.576 188.36 349.869 188.36C351.202 188.36 352.376 188.693 353.389 189.36C354.429 190 355.389 191.267 356.269 193.16L359.229 199.48H362.149V188.84H366.589V199.48H369.509L372.429 193.16C373.336 191.267 374.296 190 375.309 189.36C376.349 188.693 377.536 188.36 378.869 188.36C379.162 188.36 379.469 188.387 379.789 188.44C380.136 188.467 380.429 188.547 380.669 188.68L379.869 192.92C379.682 192.84 379.496 192.8 379.309 192.8C379.122 192.773 378.962 192.76 378.829 192.76C378.242 192.76 377.696 192.933 377.189 193.28C376.709 193.6 376.202 194.36 375.669 195.56L373.149 201.2L380.949 215H375.909L369.789 203.24H366.589V215H362.149V203.24H358.949L352.829 215H347.789ZM391.649 202.52C390.929 206.36 389.995 209.213 388.849 211.08H399.489V192.76H393.329C393.115 194.013 392.915 195.147 392.729 196.16C392.569 197.147 392.409 198.133 392.249 199.12C392.089 200.107 391.889 201.24 391.649 202.52ZM387.129 215V222.52H383.009L382.569 213.96V211.08H383.769C384.169 210.947 384.569 210.587 384.969 210C385.369 209.387 385.782 208.427 386.209 207.12C386.635 205.813 387.062 204.067 387.489 201.88C387.809 200.253 388.075 198.787 388.289 197.48C388.502 196.173 388.715 194.853 388.929 193.52C389.169 192.16 389.435 190.6 389.729 188.84H404.129V211.08H407.209V213.96L406.769 222.52H402.649V215H387.129ZM411.066 215V188.84H426.826V192.76H415.706V199.44H425.106V203.36H415.706V211.08H427.226V215H411.066ZM432.59 215V188.84H437.83L442.47 201.64C442.763 202.467 443.043 203.32 443.31 204.2C443.603 205.053 443.883 205.907 444.15 206.76H444.31C444.603 205.907 444.883 205.053 445.15 204.2C445.416 203.32 445.683 202.467 445.95 201.64L450.47 188.84H455.75V215H451.47V203.04C451.47 202.213 451.496 201.32 451.55 200.36C451.63 199.373 451.71 198.387 451.79 197.4C451.896 196.413 451.99 195.52 452.07 194.72H451.91L449.79 200.8L445.51 212.56H442.75L438.43 200.8L436.35 194.72H436.19C436.27 195.52 436.35 196.413 436.43 197.4C436.536 198.387 436.616 199.373 436.67 200.36C436.75 201.32 436.79 202.213 436.79 203.04V215H432.59ZM470.402 215V188.84H478.762C480.575 188.84 482.175 189.04 483.562 189.44C484.975 189.84 486.082 190.52 486.882 191.48C487.709 192.413 488.122 193.68 488.122 195.28C488.122 196.507 487.802 197.667 487.162 198.76C486.522 199.827 485.629 200.56 484.482 200.96V201.12C485.922 201.44 487.109 202.12 488.042 203.16C489.002 204.173 489.482 205.56 489.482 207.32C489.482 209.053 489.042 210.493 488.162 211.64C487.309 212.787 486.122 213.64 484.602 214.2C483.082 214.733 481.362 215 479.442 215H470.402ZM475.042 199.64H478.362C480.175 199.64 481.495 199.307 482.322 198.64C483.149 197.973 483.562 197.08 483.562 195.96C483.562 194.68 483.135 193.773 482.282 193.24C481.429 192.707 480.149 192.44 478.442 192.44H475.042V199.64ZM475.042 211.4H478.962C480.882 211.4 482.362 211.053 483.402 210.36C484.442 209.64 484.962 208.547 484.962 207.08C484.962 205.693 484.455 204.693 483.442 204.08C482.429 203.44 480.935 203.12 478.962 203.12H475.042V211.4ZM499.629 201.08L498.709 204.28H505.389L504.469 201.08C504.043 199.693 503.629 198.267 503.229 196.8C502.856 195.333 502.483 193.88 502.109 192.44H501.949C501.603 193.907 501.229 195.373 500.829 196.84C500.456 198.28 500.056 199.693 499.629 201.08ZM490.869 215L499.389 188.84H504.829L513.349 215H508.469L506.429 207.92H497.629L495.589 215H490.869ZM526.623 215.48C524.437 215.48 522.45 214.96 520.663 213.92C518.877 212.88 517.45 211.36 516.383 209.36C515.343 207.333 514.823 204.88 514.823 202C514.823 199.147 515.357 196.707 516.423 194.68C517.517 192.627 518.97 191.067 520.783 190C522.597 188.907 524.597 188.36 526.783 188.36C528.437 188.36 529.903 188.693 531.183 189.36C532.463 190.027 533.517 190.8 534.343 191.68L531.863 194.68C531.197 193.987 530.45 193.44 529.623 193.04C528.823 192.613 527.917 192.4 526.903 192.4C525.49 192.4 524.223 192.787 523.103 193.56C522.01 194.307 521.143 195.387 520.503 196.8C519.89 198.213 519.583 199.907 519.583 201.88C519.583 204.867 520.237 207.213 521.543 208.92C522.85 210.6 524.597 211.44 526.783 211.44C527.957 211.44 528.997 211.2 529.903 210.72C530.81 210.213 531.637 209.56 532.383 208.76L534.863 211.68C533.797 212.907 532.57 213.853 531.183 214.52C529.823 215.16 528.303 215.48 526.623 215.48ZM547.238 215V188.84H555.598C557.411 188.84 559.011 189.04 560.398 189.44C561.811 189.84 562.918 190.52 563.718 191.48C564.545 192.413 564.958 193.68 564.958 195.28C564.958 196.507 564.638 197.667 563.998 198.76C563.358 199.827 562.465 200.56 561.318 200.96V201.12C562.758 201.44 563.945 202.12 564.878 203.16C565.838 204.173 566.318 205.56 566.318 207.32C566.318 209.053 565.878 210.493 564.998 211.64C564.145 212.787 562.958 213.64 561.438 214.2C559.918 214.733 558.198 215 556.278 215H547.238ZM551.878 199.64H555.198C557.011 199.64 558.331 199.307 559.158 198.64C559.985 197.973 560.398 197.08 560.398 195.96C560.398 194.68 559.971 193.773 559.118 193.24C558.265 192.707 556.985 192.44 555.278 192.44H551.878V199.64ZM551.878 211.4H555.798C557.718 211.4 559.198 211.053 560.238 210.36C561.278 209.64 561.798 208.547 561.798 207.08C561.798 205.693 561.291 204.693 560.278 204.08C559.265 203.44 557.771 203.12 555.798 203.12H551.878V211.4ZM579.113 215V188.84H596.153V192.76H583.753V199.44H588.033C589.9 199.44 591.566 199.68 593.033 200.16C594.526 200.64 595.7 201.427 596.553 202.52C597.433 203.587 597.873 205.04 597.873 206.88C597.873 208.773 597.46 210.32 596.633 211.52C595.806 212.72 594.66 213.6 593.193 214.16C591.753 214.72 590.086 215 588.193 215H579.113ZM583.753 211.4H587.633C591.42 211.4 593.313 209.92 593.313 206.96C593.313 205.493 592.82 204.453 591.833 203.84C590.873 203.227 589.446 202.92 587.553 202.92H583.753V211.4ZM605.267 215.48C604.6 215.48 604.027 215.44 603.547 215.36C603.093 215.28 602.68 215.16 602.307 215L603.187 210.96C603.4 211.04 603.64 211.107 603.907 211.16C604.173 211.213 604.533 211.24 604.987 211.24C606.4 211.24 607.387 210.693 607.947 209.6L608.427 208.52L599.507 188.84H604.427L608.387 198.44L610.467 204.16H610.627L612.587 198.44L616.187 188.84H620.867L612.547 209.64C611.827 211.453 610.893 212.88 609.747 213.92C608.6 214.96 607.107 215.48 605.267 215.48ZM628.25 202.52C627.53 206.36 626.597 209.213 625.45 211.08H636.09V192.76H629.93C629.717 194.013 629.517 195.147 629.33 196.16C629.17 197.147 629.01 198.133 628.85 199.12C628.69 200.107 628.49 201.24 628.25 202.52ZM623.73 215V222.52H619.61L619.17 213.96V211.08H620.37C620.77 210.947 621.17 210.587 621.57 210C621.97 209.387 622.383 208.427 622.81 207.12C623.237 205.813 623.663 204.067 624.09 201.88C624.41 200.253 624.677 198.787 624.89 197.48C625.103 196.173 625.317 194.853 625.53 193.52C625.77 192.16 626.037 190.6 626.33 188.84H640.73V211.08H643.81V213.96L643.37 222.52H639.25V215H623.73ZM650.462 215.48C649.795 215.48 649.222 215.44 648.742 215.36C648.289 215.28 647.875 215.16 647.502 215L648.382 210.96C648.595 211.04 648.835 211.107 649.102 211.16C649.369 211.213 649.729 211.24 650.182 211.24C651.595 211.24 652.582 210.693 653.142 209.6L653.622 208.52L644.702 188.84H649.622L653.582 198.44L655.662 204.16H655.822L657.782 198.44L661.382 188.84H666.062L657.742 209.64C657.022 211.453 656.089 212.88 654.942 213.92C653.795 214.96 652.302 215.48 650.462 215.48ZM669.308 215V188.84H673.868V211.08H681.508V188.84H685.988V211.08H693.628V188.84H698.188V211.08H701.228V213.96L700.788 222.52H696.708V215H669.308ZM705.09 215V188.84H720.85V192.76H709.73V199.44H719.13V203.36H709.73V211.08H721.25V215H705.09ZM726.613 215V188.84H731.853L736.493 201.64C736.786 202.467 737.066 203.32 737.333 204.2C737.626 205.053 737.906 205.907 738.173 206.76H738.333C738.626 205.907 738.906 205.053 739.173 204.2C739.44 203.32 739.706 202.467 739.973 201.64L744.493 188.84H749.773V215H745.493V203.04C745.493 202.213 745.52 201.32 745.573 200.36C745.653 199.373 745.733 198.387 745.813 197.4C745.92 196.413 746.013 195.52 746.093 194.72H745.933L743.813 200.8L739.533 212.56H736.773L732.453 200.8L730.373 194.72H730.213C730.293 195.52 730.373 196.413 730.453 197.4C730.56 198.387 730.64 199.373 730.693 200.36C730.773 201.32 730.813 202.213 730.813 203.04V215H726.613ZM757.858 206.4L757.218 192.76L757.098 188.2H761.738L761.578 192.76L760.938 206.4H757.858ZM759.418 215.48C758.591 215.48 757.884 215.187 757.298 214.6C756.711 214.013 756.418 213.267 756.418 212.36C756.418 211.453 756.711 210.707 757.298 210.12C757.884 209.533 758.591 209.24 759.418 209.24C760.271 209.24 760.978 209.533 761.538 210.12C762.098 210.707 762.378 211.453 762.378 212.36C762.378 213.267 762.098 214.013 761.538 214.6C760.978 215.187 760.271 215.48 759.418 215.48Z" fill="white"/>
</g>
<defs>
<clipPath id="clip0_1329_71808">
<rect width="1920" height="1181" fill="white"/>
</clipPath>
</defs>
</svg>
