<svg width="134" height="114" viewBox="0 0 134 114" fill="none" xmlns="http://www.w3.org/2000/svg">
<g clip-path="url(#clip0_827_13459)">
<g opacity="0.98">
<path d="M72.7013 32.5365C70.5559 28.7823 64.9394 19.4688 64.1681 16.3161C63.1316 12.2009 73.5449 8.25407 75.2564 7.26737C78.2695 5.55869 84.7297 11.2142 89.7194 19.902C94.7092 28.5897 96.2278 37.0128 93.2147 38.7215C92.0817 39.3712 83.9583 45.147 81.1621 45.0989C76.1965 44.9786 75.8108 37.9754 72.7013 32.5365Z" fill="white" stroke="#616161" stroke-width="2" stroke-linejoin="round"/>
<path d="M67.6875 32.3925C62.6736 23.7048 61.1791 15.2817 64.1923 13.573C67.2054 11.8643 73.6656 17.4958 78.6553 26.1835C83.645 34.8713 85.1637 43.2944 82.1505 45.003C79.1374 46.7117 72.629 41.0803 67.6875 32.3925Z" fill="white" stroke="#616161" stroke-width="2" stroke-linejoin="round"/>
<path d="M10.3172 55.5928L69.1095 102.69L75.2562 102.954L122.936 71.1152L58.6479 21.3711L8.17188 49.095L10.3172 55.5928Z" fill="white" stroke="#616161" stroke-width="2" stroke-linejoin="round"/>
<path d="M15.2584 23.0309C14.9932 23.9454 15.5476 32.9461 15.5476 32.9461L14.4629 34.6066L14.6798 37.4223L43.63 61.8973C43.63 61.8973 45.8718 62.8118 46.619 62.0657C47.3663 61.3197 93.7444 33.9809 93.7444 33.9809L84.1024 26.0873L83.5962 16.4609" fill="white"/>
<path d="M15.2584 23.0309C14.9932 23.9454 15.5476 32.9461 15.5476 32.9461L14.4629 34.6066L14.6798 37.4223L43.63 61.8973C43.63 61.8973 45.8718 62.8118 46.619 62.0657C47.3663 61.3197 93.7444 33.9809 93.7444 33.9809L84.1024 26.0873L83.5962 16.4609" stroke="#616161" stroke-width="2" stroke-linejoin="round"/>
<path d="M11.1849 64.7612C9.03954 61.0069 3.39895 51.6693 2.62759 48.5408C1.61518 44.4255 12.0527 40.4547 13.7159 39.492C16.7532 37.7833 23.1892 43.4388 28.1789 52.1025C33.1687 60.7662 34.6873 69.2134 31.6501 70.922C30.5412 71.5718 22.4178 77.3717 19.5975 77.2995C14.656 77.2032 14.2703 70.2001 11.1849 64.7612Z" fill="white" stroke="#616161" stroke-width="2" stroke-linejoin="round"/>
<path d="M6.14707 64.6169C1.20553 55.9291 -0.361295 47.5061 2.65184 45.7252C5.66497 43.9443 12.1251 49.672 17.1149 58.3598C22.1046 67.0476 23.6232 75.4706 20.6101 77.1793C17.597 78.888 11.0886 73.2806 6.14707 64.6169Z" fill="white" stroke="#616161" stroke-width="2" stroke-linejoin="round"/>
<path d="M59.3954 1.53998C59.3954 1.53998 15.7893 21.1537 15.5242 23.0308C15.259 24.9079 34.8082 38.9383 35.2421 40.1416C35.676 41.3449 36.0376 39.3234 36.7607 39.5159C37.4839 39.7084 38.5204 40.4063 38.665 40.9839C38.8096 41.5615 41.2201 40.0213 41.2201 40.0213C41.2201 40.0213 40.2318 36.5558 40.6175 36.1467C44.9532 33.5693 49.4185 31.2158 53.9958 29.0954C54.6226 29.0954 56.4063 31.6223 56.4063 31.6223C56.4063 31.6223 65.5663 26.8091 66.0484 26.4481C66.5305 26.0872 65.5904 23.0067 66.0484 22.742C66.5064 22.4773 78.4866 16.148 79.0651 15.9554C79.6436 15.7629 79.957 19.3247 80.4873 19.0359C81.6381 18.0213 82.7325 16.9448 83.7656 15.811L62.4808 1.13086L59.3954 1.53998Z" fill="white" stroke="#616161" stroke-width="2" stroke-linejoin="round"/>
<path d="M14.9922 35.7374L18.4633 38.7216V34.1009L28.1053 42.1389L28.4187 46.9521L35.6502 52.8482C35.8755 53.1618 36.1698 53.4198 36.5105 53.6022C36.8511 53.7846 37.2291 53.8867 37.6155 53.9007C38.0018 53.9146 38.3862 53.84 38.7391 53.6826C39.0921 53.5252 39.4043 53.2892 39.6517 52.9926C43.09 50.7596 46.7105 48.8195 50.4748 47.1927L49.9686 42.3796L72.772 29.9857L73.5675 34.0768L83.6193 28.4454L83.0649 17.5195" stroke="#616161" stroke-width="2" stroke-linejoin="round"/>
<path d="M35.3145 40.1406V50.8499C35.3145 50.8499 36.0858 53.064 37.966 52.3661C39.8462 51.6682 39.4846 51.0425 39.4846 51.0425L38.9784 41.0311" fill="white"/>
<path d="M35.3145 40.1406V50.8499C35.3145 50.8499 36.0858 53.064 37.966 52.3661C39.8462 51.6682 39.4846 51.0425 39.4846 51.0425L38.9784 41.0311" stroke="#616161" stroke-width="2" stroke-linejoin="round"/>
<path d="M38.2314 73.4961C35.5379 74.6013 32.9818 76.0146 30.6142 77.7076C28.2037 79.7051 28.7582 81.5341 28.7582 81.5341L30.3973 86.6361L32.2052 87.2858L55.9728 108.945C55.9728 108.945 56.937 113.205 58.3833 112.675C59.8296 112.146 64.0721 110.702 64.0721 110.702L64.7229 107.982C65.9214 107.493 67.0171 106.782 67.953 105.889C68.316 103.5 68.413 101.079 68.2422 98.669L39.9188 73.7367L38.2314 73.4961Z" fill="white" stroke="#616161" stroke-width="2" stroke-linejoin="round"/>
<path d="M29.5293 81.054L32.205 78.9121C34.142 81.4219 36.2695 83.7793 38.5687 85.9634C39.1975 86.2611 39.8934 86.3889 40.5871 86.334C41.2809 86.2791 41.948 86.0434 42.5219 85.6505C42.5219 85.6505 47.1019 84.2066 49.2472 86.7816C50.038 87.7272 50.5529 88.8717 50.7358 90.09C50.9186 91.3082 50.7622 92.5531 50.2838 93.6885C49.6811 95.1566 49.0785 96.2395 50.2838 97.0096C51.489 97.7797 59.058 103.122 59.058 103.122L57.0091 107.382L56.8403 110.703" stroke="#616161" stroke-width="2" stroke-linejoin="round"/>
<path d="M34.1103 81.6562C34.1103 81.6562 31.0972 84.0628 32.206 86.6379" stroke="#616161" stroke-width="2" stroke-linejoin="round"/>
<path d="M55.7322 90.7285C55.7322 90.7285 53.5145 92.2447 53.6591 92.6297C53.8038 93.0148 56.7205 96.2637 58.1668 96.2637C59.4305 96.1706 60.6776 95.9199 61.8789 95.5176L55.7322 90.7285Z" stroke="#616161" stroke-width="2" stroke-linejoin="round"/>
<path d="M40.9777 77.707C40.9777 77.707 38.7841 79.1991 38.9287 79.5842C39.0734 79.9692 41.966 83.2422 43.4364 83.2422C44.6985 83.1525 45.945 82.9101 47.1485 82.5202L40.9777 77.707Z" stroke="#616161" stroke-width="2" stroke-linejoin="round"/>
<path d="M76.5098 63.1732L91.8406 52.8008L106.304 62.5956L86.7786 77.4202L74.5332 70.4892L76.5098 63.1732Z" fill="white" stroke="#616161" stroke-width="2" stroke-linejoin="round"/>
<path d="M89.8402 85.5071C90.2919 84.8365 90.9053 84.2903 91.624 83.9187L109.462 73.426C109.462 73.426 110.788 73.3057 110.908 74.3646C110.496 76.9408 109.891 79.4828 109.1 81.9694C108.751 82.6593 108.195 83.2231 107.509 83.5818C106.666 83.8947 94.5166 90.8015 91.624 92.4621C91.3106 92.6546 89.2135 94.0986 88.7555 93.9542C88.2975 93.8098 88.5627 92.3899 88.5627 92.3899L89.0448 88.058C89.1393 87.1638 89.4096 86.2969 89.8402 85.5071Z" fill="white" stroke="#616161" stroke-width="2" stroke-linejoin="round"/>
<path d="M100.131 37.5195C100.131 37.5195 110.328 41.9236 110.593 43.6804C110.73 44.7635 110.51 45.8616 109.966 46.809C111.49 48.3882 113.308 49.6553 115.318 50.5392C117.247 50.7761 119.198 50.7761 121.127 50.5392C125.051 52.9411 128.826 55.5771 132.432 58.4328C133.252 59.6361 129.347 58.7216 128.865 59.4435C128.521 60.4167 128.357 61.4442 128.382 62.4758L124.429 65.1712L94.6836 40.3352L100.131 37.5195Z" fill="white" stroke="#616161" stroke-width="2" stroke-linejoin="round"/>
<path d="M111.221 44.4258L120.284 50.0572" stroke="#616161" stroke-width="2" stroke-linejoin="round"/>
<path d="M132.892 58.9375L132.579 64.2079C132.579 64.2079 127.758 68.9008 126.89 69.3821C126.033 69.7984 125.147 70.1523 124.238 70.441L123.949 65.4353L128.77 62.6436L128.939 59.3466H131.591L132.892 58.9375Z" fill="white" stroke="#616161" stroke-width="2" stroke-linejoin="round"/>
<path d="M115.465 54.0039C115.465 54.0039 117.08 51.2604 118.84 52.1749C120.467 53.2403 121.963 54.4922 123.299 55.9051L120.334 58.8412L115.465 54.0039Z" fill="white" stroke="#616161" stroke-width="2" stroke-linejoin="round"/>
<path d="M69.2794 51.766C69.2794 51.766 53.5388 60.6463 53.3219 61.633C53.1049 62.6198 52.43 63.1492 53.6834 64.4247C54.9369 65.7002 77.1377 92.293 77.1377 92.293C77.6536 92.8515 78.3662 93.1887 79.1259 93.2336C79.8856 93.2784 80.6331 93.0275 81.2114 92.5336C83.7424 90.8971 96.036 82.3778 96.036 82.3778C96.2115 81.7045 96.1813 80.9941 95.9493 80.338C95.7174 79.6819 95.2943 79.11 94.7343 78.6957C92.7336 77.0111 77.1377 58.0954 77.1377 58.0954C75.3618 55.8813 73.4024 53.8204 71.2801 51.9345C70.6611 51.6187 69.9427 51.5582 69.2794 51.766Z" fill="white" stroke="#616161" stroke-width="2" stroke-linejoin="round"/>
<path d="M96.6371 35.2308C96.6371 35.2308 81.1135 44.1833 80.8965 45.1459C80.6796 46.1086 80.0529 46.614 81.3304 47.8173C82.608 49.0206 105.435 74.049 105.435 74.049C105.976 74.5748 106.695 74.8789 107.449 74.9011C108.203 74.9234 108.938 74.6623 109.509 74.1694C111.92 72.5088 124.117 63.9895 124.117 63.9895C124.297 63.3569 124.28 62.6846 124.07 62.0615C123.859 61.4384 123.463 60.8939 122.936 60.5C120.887 58.8635 104.664 41.2473 104.664 41.2473C102.824 39.1539 100.808 37.2216 98.6378 35.4715C98.0278 35.134 97.31 35.0477 96.6371 35.2308Z" fill="white" stroke="#616161" stroke-width="2" stroke-linejoin="round"/>
<path d="M91.1649 87.0459C91.6232 86.3723 92.2452 85.8258 92.9727 85.4576L110.883 74.9648C110.883 74.9648 112.209 74.9648 112.329 75.9034C111.917 78.4797 111.312 81.0217 110.521 83.5082C110.181 84.2041 109.622 84.7702 108.93 85.1206C108.087 85.4335 95.9377 92.3404 93.045 94.0009C92.7317 94.1935 90.6345 95.6374 90.1765 95.493C89.7186 95.3486 89.9114 93.8565 89.9114 93.8565L90.3935 89.5006C90.5013 88.6429 90.7626 87.8114 91.1649 87.0459Z" fill="white" stroke="#616161" stroke-width="2" stroke-linejoin="round"/>
<path d="M78.7509 97.9958C79.1063 97.4027 79.6032 96.9066 80.1972 96.5518L94.4674 87.0458C94.4674 87.0458 95.5281 86.9255 95.6245 87.8881C95.287 90.2183 94.8039 92.5251 94.1782 94.795C94.1782 94.795 93.672 95.9502 92.9006 96.239C92.1292 96.5278 82.5113 102.809 80.1972 104.301C79.9321 104.445 78.2929 105.769 77.7867 105.625C77.2805 105.48 77.618 104.229 77.618 104.229L78.0037 100.306C78.1204 99.4994 78.373 98.7183 78.7509 97.9958Z" fill="white" stroke="#616161" stroke-width="2" stroke-linejoin="round"/>
<path d="M107.388 79.418C107.743 78.8249 108.24 78.3288 108.834 77.974L123.104 68.3477C123.104 68.3477 124.165 68.3477 124.261 69.214C123.921 71.5358 123.438 73.8345 122.815 76.0969C122.554 76.7084 122.107 77.2222 121.537 77.5649C120.862 77.8296 111.148 84.1108 108.834 85.6029C108.593 85.7713 106.954 87.095 106.544 86.9506C106.134 86.8062 106.375 85.5547 106.375 85.5547L106.785 81.8245C106.836 80.9922 107.04 80.1764 107.388 79.418Z" fill="white" stroke="#616161" stroke-width="2" stroke-linejoin="round"/>
<path d="M79.8349 99.3906C80.1827 98.7916 80.6813 98.2939 81.2812 97.9467L95.5514 88.3203C95.5514 88.3203 96.6121 88.3203 96.7085 89.1626C96.3724 91.5583 95.8813 93.9298 95.2381 96.262C95.2381 96.262 94.7319 97.4172 93.9846 97.706C93.2373 97.9948 83.5953 104.276 81.2812 105.768C81.0161 105.937 79.3769 107.236 78.9913 107.092C78.6056 106.947 78.8225 105.696 78.8225 105.696L79.2082 101.773C79.2789 100.949 79.4909 100.143 79.8349 99.3906Z" fill="white" stroke="#616161" stroke-width="2" stroke-linejoin="round"/>
<path d="M108.474 80.8607C108.826 80.2712 109.324 79.7822 109.92 79.4408L124.19 69.8145C124.19 69.8145 125.251 69.8145 125.347 70.6808C125.001 73.0034 124.51 75.3021 123.877 77.5637C123.62 78.17 123.182 78.6827 122.623 79.0317C121.948 79.2964 112.234 85.5776 109.92 87.0697C109.655 87.2381 108.016 88.5618 107.509 88.4174C107.003 88.273 107.341 87.0215 107.341 87.0215L107.726 83.0747C107.853 82.3011 108.106 81.5533 108.474 80.8607Z" fill="white" stroke="#616161" stroke-width="2" stroke-linejoin="round"/>
</g>
</g>
<defs>
<clipPath id="clip0_827_13459">
<rect width="134" height="114" fill="white"/>
</clipPath>
</defs>
</svg>
