<svg width="151" height="110" viewBox="0 0 151 110" fill="none" xmlns="http://www.w3.org/2000/svg">
<g clip-path="url(#clip0_827_13665)">
<path d="M6.56055 62.1507L6.95464 62.802C7.22808 63.0081 7.56326 63.1148 7.9051 63.1044C8.41428 63.0538 8.88591 62.813 9.22647 62.4299C9.71329 61.9646 24.1092 53.3117 24.1092 53.3117L24.5033 52.1719L8.27601 61.6855C7.88003 61.9395 7.42418 62.084 6.95464 62.1042" fill="white"/>
<path d="M6.56055 62.1507L6.95464 62.802C7.22808 63.0081 7.56326 63.1148 7.9051 63.1044C8.41428 63.0538 8.88591 62.813 9.22647 62.4299C9.71329 61.9646 24.1092 53.3117 24.1092 53.3117L24.5033 52.1719L8.27601 61.6855C7.88003 61.9395 7.42418 62.0839 6.95464 62.1042" stroke="#616161" stroke-width="2" stroke-linejoin="round"/>
<path d="M8.50822 60.6393C9.0887 60.4911 9.64358 60.2558 10.1541 59.9415C10.8032 59.4763 23.3678 51.9863 23.3678 51.9863L24.4806 52.4283L22.9274 53.6146L9.27323 61.9187C9.27323 61.9187 7.88231 62.9421 7.34913 62.7095C6.81594 62.4769 6.58412 62.1745 6.88549 61.8024C7.38668 61.3617 7.93026 60.9721 8.50822 60.6393Z" fill="white" stroke="#616161" stroke-width="2" stroke-linejoin="round"/>
<path d="M66.9265 29.8175C66.9265 29.8175 66.8105 29.2825 67.1583 29.0732C67.4394 28.8758 67.767 28.7556 68.1087 28.7243C68.5537 28.6517 69.0099 28.6999 69.4301 28.8638C70.056 29.0732 70.056 29.3756 70.1487 29.7012C70.2021 30.0012 70.2021 30.3084 70.1487 30.6084L68.3637 31.3992L66.8105 30.8643L66.9265 29.8175Z" fill="white" stroke="#616161" stroke-width="2" stroke-linejoin="round"/>
<path d="M34.7734 46.7985H60.4589C60.6715 46.7068 60.8598 46.5665 61.0088 46.3888C61.1577 46.2111 61.2631 46.0009 61.3167 45.775C61.4423 45.2423 61.3766 44.6822 61.1312 44.1933L64.3998 41.8672L67.7844 42.8441L69.7549 48.5895L65.1185 51.5204L61.9194 52.1019L30.6934 52.8695L34.7734 46.7985Z" fill="white" stroke="#616161" stroke-width="2" stroke-linejoin="round"/>
<path d="M79.6303 19.1186L71.6094 10.6517C72.4303 10.1931 73.2917 9.81151 74.1826 9.51192C76.3104 8.80355 78.5263 8.39644 80.7662 8.30236C83.4679 8.21719 86.1722 8.33382 88.8567 8.65127C89.3667 8.8141 91.0126 8.88388 92.6585 9.18627C94.0862 9.43777 95.4844 9.83527 96.8313 10.3726C97.3181 10.5819 98.7322 11.0471 99.729 11.5356C100.766 12.0795 101.765 12.6934 102.719 13.3732C103.604 13.8557 104.449 14.4079 105.246 15.0247C105.524 15.3736 91.0822 21.0027 86.469 22.7938C86.0517 22.9566 85.7735 22.6077 85.6344 22.1658C85.4953 21.7238 97.5963 17.3508 101.862 15.6993C102.163 15.6993 103.67 14.7223 102.789 14.2338C101.069 12.9698 99.2101 11.9084 97.2486 11.0704C95.0673 10.1926 92.7568 9.68175 90.4099 9.55844C89.8303 9.55844 89.5522 10.2795 89.3899 10.6284C88.8799 11.838 87.0717 15.3969 87.0717 15.8854C87.0717 16.3738 85.8894 16.4204 85.8894 16.4204L88.7872 10.0469C88.7872 10.0469 89.0653 9.18627 88.254 9.09323C87.4426 9.00018 81.508 8.8141 80.0476 8.90714C77.7287 9.11486 75.4625 9.72069 73.348 10.6982C72.6294 11.4658 73.858 12.0008 74.0667 12.4195C74.2753 12.8382 79.1899 17.5369 79.1899 17.5369C79.5677 17.3125 79.9847 17.1625 80.4185 17.0949C80.7662 17.0949 81.508 18.0021 81.508 18.0021L80.604 19.3745L79.6303 19.1186Z" fill="white" stroke="#616161" stroke-width="2" stroke-linejoin="round"/>
<path d="M77.9609 29.0034L81.1369 22.2578L86.9555 23.1417L82.69 33.3764L78.8187 32.353L77.9609 29.0034Z" fill="white" stroke="#616161" stroke-width="2" stroke-linejoin="round"/>
<path d="M79.167 23.8866C79.0511 22.2527 79.0511 20.6125 79.167 18.9786C79.7929 18.1877 81.6011 20.2347 83.2007 20.2347C84.0816 20.2347 85.9361 18.7925 86.5852 19.0949C87.2343 19.3973 87.0952 23.1422 87.0952 23.8866C87.0952 25.1892 85.3102 26.2127 83.1311 26.2127C80.952 26.2127 79.167 25.1892 79.167 23.8866Z" fill="white" stroke="#616161" stroke-width="2" stroke-linejoin="round"/>
<path d="M79.0977 19.1659C79.0977 17.8633 80.8595 16.8398 83.0618 16.8398C85.264 16.8398 87.0259 17.8633 87.0259 19.1659C87.0259 20.4685 85.2409 21.492 83.0618 21.492C80.8827 21.492 79.0977 20.4453 79.0977 19.1659Z" fill="white" stroke="#616161" stroke-width="2" stroke-linejoin="round"/>
<path d="M63.9355 45.869L64.121 47.6833L65.3496 49.0092L67.8765 47.6368L67.4824 46.0551L65.2801 45.5898L63.9355 45.869Z" fill="white" stroke="#616161" stroke-width="2" stroke-linejoin="round"/>
<path d="M56.6119 45.6836C57.2981 45.8545 57.972 46.0721 58.6287 46.3349C59.5178 46.984 60.3 47.7689 60.9469 48.661C61.6655 49.5216 61.6424 49.8705 62.4769 49.8938C63.3115 49.917 63.7056 49.8938 63.891 49.4053C64.0765 48.9168 64.0996 47.7305 64.5865 47.6142C64.8138 47.5519 65.0468 47.513 65.2819 47.4979L65.4442 48.1492L64.911 48.4749L64.7487 49.1727L63.9837 50.3357C63.4273 50.4706 62.8616 50.5639 62.2915 50.6149C62.0042 50.568 61.7314 50.4555 61.4943 50.2861C61.2571 50.1167 61.0619 49.895 60.9237 49.6379C60.4833 48.9634 59.7415 48.0097 59.7415 48.0097C59.257 47.5586 58.7199 47.1681 58.1419 46.8466L56.5192 46.521L55.7773 45.6836H56.6119Z" fill="white" stroke="#616161" stroke-width="2" stroke-linejoin="round"/>
<path d="M56.3334 48.2882C56.9018 48.3761 57.4804 48.3761 58.0488 48.2882C59.0297 47.9428 59.983 47.5229 60.9002 47.0321C62.3375 46.218 63.2184 45.1247 63.8211 45.0084C64.4239 44.8921 64.4007 45.6365 64.4007 45.6365C63.943 45.7399 63.5148 45.9467 63.1489 46.2412C62.5034 46.8193 61.7866 47.3118 61.0161 47.7067C60.1002 48.2039 59.1271 48.5867 58.1184 48.8464C57.4617 49.027 56.7745 49.0666 56.1016 48.9628" fill="white"/>
<path d="M56.3334 48.2882C56.9018 48.3761 57.4804 48.3761 58.0488 48.2882C59.0297 47.9428 59.983 47.5229 60.9002 47.0321C62.3375 46.218 63.2184 45.1247 63.8211 45.0084C64.4239 44.8921 64.4007 45.6365 64.4007 45.6365C63.943 45.7399 63.5148 45.9467 63.1489 46.2412C62.5034 46.8193 61.7866 47.3118 61.0161 47.7067C60.1002 48.2039 59.1271 48.5867 58.1184 48.8464C57.4617 49.027 56.7745 49.0666 56.1016 48.9628" stroke="#616161" stroke-width="2" stroke-linejoin="round"/>
<path d="M36.7202 47.6831C36.7202 47.6831 37.6707 47.5203 38.1111 47.3807C39.0925 46.9937 40.1098 46.7054 41.1479 46.5201C42.0128 46.4184 42.8718 46.2708 43.7211 46.0781L43.582 46.6829L40.7538 47.1481L38.7602 47.6831L37.2766 48.0088H36.6738L36.7202 47.6831Z" fill="white" stroke="#616161" stroke-width="2" stroke-linejoin="round"/>
<path d="M36.5586 48.2176C37.4652 48.2212 38.3711 48.1669 39.2709 48.0548C39.6881 47.892 42.3077 47.4035 42.3077 47.4035C42.7009 47.3655 43.0968 47.3655 43.49 47.4035C44.0231 47.4035 43.49 47.9385 43.49 47.9385L42.1918 48.0548C41.7513 48.0548 40.4068 48.3572 40.4068 48.3572L39.1318 48.5665L37.6481 48.7294H36.6513L36.0254 48.4968L36.5586 48.2176Z" fill="white" stroke="#616161" stroke-width="2" stroke-linejoin="round"/>
<path d="M36.6513 48.6824L39.4099 48.5195H41.4036L43.0263 48.7056L43.3509 49.2639L41.96 49.1476C41.4274 49.1106 40.893 49.1106 40.3604 49.1476C39.5886 49.0944 38.814 49.0944 38.0422 49.1476C37.5141 49.2679 36.9802 49.3611 36.4427 49.4267L36.0254 49.0313L36.6513 48.6824Z" fill="white" stroke="#616161" stroke-width="2" stroke-linejoin="round"/>
<path d="M35.5153 47.4741L36.6048 47.5904V48.7069H34.7734L35.0516 47.4043L35.5153 47.4741Z" fill="white" stroke="#616161" stroke-width="2" stroke-linejoin="round"/>
<path d="M34.6113 48.847L34.7504 49.8472L36.5586 49.6611V48.7539L34.6113 48.847Z" fill="white" stroke="#616161" stroke-width="2" stroke-linejoin="round"/>
<path d="M60.5742 35.7734L61.432 44.473C61.432 44.473 61.687 45.1475 62.1506 44.9847C62.4703 44.889 62.7806 44.7644 63.0779 44.6125C63.11 44.0858 63.11 43.5575 63.0779 43.0308C63.0779 42.4725 62.7765 42.3562 62.7765 42.3562V38.6112L61.7101 38.1228V37.0295L60.5742 35.7734Z" fill="white" stroke="#616161" stroke-width="2" stroke-linejoin="round"/>
<path d="M44.5105 48.2871L55.6378 48.8454L55.2901 50.241L44.6264 50.7062L44.0469 49.3571L44.5105 48.2871Z" fill="white" stroke="#616161" stroke-width="2" stroke-linejoin="round"/>
<path d="M43.4434 49.66C43.4434 49.66 43.4434 50.6369 43.8143 50.73C44.1852 50.823 56.2398 50.73 56.2398 50.73V49.7995H54.7561V50.1717H51.6729L51.5107 49.7763H47.9406V50.1019H45.0197L44.7647 49.6367L43.4434 49.66Z" fill="white" stroke="#616161" stroke-width="2" stroke-linejoin="round"/>
<path d="M43.2109 48.6369L43.35 49.6604H44.7178L44.9728 49.1021H47.7082L47.8937 49.6604H51.5101L51.7882 49.1952H54.6628V49.6604H55.9842L56.1001 48.4043L43.2109 48.6369Z" fill="white" stroke="#616161" stroke-width="2" stroke-linejoin="round"/>
<path d="M44.0473 44.1953H48.6837L48.846 44.6838H51.6046L51.8365 44.2186H56.6351L56.0092 48.8707H43.0273L44.0473 44.1953Z" fill="white" stroke="#616161" stroke-width="2" stroke-linejoin="round"/>
<path d="M47.1753 45.1017C47.2677 45.1337 47.345 45.199 47.3922 45.285C47.4393 45.371 47.4529 45.4715 47.4303 45.567L47.0362 47.2882C47.0279 47.3375 47.0098 47.3846 46.9829 47.4267C46.9561 47.4688 46.921 47.505 46.8799 47.5333C46.8388 47.5615 46.7925 47.5811 46.7437 47.591C46.6948 47.6008 46.6445 47.6007 46.5957 47.5906C46.5033 47.5587 46.426 47.4933 46.3789 47.4074C46.3317 47.3214 46.3181 47.2209 46.3407 47.1254L46.7348 45.4041C46.7571 45.3075 46.8147 45.2227 46.8963 45.1667C46.9779 45.1107 47.0775 45.0875 47.1753 45.1017Z" fill="white" stroke="#616161" stroke-width="2" stroke-linejoin="round"/>
<path d="M49.0772 45.1008C49.1252 45.1163 49.1696 45.1416 49.2076 45.175C49.2455 45.2083 49.2763 45.2491 49.298 45.2949C49.3197 45.3406 49.3319 45.3903 49.3338 45.4409C49.3357 45.4915 49.3272 45.542 49.309 45.5892L48.9149 47.2873C48.9095 47.3386 48.8934 47.3882 48.8678 47.433C48.8422 47.4778 48.8076 47.5167 48.7661 47.5474C48.7247 47.578 48.6774 47.5996 48.6272 47.6109C48.577 47.6222 48.525 47.6229 48.4745 47.6129C48.3769 47.5808 48.2957 47.5119 48.2481 47.4206C48.2005 47.3294 48.1902 47.2232 48.2195 47.1244L48.6367 45.4264C48.6422 45.3751 48.6583 45.3254 48.6839 45.2807C48.7095 45.2359 48.7441 45.1969 48.7855 45.1663C48.827 45.1357 48.8743 45.114 48.9245 45.1027C48.9747 45.0915 49.0267 45.0908 49.0772 45.1008Z" fill="white" stroke="#616161" stroke-width="2" stroke-linejoin="round"/>
<path d="M51.9741 45.1017C52.0215 45.1151 52.0658 45.1378 52.1044 45.1685C52.143 45.1993 52.1751 45.2374 52.1988 45.2807C52.2226 45.324 52.2375 45.3716 52.2427 45.4208C52.2479 45.4699 52.2433 45.5196 52.2291 45.567L51.835 47.2882C51.8267 47.3375 51.8086 47.3846 51.7817 47.4267C51.7549 47.4688 51.7199 47.505 51.6788 47.5333C51.6377 47.5615 51.5913 47.5811 51.5425 47.591C51.4937 47.6008 51.4434 47.6007 51.3946 47.5906C51.3021 47.5587 51.2248 47.4933 51.1777 47.4074C51.1306 47.3214 51.117 47.2209 51.1396 47.1254L51.5337 45.4041C51.5559 45.3075 51.6135 45.2227 51.6951 45.1667C51.7767 45.1107 51.8763 45.0875 51.9741 45.1017Z" fill="white" stroke="#616161" stroke-width="2" stroke-linejoin="round"/>
<path d="M53.8743 45.1011C53.9719 45.1332 54.0531 45.2022 54.1007 45.2934C54.1483 45.3846 54.1586 45.4909 54.1293 45.5896L53.7352 47.2876C53.7298 47.339 53.7137 47.3886 53.6881 47.4334C53.6625 47.4782 53.6279 47.5171 53.5865 47.5477C53.545 47.5784 53.4977 47.6 53.4475 47.6113C53.3973 47.6226 53.3453 47.6232 53.2948 47.6133C53.1973 47.5812 53.1161 47.5122 53.0684 47.421C53.0208 47.3298 53.0105 47.2235 53.0398 47.1248L53.4339 45.4268C53.451 45.3258 53.5065 45.2355 53.5886 45.1747C53.6708 45.114 53.7732 45.0876 53.8743 45.1011Z" fill="white" stroke="#616161" stroke-width="2" stroke-linejoin="round"/>
<path d="M25.1756 43.5437L16.2274 36.4492L14.6046 36.6353C14.6046 36.6353 10.9651 38.9614 10.2696 39.6825C7.9299 41.454 6.03307 43.7475 4.72914 46.3816C3.7544 48.3495 3.17916 50.4922 3.03686 52.6852C2.99877 55.0721 3.59916 57.4256 4.7755 59.5006C6.4446 62.3151 7.09369 62.1058 7.39506 62.4315C7.69642 62.7571 8.34552 61.408 8.34552 61.408L6.51415 59.5239L5.28551 57.7328C4.7743 56.8286 4.44359 55.8331 4.31187 54.8019C4.25551 53.2441 4.36431 51.6846 4.63641 50.1498C4.9146 49.6148 4.75232 49.4752 5.91142 49.4054C7.07051 49.3357 23.2051 49.5218 23.2051 49.5218L23.6224 48.1494H6.09687C6.09687 48.1494 5.23914 47.94 5.49414 47.2422C6.11443 45.9935 6.81926 44.7888 7.6037 43.6368C8.11645 43.0075 8.6743 42.4167 9.27279 41.869C9.85234 41.2875 10.5014 40.7757 11.1042 40.264C11.7069 39.7522 13.4224 38.6125 13.7701 38.1705C14.0495 37.9292 14.3882 37.7674 14.7511 37.7019C15.1139 37.6365 15.4876 37.6698 15.8333 37.7983C16.2481 38.0429 16.6299 38.34 16.9692 38.6822C17.5487 39.1475 24.851 45.6605 24.851 45.6605L25.1756 43.5437Z" fill="white" stroke="#616161" stroke-width="2" stroke-linejoin="round"/>
<path d="M6.81599 62.2908C6.81599 62.128 4.61371 54.6846 4.68325 54.545C4.7528 54.4054 5.21644 54.2426 5.54098 54.1728C5.86553 54.103 6.30599 53.8472 6.51462 53.9635C6.72326 54.0798 8.7169 61.6163 8.83281 61.8256C8.85307 62.0617 8.78279 62.2966 8.63632 62.4825C8.48986 62.6684 8.27824 62.7911 8.04463 62.8258C7.92925 62.8744 7.80526 62.8991 7.68012 62.8984C7.55499 62.8976 7.43129 62.8715 7.3165 62.8215C7.2017 62.7715 7.09818 62.6987 7.01216 62.6075C6.92615 62.5163 6.85941 62.4086 6.81599 62.2908Z" fill="white" stroke="#616161" stroke-width="2" stroke-linejoin="round"/>
<path d="M3.33943 49.1951C3.33943 49.0323 1.13715 41.5889 1.20669 41.4493C1.27624 41.3097 1.73988 41.1469 2.06442 41.0771C2.38897 41.0073 2.82942 40.7515 3.03806 40.8678C3.2467 40.9841 5.24034 48.5206 5.35625 48.7299C5.3765 48.966 5.30623 49.2009 5.15976 49.3868C5.0133 49.5727 4.80167 49.6954 4.56807 49.7301C4.45269 49.7787 4.32869 49.8034 4.20356 49.8027C4.07842 49.8019 3.95473 49.7758 3.83994 49.7258C3.72514 49.6758 3.62162 49.603 3.5356 49.5118C3.44958 49.4206 3.38285 49.3129 3.33943 49.1951Z" fill="white" stroke="#616161" stroke-width="2" stroke-linejoin="round"/>
<path d="M14.5819 36.751C14.5819 36.5882 12.8896 29.4704 12.9591 29.3309C13.0287 29.1913 13.4923 29.0983 13.7937 29.0285C14.095 28.9587 14.5123 28.7726 14.7209 28.8889C14.9296 29.0052 16.39 36.216 16.4364 36.4021C16.4828 36.5882 16.2278 37.2163 15.6482 37.2163C15.4447 37.2873 15.2221 37.2788 15.0245 37.1926C14.8269 37.1064 14.6689 36.9488 14.5819 36.751Z" fill="white" stroke="#616161" stroke-width="2" stroke-linejoin="round"/>
<path d="M14.7672 29.2366C14.7672 29.2366 14.7672 29.7949 14.7672 30.0507C14.2543 30.2829 13.7054 30.4245 13.1445 30.4694C12.1877 30.9981 11.2662 31.5886 10.3858 32.2372C9.55128 33.0281 8.41536 33.9585 7.41854 34.8657C6.01274 36.2143 4.83792 37.7861 3.94126 39.5178C3.36171 41.1461 3.45444 40.7507 3.45444 40.7507C3.53172 40.8208 3.59391 40.9061 3.63717 41.0012C3.68044 41.0963 3.70388 41.1994 3.70605 41.3039C3.70822 41.4085 3.68908 41.5123 3.6498 41.6092C3.61052 41.7061 3.55193 41.7939 3.47762 41.8672C3.06035 42.4254 2.87489 42.3091 2.87489 42.3091C2.75239 42.5204 2.65882 42.7473 2.59671 42.9837C2.33872 44.1432 2.24506 45.3335 2.31852 46.5193C2.45811 47.9566 2.90909 49.3459 3.63989 50.59C3.85657 50.8895 4.05775 51.2001 4.24262 51.5204C4.60743 52.2148 5.09436 52.8374 5.6799 53.358C6.25945 53.7302 7.07081 53.5673 7.16354 54.1488C7.25627 54.7304 7.16354 55.1491 6.67672 55.4049C6.1899 55.6608 4.93808 55.8004 4.9149 55.2886C4.84877 54.9862 4.75566 54.6904 4.63671 54.4047C3.93261 53.6069 3.29673 52.751 2.7358 51.846C2.15003 50.6549 1.68409 49.4082 1.34488 48.1243C1.08686 46.8779 1.02429 45.5986 1.15943 44.3328C1.2221 43.7342 1.33848 43.1426 1.50716 42.565C1.50716 42.3789 0.742155 42.0765 1.13625 41.588C1.36422 41.3009 1.6482 41.0634 1.9708 40.8902L2.38807 39.9598C3.09422 38.7386 3.86817 37.5582 4.70626 36.4242C5.40456 35.463 6.17986 34.5606 7.02445 33.7259C8.13718 32.6792 9.34264 31.8883 9.82946 31.3998C10.5602 30.8132 11.3353 30.2844 12.1476 29.8181C12.1445 29.5788 12.2269 29.3462 12.3801 29.1627C12.5332 28.9792 12.7468 28.8569 12.9822 28.8179C13.4674 28.7552 13.9604 28.8111 14.4195 28.9807L14.7672 29.2366Z" fill="white" stroke="#616161" stroke-width="2" stroke-linejoin="round"/>
<path d="M4.63672 54.7317C4.63672 54.313 4.89172 53.871 5.44809 53.7314C5.67253 53.6487 5.9205 53.6585 6.13773 53.7588C6.35496 53.8591 6.52375 54.0416 6.60718 54.2664C6.60718 54.6851 6.35218 55.1271 5.79581 55.2667C5.57089 55.3376 5.32771 55.3222 5.11351 55.2233C4.89931 55.1244 4.72937 54.9492 4.63672 54.7317Z" fill="white" stroke="#616161" stroke-width="2" stroke-linejoin="round"/>
<path d="M1.20703 41.6356C1.20703 41.2169 1.46203 40.775 2.0184 40.6354C2.24313 40.5588 2.48859 40.5716 2.70422 40.6711C2.91985 40.7706 3.08924 40.9493 3.17749 41.1704C3.19775 41.4065 3.12747 41.6414 2.981 41.8273C2.83454 42.0131 2.62291 42.1359 2.38931 42.1706C2.16165 42.2542 1.91043 42.245 1.68945 42.145C1.46846 42.045 1.2953 41.8622 1.20703 41.6356Z" fill="white" stroke="#616161" stroke-width="2" stroke-linejoin="round"/>
<path d="M12.959 29.5157C12.959 29.1203 13.2372 28.7248 13.7704 28.6085C13.8767 28.5606 13.9925 28.5376 14.109 28.5414C14.2255 28.5452 14.3396 28.5757 14.4425 28.6305C14.5455 28.6853 14.6346 28.763 14.7031 28.8576C14.7716 28.9523 14.8176 29.0614 14.8377 29.1766C14.8577 29.2918 14.8513 29.4101 14.8188 29.5224C14.7863 29.6348 14.7287 29.7381 14.6504 29.8247C14.572 29.9113 14.4749 29.9788 14.3666 30.022C14.2583 30.0651 14.1416 30.0829 14.0254 30.074C13.8102 30.1398 13.5778 30.1182 13.3783 30.0138C13.1788 29.9094 13.0282 29.7305 12.959 29.5157Z" fill="white" stroke="#616161" stroke-width="2" stroke-linejoin="round"/>
<path d="M69.847 11.8848C71.6122 12.2439 73.354 12.71 75.063 13.2804C76.3969 13.9321 77.7669 14.5068 79.1662 15.0017C79.9185 15.2546 80.6957 15.4261 81.4844 15.5134L81.948 17.5604L80.5339 17.3976L75.6425 15.5134L69.9861 14.1178L69.082 12.3965L69.847 11.8848Z" fill="white" stroke="#616161" stroke-width="2" stroke-linejoin="round"/>
<path d="M80.7206 17.2119C80.6504 16.5391 80.6504 15.8609 80.7206 15.1882C81.1147 14.6299 82.1115 15.5836 83.0388 15.5836C83.966 15.5836 84.8933 14.6764 85.357 15.0486C85.8206 15.4208 85.5192 16.8164 85.5192 17.2119C85.5192 18.0958 84.4065 18.8401 83.062 18.8401C81.7174 18.8401 80.7206 18.0958 80.7206 17.2119Z" fill="white" stroke="#616161" stroke-width="2" stroke-linejoin="round"/>
<path d="M80.7656 15.3978C80.7656 14.4906 81.8552 13.7695 83.2229 13.7695C84.5906 13.7695 85.6802 14.4906 85.6802 15.3978C85.6802 16.305 84.5906 17.026 83.2229 17.026C81.8552 17.026 80.7656 16.2817 80.7656 15.3978Z" fill="white" stroke="#616161" stroke-width="2" stroke-linejoin="round"/>
<path d="M81.1367 15.2338C81.1788 14.971 81.2773 14.7204 81.4254 14.4995C81.5735 14.2786 81.7677 14.0926 81.9944 13.9545C82.3039 13.7298 82.6791 13.6152 83.0608 13.6288C83.6636 13.6288 83.6867 13.466 84.3358 13.8847C84.5523 14.0359 84.7287 14.2378 84.8499 14.4729C84.9711 14.708 85.0334 14.9692 85.0313 15.2338C85.0313 15.9316 84.1735 16.5132 83.1304 16.5132C82.0872 16.5132 81.1367 15.9316 81.1367 15.2338Z" fill="white" stroke="#616161" stroke-width="2" stroke-linejoin="round"/>
<path d="M82.041 13.7461C82.041 13.3274 82.5278 12.9785 83.1306 12.9785C83.7333 12.9785 84.2433 13.3274 84.2433 13.7461C84.2433 14.1648 83.7565 14.4905 83.1306 14.4905C82.5047 14.4905 82.041 14.1416 82.041 13.7461Z" fill="white" stroke="#616161" stroke-width="2" stroke-linejoin="round"/>
<path d="M82.5508 13.63C82.5508 13.4206 82.8058 13.2578 83.1303 13.2578C83.4549 13.2578 83.6867 13.4206 83.6867 13.63C83.6867 13.8393 83.4549 13.9556 83.1303 13.9556C82.8058 13.9556 82.5508 13.9556 82.5508 13.63Z" fill="white" stroke="#616161" stroke-width="2" stroke-linejoin="round"/>
<path d="M86.0298 15.3739C86.075 15.6718 86.0548 15.976 85.9707 16.2652C85.8867 16.5545 85.7407 16.8219 85.5429 17.0486C85.1405 17.3988 84.7823 17.7972 84.4766 18.2349C87.2317 19.4445 90.0573 20.4854 92.938 21.3519C96.3895 21.5395 99.8487 21.5395 103.3 21.3519C104.297 21.0728 105.016 19.7004 104.112 19.1886C103.208 18.6769 97.1571 16.723 97.1571 16.723C97.1571 16.723 92.2889 15.6995 89.8084 15.4204C88.5615 15.1813 87.2822 15.1655 86.0298 15.3739Z" fill="white" stroke="#616161" stroke-width="2" stroke-linejoin="round"/>
<path d="M125.182 50.5664C125.705 50.7967 126.209 51.0689 126.689 51.3805C126.967 51.5666 127.593 51.3805 127.802 51.8457C128.01 52.311 127.802 52.8692 127.802 53.0786C127.802 53.2879 127.408 53.7997 126.921 54.1718C126.301 54.5424 125.639 54.8391 124.95 55.0557L124.348 54.0788V51.7527L125.182 50.5664Z" fill="white" stroke="#616161" stroke-width="2" stroke-linejoin="round"/>
<path d="M125.181 49.8008C125.712 50.0228 126.223 50.2873 126.711 50.5916C127.232 51.0227 127.585 51.6238 127.708 52.2897C127.708 52.7549 127.314 53.0108 126.827 53.4062C126.212 53.7651 125.559 54.0538 124.88 54.2668L124.254 53.2899V51.1732L125.181 49.8008Z" fill="white" stroke="#616161" stroke-width="2" stroke-linejoin="round"/>
<path d="M88.0918 55.2191L114.936 55.3354C115.517 55.6956 116.13 55.9993 116.768 56.2426C119.153 56.3176 121.54 56.1304 123.885 55.6844C124.14 55.5681 125.09 55.2191 124.997 55.1261C124.39 55.0363 123.773 55.0363 123.166 55.1261C121.326 55.3199 119.476 55.4131 117.626 55.4052C116.66 55.0766 115.715 54.6882 114.797 54.2422H88.2773L88.0918 55.2191Z" fill="white" stroke="#616161" stroke-width="2" stroke-linejoin="round"/>
<path d="M136.311 38.0311C135.987 38.0311 135.917 38.5893 135.917 38.5893L122.24 48.7078L114.914 49.4986L85.7746 49.3823L85.1719 50.0104L86.8178 55.4068L113.129 54.5927L117.001 55.7092L123.955 55.0812C123.955 55.0812 139.951 65.1066 140.043 65.3159C140.207 65.6595 140.464 65.9498 140.785 66.1533C140.995 66.2673 141.23 66.327 141.469 66.327C141.708 66.327 141.943 66.2673 142.153 66.1533C142.57 65.8509 142.501 65.6648 142.501 65.502C142.501 65.3392 142.501 65.0368 142.501 65.0368C145.306 62.5711 144.819 62.4548 146.766 58.8029C148.713 55.151 147.369 50.778 146.766 48.7078C146.163 46.6375 142.918 43.288 142.13 42.3111C140.531 40.6646 138.732 39.2267 136.775 38.0311C136.704 37.9902 136.624 37.9687 136.543 37.9688C136.462 37.9687 136.382 37.9902 136.311 38.0311ZM137.076 39.8222C137.291 39.7818 137.511 39.7818 137.725 39.8222C138.653 40.2853 139.525 40.8551 140.322 41.5202C140.716 41.9854 141.689 42.7297 142.64 43.8463C143.231 44.5502 143.78 45.2881 144.286 46.056C145.154 47.1138 145.708 48.3955 145.885 49.7545C145.885 50.3593 145.468 50.429 145.028 50.5686C144.587 50.7082 127.363 50.8943 127.363 50.8943C126.762 50.9406 126.157 50.8776 125.578 50.7082C125.323 50.5686 125.346 50.3593 125.3 49.8708C125.263 49.3287 125.263 48.7847 125.3 48.2425L136.056 39.9617C136.386 39.8602 136.731 39.8131 137.076 39.8222ZM145.769 51.8247C145.908 51.8247 146.094 51.9643 146.256 52.3132C146.703 54.2686 146.508 56.3165 145.7 58.1516C145.359 59.7675 144.553 61.2475 143.382 62.4083C143.015 62.8233 142.56 63.1498 142.05 63.3632C141.541 63.5767 140.989 63.6717 140.438 63.6411C140.067 63.6411 126.111 54.5927 125.207 53.9879C125.083 53.8275 125.01 53.6327 124.998 53.4297C124.999 53.1977 125.046 52.9683 125.137 52.7551C125.233 52.5645 125.379 52.4034 125.558 52.2887C125.738 52.1741 125.945 52.1102 126.157 52.1038L145.63 51.9875C145.662 51.922 145.71 51.8659 145.769 51.8247Z" fill="white" stroke="#616161" stroke-width="2" stroke-linejoin="round"/>
<path d="M91.8235 48.0561C91.0114 48.583 90.2368 49.1659 89.5053 49.8007C88.6229 50.4033 87.6534 50.8662 86.6308 51.1731L86.4453 51.7081L87.6971 51.4057L90.2008 49.9635L91.6612 48.8237L92.4494 48.3585V47.7305L91.8235 48.0561Z" fill="white" stroke="#616161" stroke-width="2" stroke-linejoin="round"/>
<path d="M92.334 50.6834C92.0084 50.7059 91.6954 50.8186 91.4299 51.0091C90.8985 51.2437 90.3144 51.332 89.7376 51.2649L87.9294 50.6136L86.5849 50.4043L85.959 50.9626L88.1381 51.4045L90.1085 51.8697L91.4067 51.6371L92.4731 51.0556L92.334 50.6834Z" fill="white" stroke="#616161" stroke-width="2" stroke-linejoin="round"/>
<path d="M105.57 48.9844C105.99 49.0101 106.403 49.0962 106.799 49.2402C107.614 49.6003 108.46 49.8883 109.325 50.1009C110.044 50.2405 112.803 50.5196 112.803 50.5196V51.0313C111.918 51.0009 111.036 50.9233 110.16 50.7987L108.12 50.2637L105.802 49.6124H105.176L105.57 48.9844Z" fill="white" stroke="#616161" stroke-width="2" stroke-linejoin="round"/>
<path d="M112.687 51.1726H110.369C109.793 51.1461 109.227 51.012 108.7 50.7772C107.976 50.4282 107.184 50.2455 106.382 50.2422L105.037 50.4283L105.269 50.9633C105.65 50.8208 106.047 50.7271 106.451 50.6841C106.993 50.7768 107.528 50.9089 108.051 51.0796L109.442 51.6611L110.879 51.7774L112.293 51.5215L112.873 51.2657" fill="white"/>
<path d="M112.687 51.1726H110.369C109.793 51.1461 109.227 51.012 108.7 50.7772C107.976 50.4282 107.184 50.2455 106.382 50.2422L105.037 50.4283L105.269 50.9633C105.65 50.8208 106.047 50.7271 106.451 50.6841C106.993 50.7768 107.528 50.9089 108.051 51.0796L109.442 51.6611L110.879 51.7774L112.293 51.5215L112.873 51.2657" stroke="#616161" stroke-width="2" stroke-linejoin="round"/>
<path d="M113.104 51.1719V52.0093C112.598 52.289 112.05 52.4853 111.482 52.5908C110.818 52.6261 110.152 52.6261 109.488 52.5908C108.862 52.5908 106.683 52.1721 106.289 52.1256C105.81 52.1012 105.33 52.1012 104.852 52.1256V51.5208C105.298 51.4671 105.75 51.4671 106.196 51.5208C106.776 51.6371 107.471 51.6604 107.981 51.7767C108.567 51.908 109.167 51.9627 109.766 51.9395C110.418 51.9377 111.068 51.891 111.713 51.7999C112.19 51.6214 112.655 51.4116 113.104 51.1719Z" fill="white" stroke="#616161" stroke-width="2" stroke-linejoin="round"/>
<path d="M112.965 51.5202L113.289 52.6135L115.26 52.4274V51.3574L112.965 51.5202Z" fill="white" stroke="#616161" stroke-width="2" stroke-linejoin="round"/>
<path d="M114.751 50.1484L112.873 50.4741V51.4976L114.89 51.3347L114.751 50.1484Z" fill="white" stroke="#616161" stroke-width="2" stroke-linejoin="round"/>
<path d="M145.884 51.1725C145.884 51.0329 146.603 46.9157 147.043 44.6129C147.097 44.1063 147.206 43.6071 147.368 43.1242C147.723 43.0888 148.08 43.0888 148.434 43.1242C148.708 43.1928 148.973 43.2943 149.223 43.4266C149.173 44.667 148.994 45.8987 148.689 47.1018C148.295 49.1022 147.832 51.0794 147.832 51.1725C147.763 51.3891 147.621 51.575 147.431 51.6981C147.241 51.8212 147.013 51.8739 146.788 51.847C146.255 51.7307 145.838 51.4283 145.884 51.1725Z" fill="white" stroke="#616161" stroke-width="2" stroke-linejoin="round"/>
<path d="M147.368 43.2169C147.368 42.8912 147.855 42.6586 148.365 42.7051C148.875 42.7517 149.315 43.0541 149.292 43.3564C149.269 43.6588 148.805 43.8914 148.272 43.8682C147.739 43.8449 147.345 43.5193 147.368 43.2169Z" fill="white" stroke="#616161" stroke-width="2" stroke-linejoin="round"/>
<path d="M142.593 56.6619C143.503 55.9202 144.334 55.0862 145.073 54.173C146.334 52.8875 147.217 51.2776 147.623 49.5209C147.879 47.3402 147.777 45.1323 147.322 42.9846C146.227 39.9029 144.415 37.1278 142.037 34.8899C140.711 33.8939 139.334 32.9699 137.91 32.1218L138.235 30.9355L139.463 31.8892C139.463 31.8892 141.782 33.6338 142.825 34.3781C144.351 35.7539 145.698 37.3169 146.835 39.0303C147.543 40.3476 148.17 41.707 148.713 43.1009C149.04 45.0605 149.11 47.0546 148.922 49.0324C148.756 50.6517 148.155 52.1954 147.183 53.4985C146.603 54.3358 143.497 57.8482 143.497 57.8482L142.593 56.6619Z" fill="white" stroke="#616161" stroke-width="2" stroke-linejoin="round"/>
<path d="M147.137 43.3093C147.137 42.9372 147.624 42.6348 148.249 42.6348C148.875 42.6348 149.362 42.9372 149.362 43.3093C149.362 43.6815 148.852 43.9839 148.249 43.9839C147.647 43.9839 147.137 43.6815 147.137 43.3093Z" fill="white" stroke="#616161" stroke-width="2" stroke-linejoin="round"/>
<path d="M62.36 53.4972C62.3034 53.0656 62.3794 52.6268 62.5778 52.2396C62.7762 51.8524 63.0876 51.5351 63.4704 51.3302C63.8532 51.1252 64.2892 51.0422 64.7203 51.0924C65.1513 51.1425 65.5568 51.3234 65.8827 51.6109C66.2086 51.8984 66.4393 52.2787 66.5441 52.7012C66.6489 53.1237 66.6228 53.5683 66.4692 53.9755C66.3157 54.3827 66.042 54.7332 65.6847 54.9802C65.3274 55.2273 64.9035 55.3591 64.4696 55.3581C63.9444 55.39 63.4279 55.2123 63.0327 54.8637C62.6376 54.5151 62.3958 54.024 62.36 53.4972Z" fill="white" stroke="#616161" stroke-width="2" stroke-linejoin="round"/>
<path d="M62.0596 52.0098L61.0859 57.0341L63.5432 59.523L64.6791 54.6382L62.0596 52.0098Z" fill="white" stroke="#616161" stroke-width="2" stroke-linejoin="round"/>
<path d="M63.5879 59.568L64.8861 59.9634L66.022 55.0554L64.7238 54.6367L63.5879 59.568Z" fill="white" stroke="#616161" stroke-width="2" stroke-linejoin="round"/>
<path d="M64.9102 59.9874L65.8374 59.685L66.927 54.7305L65.9765 55.0561L64.9102 59.9874Z" fill="white" stroke="#616161" stroke-width="2" stroke-linejoin="round"/>
<path d="M62.1055 51.8921L63.4268 51.5664V51.8921C63.4268 51.8921 62.8241 52.0084 63.0327 52.3805C63.1806 52.6283 63.3981 52.8267 63.6579 52.9509C63.9177 53.075 64.2083 53.1194 64.4932 53.0784C65.0032 52.9155 64.8177 53.0784 64.8177 53.0784L64.9105 53.497C64.9105 53.497 64.1455 53.497 64.7018 53.9157C65.2582 54.3344 65.5132 54.6136 65.9768 54.5205C66.2082 54.5003 66.4409 54.5003 66.6723 54.5205L66.9968 54.7299L66.1159 55.0788L64.8177 54.6136L62.1055 51.8921Z" fill="white" stroke="#616161" stroke-width="2" stroke-linejoin="round"/>
<path d="M66.8344 55.8237C66.8344 55.8237 67.9008 56.7774 68.2717 57.1728C68.5687 57.5142 68.8254 57.8889 69.0367 58.2894V59.0337L69.5931 57.0333L67.9008 55.2655L67.2285 54.7305L66.6953 55.312L66.8344 55.8237Z" fill="white" stroke="#616161" stroke-width="2" stroke-linejoin="round"/>
<path d="M70.4962 74.7121L75.3644 63.0817C75.448 62.9436 75.5631 62.8274 75.7001 62.7425C75.8371 62.6576 75.9921 62.6064 76.1526 62.5932C76.7785 62.4769 78.0303 63.9889 78.1694 64.0819C78.4585 64.3232 78.8147 64.4694 79.1894 64.5006C79.5864 64.5549 79.9896 64.464 80.3254 64.2447C80.534 64.1284 81.6699 64.2447 82.3654 64.2447C83.8156 63.8467 85.2215 63.3011 86.5613 62.6165C87.5007 61.9017 88.3913 61.1246 89.2272 60.2904C89.3801 59.9687 89.5042 59.6339 89.5981 59.2902C89.6387 59.168 89.6931 59.0509 89.7604 58.9413C89.7604 58.9413 90.1545 58.6622 90.1545 58.4528C90.1545 58.2435 90.1545 57.3828 90.1545 57.3828L83.9881 61.6395L75.5035 60.6393L71.7017 66.7104L69.2676 74.8749L70.4962 74.7121Z" fill="white" stroke="#616161" stroke-width="2" stroke-linejoin="round"/>
<path d="M82.3901 50.1503L73.6738 48.8477L71.0078 53.965L69.5474 55.8259C68.7205 55.2079 67.9452 54.5233 67.2292 53.7789L66.2092 54.2674L68.9215 56.8493C69.1819 57.1637 69.329 57.5571 69.3387 57.9659L62.5001 73.7832L62.1523 74.8764L64.2155 77.5281L69.8719 75.3882C69.8719 75.3882 74.8097 63.246 74.9488 62.8506C75.0396 62.3491 75.2921 61.8915 75.6674 61.548C75.8436 61.4228 76.0542 61.3556 76.2701 61.3556C76.486 61.3556 76.6966 61.4228 76.8729 61.548C77.3466 61.9468 77.7885 62.3823 78.1942 62.8506C78.5294 63.1516 78.9369 63.36 79.3765 63.4554C80.072 63.4554 80.1415 63.246 80.5124 63.1995C80.8833 63.153 80.8601 63.1995 81.2774 63.1995C82.5418 63.2656 83.8003 62.9842 84.917 62.3854C86.1625 61.8774 87.3264 61.1877 88.3711 60.3385C88.817 59.9403 89.2281 59.5045 89.5997 59.0359C89.9243 58.5474 89.5997 58.1519 89.7852 57.9193C89.9706 57.6867 90.2024 57.617 90.2256 57.1285C90.2488 56.64 88.2784 54.8024 88.2784 54.8024L82.3901 50.1503ZM84.7083 57.7565L86.5165 59.3615C86.5165 59.3615 86.5165 59.6406 85.8674 60.0826C85.2183 60.5245 83.3174 61.455 82.622 61.1991C81.9549 60.8138 81.3395 60.3448 80.7906 59.8035L84.7083 57.7565Z" fill="white" stroke="#616161" stroke-width="2" stroke-linejoin="round"/>
<path d="M67.8548 47.8008L62.9635 50.4292C62.8797 50.562 62.8318 50.7143 62.8244 50.8712C62.8225 50.9504 62.8381 51.0291 62.8702 51.1015C62.9022 51.1739 62.9499 51.2382 63.0098 51.2899L66.1626 54.244C66.3303 54.2836 66.5049 54.2836 66.6726 54.244C66.9276 54.1277 71.309 50.8247 71.309 50.8247L67.8548 47.8008Z" fill="white" stroke="#616161" stroke-width="2" stroke-linejoin="round"/>
<path d="M68.0156 47.4043L62.9851 50.3351C62.9683 50.4363 62.9764 50.5401 63.0087 50.6374C63.041 50.7347 63.0966 50.8226 63.1706 50.8934L66.3465 53.8475C66.5142 53.8871 66.6888 53.8871 66.8565 53.8475C67.1115 53.7312 71.4929 50.4282 71.4929 50.4282L68.0156 47.4043Z" fill="white" stroke="#616161" stroke-width="2" stroke-linejoin="round"/>
<path d="M70.4506 52.0781C70.2499 52.1279 70.0749 52.2506 69.9592 52.4225C69.8436 52.5944 69.7957 52.8032 69.8247 53.0086C69.8247 53.7994 70.0101 54.7298 70.6129 55.009C71.1701 55.3 71.7745 55.4891 72.3979 55.5672C72.6246 55.5673 72.8477 55.6249 73.0463 55.7347C73.2449 55.8446 73.4126 56.003 73.5338 56.1953C73.6522 56.3527 73.7163 56.5446 73.7163 56.7419C73.7163 56.9392 73.6522 57.1311 73.5338 57.2885C73.2906 57.6506 73.0193 57.9928 72.7224 58.312C72.537 58.5213 72.0733 58.9168 71.8415 59.1261C71.6097 59.3387 71.407 59.5811 71.2388 59.8472C71.1092 60.0365 71.0004 60.2393 70.9142 60.452" stroke="#616161" stroke-width="2" stroke-linejoin="round"/>
<path d="M71.0992 54.7773C70.8799 53.7829 70.748 52.771 70.7051 51.7534C71.0901 51.7078 71.4791 51.7078 71.8642 51.7534C72.1424 51.7534 72.6987 51.6139 72.861 51.7534C72.9189 52.7606 72.9189 53.7702 72.861 54.7773C72.861 55.103 72.4669 55.3588 72.0033 55.3588C71.5396 55.3588 71.0992 55.103 71.0992 54.7773Z" fill="white" stroke="#616161" stroke-width="2" stroke-linejoin="round"/>
<path d="M70.5195 51.9167C70.5195 51.5446 71.0759 51.2422 71.7714 51.2422C72.4668 51.2422 73 51.5446 73 51.9167C73 52.2889 72.4436 52.5913 71.7714 52.5913C71.0991 52.5913 70.5195 52.2889 70.5195 51.9167Z" fill="white" stroke="#616161" stroke-width="2" stroke-linejoin="round"/>
<path d="M64.5379 44.1948C64.5379 44.1948 64.1206 44.4274 64.051 44.6135C63.9815 44.7996 63.6569 45.0787 64.051 45.3113C64.3711 45.5132 64.7134 45.6771 65.071 45.7998H66.7633L70.8201 49.4518C70.8201 49.4518 70.3333 50.8707 70.4956 51.1963C70.7609 51.5076 71.0739 51.7746 71.4229 51.9872L72.8138 51.5917L73.1383 50.7776L73.3238 50.2194L73.7642 49.8472L73.9497 49.4983L66.9951 42.8457L66.346 43.6133L64.5379 44.1948Z" fill="white" stroke="#616161" stroke-width="2" stroke-linejoin="round"/>
<path d="M73.3026 50.0572C73.2817 50.5334 73.2275 51.0075 73.1403 51.4761C72.9111 51.7749 72.6072 52.0076 72.2594 52.1507C72.0044 52.1507 71.1003 52.3135 70.9149 52.1507C70.6753 51.891 70.5145 51.5683 70.4512 51.2202C70.4512 50.9876 70.6599 49.9176 70.6599 49.9176L66.7885 46.289C66.2351 46.2115 65.6779 46.1649 65.1194 46.1494C64.8888 46.144 64.662 46.0893 64.4542 45.9891C64.2463 45.8888 64.0621 45.7452 63.9139 45.5679C63.5894 45.1724 63.7517 44.9631 63.9139 44.6374C63.948 44.5331 64.0087 44.4395 64.0901 44.366C64.1714 44.2925 64.2706 44.2418 64.3776 44.2188C64.3776 44.2188 63.9371 44.9631 64.1226 45.1957C64.3485 45.4004 64.6071 45.5656 64.8876 45.6842H66.6494L70.9844 49.4059L70.6135 51.0109C70.6135 51.0109 70.6135 51.5924 71.1235 51.6622C71.5288 51.6818 71.9348 51.6426 72.329 51.5459C72.5807 51.4213 72.7844 51.2169 72.9085 50.9644C73.0192 50.6534 73.1509 50.3503 73.3026 50.0572Z" fill="white" stroke="#616161" stroke-width="2" stroke-linejoin="round"/>
<path d="M71.3076 51.6141C71.3076 51.6141 71.0989 49.1019 71.1685 49.0554C71.3067 49.0336 71.4475 49.0336 71.5858 49.0554C71.688 49.0652 71.785 49.1057 71.8639 49.1717C71.8639 49.1717 71.8639 51.6373 71.8639 51.7071C71.8639 51.7935 71.8298 51.8763 71.7689 51.9374C71.708 51.9985 71.6255 52.0328 71.5394 52.0328C71.4533 52.0328 71.3708 51.9985 71.3099 51.9374C71.249 51.8763 71.2149 51.7935 71.2149 51.7071L71.3076 51.6141Z" fill="white" stroke="#616161" stroke-width="2" stroke-linejoin="round"/>
<path d="M71.168 49.0801C71.168 48.9405 71.3302 48.8242 71.5157 48.8242C71.7012 48.8242 71.8402 48.9405 71.8402 49.0801C71.8402 49.2197 71.678 49.336 71.5157 49.336C71.3534 49.336 71.168 49.2197 71.168 49.0801Z" fill="white" stroke="#616161" stroke-width="2" stroke-linejoin="round"/>
<path d="M74.1836 49.59L75.76 55.0098C75.76 55.0098 76.5945 57.173 77.1741 57.5219C77.7536 57.8709 78.565 58.4524 78.565 58.4524L79.2141 52.8233L76.0845 49.1016L74.1836 49.59Z" fill="white" stroke="#616161" stroke-width="2" stroke-linejoin="round"/>
<path d="M83.316 57.499L79.6996 59.0807L79.5605 56.9873L82.3656 55.8242L83.316 57.499Z" fill="white" stroke="#616161" stroke-width="2" stroke-linejoin="round"/>
<path d="M78.632 62.1978C78.632 62.035 78.0061 53.3355 78.1452 53.2424C78.2843 53.1494 78.4929 53.3588 78.7479 53.382C78.9625 53.4213 79.1824 53.4213 79.397 53.382H79.6984C79.8375 53.382 80.0693 62.035 80.0693 62.3374C80.0693 62.6398 79.7447 62.8491 79.3506 62.8491C78.9565 62.8491 78.632 62.477 78.632 62.1978Z" fill="white" stroke="#616161" stroke-width="2" stroke-linejoin="round"/>
<path d="M86.3522 47.8701L86.6768 57.1744L79.8845 54.4296L78.2617 49.1029L79.8149 47.1025L82.1331 45.6836L86.3522 47.8701Z" fill="white" stroke="#616161" stroke-width="2" stroke-linejoin="round"/>
<path d="M63.4023 69.7812L63.8892 72.3167L69.9396 73.3867L69.7542 71.0606L63.4023 69.7812Z" fill="white" stroke="#616161" stroke-width="2" stroke-linejoin="round"/>
<path d="M69.9174 73.4559L73.5801 64.3145H72.5137L69.6855 70.7809L69.9174 73.4559Z" fill="white" stroke="#616161" stroke-width="2" stroke-linejoin="round"/>
<path d="M82.9902 47.7064C82.4572 47.8963 81.9507 48.1543 81.4834 48.474C80.9039 48.8927 79.6057 49.451 79.4898 49.9395C79.3739 50.4279 80.417 51.4514 80.417 51.4514V52.4749C80.264 52.7612 80.0301 52.9958 79.7448 53.1494C79.3043 53.3588 78.1916 53.5216 77.9366 53.1494C77.6816 52.7773 76.4066 51.8701 75.1084 50.8234C73.8102 49.7766 72.9293 48.7299 72.9293 48.7299C71.7351 47.8159 70.4446 47.0358 69.0811 46.4038C68.1538 46.1712 67.7134 45.2873 67.3656 45.078C67.0179 44.8686 62.9379 40.9841 62.9379 40.9841L62.1033 38.2626L59.7852 34.9595V34.0059L81.2052 42.3099L84.8448 45.1478L82.9902 47.7064Z" fill="white" stroke="#616161" stroke-width="2" stroke-linejoin="round"/>
<path d="M83.0392 46.845C81.9064 47.4118 80.8142 48.0569 79.7705 48.7757C79.4839 49.1121 79.299 49.5237 79.2373 49.962L80.2341 51.1715C80.3237 51.3783 80.3427 51.6089 80.2882 51.8277C80.2337 52.0464 80.1088 52.2409 79.9328 52.3811C79.6656 52.5927 79.3402 52.7172 79.0005 52.738C78.6607 52.7588 78.3227 52.6748 78.0319 52.4974C76.0159 50.8911 74.0962 49.1668 72.2828 47.3335L70.1268 46.1007C69.4535 45.7728 68.8029 45.3998 68.1796 44.9842L63.01 40.1692C62.8619 39.4115 62.6366 38.671 62.3377 37.9594L60.0195 34.3308L69.8255 30.0508L71.0541 31.1208L86.6092 44.612L83.0392 46.845Z" fill="white" stroke="#616161" stroke-width="2" stroke-linejoin="round"/>
<path d="M63.0312 74.4331C63.0312 74.4331 63.4022 72.7583 63.4717 72.5025L64.144 70.5951C64.3286 70.5699 64.5157 70.5699 64.7003 70.5951C64.909 70.5951 64.2831 71.8279 64.0049 72.9211C63.8482 73.6027 63.7398 74.2945 63.6803 74.9914L63.0312 74.4331Z" fill="white" stroke="#616161" stroke-width="2" stroke-linejoin="round"/>
<path d="M64.1445 75.5027C64.3322 74.6158 64.588 73.7448 64.9095 72.8975C65.193 72.2045 65.5588 71.5485 65.9991 70.9436C65.9991 70.9436 66.7409 70.7575 66.6945 71.0831C66.6482 71.4088 65.5123 72.5951 65.2573 73.6883C65.101 74.3788 64.9849 75.0778 64.9095 75.7818L64.1445 75.5027Z" fill="white" stroke="#616161" stroke-width="2" stroke-linejoin="round"/>
<path d="M65.3516 75.2943C65.7507 74.4868 66.2078 73.7094 66.7193 72.9683C67.1608 72.3715 67.6747 71.8323 68.2493 71.3633C68.2493 71.3633 69.0143 71.3633 68.8984 71.6657C68.7825 71.9681 67.3684 72.852 66.8584 73.8522C66.5326 74.4659 66.2536 75.1035 66.0238 75.7596L65.3516 75.2943Z" fill="white" stroke="#616161" stroke-width="2" stroke-linejoin="round"/>
<path d="M82.9447 29.6797L83.2461 31.2614L82.6202 32.8897V33.5177L81.2524 36.7509L80.9279 36.0996L80.7192 36.844H80.2324L81.1365 34.4481L82.9447 29.6797Z" fill="white" stroke="#616161" stroke-width="2" stroke-linejoin="round"/>
<path d="M74.9707 32.7271L76.9643 28.6797L82.9685 29.6566L81.8557 32.5642C81.9881 32.7574 82.068 32.9819 82.0875 33.2155C82.1763 33.4556 82.1763 33.7198 82.0875 33.9599L81.4385 35.5416L81.1371 34.4018L80.3025 36.7279L76.3384 35.1694L74.9707 32.7271Z" fill="white" stroke="#616161" stroke-width="2" stroke-linejoin="round"/>
<path d="M76.8489 33.5178L79.3989 33.983C79.4258 33.9855 79.4517 33.9938 79.475 34.0074C79.4983 34.0209 79.5183 34.0394 79.5338 34.0616C79.5492 34.0837 79.5597 34.1089 79.5644 34.1355C79.5692 34.1621 79.5681 34.1895 79.5612 34.2156C79.5499 34.2732 79.5174 34.3243 79.4701 34.3588C79.4228 34.3933 79.3643 34.4086 79.3062 34.4017L76.7794 33.9597C76.7244 33.9441 76.6762 33.9104 76.6425 33.864C76.6089 33.8176 76.5918 33.7612 76.5939 33.7038C76.6095 33.6486 76.6431 33.6003 76.6893 33.5665C76.7356 33.5328 76.7918 33.5156 76.8489 33.5178Z" fill="white" stroke="#616161" stroke-width="2" stroke-linejoin="round"/>
<path d="M77.8686 30.4703L80.3954 30.9122C80.4528 30.9235 80.5038 30.9562 80.5382 31.0036C80.5725 31.0511 80.5878 31.1098 80.5808 31.1681C80.5754 31.1959 80.5644 31.2223 80.5484 31.2458C80.5325 31.2692 80.512 31.2891 80.4881 31.3043C80.4643 31.3196 80.4376 31.3298 80.4097 31.3343C80.3818 31.3389 80.3533 31.3377 80.3259 31.3309L77.7758 30.9122C77.7481 30.9067 77.7218 30.8957 77.6984 30.8797C77.6751 30.8637 77.6552 30.8431 77.64 30.8192C77.6249 30.7953 77.6147 30.7685 77.6101 30.7405C77.6056 30.7125 77.6068 30.6839 77.6136 30.6563C77.6161 30.6264 77.625 30.5974 77.6397 30.5713C77.6544 30.5452 77.6745 30.5225 77.6987 30.5049C77.7229 30.4872 77.7506 30.475 77.7799 30.469C77.8092 30.4631 77.8394 30.4635 77.8686 30.4703Z" fill="white" stroke="#616161" stroke-width="2" stroke-linejoin="round"/>
<path d="M77.4059 31.6577L79.9559 32.0996C80.0133 32.111 80.0643 32.1436 80.0987 32.1911C80.1331 32.2385 80.1483 32.2972 80.1414 32.3555C80.136 32.3833 80.1249 32.4098 80.109 32.4332C80.0931 32.4566 80.0725 32.4765 80.0487 32.4918C80.0248 32.507 79.9982 32.5172 79.9703 32.5218C79.9424 32.5263 79.9138 32.5252 79.8864 32.5183L77.3364 32.0996C77.3087 32.0942 77.2823 32.0831 77.259 32.0671C77.2356 32.0511 77.2158 32.0305 77.2006 32.0066C77.1854 31.9827 77.1752 31.9559 77.1707 31.9279C77.1661 31.8999 77.1673 31.8713 77.1741 31.8438C77.177 31.8162 77.1853 31.7895 77.1985 31.7652C77.2118 31.7409 77.2297 31.7194 77.2513 31.7021C77.2728 31.6848 77.2976 31.672 77.3242 31.6643C77.3507 31.6567 77.3785 31.6544 77.4059 31.6577Z" fill="white" stroke="#616161" stroke-width="2" stroke-linejoin="round"/>
<path d="M81.9245 32.4238L81.2522 32.7262L80.7422 34.3312L81.1363 34.4475" stroke="#616161" stroke-width="2" stroke-linejoin="round"/>
<path d="M74.6227 32.5645C75.1271 32.5756 75.6271 32.6619 76.1063 32.8203C76.5004 33.0297 77.5668 33.7973 77.5668 33.7973L82.2032 38.1935L84.5213 41.4035L83.9186 42.2177L79.9777 38.6355L73.8809 33.2623L74.6227 32.5645Z" fill="white" stroke="#616161" stroke-width="2" stroke-linejoin="round"/>
<path d="M77.0327 34.237L80.4636 37.4238C80.5092 37.4749 80.5344 37.5412 80.5344 37.6098C80.5344 37.6785 80.5092 37.7448 80.4636 37.7959C80.4088 37.8434 80.3389 37.8695 80.2665 37.8695C80.1942 37.8695 80.1242 37.8434 80.0695 37.7959L76.6386 34.6557C76.6133 34.6318 76.5932 34.603 76.5794 34.571C76.5657 34.539 76.5586 34.5045 76.5586 34.4696C76.5586 34.4348 76.5657 34.4003 76.5794 34.3683C76.5932 34.3363 76.6133 34.3075 76.6386 34.2836C76.6589 34.2513 76.6861 34.2239 76.7183 34.2035C76.7504 34.1832 76.7868 34.1703 76.8245 34.1658C76.8623 34.1614 76.9006 34.1654 76.9366 34.1778C76.9727 34.1901 77.0055 34.2103 77.0327 34.237Z" fill="white" stroke="#616161" stroke-width="2" stroke-linejoin="round"/>
<path d="M60.0411 33.354C60.0411 33.354 59.7861 33.796 60.0411 34.0984C60.1075 34.257 60.2211 34.3912 60.3663 34.4827C60.5114 34.5743 60.6812 34.6188 60.8524 34.6101C62.0566 34.3023 63.241 33.9217 64.3993 33.4703L66.2538 32.6795L69.4761 30.5395C69.5261 30.4563 69.5562 30.3627 69.5641 30.2659C69.572 30.1691 69.5574 30.0718 69.5214 29.9816C69.4855 29.8915 69.4292 29.8109 69.357 29.7462C69.2847 29.6816 69.1986 29.6346 69.1052 29.609C68.4801 29.4614 67.8294 29.4614 67.2043 29.609L66.4625 29.7719L66.277 29.0508C66.2462 29.4656 66.0647 29.8546 65.767 30.144C65.143 30.4594 64.4253 30.5339 63.7502 30.3534C63.1938 30.1673 62.6838 29.1903 62.6838 29.1903C62.6838 29.1903 62.9156 30.8419 62.6838 31.1908C62.2933 31.5615 61.8831 31.9109 61.4552 32.2375L60.0411 33.354Z" fill="white" stroke="#616161" stroke-width="2" stroke-linejoin="round"/>
<path d="M62.5918 29.3771C62.5918 28.7025 63.4495 28.1908 64.4463 28.2373C65.4432 28.2838 66.2545 28.8421 66.2314 29.4934C66.2082 30.1447 65.3736 30.6797 64.3768 30.6564C63.38 30.6332 62.5918 30.0284 62.5918 29.3771Z" fill="white" stroke="#616161" stroke-width="2" stroke-linejoin="round"/>
<path d="M60.1113 33.285C60.1429 33.1084 60.2192 32.9429 60.3329 32.8044C60.4465 32.6659 60.5937 32.5591 60.7604 32.4941H61.1545C61.3201 32.4953 61.4785 32.5622 61.595 32.6802C61.7038 32.7536 61.7954 32.8499 61.8635 32.9623C61.9315 33.0748 61.9744 33.2008 61.9891 33.3315C61.9891 33.6572 61.5718 33.9363 61.0386 33.9363C60.5054 33.9363 60.1113 33.6107 60.1113 33.285Z" fill="white" stroke="#616161" stroke-width="2" stroke-linejoin="round"/>
<path d="M67.2266 29.8416C67.2621 29.6666 67.3399 29.5031 67.4531 29.3652C67.5662 29.2273 67.7113 29.1194 67.8757 29.0508H68.2697C68.4303 29.0558 68.5848 29.1129 68.7102 29.2136C68.819 29.287 68.9106 29.3833 68.9787 29.4957C69.0468 29.6082 69.0896 29.7342 69.1043 29.8649C69.1043 30.1906 68.687 30.4697 68.1538 30.4697C67.6207 30.4697 67.2266 30.2371 67.2266 29.8416Z" fill="white" stroke="#616161" stroke-width="2" stroke-linejoin="round"/>
<path d="M54.6861 7.79076C53.7357 7.65119 52.7852 8.11641 52.6461 8.60488C52.4443 9.6557 52.492 10.7394 52.7852 11.7683C53.1098 12.9779 54.8716 16.4205 55.1034 16.909C55.3352 17.3974 58.1171 22.7009 58.1634 22.7707L60.2962 27.4228C60.4835 27.4903 60.6884 27.4903 60.8757 27.4228C61.1771 27.2833 60.8757 26.3063 60.8757 26.3063L57.9548 19.9096L55.9843 16.2809L54.4775 12.6988C54.2156 12.1102 54.0212 11.4937 53.898 10.8612C53.898 10.2331 53.7125 9.79118 53.898 9.44227C54.0834 9.09336 55.938 9.67488 56.5407 10.1168C57.1434 10.5588 57.3752 9.11662 57.3752 9.11662C56.6282 8.41915 55.6929 7.95799 54.6861 7.79076Z" fill="white" stroke="#616161" stroke-width="2" stroke-linejoin="round"/>
<path d="M57.2831 11.1173L56.5645 10.466C56.584 10.1375 56.7149 9.8256 56.9354 9.58205C57.2307 9.33357 57.5801 9.15827 57.9554 9.07031L58.7436 9.72161L57.2831 11.1173Z" fill="white" stroke="#616161" stroke-width="2" stroke-linejoin="round"/>
<path d="M57.2363 88.5524C57.3408 89.3118 57.5844 90.0452 57.955 90.7156C58.3954 91.1808 58.9286 92.0647 59.8327 92.1113C60.8011 92.1964 61.7705 91.9593 62.5913 91.4367C63.6512 90.8268 64.5998 90.0402 65.3964 89.1106C66.1823 88.3533 66.8821 87.5108 67.4827 86.5985L67.9 84.7841L67.6218 84.5515L60.4354 83.6211L58.2795 85.5052L57.2363 88.5524Z" fill="white" stroke="#616161" stroke-width="2" stroke-linejoin="round"/>
<path d="M57.0039 87.5531C57.0614 88.3674 57.2906 89.1603 57.6762 89.8791C58.1166 90.3444 58.6498 91.2283 59.5539 91.2748C60.8025 91.1853 62.0038 90.7594 63.0312 90.042C63.7267 89.4837 67.4126 85.5294 67.4126 85.5294L67.2271 83.9477L60.2726 82.7148L58.1166 84.599L57.0039 87.5531Z" fill="white" stroke="#616161" stroke-width="2" stroke-linejoin="round"/>
<path d="M63.4726 29.4225L62.4062 20.9324L64.5622 20.2578L65.3967 29.283C65.2814 29.4308 65.1381 29.5542 64.9749 29.646C64.8118 29.7379 64.6321 29.7963 64.4463 29.818C64.0895 29.7871 63.7503 29.6494 63.4726 29.4225Z" fill="white" stroke="#616161" stroke-width="2" stroke-linejoin="round"/>
<path d="M62.5902 29.5164L61.2225 26.5391L60.8516 28.0278L61.037 29.214L62.1729 30.4236L62.5902 29.5164Z" fill="white" stroke="#616161" stroke-width="2" stroke-linejoin="round"/>
<path d="M59.3457 31.308C59.4917 31.6159 59.7484 31.8569 60.0643 31.9825C60.3317 32.0759 60.5711 32.236 60.7598 32.4477L62.9157 31.3312L62.5912 29.8891L61.1539 28.6562L59.7862 29.5402L59.3689 30.4938L59.3457 31.308Z" fill="white" stroke="#616161" stroke-width="2" stroke-linejoin="round"/>
<path d="M65.5599 63.43C65.5599 63.43 67.1363 59.8711 67.2754 59.8711C67.4145 59.8711 72.6768 60.755 72.6768 60.755C72.6768 60.755 73.6736 60.755 73.9054 61.1737C74.1372 61.5924 73.6736 62.1739 73.6736 62.1739L70.034 70.6873L62.8477 69.408L64.4704 65.7793H65.0499L66.209 63.4532L65.5599 63.43Z" fill="white" stroke="#616161" stroke-width="2" stroke-linejoin="round"/>
<path d="M62.7539 69.4788L63.0785 70.4092L70.033 71.6886L70.6126 70.5953H71.0298L72.073 68.1529L71.7253 67.9436L72.838 65.2919H73.2553L74.2753 62.9658L73.858 62.803L74.2521 62.0121L74.0435 61.291L70.0562 70.7349L62.7539 69.4788Z" fill="white" stroke="#616161" stroke-width="2" stroke-linejoin="round"/>
<path d="M65.5117 63.5V64.7096L66.0913 63.5465L65.5117 63.5Z" fill="white" stroke="#616161" stroke-width="2" stroke-linejoin="round"/>
<path d="M68.4328 61.8017L71.1219 62.2669C71.2346 62.2786 71.3385 62.3336 71.4119 62.4202C71.4853 62.5069 71.5226 62.6186 71.516 62.7321C71.4837 62.8371 71.4135 62.9262 71.3192 62.9822C71.2249 63.0381 71.1133 63.0567 71.006 63.0345L68.2937 62.5925C68.1852 62.5753 68.087 62.5181 68.0184 62.432C67.9498 62.346 67.9157 62.2373 67.9228 62.1273C67.9549 62.0208 68.0241 61.9294 68.1176 61.8696C68.2112 61.8099 68.323 61.7857 68.4328 61.8017Z" fill="white" stroke="#616161" stroke-width="2" stroke-linejoin="round"/>
<path d="M67.8546 63.3378L70.5437 63.803C70.5989 63.802 70.6536 63.8134 70.7038 63.8363C70.754 63.8592 70.7985 63.8931 70.8341 63.9354C70.8696 63.9778 70.8953 64.0275 70.9092 64.0811C70.9231 64.1346 70.925 64.1906 70.9147 64.245C70.9066 64.2997 70.8872 64.3522 70.8577 64.3989C70.8282 64.4457 70.7893 64.4857 70.7434 64.5164C70.6975 64.5471 70.6457 64.5678 70.5913 64.5771C70.537 64.5864 70.4813 64.5842 70.4278 64.5706L67.7156 64.1054C67.6606 64.0996 67.6074 64.083 67.5589 64.0564C67.5105 64.0298 67.4677 63.9938 67.4332 63.9506C67.3987 63.9073 67.3731 63.8576 67.3579 63.8043C67.3427 63.751 67.3382 63.6952 67.3446 63.6402C67.3581 63.5866 67.3821 63.5363 67.4151 63.492C67.4481 63.4478 67.4895 63.4106 67.5369 63.3824C67.5843 63.3543 67.6368 63.3359 67.6913 63.3283C67.7459 63.3206 67.8014 63.3238 67.8546 63.3378Z" fill="white" stroke="#616161" stroke-width="2" stroke-linejoin="round"/>
<path d="M66.7648 65.5488L69.4539 66.014C69.5101 66.0164 69.5652 66.0309 69.6153 66.0564C69.6655 66.0819 69.7096 66.1179 69.7447 66.162C69.7799 66.2061 69.8052 66.2572 69.819 66.3119C69.8328 66.3666 69.8348 66.4236 69.8248 66.4792C69.814 66.5318 69.7926 66.5817 69.7619 66.6258C69.7312 66.6699 69.6919 66.7072 69.6463 66.7355C69.6007 66.7638 69.5499 66.7825 69.4969 66.7904C69.4439 66.7983 69.3898 66.7953 69.338 66.7816L66.6257 66.3164C66.5172 66.2992 66.419 66.242 66.3504 66.1559C66.2818 66.0698 66.2477 65.9611 66.2548 65.8511C66.2683 65.7976 66.2923 65.7472 66.3253 65.703C66.3583 65.6587 66.3997 65.6215 66.4471 65.5934C66.4945 65.5653 66.547 65.5469 66.6015 65.5392C66.656 65.5315 66.7116 65.5348 66.7648 65.5488Z" fill="white" stroke="#616161" stroke-width="2" stroke-linejoin="round"/>
<path d="M66.1847 66.9889L68.8738 67.4541C68.9287 67.4599 68.982 67.4766 69.0305 67.5031C69.0789 67.5297 69.1216 67.5657 69.1561 67.609C69.1906 67.6522 69.2162 67.702 69.2314 67.7552C69.2467 67.8085 69.2512 67.8643 69.2447 67.9193C69.2312 67.9729 69.2073 68.0233 69.1743 68.0675C69.1413 68.1117 69.0999 68.149 69.0525 68.1771C69.0051 68.2052 68.9526 68.2236 68.8981 68.2313C68.8435 68.2389 68.788 68.2357 68.7347 68.2217L66.0456 67.7798C65.9907 67.774 65.9375 67.7573 65.889 67.7307C65.8405 67.7042 65.7978 67.6682 65.7633 67.6249C65.7288 67.5816 65.7032 67.5319 65.688 67.4786C65.6728 67.4254 65.6683 67.3696 65.6747 67.3146C65.6856 67.2589 65.7077 67.206 65.7395 67.1592C65.7714 67.1123 65.8124 67.0725 65.8601 67.042C65.9078 67.0116 65.9612 66.9912 66.017 66.982C66.0728 66.9729 66.1299 66.9752 66.1847 66.9889Z" fill="white" stroke="#616161" stroke-width="2" stroke-linejoin="round"/>
<path d="M70.0781 70.6875V71.6877" stroke="#616161" stroke-width="2" stroke-linejoin="round"/>
<path d="M82.4352 52.8464C83.6871 51.6834 85.1475 51.2647 85.7039 51.8694C86.2602 52.4742 87.5121 53.6373 87.3266 54.1955C87.1411 54.7538 85.0084 54.4979 84.4521 55.1027C83.8957 55.7075 83.8725 57.894 83.2234 58.0335C82.5743 58.1731 81.392 56.3355 81.1602 56.0796C80.6039 55.4051 81.137 53.9862 82.4352 52.8464Z" fill="white" stroke="#616161" stroke-width="2" stroke-linejoin="round"/>
<path d="M83.9199 54.5456C85.1718 53.3826 86.6322 52.9639 87.1886 53.5687C87.7449 54.1734 87.1886 55.6156 85.9136 56.7554C84.6386 57.8952 83.2013 58.3371 82.6449 57.7091C82.0886 57.081 82.6449 55.6854 83.9199 54.5456Z" fill="white" stroke="#616161" stroke-width="2" stroke-linejoin="round"/>
<path d="M92.0781 46.8457L105.315 47.0551L105.5 51.7072L100.238 51.5909V51.1489H97.3636L97.1086 51.5676H92.1013L92.0781 46.8457Z" fill="white" stroke="#616161" stroke-width="2" stroke-linejoin="round"/>
<path d="M94.8846 47.8008C94.9201 47.8006 94.9553 47.8079 94.9879 47.8222C95.0204 47.8365 95.0496 47.8575 95.0736 47.8838C95.0977 47.91 95.1159 47.9411 95.1273 47.9748C95.1386 48.0086 95.1428 48.0444 95.1396 48.0799V50.1966C95.1428 50.2333 95.1387 50.2703 95.1276 50.3054C95.1165 50.3404 95.0985 50.373 95.0748 50.4011C95.0511 50.4292 95.0221 50.4523 94.9895 50.4691C94.9568 50.4859 94.9212 50.4961 94.8846 50.499C94.8461 50.4992 94.8079 50.4913 94.7725 50.4758C94.7372 50.4603 94.7054 50.4377 94.6792 50.4092C94.6531 50.3808 94.6331 50.3472 94.6206 50.3106C94.608 50.274 94.6032 50.2352 94.6064 50.1966V48.0799C94.6064 48.0059 94.6357 47.9349 94.6879 47.8825C94.7401 47.8302 94.8108 47.8008 94.8846 47.8008Z" fill="white" stroke="#616161" stroke-width="2" stroke-linejoin="round"/>
<path d="M96.8771 47.8926C96.9509 47.8926 97.0217 47.922 97.0738 47.9743C97.126 48.0267 97.1553 48.0977 97.1553 48.1717V50.2884C97.1585 50.327 97.1537 50.3658 97.1412 50.4024C97.1287 50.439 97.1087 50.4726 97.0825 50.501C97.0564 50.5295 97.0246 50.5521 96.9892 50.5676C96.9539 50.583 96.9157 50.591 96.8771 50.5908C96.8406 50.5879 96.8049 50.5777 96.7723 50.5609C96.7396 50.5441 96.7106 50.521 96.6869 50.4929C96.6632 50.4648 96.6453 50.4322 96.6342 50.3972C96.6231 50.3621 96.619 50.3251 96.6221 50.2884V48.1717C96.6219 48.1015 96.648 48.0338 96.6953 47.9821C96.7425 47.9304 96.8074 47.8984 96.8771 47.8926Z" fill="white" stroke="#616161" stroke-width="2" stroke-linejoin="round"/>
<path d="M99.9835 47.9395C100.02 47.9395 100.056 47.9467 100.09 47.9607C100.124 47.9747 100.154 47.9953 100.18 48.0212C100.206 48.0471 100.227 48.0779 100.241 48.1118C100.255 48.1456 100.262 48.1819 100.262 48.2186V50.3586C100.262 50.4326 100.232 50.5036 100.18 50.5559C100.128 50.6083 100.057 50.6377 99.9835 50.6377C99.9138 50.6319 99.8489 50.5999 99.8016 50.5482C99.7544 50.4964 99.7283 50.4287 99.7285 50.3586V48.2186C99.7283 48.1484 99.7544 48.0807 99.8016 48.029C99.8489 47.9773 99.9138 47.9453 99.9835 47.9395Z" fill="white" stroke="#616161" stroke-width="2" stroke-linejoin="round"/>
<path d="M101.791 48.0098C101.865 48.0098 101.936 48.0392 101.988 48.0915C102.04 48.1439 102.069 48.2149 102.069 48.2889V50.4056C102.069 50.4797 102.04 50.5507 101.988 50.603C101.936 50.6553 101.865 50.6848 101.791 50.6848C101.756 50.6849 101.721 50.6776 101.688 50.6633C101.655 50.649 101.626 50.6281 101.602 50.6018C101.578 50.5755 101.56 50.5445 101.549 50.5107C101.537 50.4769 101.533 50.4411 101.536 50.4056V48.2889C101.533 48.2534 101.537 48.2176 101.549 48.1838C101.56 48.15 101.578 48.119 101.602 48.0927C101.626 48.0665 101.655 48.0455 101.688 48.0312C101.721 48.0169 101.756 48.0096 101.791 48.0098Z" fill="white" stroke="#616161" stroke-width="2" stroke-linejoin="round"/>
<path d="M100.122 51.1719H97.3634L96.668 53.0793H101.003L100.122 51.1719Z" fill="white" stroke="#616161" stroke-width="2" stroke-linejoin="round"/>
<path d="M92.0781 51.6832V54.0093H105.06L105.524 51.6832H100.215V53.0789H97.2013V51.6367L92.0781 51.6832Z" fill="white" stroke="#616161" stroke-width="2" stroke-linejoin="round"/>
<path d="M77.9141 51.6152C77.9519 51.4378 78.0332 51.2726 78.1505 51.1345C78.2679 50.9964 78.4177 50.8899 78.5863 50.8244H78.9804C79.0594 50.8225 79.1378 50.8381 79.2099 50.8703C79.2821 50.9025 79.3462 50.9504 79.3977 51.0105C79.5098 51.0826 79.6051 51.1781 79.6771 51.2905C79.7491 51.4029 79.7961 51.5295 79.815 51.6618C79.815 51.9874 79.3977 52.2665 78.8645 52.2665C78.3313 52.2665 77.9141 51.9409 77.9141 51.6152Z" fill="white" stroke="#616161" stroke-width="2" stroke-linejoin="round"/>
<path d="M87.002 44.1941L90.0388 46.1945C90.0554 46.6242 90.0165 47.0542 89.9229 47.4738C89.8534 47.6655 89.7231 47.829 89.552 47.9391C89.2884 48.0816 88.9937 48.1562 88.6943 48.1562C88.3949 48.1562 88.1001 48.0816 87.8365 47.9391L86.1211 46.3573L86.4456 44.0312L87.002 44.1941Z" fill="white" stroke="#616161" stroke-width="2" stroke-linejoin="round"/>
<path d="M87.002 43.4949L89.9229 46.0535C89.9796 46.1539 90.0156 46.2647 90.0287 46.3793C90.0419 46.4939 90.0319 46.6099 89.9995 46.7206C89.9671 46.8313 89.9128 46.9343 89.8399 47.0235C89.767 47.1126 89.677 47.1862 89.5752 47.2398C89.3116 47.3823 89.0169 47.457 88.7175 47.457C88.418 47.457 88.1233 47.3823 87.8597 47.2398L86.1211 45.6581L86.4456 43.332L87.002 43.4949Z" fill="white" stroke="#616161" stroke-width="2" stroke-linejoin="round"/>
<path d="M87.6523 46.3794C87.6939 46.2028 87.7795 46.0396 87.9012 45.9054C88.0228 45.7711 88.1765 45.67 88.3478 45.6118C88.4781 45.5877 88.6116 45.5877 88.7419 45.6118C88.9024 45.6168 89.057 45.6739 89.1823 45.7746C89.2977 45.8455 89.3967 45.9402 89.4727 46.0525C89.5486 46.1648 89.5998 46.2921 89.6228 46.4259C89.6228 46.7748 89.1823 47.0307 88.626 47.0307C88.0696 47.0307 87.6523 46.7283 87.6523 46.3794Z" fill="white" stroke="#616161" stroke-width="2" stroke-linejoin="round"/>
<path d="M57.2832 11.0693V10.418L60.7141 8.88281L61.5487 9.11542L57.2832 11.0693Z" fill="white" stroke="#616161" stroke-width="2" stroke-linejoin="round"/>
<path d="M84.9403 30.8661C85.7516 24.5857 86.4007 18.7938 86.4007 18.7938C86.4007 18.7938 86.4007 17.8401 87.2353 17.7006C87.4947 17.6153 87.7691 17.5857 88.0407 17.6138C88.3123 17.6418 88.5749 17.7269 88.8116 17.8634C89.034 17.9648 89.2187 18.1342 89.3394 18.3472C89.4601 18.5602 89.5107 18.8061 89.4839 19.0497C89.4839 19.8173 86.4934 47.6371 86.4934 47.6371C86.3571 47.8403 86.1743 48.0078 85.9603 48.1256C85.6099 48.2841 85.2317 48.371 84.8475 48.3815C84.4103 48.3749 83.981 48.2632 83.5957 48.0558C83.4605 47.998 83.3389 47.9122 83.239 47.8039C83.1392 47.6957 83.0632 47.5675 83.0162 47.4278C82.8307 46.8462 83.9666 38.4724 84.9403 30.8661Z" fill="white" stroke="#616161" stroke-width="2" stroke-linejoin="round"/>
<path d="M86.2129 21.2812C86.6556 21.5721 87.1524 21.7699 87.6734 21.8628C88.1961 21.895 88.7193 21.8075 89.2034 21.6069" fill="white"/>
<path d="M86.2129 21.2812C86.6556 21.5721 87.1524 21.7699 87.6734 21.8628C88.1961 21.895 88.7193 21.8075 89.2034 21.6069" stroke="#616161" stroke-width="2" stroke-linejoin="round"/>
<path d="M86.0742 21.8633C86.5099 22.1512 86.9986 22.3489 87.5115 22.4448C88.0419 22.4789 88.573 22.3914 89.0647 22.1889" fill="white"/>
<path d="M86.0742 21.8633C86.5099 22.1512 86.9986 22.3489 87.5115 22.4448C88.0419 22.4789 88.573 22.3914 89.0647 22.1889" stroke="#616161" stroke-width="2" stroke-linejoin="round"/>
<path d="M83.7324 41.3105C84.2266 41.6087 84.7674 41.8211 85.332 41.9386C85.8998 41.9664 86.4674 41.8794 87.0011 41.6827" fill="white"/>
<path d="M83.7324 41.3105C84.2266 41.6087 84.7674 41.8211 85.332 41.9386C85.8998 41.9664 86.4674 41.8794 87.0011 41.6827" stroke="#616161" stroke-width="2" stroke-linejoin="round"/>
<path d="M87.9532 56.9872C87.9532 56.8244 87.6055 48.1016 87.7678 48.0086C87.93 47.9155 88.2082 48.1714 88.4864 48.1947C88.6999 48.2443 88.922 48.2443 89.1355 48.1947C89.1355 48.1947 89.4137 48.1947 89.46 48.1947C89.5064 48.1947 89.46 56.8476 89.46 57.15C89.46 57.4524 89.0891 57.6618 88.695 57.6385C88.3009 57.6153 87.93 57.2663 87.9532 56.9872Z" fill="white" stroke="#616161" stroke-width="2" stroke-linejoin="round"/>
<path d="M35.4457 95.369L56.1703 85.8089C56.3343 85.6012 56.4539 85.3618 56.5217 85.1057C56.5895 84.8496 56.6041 84.5822 56.5644 84.3202C56.3326 83.5991 67.8308 82.7617 67.8308 82.7617C67.9944 83.3755 68.0416 84.0146 67.9699 84.6458C67.854 85.7391 66.8108 86.1578 66.4631 86.9719C66.1154 87.786 66.2081 88.1349 66.8108 88.6234C67.4136 89.1119 76.8486 101.905 76.8486 101.905L75.9909 105.255L75.0636 104.952C75.2671 104.807 75.4133 104.595 75.4769 104.353C75.5404 104.11 75.5172 103.853 75.4113 103.627C74.994 102.836 64.1913 88.4606 64.1913 88.4606C64.1913 88.4606 62.3135 87.5534 61.6876 88.8793C61.0617 90.2051 54.7331 106.348 54.7331 106.348C54.7593 106.673 54.888 106.981 55.1006 107.228C55.3132 107.475 55.5985 107.647 55.9153 107.72C57.0976 108.023 51.9049 106.953 51.9049 106.953C51.9049 106.953 56.7731 95.4621 58.4653 90.6704C58.674 90.0656 58.8594 89.6004 58.9985 89.2282C59.3926 88.2512 58.6508 87.7628 58.1872 87.4836C57.7235 87.2045 56.9353 87.2045 56.1471 87.4836C55.359 87.7628 41.3107 94.0199 37.2539 96.1832C36.7207 96.4623 36.6512 97.2997 36.5121 97.416C35.2139 98.2999 36.0948 97.9742 36.0948 97.9742L34.7734 96.4623L35.4457 95.369Z" fill="white" stroke="#616161" stroke-width="2" stroke-linejoin="round"/>
<path d="M57.5605 30.9117L59.7165 3.53385C59.7933 3.24175 59.9762 2.98906 60.2293 2.82548C60.4824 2.6619 60.7874 2.59929 61.0842 2.64994C61.3807 2.66695 61.6665 2.76767 61.9085 2.94052C62.1504 3.11336 62.3388 3.3513 62.4519 3.62689L61.0378 29.8883L59.0906 31.2839C58.8372 31.4273 58.5444 31.4845 58.256 31.4467C57.9784 31.3379 57.7373 31.1524 57.5605 30.9117Z" fill="white" stroke="#616161" stroke-width="2" stroke-linejoin="round"/>
<path d="M55.2422 12.2812L55.6363 15.7704L62.1968 21.1669C62.3079 21.2416 62.4332 21.2926 62.5648 21.3166C62.6964 21.3406 62.8315 21.3371 62.9618 21.3064C63.3095 21.1668 71.8636 16.8636 71.8636 16.8636V13.3512L55.2422 12.2812Z" fill="white" stroke="#616161" stroke-width="2" stroke-linejoin="round"/>
<path d="M63.0087 17.7009L71.1688 13.7466C71.1688 13.7466 71.7715 13.514 71.6788 13.2814C71.5314 13.0683 71.3515 12.8799 71.1456 12.7231C70.8442 12.3975 65.3038 8.07098 65.3038 8.07098C65.1306 7.95821 64.9339 7.88696 64.7288 7.86276C64.5238 7.83855 64.316 7.86205 64.1215 7.93142C63.426 8.23381 55.6369 11.8625 55.6369 11.8625C55.6369 11.8625 55.011 12.1416 55.3355 12.3975C55.6601 12.6533 61.8265 17.7242 61.8265 17.7242C61.988 17.822 62.1712 17.878 62.3597 17.887C62.587 17.8735 62.8086 17.81 63.0087 17.7009Z" fill="white" stroke="#616161" stroke-width="2" stroke-linejoin="round"/>
<path d="M61.7793 17.6777L62.127 21.1436" stroke="#616161" stroke-width="2" stroke-linejoin="round"/>
<path d="M62.9609 17.7227L63.3087 21.1885" stroke="#616161" stroke-width="2" stroke-linejoin="round"/>
<path d="M56.3791 83.1551C56.3791 82.3643 56.0546 80.108 56.5646 79.4799C57.5614 78.2936 59.9723 79.0147 62.0123 79.0147C64.0523 79.0147 66.1851 78.2471 67.2283 79.2008C68.2714 80.1545 67.6455 82.1782 67.6455 83.1551C67.6455 85.4812 65.1187 87.2723 62.0123 87.2723C58.9059 87.2723 56.3791 85.4347 56.3791 83.1551Z" fill="white" stroke="#616161" stroke-width="2" stroke-linejoin="round"/>
<path d="M56.2383 80.3398C56.2383 78.0137 58.7651 76.2227 61.8715 76.2227C64.9779 76.2227 67.5047 78.0603 67.5047 80.3398C67.5047 82.6194 64.9083 84.4802 61.8715 84.4802C58.8347 84.4802 56.2383 82.6426 56.2383 80.3398Z" fill="white" stroke="#616161" stroke-width="2" stroke-linejoin="round"/>
<path d="M64.7012 33.6562L64.8866 35.6334L71.8412 42.1929C71.9821 42.2987 72.1474 42.3669 72.3217 42.3913C72.496 42.4157 72.6736 42.3955 72.838 42.3325L79.7926 39.2621V37.6338L64.7012 33.6562Z" fill="white" stroke="#616161" stroke-width="2" stroke-linejoin="round"/>
<path d="M65.0483 33.1457L70.9829 30.7033C71.2623 30.5387 71.5916 30.4808 71.9102 30.5405C72.0699 30.5659 72.2225 30.6245 72.3582 30.7127C72.494 30.8008 72.6098 30.9165 72.6984 31.0522L78.9807 36.658C78.9807 36.658 79.9543 37.2861 79.9775 37.5652C80.0007 37.8443 79.4443 37.9839 79.4443 37.9839L73.5561 40.6356C73.2501 40.8426 72.8774 40.9257 72.5129 40.8682C72.157 40.7908 71.8381 40.5939 71.6088 40.31L65.1874 34.1459C65.0057 33.9904 64.8561 33.8007 64.747 33.5876C64.6774 33.355 65.0483 33.1457 65.0483 33.1457Z" fill="white" stroke="#616161" stroke-width="2" stroke-linejoin="round"/>
<path d="M73.3711 40.7734V42.2389" stroke="#616161" stroke-width="2" stroke-linejoin="round"/>
<path d="M71.8633 40.6133V42.0787" stroke="#616161" stroke-width="2" stroke-linejoin="round"/>
<path d="M64.1907 75.2236C66.3503 74.938 68.5265 74.7981 70.7048 74.8049C71.5857 75.0375 77.9839 75.0375 80.6266 75.3167C82.7944 75.5964 84.9457 75.9924 87.0712 76.503C87.4084 76.7261 87.6959 77.0171 87.9153 77.3574C88.1348 77.6977 88.2815 78.08 88.3462 78.4801C88.3627 78.7202 88.3627 78.9611 88.3462 79.2012C88.3462 79.2012 88.1839 80.0153 87.9521 80.1084L86.9553 80.3642C86.6307 80.3642 81.2757 81.5505 79.8153 81.6668C77.0783 81.8627 74.3285 81.7769 71.6089 81.411C68.9771 81.0335 66.3746 80.4739 63.8198 79.7362L62.707 77.1775L64.1907 75.2236Z" fill="white" stroke="#616161" stroke-width="2" stroke-linejoin="round"/>
<path d="M35.5154 74.2016C35.5154 74.2016 34.9358 75.8996 35.5154 76.5276C37.5715 77.1512 39.6833 77.5718 41.8209 77.7837C42.7713 77.9233 51.8586 78.528 51.8586 78.528L56.1473 79.0398L56.6341 79.3654L58.9523 79.5515L59.1377 75.8531L56.0546 76.0857C55.7764 76.0857 53.435 75.667 51.7195 75.4344C50.0041 75.2018 46.04 74.3644 44.5795 74.2946C42.9872 74.0933 41.3854 73.9768 39.7809 73.9457C38.3546 73.9206 36.9285 74.0061 35.5154 74.2016Z" fill="white" stroke="#616161" stroke-width="2" stroke-linejoin="round"/>
<path d="M58.4188 78.4097C58.337 77.5898 58.337 76.7639 58.4188 75.944C58.8592 75.2462 59.9951 76.4092 61.1311 76.4092C62.267 76.4092 63.2638 75.2927 63.7738 75.7579C64.2838 76.2231 63.9592 77.9444 63.9592 78.4097C63.9592 79.5262 62.6842 80.4101 61.1311 80.4101C59.5779 80.4101 58.4188 79.5262 58.4188 78.4097Z" fill="white" stroke="#616161" stroke-width="2" stroke-linejoin="round"/>
<path d="M58.4648 76.1762C58.4648 75.083 59.7399 74.1758 61.293 74.1758C62.8462 74.1758 64.1212 75.083 64.1212 76.1762C64.1212 77.2695 62.8462 78.1766 61.293 78.1766C59.7399 78.1766 58.4648 77.2927 58.4648 76.1762Z" fill="white" stroke="#616161" stroke-width="2" stroke-linejoin="round"/>
<path d="M58.998 75.9691C59.0349 75.6638 59.1317 75.3689 59.283 75.1014C59.4342 74.8339 59.6367 74.5991 59.879 74.4107C60.2313 74.1438 60.667 74.0119 61.1076 74.0385C61.7799 74.0385 61.8262 73.8291 62.5681 74.3409C62.8234 74.5272 63.0304 74.7724 63.1716 75.0557C63.3128 75.3391 63.3841 75.6524 63.3794 75.9691C63.3794 76.853 62.3826 77.5741 61.1771 77.5741C59.9717 77.5741 58.998 76.76 58.998 75.9691Z" fill="white" stroke="#616161" stroke-width="2" stroke-linejoin="round"/>
<path d="M59.9258 74.1298C59.9258 73.6414 60.5053 73.2227 61.2008 73.2227C61.8962 73.2227 62.4758 73.6414 62.4758 74.1298C62.4758 74.6183 61.8962 75.0603 61.2008 75.0603C60.5053 75.0603 59.9258 74.6416 59.9258 74.1298Z" fill="white" stroke="#616161" stroke-width="2" stroke-linejoin="round"/>
<path d="M60.5273 74.0373C60.5273 73.7582 60.8055 73.5488 61.1764 73.5488C61.5473 73.5488 61.8255 73.7582 61.8255 74.0373C61.8255 74.3164 61.5242 74.5025 61.1764 74.5025C60.8287 74.5025 60.5273 74.2932 60.5273 74.0373Z" fill="white" stroke="#616161" stroke-width="2" stroke-linejoin="round"/>
<path d="M34.3789 97.0206C35.8532 99.0157 37.5836 100.807 39.5253 102.347C43.2777 105.26 47.6485 107.266 52.2985 108.209C54.6501 108.551 57.0179 108.768 59.3922 108.86C62.2158 108.891 65.0374 108.697 67.8304 108.279C70.1151 107.896 72.3584 107.297 74.53 106.488L77.59 105.162L76.5004 104.115C75.3064 104.788 74.0759 105.394 72.8145 105.929C70.2533 106.63 67.6522 107.173 65.0254 107.558C61.1607 107.92 57.2657 107.787 53.4344 107.162C50.713 106.524 48.0403 105.693 45.4367 104.673C43.1136 103.657 40.9628 102.284 39.0617 100.603C37.6654 99.2742 36.4425 97.7736 35.4221 96.1367L34.3789 97.0206Z" fill="white" stroke="#616161" stroke-width="2" stroke-linejoin="round"/>
<path d="M51.8122 107.997C51.2514 105.368 50.8872 102.701 50.7227 100.018C51.2243 99.9834 51.7278 99.9834 52.2295 100.018C52.9481 100.018 54.1304 106.997 54.2231 107.555C54.2425 107.696 54.233 107.84 54.1951 107.977C54.1572 108.114 54.0917 108.243 54.0027 108.354C53.9138 108.465 53.8031 108.556 53.6776 108.623C53.552 108.69 53.4142 108.73 53.2727 108.741C52.554 108.881 51.8818 108.532 51.8122 107.997Z" fill="white" stroke="#616161" stroke-width="2" stroke-linejoin="round"/>
<path d="M76.1993 104.673C75.9421 101.999 75.8802 99.3087 76.0138 96.625C76.5195 96.6554 77.0227 96.7175 77.5206 96.8111C77.6829 96.8111 77.9147 96.1133 78.1002 98.3696C78.2856 100.626 78.6102 104.115 78.6334 104.534C78.64 104.676 78.6169 104.818 78.5657 104.951C78.5144 105.084 78.4361 105.204 78.3357 105.305C78.2354 105.406 78.1151 105.484 77.9828 105.536C77.8504 105.587 77.7088 105.61 77.567 105.604C76.8252 105.65 76.2225 105.231 76.1993 104.673Z" fill="white" stroke="#616161" stroke-width="2" stroke-linejoin="round"/>
<path d="M33.6826 96.9257C32.9993 94.3275 32.4959 91.685 32.1758 89.0171C32.3612 88.8775 34.1231 88.1332 34.3549 88.5286C34.5867 88.924 35.9544 95.8325 36.0703 96.3675C36.1043 96.5074 36.1077 96.6531 36.0803 96.7945C36.053 96.9359 35.9955 97.0697 35.9119 97.1867C35.8282 97.3038 35.7204 97.4014 35.5957 97.4727C35.471 97.5441 35.3324 97.5876 35.1894 97.6003C34.9002 97.7071 34.5808 97.6964 34.2994 97.5703C34.0179 97.4443 33.7966 97.213 33.6826 96.9257Z" fill="white" stroke="#616161" stroke-width="2" stroke-linejoin="round"/>
<path d="M33.0352 89.785C34.521 91.7985 36.2584 93.6121 38.2047 95.1815C41.9644 98.0918 46.344 100.09 51.0011 101.02C53.3602 101.368 55.7357 101.593 58.118 101.695C60.9425 101.726 63.7648 101.523 66.5562 101.09C68.8402 100.704 71.0832 100.104 73.2558 99.2986C73.9976 99.0195 76.3158 97.9728 76.3158 97.9728L76.0376 96.926C76.0376 96.926 72.1198 98.6241 71.5867 98.6939C69.031 99.4171 66.4284 99.9612 63.7975 100.322C59.9331 100.694 56.0369 100.561 52.2066 99.9267C49.4313 99.253 46.705 98.3903 44.0466 97.3447C41.69 96.3554 39.5004 95.0058 37.5556 93.3439C36.1197 92.0175 34.8082 90.5614 33.6379 88.9941L33.0352 89.785Z" fill="white" stroke="#616161" stroke-width="2" stroke-linejoin="round"/>
<path d="M32.1074 88.9485C32.1074 88.4833 32.6174 88.0879 33.2433 88.0879C33.8692 88.0879 34.4024 88.4833 34.4024 88.9485C34.4024 89.4138 33.8924 89.8092 33.2433 89.8092C32.5942 89.8092 32.1074 89.4138 32.1074 88.9485Z" fill="white" stroke="#616161" stroke-width="2" stroke-linejoin="round"/>
<path d="M50.5137 100.345C50.5137 99.8795 50.8846 99.4143 51.5105 99.3213C51.7687 99.2475 52.0453 99.2764 52.2828 99.4021C52.5203 99.5277 52.7003 99.7404 52.7855 99.9958C52.7855 100.461 52.4146 100.926 51.7655 101.019C51.5104 101.092 51.237 101.063 51.0033 100.937C50.7696 100.811 50.5939 100.598 50.5137 100.345Z" fill="white" stroke="#616161" stroke-width="2" stroke-linejoin="round"/>
<path d="M75.7122 97.043C75.7122 96.5778 76.3149 96.2521 76.964 96.3219C77.6131 96.3917 78.0536 96.8337 78.0072 97.3221C77.9266 97.5779 77.7532 97.794 77.5213 97.9275C77.2895 98.0611 77.0161 98.1023 76.7554 98.0432C76.1295 97.9502 75.6658 97.5082 75.7122 97.043Z" fill="white" stroke="#616161" stroke-width="2" stroke-linejoin="round"/>
<path d="M64.2598 42.752L64.4684 45.078C64.4684 45.078 64.6539 45.3804 64.8857 45.3804C64.9644 45.3808 65.0423 45.3644 65.1142 45.3323C65.1861 45.3002 65.2505 45.2532 65.303 45.1943V43.0543L64.2598 42.752Z" fill="white" stroke="#616161" stroke-width="2" stroke-linejoin="round"/>
<path d="M64.5154 42.4489C64.5154 42.4489 64.2141 42.635 64.3068 42.821C64.3518 42.9138 64.4207 42.9928 64.5062 43.05C64.5918 43.1073 64.691 43.1406 64.7936 43.1467C64.9703 43.1544 65.1437 43.0964 65.2804 42.9839L64.7009 42.4023L64.5154 42.4489Z" fill="white" stroke="#616161" stroke-width="2" stroke-linejoin="round"/>
<path d="M70.5429 51.7773C70.0475 52.1071 69.6604 52.5765 69.4302 53.1265C69.2669 53.8923 69.1661 54.6702 69.1288 55.4525C69.1151 56.1242 69.1773 56.7953 69.3143 57.453C69.5343 58.0732 69.8641 58.6484 70.2879 59.151C70.8233 59.5766 71.3977 59.9505 72.0034 60.2675C72.1371 60.3149 72.2585 60.3917 72.3588 60.4924C72.4591 60.593 72.5357 60.7149 72.5829 60.849" stroke="#616161" stroke-width="2" stroke-linejoin="round"/>
<path d="M136.148 38.5189C136.148 38.3793 136.519 34.4482 136.751 32.2617C136.751 31.4243 136.89 30.8661 136.937 30.8196C137.276 30.7945 137.617 30.7945 137.957 30.8196C138.221 30.8507 138.478 30.9213 138.722 31.0289C138.636 32.2232 138.481 33.4115 138.258 34.5878C138.049 36.4952 137.864 38.4724 137.864 38.5654C137.864 38.6584 137.539 39.1237 137.053 39.1237C136.566 39.1237 136.148 38.8213 136.148 38.5189Z" fill="white" stroke="#616161" stroke-width="2" stroke-linejoin="round"/>
<path d="M136.959 30.9586C136.959 30.6563 137.376 30.4004 137.863 30.4004C138.35 30.4004 138.79 30.6563 138.79 30.9586C138.79 31.261 138.373 31.4936 137.863 31.4936C137.353 31.4936 136.959 31.261 136.959 30.9586Z" fill="white" stroke="#616161" stroke-width="2" stroke-linejoin="round"/>
<path d="M140.436 65.687C140.436 65.5241 140.97 61.1511 141.317 58.7087C141.341 58.1658 141.427 57.6274 141.572 57.1038C141.989 57.067 142.408 57.067 142.824 57.1038C143.15 57.1503 143.469 57.2362 143.775 57.3596C143.786 58.6716 143.662 59.9812 143.404 61.2674C143.079 63.3842 142.708 65.5009 142.708 65.6172C142.708 65.7335 142.152 66.3848 141.526 66.3848C140.9 66.3848 140.413 66.0126 140.436 65.687Z" fill="white" stroke="#616161" stroke-width="2" stroke-linejoin="round"/>
<path d="M141.596 57.2436C141.596 56.918 142.106 56.6621 142.732 56.6621C143.358 56.6621 143.844 56.9645 143.844 57.2901C143.844 57.6158 143.311 57.8949 142.708 57.8717C142.106 57.8484 141.596 57.5925 141.596 57.2436Z" fill="white" stroke="#616161" stroke-width="2" stroke-linejoin="round"/>
<path d="M114.774 50.127C114.824 48.7534 115.018 47.389 115.354 46.0563C116.281 45.0329 118.205 47.2194 120.245 47.452C122.285 47.6846 124.325 46.2657 125.16 47.1961C125.994 48.1266 125.044 50.6155 124.951 51.3133C124.742 53.1276 122.285 54.3139 119.48 53.9883C116.675 53.6626 114.565 51.9181 114.774 50.127Z" fill="white" stroke="#616161" stroke-width="2" stroke-linejoin="round"/>
<path d="M114.959 46.7063C115.168 44.892 117.695 43.7289 120.592 44.0546C123.49 44.3802 125.646 46.148 125.437 47.9391C125.229 49.7302 122.725 50.9165 119.827 50.5908C116.93 50.2652 114.75 48.4974 114.959 46.7063Z" fill="white" stroke="#616161" stroke-width="2" stroke-linejoin="round"/>
<path d="M118.344 42.7979C117.933 41.555 117.783 40.2404 117.904 38.9366C117.921 36.4464 118.466 33.9884 119.503 31.7258C120.523 29.8416 120.222 29.3997 120.662 29.1438C121.411 28.8739 122.231 28.8739 122.98 29.1438C123.253 29.1835 123.515 29.2782 123.75 29.4221C123.985 29.5661 124.188 29.7562 124.348 29.9812C124.503 31.6291 124.503 33.2879 124.348 34.9357C124.348 36.2616 123.49 40.5648 123.421 40.844C123.351 41.1231 122.679 44.775 122.679 44.775L120.361 45.3333L118.344 42.7979Z" fill="white" stroke="#616161" stroke-width="2" stroke-linejoin="round"/>
<path d="M29.6495 52.8223C30.3303 52.8297 31.0089 52.7436 31.6664 52.5664L34.1005 51.543H63.6574L63.0315 52.9619L34.7727 52.706C34.7727 52.706 33.3586 53.0549 32.3154 53.4271C31.3645 53.6903 30.3809 53.8157 29.3945 53.7993L29.6495 52.8223Z" fill="white" stroke="#616161" stroke-width="2" stroke-linejoin="round"/>
<path d="M117.394 45.5199C117.408 44.7372 117.501 43.9579 117.672 43.1939C118.135 42.5426 119.179 43.7521 120.291 43.8219C121.404 43.8917 122.47 42.8682 122.934 43.3567C123.398 43.8452 122.934 45.5199 122.934 45.9852C122.934 47.0552 121.566 47.8693 120.036 47.753C118.506 47.6367 117.324 46.5202 117.394 45.5199Z" fill="white" stroke="#616161" stroke-width="2" stroke-linejoin="round"/>
<path d="M117.603 43.3337C117.603 42.2404 118.97 41.4495 120.5 41.5426C122.03 41.6356 123.213 42.6126 123.143 43.7058C123.073 44.7991 121.775 45.59 120.245 45.4736C118.715 45.3573 117.533 44.4037 117.603 43.3337Z" fill="white" stroke="#616161" stroke-width="2" stroke-linejoin="round"/>
<path d="M118.228 43.1699C118.337 42.5675 118.678 42.0325 119.178 41.6812C119.543 41.446 119.975 41.3396 120.407 41.3788C121.102 41.3788 121.149 41.2392 121.844 41.7975C122.08 41.9982 122.265 42.2531 122.382 42.5407C122.499 42.8282 122.545 43.1398 122.516 43.449C122.516 44.3096 121.45 44.9377 120.198 44.8679C118.946 44.7981 118.089 44.0305 118.228 43.1699Z" fill="white" stroke="#616161" stroke-width="2" stroke-linejoin="round"/>
<path d="M119.178 41.4272C119.178 40.9155 119.781 40.5433 120.477 40.5899C121.172 40.6364 121.705 41.1016 121.659 41.5901C121.613 42.0785 121.033 42.4507 120.361 42.4042C119.688 42.3577 119.132 41.8692 119.178 41.4272Z" fill="white" stroke="#616161" stroke-width="2" stroke-linejoin="round"/>
<path d="M119.757 41.3554C119.77 41.2695 119.804 41.1879 119.854 41.1171C119.904 41.0464 119.97 40.9883 120.047 40.9477C120.123 40.907 120.208 40.8849 120.295 40.8829C120.381 40.881 120.467 40.8994 120.545 40.9367C120.893 40.9367 121.171 41.1693 121.148 41.4251C121.115 41.5717 121.026 41.6996 120.901 41.782C120.775 41.8644 120.623 41.8949 120.476 41.8671C120.012 41.8671 119.734 41.6112 119.757 41.3554Z" fill="white" stroke="#616161" stroke-width="2" stroke-linejoin="round"/>
<path d="M117.928 45.1016C118.322 45.4548 118.768 45.7451 119.249 45.9622C119.852 46.1716 120.733 46.8461 121.568 46.5205C122.402 46.1948 122.286 46.0087 122.286 46.0087C122.286 46.0087 122.657 51.5913 122.634 52.01C122.805 52.9926 122.852 53.993 122.773 54.9874C122.657 56.3066 122.369 57.6049 121.915 58.8487C121.313 60.3606 120.918 61.3376 120.13 61.7562C119.342 62.1749 118.183 61.3608 118.183 61.3608C118.183 61.3608 115.911 60.4769 115.911 59.686C115.636 57.9557 115.573 56.198 115.726 54.4524C115.851 52.3785 116.177 50.3219 116.699 48.3115C117.009 47.2058 117.421 46.1312 117.928 45.1016Z" fill="white" stroke="#616161" stroke-width="2" stroke-linejoin="round"/>
<path d="M24.457 48.5445C24.457 46.3813 26.9143 44.6367 29.9511 44.6367C32.988 44.6367 35.4221 46.3813 35.4221 48.5445C35.2441 49.5536 34.7657 50.4849 34.0498 51.2157C33.3338 51.9465 32.4141 52.4425 31.4116 52.6384C30.6587 52.8684 29.8797 53.0013 29.0934 53.0338C28.398 53.0106 24.457 50.6845 24.457 48.5445Z" fill="white" stroke="#616161" stroke-width="2" stroke-linejoin="round"/>
<path d="M24.457 48.1266C24.457 45.9633 26.9143 44.2188 29.9511 44.2188C32.988 44.2188 35.4221 45.9633 35.4221 48.1266C35.2441 49.1356 34.7657 50.0669 34.0498 50.7978C33.3338 51.5286 32.4141 52.0246 31.4116 52.2204C30.6587 52.4504 29.8797 52.5833 29.0934 52.6159C28.398 52.5926 24.457 50.2665 24.457 48.1266Z" fill="white" stroke="#616161" stroke-width="2" stroke-linejoin="round"/>
<path d="M24.0171 48.1491C23.8303 46.7831 23.8303 45.3979 24.0171 44.032C24.8748 42.8689 27.448 44.1483 29.488 44.1483C31.0644 44.1483 32.9421 42.8457 33.9157 43.6133C34.8894 44.3809 34.4489 46.9163 34.4489 47.8235C34.4489 49.8006 32.3857 51.3126 29.488 51.3126C26.5902 51.3126 24.0171 50.1263 24.0171 48.1491Z" fill="white" stroke="#616161" stroke-width="2" stroke-linejoin="round"/>
<path d="M23.877 44.799C23.877 42.8218 26.1951 41.2168 29.1161 41.2168C32.037 41.2168 34.3552 42.8218 34.3552 44.799C34.3552 46.7761 32.037 48.4044 29.1161 48.4044C26.1951 48.4044 23.877 46.7994 23.877 44.799Z" fill="white" stroke="#616161" stroke-width="2" stroke-linejoin="round"/>
<path d="M24.3404 48.2871C24.0546 48.3059 23.7763 48.3863 23.5242 48.5228C23.2722 48.6593 23.0525 48.8486 22.8799 49.078C22.7408 49.3106 22.6481 48.7988 22.6017 48.9617C22.5546 49.3946 22.5546 49.8314 22.6017 50.2643C22.6684 50.7264 22.8609 51.161 23.1581 51.5203C23.4608 51.7014 23.803 51.8052 24.1549 51.8227L24.3404 48.2871Z" fill="white" stroke="#616161" stroke-width="2" stroke-linejoin="round"/>
<path d="M24.388 47.5195C24.1052 47.537 23.8297 47.617 23.5812 47.7537C23.3328 47.8904 23.1175 48.0805 22.9507 48.3104C22.7139 48.6623 22.5776 49.0726 22.5566 49.4967C22.5566 49.4967 22.7421 50.4504 23.1362 50.7295C23.4325 50.9275 23.7773 51.0401 24.133 51.0552L24.388 47.5195Z" fill="white" stroke="#616161" stroke-width="2" stroke-linejoin="round"/>
<path d="M27.819 40.8227L27.4249 37.2172C27.3871 36.1207 27.5042 35.0244 27.7726 33.9607C28.5401 31.7094 29.4699 29.5171 30.5544 27.4012C31.0848 27.0845 31.702 26.946 32.3163 27.0058C32.7104 27.0058 33.7535 26.8895 33.8694 27.4245C33.9634 28.3914 33.9634 29.3652 33.8694 30.3321C33.8694 30.7275 32.8031 35.6123 32.8031 35.6123L31.2035 41.7996L28.8853 42.2416L27.819 40.8227Z" fill="white" stroke="#616161" stroke-width="2" stroke-linejoin="round"/>
<path d="M26.0094 43.4491C25.8646 42.6357 25.8102 41.8088 25.8472 40.9834C26.2181 40.2391 27.4699 41.2626 28.6058 41.1463C29.7417 41.03 30.5995 39.8204 31.1558 40.2158C31.7122 40.6113 31.5731 42.3791 31.6195 42.8443C31.6195 43.9375 30.5763 44.961 29.0231 45.1704C27.4699 45.3797 26.1254 44.5423 26.0094 43.4491Z" fill="white" stroke="#616161" stroke-width="2" stroke-linejoin="round"/>
<path d="M25.8243 41.2152C25.7083 40.122 26.8906 39.0985 28.4206 38.8891C29.9506 38.6798 31.3184 39.4707 31.4343 40.5872C31.5502 41.7037 30.3911 42.7039 28.8379 42.9133C27.2847 43.1226 25.9402 42.3085 25.8243 41.2152Z" fill="white" stroke="#616161" stroke-width="2" stroke-linejoin="round"/>
<path d="M26.3359 40.9611C26.3372 40.6534 26.3993 40.3489 26.5187 40.0654C26.6381 39.782 26.8124 39.5251 27.0314 39.3096C27.3573 39.011 27.7736 38.8308 28.2137 38.7979C28.9091 38.7979 28.9323 38.5188 29.7205 38.9607C29.991 39.1226 30.2199 39.3457 30.389 39.6123C30.5581 39.8789 30.6626 40.1815 30.6941 40.4959C30.6941 41.3798 29.8828 42.194 28.6773 42.3103C27.4719 42.4266 26.4287 41.8683 26.3359 40.9611Z" fill="white" stroke="#616161" stroke-width="2" stroke-linejoin="round"/>
<path d="M27.0781 39.0295C27.0781 38.5178 27.5418 38.0526 28.2372 37.9828C28.5226 37.9169 28.8223 37.9618 29.076 38.1085C29.3297 38.2552 29.5187 38.4928 29.605 38.7736C29.605 39.2854 29.1181 39.7506 28.4227 39.8204C27.7272 39.8902 27.1245 39.5412 27.0781 39.0295Z" fill="white" stroke="#616161" stroke-width="2" stroke-linejoin="round"/>
<path d="M27.6562 38.8675C27.6562 38.5884 27.8881 38.3558 28.2358 38.3092C28.5835 38.2627 28.9081 38.4721 28.9313 38.7279C28.9544 38.9838 28.6994 39.2164 28.3517 39.2629C28.004 39.3095 27.6794 39.1234 27.6562 38.8675Z" fill="white" stroke="#616161" stroke-width="2" stroke-linejoin="round"/>
<path d="M26.4498 42.7988C26.6633 43.1424 26.9922 43.3982 27.3771 43.5199C28.1694 43.7871 28.9985 43.9284 29.8344 43.9386C30.1414 43.8749 30.4435 43.7894 30.7385 43.6827C30.7385 43.6827 30.8776 45.5901 30.7385 47.6138C30.8563 49.028 30.7861 50.4516 30.5298 51.8473C29.9943 53.6004 29.2138 55.2685 28.2116 56.8018C27.3076 57.895 27.2148 58.2905 26.7744 58.8255C26.3339 59.3605 24.6416 58.5231 24.2244 58.337C23.8071 58.1509 22.5553 57.8718 22.5784 57.0344C22.6016 56.197 22.9957 51.917 23.1116 51.3588C23.2275 50.8005 24.6416 45.6134 25.0125 44.9388C25.3835 44.2643 26.4498 42.7988 26.4498 42.7988Z" fill="white" stroke="#616161" stroke-width="2" stroke-linejoin="round"/>
<path d="M139.648 31.9365C139.323 31.9365 138.744 30.9828 138.721 31.2154C138.698 31.448 137.793 31.6573 137.33 31.448C136.866 31.2386 136.889 31.0293 136.843 31.1223C136.834 31.3083 136.834 31.4946 136.843 31.6806C136.843 31.6806 137.793 32.1458 138.095 32.2621C138.497 32.4044 138.885 32.5835 139.254 32.7971" fill="white"/>
<path d="M139.648 31.9365C139.323 31.9365 138.744 30.9828 138.721 31.2154C138.698 31.448 137.793 31.6573 137.33 31.448C136.866 31.2386 136.889 31.0293 136.843 31.1223C136.834 31.3083 136.834 31.4946 136.843 31.6806C136.843 31.6806 137.793 32.1458 138.095 32.2621C138.497 32.4044 138.885 32.5835 139.254 32.7971" stroke="#616161" stroke-width="2" stroke-linejoin="round"/>
<path d="M71.47 10.3259C71.47 10.3259 70.9136 3.34766 71.0296 3.34766C71.1455 3.34766 71.4005 3.34766 71.5627 3.34766C71.7259 3.38531 71.8823 3.44808 72.0264 3.53374C72.2118 3.53374 72.6987 10.2794 72.6987 10.512C72.6987 10.7446 72.4205 10.8841 72.0959 10.8841C71.7714 10.8841 71.47 10.5352 71.47 10.3259Z" fill="white" stroke="#616161" stroke-width="2" stroke-linejoin="round"/>
<path d="M88.9492 8.79266C88.9492 8.79266 88.9492 1.81444 89.0883 1.81444C89.2566 1.7806 89.43 1.7806 89.5983 1.81444C89.7374 1.81444 89.9692 2.00053 90.0619 2.04705C90.1547 2.09357 90.0619 8.81592 90.0619 9.02527C90.0619 9.23461 89.7606 9.37418 89.436 9.32766C89.1115 9.28114 88.926 8.97875 88.9492 8.79266Z" fill="white" stroke="#616161" stroke-width="2" stroke-linejoin="round"/>
<path d="M103.855 14.8396C103.855 14.8396 103.855 7.86138 103.995 7.86138C104.171 7.82746 104.352 7.82746 104.528 7.86138C104.528 7.86138 104.899 8.04747 104.991 8.09399C105.084 8.14051 104.991 14.8629 104.991 15.0722C104.991 15.2816 104.69 15.4211 104.342 15.3746C103.995 15.3281 103.855 15.0257 103.855 14.8396Z" fill="white" stroke="#616161" stroke-width="2" stroke-linejoin="round"/>
<path d="M71.3555 3.09233C71.3555 3.09233 73.3955 2.58059 74.0678 2.46429C74.7401 2.34799 79.4924 1.55712 80.2805 1.48734C81.0687 1.41756 88.0928 1.27799 88.4869 1.3943C88.881 1.5106 89.1128 0.929081 89.7388 1.11517C90.0681 1.21927 90.3749 1.38501 90.6428 1.60364C91.9592 1.87097 93.2595 2.21268 94.5374 2.62711C95.8984 2.9544 97.2378 3.36614 98.5479 3.85993C100.566 4.71346 102.499 5.75711 104.32 6.97687C104.761 7.34904 104.946 7.1397 105.387 7.3723C105.478 7.42544 105.554 7.50176 105.607 7.59362C105.659 7.68547 105.687 7.78964 105.687 7.89567C105.687 8.0017 105.659 8.10587 105.607 8.19772C105.554 8.28958 105.478 8.3659 105.387 8.41904C105.243 8.52827 105.078 8.60522 104.903 8.64466C104.727 8.68409 104.545 8.68508 104.369 8.64755C104.193 8.61002 104.027 8.53486 103.883 8.42718C103.738 8.31951 103.619 8.18186 103.532 8.0236C103.461 7.79648 103.461 7.55291 103.532 7.32578C102.144 6.44762 100.695 5.67028 99.197 4.99971C97.9452 4.6508 95.0474 3.55754 95.0474 3.55754L90.411 2.32473C90.2771 2.45885 90.1079 2.55196 89.9231 2.59315C89.7384 2.63434 89.5458 2.62191 89.3678 2.55733C88.9669 2.48088 88.6012 2.27699 88.3247 1.97581C88.3247 1.97581 81.8337 1.85951 80.9065 1.97581C79.9792 2.09212 75.6905 2.72016 74.7401 2.88298C73.7896 3.04581 72.4219 3.44124 72.4219 3.44124C72.4219 3.44124 72.0741 4.13906 71.6105 4.23211C71.4115 4.2713 71.2054 4.25272 71.0166 4.17856C70.8277 4.1044 70.6638 3.97773 70.5441 3.81341C70.3355 3.53428 70.7064 3.13885 70.7064 3.13885L71.3555 3.09233Z" fill="white" stroke="#616161" stroke-width="2" stroke-linejoin="round"/>
<path d="M70.9375 3.39561C70.9375 3.18626 71.2157 3.02344 71.5402 3.02344C71.8648 3.02344 72.143 3.18626 72.143 3.39561C72.143 3.60496 71.888 3.74452 71.5402 3.74452C71.1925 3.74452 70.9375 3.5817 70.9375 3.39561Z" fill="white" stroke="#616161" stroke-width="2" stroke-linejoin="round"/>
<path d="M88.9722 1.83479C88.9722 1.62544 89.2735 1.48588 89.6213 1.5324C89.969 1.57892 90.2008 1.74175 90.2008 1.92783C90.2008 2.11392 89.8994 2.25348 89.5517 2.23022C89.204 2.20696 88.949 2.02088 88.9722 1.83479Z" fill="white" stroke="#616161" stroke-width="2" stroke-linejoin="round"/>
<path d="M103.879 7.88362C103.879 7.67427 104.18 7.53471 104.528 7.58123C104.876 7.62775 105.131 7.79058 105.108 7.97666C105.084 8.16275 104.806 8.30231 104.458 8.27905C104.111 8.25579 103.879 8.06971 103.879 7.88362Z" fill="white" stroke="#616161" stroke-width="2" stroke-linejoin="round"/>
</g>
<defs>
<clipPath id="clip0_827_13665">
<rect width="150.427" height="110" fill="white"/>
</clipPath>
</defs>
</svg>
