<svg width="155" height="111" viewBox="0 0 155 111" fill="none" xmlns="http://www.w3.org/2000/svg">
<g clip-path="url(#clip0_827_13225)">
<path d="M132.899 47.5432C128.986 40.6607 117.591 37.7807 118.379 33.2655C118.576 32.1917 122.169 29.0676 125.27 27.286C126.61 26.5193 128.009 25.8583 129.454 25.3091C133.834 22.8684 143.162 28.7504 148.798 38.6349C154.434 48.5195 155.394 59.2827 151.013 61.7477C150.398 62.0894 148.552 63.749 146.312 65.189C144.073 66.629 140.701 68.191 139.766 67.8493C135.606 66.3117 136.96 54.4746 132.899 47.5432Z" fill="white" stroke="#616161" stroke-width="2" stroke-linejoin="round"/>
<path d="M122.758 53.6939C117.122 43.7849 116.113 33.7783 120.494 31.3133C124.874 28.8483 132.996 34.8766 138.632 44.7856C144.268 54.6946 145.277 64.6767 140.896 67.1418C136.515 69.6068 128.394 63.6761 122.758 53.6939Z" fill="white" stroke="#616161" stroke-width="2" stroke-linejoin="round"/>
<path d="M124.753 53.425C120.077 46.3227 119.142 38.7812 122.661 36.3406C126.18 33.8999 132.825 38.0002 137.427 45.1268C142.03 52.2535 143.039 59.7706 139.519 62.2113C136 64.6519 129.429 60.5516 124.753 53.425Z" fill="white" stroke="#616161" stroke-width="2" stroke-linejoin="round"/>
<path d="M128.198 52.1551C124.383 46.322 123.276 40.2448 125.959 38.5608C128.641 36.8767 133.736 40.2692 137.575 46.1023C141.414 51.9354 142.497 58.0126 139.815 59.6723C137.132 61.3319 132.037 57.9638 128.198 52.1551Z" fill="white" stroke="#616161" stroke-width="2" stroke-linejoin="round"/>
<path d="M129.675 49.739C129.233 48.9695 128.886 48.1501 128.641 47.2984C128.187 46.183 128.043 44.9671 128.225 43.7778C128.407 42.5884 128.908 41.4694 129.675 40.5378C131.373 39.4883 134.597 41.7093 137.058 45.4191C139.519 49.1288 140.061 53.1071 138.363 54.1565C137.083 54.962 133.44 53.7416 131.349 51.423C130.741 50.9123 130.181 50.3487 129.675 49.739Z" fill="white" stroke="#616161" stroke-width="2" stroke-linejoin="round"/>
<path d="M128.543 50.2999C128.375 50.0244 128.243 49.7292 128.149 49.4213C127.99 49.0166 127.942 48.577 128.011 48.1479C128.081 47.7189 128.264 47.3159 128.543 46.9807C129.134 46.6146 130.339 47.3956 131.201 48.7623C132.062 50.1291 132.284 51.5447 131.668 51.9352C131.053 52.3257 129.896 51.7887 129.207 50.9345C128.966 50.7441 128.744 50.5316 128.543 50.2999Z" fill="white" stroke="#616161" stroke-width="2" stroke-linejoin="round"/>
<path d="M126.352 51.6426C126.114 51.3258 125.916 50.9816 125.762 50.6175C125.762 50.2514 128.223 48.787 128.494 48.6406C128.764 48.4942 129.478 48.787 129.896 49.4216C130.315 50.0562 130.339 50.7883 129.896 51.008C129.453 51.2277 127.435 53.1069 126.968 52.8141C126.733 52.4395 126.527 52.0479 126.352 51.6426Z" fill="white" stroke="#616161" stroke-width="2" stroke-linejoin="round"/>
<path d="M125.883 52.0333C125.465 51.3743 125.416 50.6665 125.883 50.4469C126.351 50.2272 126.868 50.5933 127.261 51.2279C127.655 51.8624 127.729 52.5946 127.385 52.8143C127.04 53.0339 126.277 52.6922 125.883 52.0333Z" fill="white" stroke="#616161" stroke-width="2" stroke-linejoin="round"/>
<path d="M71.6667 49.9581L99.9694 41.123L129.06 61.6732L122.882 81.6376L97.2868 89.7405L75.9491 77.5373L66.4492 60.7457L71.6667 49.9581Z" fill="white" stroke="#616161" stroke-width="2" stroke-linejoin="round"/>
<path d="M29.1626 42.3926C27.7345 42.9519 26.4548 43.8286 25.4218 44.9552C24.6588 46.2488 28.6212 54.7178 28.6212 54.7178L37.6781 54.913L40.7544 50.4467L34.454 42.5878L29.1626 42.3926Z" fill="white" stroke="#616161" stroke-width="2" stroke-linejoin="round"/>
<path d="M100.486 74.7548L121.479 62.1855" stroke="#616161" stroke-width="2" stroke-linejoin="round"/>
<path d="M96.6465 71.3633L117.96 59.1602" stroke="#616161" stroke-width="2" stroke-linejoin="round"/>
<path d="M125.122 63.6982L124.9 69.4337L138.486 62.5511L138.83 59.3051L136.369 57.4746L128.444 59.7688L125.122 63.6982Z" fill="white" stroke="#616161" stroke-width="2" stroke-linejoin="round"/>
<path d="M136.59 55.7188C137.519 55.773 138.395 56.1639 139.051 56.817C140.076 57.6404 140.788 58.7852 141.07 60.0631C141.315 61.0406 141.315 62.0631 141.07 63.0406C140.774 64.5294 136.96 63.7728 136.96 63.7728L134.695 59.5017L136.59 55.7188Z" fill="white" stroke="#616161" stroke-width="2" stroke-linejoin="round"/>
<path d="M86.7539 56.1328L105.581 67.018C106.611 68.0312 107.277 69.3517 107.476 70.7766C107.329 72.5583 107.476 79.1236 107.476 79.1236" stroke="#616161" stroke-width="2" stroke-linejoin="round"/>
<path d="M110.01 69.2141V75.1448L113.923 72.8262L114.071 66.8711L110.01 69.2141Z" fill="white" stroke="#616161" stroke-width="2" stroke-linejoin="round"/>
<path d="M90.0508 61.0146L94.4562 63.4552L98.1232 62.2349L99.6491 60.3068L95.982 57.6953L92.0443 59.1353L90.0508 61.0146Z" stroke="#616161" stroke-width="2" stroke-linejoin="round"/>
<path d="M110.945 69.435L113.603 67.6289L114.39 68.0926L113.455 71.8756L111.683 74.0722L110.871 73.5352L110.945 69.435Z" fill="white" stroke="#616161" stroke-width="2" stroke-linejoin="round"/>
<path d="M111.758 69.9233L114.391 68.1172V72.3639L111.782 74.0235L111.758 69.9233Z" fill="white" stroke="#616161" stroke-width="2" stroke-linejoin="round"/>
<path d="M101.937 75.1693L104.595 73.3633L105.383 73.827L104.447 77.61L102.675 79.8066L101.863 79.2696L101.937 75.1693Z" fill="white" stroke="#616161" stroke-width="2" stroke-linejoin="round"/>
<path d="M102.75 75.6576L105.383 73.8516V78.0983L102.799 79.7579L102.75 75.6576Z" fill="white" stroke="#616161" stroke-width="2" stroke-linejoin="round"/>
<path d="M122.243 44.613L126.378 47.0536V47.9078L127.362 47.4929L130.857 49.7871C131.247 50.0325 131.569 50.3712 131.792 50.7721C132.016 51.173 132.134 51.6232 132.137 52.0813C132.151 53.3799 132.06 54.6776 131.866 55.9619L121.702 51.0807L119.684 45.9065L121.16 43.6367L122.243 44.613Z" fill="white" stroke="#616161" stroke-width="2" stroke-linejoin="round"/>
<path d="M121.109 49.7374L126.4 52.6417V53.6912L128.123 53.2763L132.307 55.7169V56.864L133.71 56.4979L137.402 56.3515V58.5481C137.445 58.8759 137.4 59.2095 137.27 59.5142C137.14 59.8189 136.931 60.0836 136.663 60.2809L133.833 62.1358L132.652 61.9161C132.652 61.9161 132.652 62.2822 132.652 62.5995C131.586 63.358 130.439 63.9965 129.231 64.5032C128.429 64.7509 127.571 64.7509 126.77 64.5032C125.468 64.09 124.22 63.5247 123.053 62.8192V61.8917L121.404 62.0138L117.122 59.4023V58.5725L115.695 58.7921L110.772 56.3515L111.437 55.4729L109.96 55.6193L105.58 52.7149L106.17 51.6899L104.3 52.3244L99.6729 49.8838L99.8452 48.8343L96.1289 48.3706L107.795 40.707L121.109 49.7374Z" fill="white" stroke="#616161" stroke-width="2" stroke-linejoin="round"/>
<path d="M121.258 46.5909L126.549 49.4708V50.5203L128.247 50.1054L132.456 52.546V53.6931L133.859 53.327L136.886 55.2307C136.886 55.2307 137.92 56.4022 137.009 56.988C136.098 57.5737 134.105 58.7696 134.105 58.7696L132.382 58.5744L132.604 59.4286L129.183 61.3323C128.382 61.5864 127.522 61.5864 126.722 61.3323C125.5 60.8925 124.335 60.3109 123.251 59.5995V58.672L121.578 58.794L117.394 56.1338V55.2551L115.942 55.4748L111.02 53.0341L111.66 52.1555L110.208 52.302L105.827 49.4952L106.417 48.4702L104.547 49.1047L99.9201 46.6641L100.068 45.6146L96.3516 45.1509L108.042 37.5117L121.258 46.5909Z" fill="white" stroke="#616161" stroke-width="2" stroke-linejoin="round"/>
<path d="M41.495 30.873C40.8281 31.0802 40.2099 31.4181 39.6772 31.8667C39.1446 32.3153 38.7082 32.8655 38.394 33.4845C37.4089 35.0848 37.001 36.9693 37.2373 38.8295C37.5447 41.0948 38.0385 43.3314 38.7139 45.5168L72.6279 62.9918L75.4581 51.5208L41.495 30.873Z" fill="white" stroke="#616161" stroke-width="2" stroke-linejoin="round"/>
<path d="M87.6378 52.6425L90.6649 50.7388L91.2064 49.1524L91.9939 49.8601L95.9809 48.0297L96.547 46.9314L97.2361 47.2975L101.518 44.8568L102.06 43.4169L102.577 44.027L106.761 41.2447L109.369 33.8008L77.375 52.2764L78.2118 55.5712L87.6378 52.6425Z" fill="white" stroke="#616161" stroke-width="2" stroke-linejoin="round"/>
<path d="M36.4966 41.9766L32.928 43.7094V44.5636L31.6483 44.2952L28.9164 43.9291L28.6457 46.565C28.6457 47.4192 28.375 48.127 28.6457 48.371C29.384 48.908 30.9345 49.8598 30.9345 49.8598L32.5589 49.7134L32.1897 50.5188L36.915 53.1547L38.0717 52.7642L37.8994 53.7648L42.5263 56.2055L43.3385 55.937V56.7912L47.9407 59.5735L48.9006 59.0854V60.2325L53.5274 62.6731L54.5119 62.5267L54.315 63.4297L58.8188 65.7239L59.8032 65.5287L59.9755 66.4317L64.5039 68.8723L65.9067 68.7259V69.995L69.7461 72.4357H71.2719L71.4934 73.7292L76.2434 76.5847L84.0943 68.9211L36.4966 41.9766Z" fill="white" stroke="#616161" stroke-width="2" stroke-linejoin="round"/>
<path d="M36.9162 38.3652L33.3476 40.0981V40.9767L31.994 40.6838L29.016 42.8072C29.016 42.8072 28.3515 44.1495 29.016 44.7109C29.6805 45.2722 31.3049 46.2241 31.3049 46.2241L32.9538 46.0776L32.56 46.883L37.1623 49.5433L38.319 49.1528L38.1467 50.1535L42.7736 52.7162L43.5857 52.4477V53.3019L48.3357 56.133L49.2955 55.6449V56.792L53.8977 59.2327L54.8822 59.1106L54.6853 60.0137L59.1891 62.2834L60.1735 62.0882L60.3704 62.9912L64.8742 65.4319L66.3017 65.3098V66.5546L70.141 68.9952H71.6669L71.8884 70.2887L76.6383 73.1443L84.4892 65.5051L36.9162 38.3652Z" fill="white" stroke="#616161" stroke-width="2" stroke-linejoin="round"/>
<path d="M42.1574 66.1886L45.5783 68.3608L46.735 67.5554L47.055 69.5567L50.8204 71.7777L52.051 71.0943L52.2479 72.8027L54.1675 74.438L64.701 69.1174L59.7788 66.0666L58.3022 66.9208V65.6029L54.1429 63.0158L53.4046 64.0409L52.9862 62.4301L48.9254 59.9894L48.384 60.9657L47.8179 59.5013L43.4371 56.6457L43.0434 57.6464L42.2066 56.2552L38.8103 53.8146L38.2688 54.498L38.0473 53.3021L34.0111 51.252L30.9102 52.3014L35.3401 62.7229L42.1574 66.1886Z" fill="white" stroke="#616161" stroke-width="2" stroke-linejoin="round"/>
<path d="M38.7381 68.7769L42.6759 71.2176L43.8326 72.023L49.0255 75.3422L51.2159 76.8066L53.8247 78.2466H53.5786L53.2832 77.0751L59.5098 69.4603L56.4334 68.3376L55.3752 68.8501V67.5322L51.1175 64.9451L50.3791 65.9702L49.9361 64.3594L45.8999 61.9188L45.3585 62.895L44.7924 61.4306L40.4609 58.5751L40.0671 59.5757L39.2304 58.1846L35.8094 55.744L35.2926 56.4273L35.0711 55.2314L30.5673 52.0586L28.9922 55.8904L32.4623 64.7011L38.7381 68.7769Z" fill="white" stroke="#616161" stroke-width="2" stroke-linejoin="round"/>
<path d="M88.5985 71.3876L93.1269 73.6086V74.7312L94.4559 74.3163L98.8859 77.0254L99.0336 78.0749L100.461 77.7576L103.365 76.1224L103.587 78.3922C103.745 79.3317 103.669 80.2953 103.365 81.1989C102.389 82.1542 101.288 82.9751 100.092 83.6396L98.9843 83.4443V84.3962L95.6618 85.9582C94.4884 86.2325 93.2667 86.2325 92.0933 85.9582C91.0048 85.4443 89.9667 84.8315 88.9923 84.1277L89.2876 83.3467L87.934 83.5663L83.0118 80.784V79.9786L81.9289 80.1739L75.8008 76.8302L76.1207 73.2181L83.2087 71.0215L88.5985 71.3876Z" fill="white" stroke="#616161" stroke-width="2" stroke-linejoin="round"/>
<path d="M88.3274 66.9686L92.8558 69.214V70.3123L94.1848 69.8974L98.6148 72.6065L98.7624 73.6804L100.19 73.3631L102.454 74.9495C102.454 74.9495 103.734 75.9257 103.192 76.78C102.216 77.7352 101.116 78.5561 99.9191 79.2206L98.8116 79.0253V79.9772L95.4892 81.5636C94.3152 81.8335 93.0945 81.8335 91.9206 81.5636C90.8321 81.0497 89.794 80.4369 88.8196 79.7331L89.1149 78.9765L87.7859 79.1718L82.8637 76.4139V75.6085L81.7808 75.7793L76.0957 72.7285L83.036 66.5293L88.3274 66.9686Z" fill="white" stroke="#616161" stroke-width="2" stroke-linejoin="round"/>
<path d="M40.3111 40.3671C39.8649 39.329 39.7118 38.1901 39.8681 37.0723C40.2128 35.8878 40.8968 34.8281 41.8369 34.0215" stroke="#616161" stroke-width="2" stroke-linejoin="round"/>
<path d="M91.5762 97.4285V99.8691H94.6033L96.0061 98.2339L94.7264 96.7695H92.7575L91.5762 97.4285Z" fill="white" stroke="#616161" stroke-width="2" stroke-linejoin="round"/>
<path d="M96.9681 100.505C96.4581 100.931 95.8744 101.262 95.2453 101.481C94.1839 101.608 93.108 101.542 92.0705 101.286C91.0705 100.946 90.2076 100.295 89.6094 99.4311L91.4306 98.162C91.5784 98.598 91.859 98.9777 92.2337 99.2488C92.6084 99.5198 93.0588 99.6688 93.5225 99.6752C95.0484 99.6752 95.073 99.2603 95.2207 99.0162C95.5292 98.5643 95.8662 98.1323 96.2297 97.7227L96.9681 100.505Z" fill="white" stroke="#616161" stroke-width="2" stroke-linejoin="round"/>
<path d="M81.9038 95.5752L84.6849 97.0884L85.4232 96.6003L85.7677 97.6253L90.1977 99.8951L92.2404 88.839L82.5191 81.1754L77.4492 80.1016L81.9038 95.5752Z" fill="white" stroke="#616161" stroke-width="2" stroke-linejoin="round"/>
<path d="M90.4461 99.893V96.3785L89.88 95.1826L90.8891 94.4016L90.5937 91.1555C90.6011 90.5416 90.4701 89.9338 90.2104 89.3764C89.9506 88.819 89.5687 88.3262 89.0925 87.9339C87.5912 86.9332 85.5485 85.298 85.5485 85.298L84.3918 85.6153L83.678 84.4194L79.8633 81.9787L72.8984 73.4609L79.7895 76.9266L80.9216 78.7571H82.0045L86.6806 82.052L87.1482 83.614L88.0342 82.7353L91.7751 85.42C91.7751 85.42 93.6701 87.1041 93.867 88.2756C94.0639 89.4471 94.2362 92.5955 94.2362 92.5955L93.4486 93.6206L94.5315 93.9379L94.3592 97.2327L90.4461 99.893Z" fill="white" stroke="#616161" stroke-width="2" stroke-linejoin="round"/>
<path d="M40.8535 38.0967V23.9655C42.4286 23.2577 80.6249 13.6416 80.6249 13.6416C82.6027 12.4715 84.8262 11.7699 87.1222 11.5915C90.9369 11.323 111.192 20.9147 111.192 20.9147L117.172 18.2056L117.32 24.5512L117.148 30.4332L77.2039 53.3507C76.0684 54.3525 74.6015 54.906 73.0816 54.906C71.5617 54.906 70.0948 54.3525 68.9593 53.3507C64.0371 50.007 47.6708 41.6845 47.6708 41.6845L40.8535 38.0967Z" fill="white" stroke="#616161" stroke-width="2" stroke-linejoin="round"/>
<path d="M76.0723 41.4902L76.2938 52.9856" stroke="#616161" stroke-width="2" stroke-linejoin="round"/>
<path d="M69.4531 41.1484L69.8961 53.8153" stroke="#616161" stroke-width="2" stroke-linejoin="round"/>
<path d="M78.2637 49.7149L78.1406 43.4913L78.8051 43.0764V42.0513L80.2079 41.2948L80.5771 42.2466L82.8905 40.7578L83.0136 46.6153L78.2637 49.7149Z" fill="white" stroke="#616161" stroke-width="2" stroke-linejoin="round"/>
<path d="M78.4582 45.3469L82.2729 43.1016V45.8107L78.4336 48.3733L78.4582 45.3469Z" fill="white" stroke="#616161" stroke-width="2" stroke-linejoin="round"/>
<path d="M109.961 32.1173V25.8936L110.65 25.4787V24.4049L112.053 23.6483L112.422 24.6001L114.76 23.1113L114.883 28.9933L109.961 32.1173Z" fill="white" stroke="#616161" stroke-width="2" stroke-linejoin="round"/>
<path d="M84.7344 46.1983V39.9747L85.4235 39.5842V38.5348L86.8263 37.8026L87.1955 38.73L89.5335 37.2656L89.6566 43.1231L84.7344 46.1983Z" fill="white" stroke="#616161" stroke-width="2" stroke-linejoin="round"/>
<path d="M84.9062 44.7595L88.5979 42.4653V37.877" fill="white"/>
<path d="M84.9062 44.7595L88.5979 42.4653V37.877" stroke="#616161" stroke-width="2" stroke-linejoin="round"/>
<path d="M91.0605 42.6134V36.3898L91.7497 35.9749V34.9498L93.1279 34.1932L93.5216 35.145L95.8351 33.6562V39.5382L91.0605 42.6134Z" fill="white" stroke="#616161" stroke-width="2" stroke-linejoin="round"/>
<path d="M91.2812 41.1726L94.8745 38.8784V34.168" fill="white"/>
<path d="M91.2812 41.1726L94.8745 38.8784V34.168" stroke="#616161" stroke-width="2" stroke-linejoin="round"/>
<path d="M97.3105 39.048V32.8243L97.9997 32.4338V31.3844L99.4025 30.6522L99.7716 31.5796L102.11 30.1152V35.9728L97.3105 39.048Z" fill="white" stroke="#616161" stroke-width="2" stroke-linejoin="round"/>
<path d="M97.4844 37.6824L101.078 35.3638V30.7754" fill="white"/>
<path d="M97.4844 37.6824L101.078 35.3638V30.7754" stroke="#616161" stroke-width="2" stroke-linejoin="round"/>
<path d="M103.587 35.5108L103.365 29.2872L104.054 28.8967V27.8473L105.457 27.1151L105.826 28.0425L108.287 26.5781V32.4356L103.587 35.5108Z" fill="white" stroke="#616161" stroke-width="2" stroke-linejoin="round"/>
<path d="M103.76 34.1677L107.353 31.7271V27.1875" fill="white"/>
<path d="M103.76 34.1677L107.353 31.7271V27.1875" stroke="#616161" stroke-width="2" stroke-linejoin="round"/>
<path d="M79.2223 45.2721L81.6834 44.0273C82.4904 44.6523 83.3971 45.139 84.366 45.4673C85.6074 45.6617 86.8162 46.023 87.9592 46.5412C89.8679 47.3324 91.6374 48.4199 93.2013 49.7628C94.5922 51.4436 95.8823 53.2039 97.0653 55.0346C97.6313 56.1573 101.52 65.0656 102.504 67.2378C103.489 69.4099 105.974 74.0715 106.516 75.0234C106.888 76.0424 107.095 77.1131 107.131 78.1962L105.704 79.2945L104.006 78.3671L103.636 75.1454L104.99 76.1949C103.127 73.1744 101.418 70.0628 99.8709 66.8717C99.1506 64.4777 98.2029 62.1568 97.0407 59.9403C96.175 57.7671 94.9341 55.7602 93.3736 54.0095C91.5035 51.9231 89.204 50.2586 86.6302 49.1283C84.2325 48.5843 81.8922 47.8162 79.6407 46.8341C78.9762 46.3704 79.2223 45.2721 79.2223 45.2721Z" fill="white" stroke="#616161" stroke-width="2" stroke-linejoin="round"/>
<path d="M41.1735 23.5995C41.8872 23.0626 45.3573 21.1589 45.3573 21.1589C46.9324 20.4755 80.2311 2.7565 80.2311 2.7565C81.761 1.67981 83.5975 1.11549 85.4732 1.14568C87.5196 1.73906 89.4925 2.5577 91.3553 3.58632L115.277 16.3752C115.277 16.3752 118.6 17.2783 115.892 19.1087C113.185 20.9392 76.5148 41.2697 76.5148 41.2697C76.0702 41.6423 75.5501 41.9158 74.9896 42.0716C74.4291 42.2274 73.8413 42.2619 73.2662 42.1727C71.1742 41.8127 69.1947 40.9773 67.4826 39.7321C62.3881 36.4617 41.1735 24.4049 41.1735 24.4049C41.1735 24.4049 40.4843 24.1609 41.1735 23.5995Z" fill="white" stroke="#616161" stroke-width="2" stroke-linejoin="round"/>
<path d="M63.9873 21.8164L66.2761 20.5717V19.9372L76.8589 14.3969L77.5972 14.641L79.8122 13.2254C80.1863 13.0112 80.6107 12.8984 81.0427 12.8984C81.4748 12.8984 81.8992 13.0112 82.2733 13.2254C83.5038 13.86 94.5788 19.9128 94.5788 19.9128C94.7162 19.9562 94.8409 20.0323 94.9419 20.1345C95.043 20.2366 95.1174 20.3616 95.1586 20.4987C95.1998 20.6358 95.2067 20.7808 95.1785 20.9212C95.1504 21.0615 95.0882 21.1929 94.9972 21.3039C94.3081 22.2069 79.0246 30.4807 79.0246 30.4807C78.6654 30.6433 78.2751 30.7274 77.8802 30.7274C77.4853 30.7274 77.0951 30.6433 76.7358 30.4807L64.8241 23.6225C64.8241 23.6225 63.249 22.8415 63.3228 22.5242C63.3967 22.2069 63.9873 21.8164 63.9873 21.8164Z" fill="white" stroke="#616161" stroke-width="2" stroke-linejoin="round"/>
<path d="M64.6035 22.7687L79.5916 14.6414C80.0753 14.3258 80.6373 14.1485 81.2159 14.1289C81.7494 14.1833 82.2631 14.3586 82.7172 14.6414L94.2598 21.0847L80.5268 28.7727C79.6892 29.3141 78.7775 29.7333 77.8196 30.0174C76.8811 29.775 75.9964 29.3611 75.2109 28.7971L64.6035 22.7687Z" fill="white" stroke="#616161" stroke-width="2" stroke-linejoin="round"/>
<path d="M87.491 9.29688C87.491 9.29688 85.0299 10.4196 84.4146 10.7857C83.7994 11.1518 83.1595 11.5423 83.4056 11.7863C84.1439 12.5185 97.0401 19.4255 97.0401 19.4255C97.3267 19.5673 97.6427 19.6411 97.963 19.6411C98.2833 19.6411 98.5993 19.5673 98.8859 19.4255C99.8496 19.0012 100.732 18.4149 101.495 17.6927C101.765 17.3022 101.273 16.9849 101.273 16.9849L87.491 9.29688Z" fill="white" stroke="#616161" stroke-width="2" stroke-linejoin="round"/>
<path d="M85.0547 11.8842V11.0056L88.1803 10.0781L92.3395 11.3473V12.2015L89.3124 14.2028L85.0547 11.8842Z" fill="white" stroke="#616161" stroke-width="2" stroke-linejoin="round"/>
<path d="M85.1055 10.9584L88.1818 9.15234L92.3657 11.3489L89.3386 13.3502L85.1055 10.9584Z" fill="white" stroke="#616161" stroke-width="2" stroke-linejoin="round"/>
<path d="M93.1758 16.7904V15.8386L96.3752 14.9844L100.559 16.1315V17.0833L97.5565 19.109L93.1758 16.7904Z" fill="white" stroke="#616161" stroke-width="2" stroke-linejoin="round"/>
<path d="M93.1289 15.7397L96.2053 13.9336L100.389 16.1302L97.3866 18.1315L93.1289 15.7397Z" fill="white" stroke="#616161" stroke-width="2" stroke-linejoin="round"/>
<path d="M61.157 23.6719C61.157 23.6719 58.6959 24.7946 58.0806 25.1607C57.4654 25.5268 56.8255 25.9417 57.0716 26.1857C57.8099 26.9179 70.7307 33.8249 70.7307 33.8249C71.0184 33.9631 71.3339 34.035 71.6536 34.035C71.9733 34.035 72.2888 33.9631 72.5765 33.8249C73.5379 33.4095 74.4139 32.8221 75.1607 32.0921C75.4314 31.726 74.9392 31.3843 74.9392 31.3843L61.157 23.6719Z" fill="white" stroke="#616161" stroke-width="2" stroke-linejoin="round"/>
<path d="M58.7227 26.2611V25.4069L61.8236 24.4062L65.9829 25.6998V26.6028L62.9557 28.6041L58.7227 26.2611Z" fill="white" stroke="#616161" stroke-width="2" stroke-linejoin="round"/>
<path d="M58.7715 25.3315L61.8479 23.5254L66.0563 25.722L63.0292 27.7233L58.7715 25.3315Z" fill="white" stroke="#616161" stroke-width="2" stroke-linejoin="round"/>
<path d="M66.8438 31.1654L66.7207 30.2136L69.9201 29.3594L74.1286 30.5065V31.5559L71.1015 33.5573L66.8438 31.1654Z" fill="white" stroke="#616161" stroke-width="2" stroke-linejoin="round"/>
<path d="M66.793 30.1147L69.894 28.3086L74.0778 30.5052L71.0507 32.5065L66.793 30.1147Z" fill="white" stroke="#616161" stroke-width="2" stroke-linejoin="round"/>
<path d="M11.9848 47.5664L5.95508 54.4734L6.10274 61.0143L9.35139 67.9701C9.5975 68.507 13.9536 74.633 13.9536 74.633L20.9924 80.2221L25.57 78.8553L29.3601 72.8758L28.7202 64.0651L22.9613 54.6442C22.9613 54.6442 17.0546 49.6409 16.4886 49.4701C15.9225 49.2993 11.9848 47.5664 11.9848 47.5664Z" fill="white" stroke="#616161" stroke-width="2" stroke-linejoin="round"/>
<path d="M18.7526 77.7581C18.5345 79.1577 18.6959 80.5898 19.2202 81.9071C20.0816 83.4203 24.3639 84.3478 24.3639 84.3478C24.3639 84.3478 27.711 84.1769 28.4494 83.2007C29.1877 82.2244 30.4921 81.1261 30.246 80.0034C29.9998 78.8808 26.4313 75.6591 26.4313 75.6591L21.9521 75.4883L19.6878 76.1473L18.7526 77.7581Z" fill="white" stroke="#616161" stroke-width="2" stroke-linejoin="round"/>
<path d="M23.7724 78.2695C23.3831 79.4593 23.3831 80.7407 23.7724 81.9305C24.6532 82.8754 25.763 83.5812 26.9965 83.9806" stroke="#616161" stroke-width="2" stroke-linejoin="round"/>
<path d="M3.32232 58.7213L2.46094 60.3078C2.62678 61.9343 3.07647 63.5199 3.78993 64.9938C4.62613 66.4953 5.68842 67.8615 6.94014 69.0452H10.0657L10.7548 68.5571L8.66291 63.4562L6.20181 58.8678L4.92204 57.6719L3.32232 58.7213Z" fill="white" stroke="#616161" stroke-width="2" stroke-linejoin="round"/>
<path d="M4.01106 46.3711C3.16744 47.0295 2.47874 47.8624 1.99296 48.8117C1.1925 50.9738 1.00523 53.3121 1.45152 55.5723C2.3239 56.6094 3.41636 57.4428 4.65095 58.0129L7.38277 56.8658L7.94882 52.6679L6.93977 48.8117L5.93072 46.3711H4.01106Z" fill="white" stroke="#616161" stroke-width="2" stroke-linejoin="round"/>
<path d="M11.0742 43.5644C11.1654 42.7696 11.5409 42.0335 12.1325 41.4898C13.5563 40.6301 15.2235 40.2531 16.8824 40.4159C18.0334 40.9171 19.0838 41.6198 19.9834 42.4905L13.8306 45.5657L11.0742 43.5644Z" fill="white" stroke="#616161" stroke-width="2" stroke-linejoin="round"/>
<path d="M7.20959 44.9297C7.20959 44.9297 3.96094 46.7113 3.96094 48.5418C4.02713 49.8017 4.46342 51.0149 5.2161 52.0319L12.8455 55.7661C12.8455 55.7661 9.42458 52.6177 10.1137 51.1045C10.4084 50.3648 10.8735 49.7037 11.4717 49.174C12.07 48.6443 12.7848 48.2606 13.5592 48.0537C14.5244 47.9618 15.4938 47.921 16.4633 47.9317L11.9103 44.9785L7.20959 44.9297Z" fill="white" stroke="#616161" stroke-width="2" stroke-linejoin="round"/>
<path d="M31.453 59.3548C31.453 59.3548 34.4063 56.3528 33.9141 55.6206C33.4219 54.8884 32.3144 54.9616 31.453 55.0837C30.5916 55.2057 28.4751 57.6463 28.4751 57.6463L27.6875 59.6477L31.453 59.3548Z" fill="white" stroke="#616161" stroke-width="2" stroke-linejoin="round"/>
<path d="M28.3992 58.5743C28.3992 58.5743 31.1064 58.8671 32.0417 58.0617C32.7637 57.3213 33.3994 56.5026 33.9367 55.6211C35.2549 57.1444 36.3487 58.8454 37.1853 60.6732C37.9556 62.3055 38.1212 64.1548 37.653 65.8962C35.7854 67.5497 33.7188 68.9679 31.5002 70.1185L28.3008 60.8685L28.3992 58.5743Z" fill="white" stroke="#616161" stroke-width="2" stroke-linejoin="round"/>
<path d="M36.9168 67.75C37.7003 68.2443 38.284 68.9958 38.5657 69.8733C38.9854 71.6997 38.8219 73.6102 38.0981 75.3404C37.2121 76.6583 34.9725 79.2942 33.3974 78.7328C31.8223 78.1715 31.4531 74.1201 31.4531 74.1201L31.7977 72.436L36.9168 67.75Z" fill="white" stroke="#616161" stroke-width="2" stroke-linejoin="round"/>
<path d="M20.205 43.4677C20.205 43.4677 21.6324 42.0521 22.4692 42.8819C23.3059 43.7117 24.9303 44.4439 26.21 45.5422C27.4898 46.6405 29.2126 47.812 29.4095 49.496C29.505 50.4292 29.505 51.3696 29.4095 52.3028L24.3642 54.7434L16.9809 47.5435L16.1934 45.6154L20.205 43.4677Z" fill="white" stroke="#616161" stroke-width="2" stroke-linejoin="round"/>
<path d="M22.1497 67.7517L25.0537 68.8744L29.2868 66.8242L29.8283 70.0703L25.4475 72.9502L22.7157 72.6573L21.5098 71.1197L22.1497 67.7517Z" fill="white" stroke="#616161" stroke-width="2" stroke-linejoin="round"/>
<path d="M22.1481 68.0917C22.1481 68.0917 21.0898 70.3859 22.1481 70.7764C22.7204 71.082 23.3499 71.2678 23.9976 71.3224C24.6453 71.377 25.2974 71.2991 25.9136 71.0937C27.5003 70.5211 28.7985 69.3562 29.5314 67.8477L32.337 74.4862L28.1778 79.1478C26.7589 79.1582 25.3526 78.8843 24.0431 78.3424C23.1079 77.6102 21.582 69.971 21.582 69.971L22.1481 68.0917Z" fill="white" stroke="#616161" stroke-width="2" stroke-linejoin="round"/>
<path d="M14.5442 55.0104C14.5442 55.0104 14.1258 56.7677 14.0273 57.451C14.7376 59.5995 15.9041 61.5719 17.4483 63.2353C18.4982 64.2718 19.6816 65.1663 20.9676 65.8956C21.9125 66.1422 22.9167 66.0199 23.7733 65.5539C25.2218 64.6445 26.5525 63.5626 27.7357 62.3323L20.8446 50.8613L15.3071 53.3996L14.5442 55.0104Z" fill="white" stroke="#616161" stroke-width="2" stroke-linejoin="round"/>
<path d="M16.9318 48.0539C15.6286 48.3642 14.3713 48.84 13.1909 49.4694C12.833 49.6654 12.5208 49.9341 12.2748 50.2579C12.0288 50.5818 11.8546 50.9535 11.7634 51.3487L14.766 55.0829C15.4781 54.488 16.2539 53.9723 17.0794 53.5453C18.5807 52.7155 20.8203 51.788 20.8203 51.788C21.6598 52.4406 22.4051 53.2044 23.0353 54.0578C24.0855 55.4707 24.9924 56.9831 25.7425 58.573C26.3332 59.9886 27.2684 61.9899 27.2684 61.9899L23.5521 64.7722C24.4068 66.1405 25.0458 67.6302 25.4472 69.1898C25.4472 70.2636 29.5572 67.042 29.5572 67.042C30.596 69.6401 31.3549 72.3398 31.8214 75.0961C31.5999 76.3896 27.1207 80.2458 26.3824 79.7577C25.644 79.2696 25.4964 81.3929 25.4964 81.3929L32.3875 78.3909L33.1504 74.0466L37.0635 70.7762L36.2268 67.1152L32.289 69.4338C31.7479 67.3426 31.0062 65.3076 30.074 63.3566C29.0746 61.8224 28.1785 60.2244 27.3914 58.573L31.28 55.449C30.5029 53.8629 29.6061 52.3372 28.5974 50.885C27.9329 50.2748 24.2166 53.2036 24.2166 53.2036C24.2166 53.2036 18.4822 46.321 16.8333 46.1746C15.1844 46.0281 19.9343 43.075 19.9343 43.075C19.0526 42.6818 18.1487 42.3396 17.2271 42.0499C16.538 41.9035 13.2401 44.1244 13.2401 44.1244L10.779 43.8804L9.22852 44.8078L14.766 46.8091L16.9318 48.0539Z" fill="white" stroke="#616161" stroke-width="2" stroke-linejoin="round"/>
<path d="M28.3758 48.0293C28.3758 48.0293 25.4717 48.249 24.4872 50.1282C24.2113 50.6166 24.0664 51.167 24.0664 51.7269C24.0664 52.2867 24.2113 52.8371 24.4872 53.3255" stroke="#616161" stroke-width="2" stroke-linejoin="round"/>
<path d="M10.827 70.9245C10.827 70.9245 9.74414 73.0723 10.1625 73.9509C11.6933 76.2818 13.5123 78.4136 15.5769 80.2965C16.5368 80.7114 18.3826 81.5169 18.8994 80.687C19.1536 79.4797 19.1536 78.2334 18.8994 77.0261L11.5161 69.9727L10.827 70.9245Z" fill="white" stroke="#616161" stroke-width="2" stroke-linejoin="round"/>
<path d="M9.42578 69.5566C9.42578 69.5566 9.6965 71.6556 10.4348 71.2651C10.8998 70.972 11.2411 70.5207 11.3947 69.996C13.8528 72.0293 16.1561 74.24 18.2857 76.6101C18.5497 77.3977 18.6908 78.2208 18.7041 79.0507C18.7041 79.0507 19.1225 76.2196 20.107 75.7559C20.9212 75.535 21.7862 75.5865 22.568 75.9023" stroke="#616161" stroke-width="2" stroke-linejoin="round"/>
<path d="M9.22943 69.9722C9.22943 69.9722 10.7307 69.1912 11.0753 69.4353C10.9107 67.9186 10.4421 66.4499 9.69704 65.1154C9.03255 64.1391 6.81756 58.843 5.90695 58.5501C4.99634 58.2572 4.99634 59.8192 4.28262 59.5507C4.14509 59.4681 4.03136 59.3517 3.95243 59.2127C3.8735 59.0738 3.83203 58.917 3.83203 58.7575C3.83203 58.5981 3.8735 58.4413 3.95243 58.3023C4.03136 58.1634 4.14509 58.047 4.28262 57.9643C4.72562 57.7447 5.39012 58.306 5.39012 58.306C5.78319 58.3117 6.17024 58.2099 6.50885 58.0119C6.84746 57.8138 7.12456 57.5272 7.30978 57.1833C7.86318 55.9475 7.97601 54.5617 7.62972 53.2539" stroke="#616161" stroke-width="2" stroke-linejoin="round"/>
<path d="M6.89062 58.94C8.29215 58.8582 9.69846 58.9566 11.0745 59.2329C12.4291 59.3633 13.714 59.89 14.7661 60.7461" stroke="#616161" stroke-width="2" stroke-linejoin="round"/>
<path d="M15.3078 60.2344C14.8512 61.3403 14.7481 62.5586 15.0125 63.7245C15.4497 64.7364 16.0666 65.6622 16.8337 66.458C16.8337 66.458 19.6885 68.3373 20.4761 67.7271C21.0248 67.3194 21.4088 66.7309 21.559 66.0675" stroke="#616161" stroke-width="2" stroke-linejoin="round"/>
<path d="M11.3711 69.4824L15.8503 66.2852" stroke="#616161" stroke-width="2" stroke-linejoin="round"/>
<path d="M62.9043 89.5213C58.9912 82.6387 47.5963 79.7588 48.4085 75.2192C50.1956 72.7284 52.5476 70.6887 55.2749 69.264C56.6223 68.4948 58.0297 67.8337 59.4834 67.2871C63.9872 64.8221 73.1671 70.7772 78.7538 80.5398C84.3405 90.3023 85.3742 101.188 80.9934 103.653C80.3781 103.994 78.5323 105.654 76.2927 107.094C74.0531 108.534 70.7306 110.169 69.7708 109.827C65.5131 108.29 66.8667 96.4527 62.9043 89.5213Z" fill="white" stroke="#616161" stroke-width="2" stroke-linejoin="round"/>
<path d="M52.6679 95.7438C47.032 85.9813 46.0229 75.8526 50.4037 73.3876C54.7845 70.9226 62.9307 76.9509 68.5666 86.8355C74.2025 96.7201 75.2116 106.751 70.8308 109.216C66.4501 111.681 58.3038 105.628 52.6679 95.7438Z" fill="white" stroke="#616161" stroke-width="2" stroke-linejoin="round"/>
<path d="M54.661 95.4016C49.9849 88.2749 49.0497 80.7578 52.5691 78.3171C56.0885 75.8765 62.7334 79.9767 67.3357 87.1034C71.9379 94.23 72.947 101.747 69.4276 104.188C65.9083 106.628 59.3371 102.504 54.661 95.4016Z" fill="white" stroke="#616161" stroke-width="2" stroke-linejoin="round"/>
<path d="M58.1305 94.1103C54.2912 88.2772 53.2083 82.2 55.8663 80.5404C58.5243 78.8808 63.668 82.2488 67.4827 88.0819C71.2974 93.9151 72.4049 99.9922 69.7223 101.652C67.0397 103.311 61.9452 100.065 58.1305 94.1103Z" fill="white" stroke="#616161" stroke-width="2" stroke-linejoin="round"/>
<path d="M59.6076 91.7185C59.1462 90.9586 58.798 90.1366 58.5739 89.2779C58.1216 88.1663 57.9789 86.9545 58.1607 85.7694C58.3426 84.5844 58.8423 83.4696 59.6076 82.5417C61.2811 81.4922 64.5298 83.7132 66.9909 87.423C69.4519 91.1327 69.9688 95.1354 68.2952 96.1849C66.6217 97.2343 63.373 95.7455 61.2811 93.4513C60.6711 92.9256 60.1109 92.3456 59.6076 91.7185Z" fill="white" stroke="#616161" stroke-width="2" stroke-linejoin="round"/>
<path d="M58.4501 92.2548C58.28 91.9924 58.1553 91.7037 58.0809 91.4006C57.9182 90.9979 57.8666 90.5595 57.9315 90.1305C57.9964 89.7016 58.1754 89.2975 58.4501 88.9599C59.0654 88.5694 60.2467 89.3748 61.1081 90.7416C61.9695 92.1083 62.191 93.5239 61.6003 93.89C61.0097 94.2561 59.8037 93.7436 59.1392 92.9137C58.8838 92.7221 58.6525 92.5009 58.4501 92.2548Z" fill="white" stroke="#616161" stroke-width="2" stroke-linejoin="round"/>
<path d="M56.2606 93.5964C56.0181 93.2827 55.8194 92.9379 55.6699 92.5714C55.6699 92.2297 58.131 90.7409 58.4264 90.6189C58.7217 90.4968 59.3862 90.6189 59.8046 91.3999C60.223 92.1809 60.2722 92.7666 59.8046 92.9863C59.337 93.2059 57.2204 95.0852 56.9005 94.7924C56.6628 94.407 56.4492 94.0076 56.2606 93.5964Z" fill="white" stroke="#616161" stroke-width="2" stroke-linejoin="round"/>
<path d="M55.7934 93.9878C55.3751 93.3532 55.3258 92.6455 55.7934 92.4258C56.2611 92.2061 56.7533 92.5478 57.1717 93.2068C57.59 93.8658 57.6393 94.5736 57.1717 94.7932C56.704 95.0129 56.2118 94.6468 55.7934 93.9878Z" fill="white" stroke="#616161" stroke-width="2" stroke-linejoin="round"/>
<path d="M76.2935 73.9018L88.599 66.3602L87.8361 56.9882L86.9501 56.6953L87.7869 55.4018V51.692L83.16 50.4473L74.6692 55.7923L73.5371 61.3813L74.3739 66.5554L76.2935 73.9018Z" fill="white" stroke="#616161" stroke-width="2" stroke-linejoin="round"/>
<path d="M73.4619 71.9494L76.1445 73.8775L75.3077 64.5055L76.2183 63.6269L75.1108 62.6506C74.9296 61.2308 75.0215 59.7898 75.3815 58.4039C76.6844 56.6943 78.3693 55.3075 80.3037 54.3525C80.6105 54.2487 80.9419 54.2398 81.254 54.3269C81.566 54.4141 81.844 54.5932 82.0511 54.8406L82.248 53.4738C83.1709 52.6633 84.207 51.9892 85.3244 51.4725C86.1482 51.2646 87.0195 51.351 87.7855 51.7166C86.8668 50.7708 85.7492 50.0375 84.5122 49.5688C84.2487 49.428 83.9487 49.3685 83.6508 49.398C82.2849 49.6276 81.0036 50.2082 79.9346 51.082C79.3931 51.741 78.9009 52.2779 78.9009 52.2779C78.9009 52.2779 78.6794 51.6434 76.8582 52.6928C75.037 53.7423 73.831 54.1328 73.0435 55.9633C72.5707 57.8208 72.4538 59.7497 72.6989 61.65L73.7572 62.4066L72.6251 63.1632L73.4619 71.9494Z" fill="white" stroke="#616161" stroke-width="2" stroke-linejoin="round"/>
<path d="M77.4735 64.9914C77.496 64.8206 77.5587 64.6574 77.6565 64.5151C77.7543 64.3727 77.8845 64.2552 78.0365 64.1719C78.1886 64.0887 78.3583 64.0421 78.5319 64.0359C78.7055 64.0297 78.8781 64.0641 79.0358 64.1362C79.1936 64.2084 79.3319 64.3164 79.4398 64.4514C79.5477 64.5864 79.622 64.7447 79.6568 64.9135C79.6916 65.0823 79.6858 65.2568 79.6401 65.423C79.5943 65.5891 79.5097 65.7423 79.3932 65.8701C79.3707 66.0409 79.3081 66.2041 79.2103 66.3464C79.1125 66.4888 78.9823 66.6063 78.8302 66.6896C78.6781 66.7728 78.5084 66.8194 78.3348 66.8256C78.1612 66.8318 77.9886 66.7974 77.8309 66.7253C77.6732 66.6531 77.5348 66.5451 77.4269 66.4101C77.319 66.2751 77.2447 66.1168 77.2099 65.948C77.1751 65.7792 77.1809 65.6047 77.2267 65.4385C77.2725 65.2724 77.357 65.1192 77.4735 64.9914Z" fill="white" stroke="#616161" stroke-width="2" stroke-linejoin="round"/>
<path d="M76.9827 57.9876C77.3272 57.2798 78.0409 56.8893 78.5578 57.1334C78.8309 57.3213 79.0196 57.6072 79.0839 57.9306C79.1482 58.254 79.0831 58.5896 78.9023 58.8662C78.5824 59.5984 77.8687 59.9889 77.3518 59.7449C77.0778 59.5524 76.8874 59.2642 76.819 58.9382C76.7505 58.6122 76.809 58.2726 76.9827 57.9876Z" fill="white" stroke="#616161" stroke-width="2" stroke-linejoin="round"/>
<path d="M80.6757 59.5989C81.0203 58.8912 81.7094 58.5007 82.2508 58.7447C82.5208 58.9408 82.7063 59.2307 82.7701 59.5564C82.834 59.8822 82.7716 60.2199 82.5954 60.502C82.4931 60.8173 82.2727 61.0816 81.9796 61.2405C81.6866 61.3995 81.3432 61.4409 81.0203 61.3562C80.7503 61.1601 80.5649 60.8702 80.501 60.5445C80.4371 60.2187 80.4995 59.8811 80.6757 59.5989Z" fill="white" stroke="#616161" stroke-width="2" stroke-linejoin="round"/>
<path d="M83.9726 53.9622C84.3172 53.2544 85.0063 52.8639 85.5477 53.108C85.8177 53.3041 86.0031 53.594 86.067 53.9197C86.1309 54.2455 86.0685 54.5831 85.8923 54.8653C85.5477 55.573 84.8586 55.9635 84.3172 55.7195C84.0472 55.5234 83.8617 55.2335 83.7979 54.9078C83.734 54.582 83.7964 54.2443 83.9726 53.9622Z" fill="white" stroke="#616161" stroke-width="2" stroke-linejoin="round"/>
<path d="M84.4651 61.013C84.8096 60.3052 85.4987 59.9147 86.0402 60.1588C86.3133 60.3467 86.502 60.6326 86.5663 60.956C86.6306 61.2794 86.5655 61.615 86.3847 61.8916C86.0648 62.6238 85.3511 63.0143 84.8343 62.7703C84.5602 62.5778 84.3699 62.2896 84.3014 61.9636C84.2329 61.6376 84.2914 61.298 84.4651 61.013Z" fill="white" stroke="#616161" stroke-width="2" stroke-linejoin="round"/>
<path d="M81.2157 66.3353C81.5603 65.6275 82.2494 65.237 82.7908 65.481C83.059 65.6728 83.2438 65.9584 83.3077 66.2801C83.3717 66.6018 83.3101 66.9355 83.1354 67.2139C83.1129 67.3847 83.0503 67.5479 82.9525 67.6903C82.8547 67.8326 82.7245 67.9502 82.5724 68.0334C82.4203 68.1167 82.2506 68.1633 82.077 68.1695C81.9034 68.1757 81.7308 68.1413 81.5731 68.0691C81.4154 67.9969 81.277 67.8889 81.1691 67.7539C81.0612 67.6189 80.9869 67.4606 80.9521 67.2918C80.9173 67.123 80.9231 66.9485 80.9689 66.7824C81.0147 66.6162 81.0992 66.463 81.2157 66.3353Z" fill="white" stroke="#616161" stroke-width="2" stroke-linejoin="round"/>
<path d="M111.39 52.3987L122.096 45.8578L121.653 37.462L120.841 37.0959L121.579 36.0708V32.5807L117.567 31.5801L110.012 36.3149L109.027 41.1962L109.766 45.7846L111.39 52.3987Z" fill="white" stroke="#616161" stroke-width="2" stroke-linejoin="round"/>
<path d="M108.804 50.6664L111.265 52.3992L110.502 44.0767L111.339 43.2712L110.354 42.417C110.189 41.1534 110.264 39.8702 110.576 38.634C111.727 37.1186 113.218 35.8901 114.932 35.0463C115.205 34.956 115.499 34.9497 115.776 35.0281C116.052 35.1065 116.299 35.2659 116.482 35.4856L116.655 34.2653C117.477 33.5474 118.396 32.9477 119.386 32.4836C120.161 32.3239 120.968 32.4543 121.651 32.8497C121.619 32.5821 121.528 32.3248 121.383 32.0967C121.238 31.8687 121.044 31.6757 120.814 31.5318C120.041 31.0042 119.216 30.5546 118.353 30.1895C116.947 30.6921 115.602 31.3469 114.341 32.142C114.08 32.4519 113.879 32.808 113.751 33.1914C113.751 33.1914 113.578 32.6545 111.954 33.5575C110.33 34.4606 109.271 34.8511 108.558 36.4619C108.095 38.0957 107.936 39.7994 108.09 41.4896L109.05 42.173L108.041 42.8563L108.804 50.6664Z" fill="white" stroke="#616161" stroke-width="2" stroke-linejoin="round"/>
<path d="M112.372 44.4912C112.668 43.8566 113.283 43.5149 113.751 43.7346C113.968 43.9227 114.117 44.1758 114.177 44.4557C114.236 44.7355 114.202 45.0269 114.08 45.2859C113.958 45.5449 113.754 45.7575 113.499 45.8915C113.244 46.0255 112.952 46.0737 112.668 46.0288C112.546 45.9478 112.441 45.8436 112.36 45.7221C112.279 45.6007 112.223 45.4644 112.195 45.3213C112.168 45.1782 112.169 45.0311 112.2 44.8886C112.23 44.7461 112.289 44.611 112.372 44.4912Z" fill="white" stroke="#616161" stroke-width="2" stroke-linejoin="round"/>
<path d="M111.931 38.2673C111.954 38.1182 112.011 37.9763 112.099 37.853C112.187 37.7297 112.302 37.6282 112.436 37.5565C112.57 37.4848 112.719 37.445 112.871 37.44C113.023 37.435 113.175 37.4651 113.313 37.5278C113.451 37.5906 113.573 37.6843 113.669 37.8016C113.765 37.919 113.832 38.0567 113.865 38.2041C113.898 38.3514 113.896 38.5043 113.859 38.6508C113.822 38.7973 113.752 38.9334 113.653 39.0483C113.358 39.7073 112.718 40.049 112.251 39.8293C112.008 39.6571 111.841 39.4003 111.781 39.1106C111.722 38.8209 111.775 38.5197 111.931 38.2673Z" fill="white" stroke="#616161" stroke-width="2" stroke-linejoin="round"/>
<path d="M115.204 39.7068C115.227 39.5576 115.285 39.4158 115.373 39.2925C115.46 39.1691 115.576 39.0676 115.71 38.996C115.844 38.9243 115.993 38.8844 116.145 38.8794C116.297 38.8745 116.448 38.9045 116.586 38.9673C116.725 39.03 116.847 39.1238 116.942 39.2411C117.038 39.3584 117.105 39.4962 117.138 39.6435C117.171 39.7909 117.169 39.9438 117.133 40.0903C117.096 40.2368 117.025 40.3728 116.927 40.4878C116.831 40.7664 116.635 41.0001 116.376 41.1442C116.117 41.2883 115.814 41.3327 115.524 41.2688C115.282 41.0965 115.114 40.8398 115.055 40.5501C114.996 40.2604 115.049 39.9592 115.204 39.7068Z" fill="white" stroke="#616161" stroke-width="2" stroke-linejoin="round"/>
<path d="M118.131 34.7045C118.222 34.4237 118.418 34.1885 118.68 34.0476C118.941 33.9067 119.247 33.871 119.534 33.9479C119.775 34.1156 119.941 34.3701 119.996 34.6572C120.051 34.9443 119.991 35.2415 119.829 35.4855C119.811 35.6385 119.756 35.7851 119.669 35.9131C119.583 36.0411 119.467 36.147 119.331 36.2221C119.195 36.2972 119.044 36.3393 118.888 36.3451C118.733 36.3508 118.578 36.32 118.437 36.2552C118.296 36.1903 118.173 36.0933 118.077 35.972C117.981 35.8507 117.915 35.7086 117.886 35.5573C117.856 35.406 117.862 35.2499 117.905 35.1017C117.948 34.9534 118.025 34.8173 118.131 34.7045Z" fill="white" stroke="#616161" stroke-width="2" stroke-linejoin="round"/>
<path d="M118.575 40.8549C118.666 40.5741 118.862 40.3389 119.124 40.198C119.385 40.0571 119.691 40.0214 119.978 40.0983C120.223 40.2622 120.394 40.515 120.454 40.8024C120.514 41.0898 120.458 41.3889 120.298 41.6359C119.978 42.2704 119.363 42.6121 118.895 42.3925C118.655 42.2245 118.488 41.9721 118.428 41.6864C118.369 41.4008 118.421 41.1035 118.575 40.8549Z" fill="white" stroke="#616161" stroke-width="2" stroke-linejoin="round"/>
<path d="M115.67 45.6865C115.966 45.0519 116.581 44.7103 117.049 44.9299C117.333 44.9627 117.6 45.0842 117.811 45.2771C118.022 45.47 118.165 45.7242 118.221 46.0031C118.276 46.2821 118.241 46.5713 118.12 46.8291C117.999 47.0869 117.799 47.3 117.548 47.4377C117.297 47.5754 117.009 47.6306 116.725 47.5953C116.44 47.56 116.174 47.436 115.965 47.2412C115.757 47.0464 115.615 46.7909 115.562 46.5115C115.509 46.2321 115.547 45.9432 115.67 45.6865Z" fill="white" stroke="#616161" stroke-width="2" stroke-linejoin="round"/>
<path d="M109.961 27.1869L113.628 25.1367L113.8 27.919L110.059 30.018L109.961 27.1869Z" fill="white" stroke="#616161" stroke-width="2" stroke-linejoin="round"/>
<path d="M110.749 27.7476L113.21 26.332C114.095 26.9088 114.919 27.571 115.671 28.3089C116.139 28.9435 116.582 29.6513 116.582 29.6513C116.582 29.6513 113.85 32.5801 113.137 33.3122C111.809 35.2007 110.734 37.2516 109.937 39.4138C109.593 40.6341 108.485 50.3723 109.223 52.1783C109.962 53.9844 110.331 54.1797 111.561 54.4725C112.792 54.7654 114.589 54.4725 115.819 55.9369C117.123 58.02 117.915 60.3774 118.133 62.8195C118.133 64.4791 118.526 69.214 117.542 70.5075C116.557 71.801 114.81 72.9481 114.096 72.46C113.679 72.1992 113.208 72.0326 112.718 71.9719L112.497 70.1414L113.653 69.3116H114.712C114.712 69.3116 115.278 69.0675 115.376 67.4323C115.512 65.1617 115.454 62.8839 115.204 60.6229C115.082 60.1381 114.833 59.6936 114.483 59.3338C114.133 58.974 113.695 58.7116 113.21 58.5728C112.177 58.1579 107.599 57.084 106.762 55.3023C105.829 53.035 105.248 50.6403 105.04 48.2001C104.849 45.3396 105.191 42.4688 106.049 39.7311C106.818 36.9935 107.873 34.3431 109.199 31.8235C110.405 30.3591 111.094 29.3828 111.094 29.3828L110.749 29.2852V27.7476Z" fill="white" stroke="#616161" stroke-width="2" stroke-linejoin="round"/>
<path d="M97.1885 100.259C96.2891 99.8205 95.4598 99.2531 94.7274 98.5747C94.3879 97.9829 94.0838 97.3716 93.8168 96.7443V93.303L94.3829 92.522L93.5215 91.9606L93.9399 88.3241C94.1683 87.7735 94.4841 87.2627 94.8751 86.8109C96.116 85.7088 97.4228 84.6819 98.7882 83.7357L99.502 84.2482L99.8219 83.1255L104.744 80.0748L105.212 80.8313L105.581 79.611L110.503 76.5358L110.848 77.3656L111.34 76.0965L115.671 73.2166L116.41 73.8267L116.705 72.8993L121.627 69.9461L121.923 70.3854L122.316 69.5556L126.894 66.5048L127.435 66.993L127.952 66.1387L132.505 63.2832L133.022 63.7469L133.514 62.7218C134.474 61.9514 135.544 61.3264 136.689 60.867C137.944 60.5253 137.723 60.867 138.83 61.4283C139.938 61.9897 141.291 62.6486 141.291 63.4052C141.291 64.1618 138.043 65.2845 138.043 65.2845L137.083 66.578H138.166L137.846 69.8241C137.534 70.846 136.986 71.7818 136.246 72.5576C135.327 73.3411 134.366 74.0744 133.367 74.7542L132.628 74.3393L132.235 75.4131L127.534 78.0978L126.82 77.5853L126.648 78.5616L122.095 81.6123L121.48 81.0022L120.987 82.1737L116.68 84.9316L116.016 84.3947L115.499 85.615L111.094 88.2509L110.405 87.6407L110.109 88.7146L105.187 91.985L104.596 91.3261L104.178 92.4488L99.8219 95.1823L99.1574 94.6453L98.8375 95.5728L99.0343 99.2337C98.5256 99.737 97.887 100.092 97.1885 100.259Z" fill="white" stroke="#616161" stroke-width="2" stroke-linejoin="round"/>
<path d="M98.4435 99.626C97.7051 99.626 97.2621 98.4545 97.2621 98.4545V94.9888L97.8036 94.2322L96.9668 93.6708L97.3852 90.0343C97.6076 89.4807 97.9239 88.9689 98.3204 88.5211C99.5194 87.4226 100.776 86.3879 102.086 85.4215L102.824 85.9584L103.144 84.8357L108.066 81.7849L108.534 82.5415L108.903 81.3212L113.825 78.246L114.145 79.0758L114.662 77.8067L119.018 74.878L119.757 75.4881L120.027 74.5607L124.949 71.6075L125.245 72.0468L125.639 71.217L130.216 68.1662L130.758 68.6299L131.275 67.8001L135.828 64.9446L136.344 65.4083L136.812 64.3588L139.864 62.6016C139.864 62.6016 141.267 62.6016 141.291 63.5778C141.316 64.5541 141.291 66.9459 141.291 66.9459L140.282 68.3371H141.34L141.045 71.5831C140.728 72.6029 140.181 73.5377 139.445 74.3166C138.526 75.1001 137.565 75.8334 136.566 76.5132L135.828 76.0739L135.409 77.1477L130.955 79.8324L130.216 79.3199L130.069 80.2962L125.516 83.2737L124.9 82.6636L124.408 83.8351L120.101 86.6174L119.412 86.0805L118.92 87.3252L114.514 89.9611L113.825 89.3509L113.53 90.4248L108.608 93.6952L107.993 93.0363L107.574 94.159L103.095 96.9413L102.455 96.4043L102.11 97.3074L100.166 98.5277C100.166 98.5277 99.1818 99.6504 98.4435 99.626Z" fill="white" stroke="#616161" stroke-width="2" stroke-linejoin="round"/>
</g>
<defs>
<clipPath id="clip0_827_13225">
<rect width="155" height="111" fill="white"/>
</clipPath>
</defs>
</svg>
