<svg width="130" height="127" viewBox="0 0 130 127" fill="none" xmlns="http://www.w3.org/2000/svg">
<g clip-path="url(#clip0_827_13347)">
<path d="M12.8742 69.2769C15.0118 61.3472 21.052 55.2569 25.7499 56.5744C28.2858 57.2347 30.7076 58.2738 32.9334 59.6568C35.4191 62.8884 31.5166 68.0588 29.9009 74.0745C28.5587 79.0461 27.9373 85.1861 24.9296 87.0753C23.2145 88.169 19.2872 86.5284 17.5969 86.0312C12.8493 84.7138 10.7613 77.2066 12.8742 69.2769Z" fill="white" stroke="#616161" stroke-width="2" stroke-linejoin="round"/>
<path d="M18.1211 70.571C20.2339 62.6413 25.7521 57.272 30.5494 58.5894C35.3467 59.9069 37.3353 67.4141 35.2225 75.3438C33.1096 83.2735 27.5915 88.6429 22.7942 87.3254C17.9968 86.0079 16.0083 78.5008 18.1211 70.571Z" fill="white" stroke="#616161" stroke-width="2" stroke-linejoin="round"/>
<path d="M84.0162 58.4395L81.6797 57.5695L82.2017 45.8365L85.5822 44.2207L84.0162 58.4395Z" fill="white" stroke="#616161" stroke-width="2" stroke-linejoin="round"/>
<path d="M35.3702 55.7066C37.5079 47.7768 43.5481 41.6866 48.246 43.0041C50.7819 43.6644 53.2037 44.7035 55.4295 46.0865C57.9152 49.318 54.0127 54.4885 52.397 60.5042C51.0548 65.4758 50.4333 71.6157 47.4257 73.505C45.7106 74.5987 41.7832 72.9581 40.093 72.4609C35.3454 71.1434 33.2574 63.6612 35.3702 55.7066Z" fill="white" stroke="#616161" stroke-width="2" stroke-linejoin="round"/>
<path d="M40.6162 56.9984C42.729 49.0687 48.2472 43.6993 53.0445 45.0416C57.8418 46.384 59.8304 53.8414 57.7176 61.796C55.6047 69.7506 50.0866 75.0702 45.2893 73.7527C40.4919 72.4353 38.4785 64.9281 40.6162 56.9984Z" fill="white" stroke="#616161" stroke-width="2" stroke-linejoin="round"/>
<path d="M72.7812 25.5784C73.2534 21.9988 74.894 19.2645 76.4848 19.4633C78.0756 19.6622 78.9705 22.7694 78.4982 26.349C78.0259 29.9286 76.3854 32.6878 74.8194 32.4641C73.2534 32.2404 72.3338 29.1828 72.7812 25.5784Z" fill="white" stroke="#616161" stroke-width="2" stroke-linejoin="round"/>
<path d="M73.6495 25.7015C74.0969 22.1219 75.7623 19.3875 77.3283 19.5864C78.8942 19.7852 79.8139 22.8925 79.3665 26.4721C78.9191 30.0516 77.2537 32.8109 75.6629 32.5871C74.0721 32.3634 73.1772 29.3059 73.6495 25.7015Z" fill="white" stroke="#616161" stroke-width="2" stroke-linejoin="round"/>
<path d="M76.1612 26.3231C76.6086 22.7435 78.274 19.9843 79.8649 20.208C81.4557 20.4317 82.3505 23.5141 81.8782 27.0937C81.406 30.6733 79.7654 33.4325 78.1746 33.2088C76.5838 32.9851 75.6889 29.8281 76.1612 26.3231Z" fill="white" stroke="#616161" stroke-width="2" stroke-linejoin="round"/>
<path d="M77.0548 26.4481C77.5271 22.8685 79.1676 20.1093 80.7584 20.333C82.3493 20.5567 83.2441 23.6391 82.7718 27.2187C82.2996 30.7983 80.659 33.5575 79.093 33.3338C77.5271 33.1101 76.5577 30.0525 77.0548 26.4481Z" fill="white" stroke="#616161" stroke-width="2" stroke-linejoin="round"/>
<path d="M78.3241 27.3421C78.7964 23.7625 80.437 21.0281 82.0278 21.227C83.6186 21.4259 84.5134 24.5331 84.066 28.1127C83.6186 31.6923 81.9284 34.4515 80.3624 34.2526C78.7964 34.0538 77.8767 30.8471 78.3241 27.3421Z" fill="white" stroke="#616161" stroke-width="2" stroke-linejoin="round"/>
<path d="M79.1925 27.3421C79.6399 23.7625 81.3053 21.0281 82.8712 21.227C84.4372 21.4259 85.3569 24.5331 84.9095 28.1127C84.4621 31.6923 82.7967 34.4515 81.2058 34.2526C79.615 34.0538 78.7202 30.9714 79.1925 27.3421Z" fill="white" stroke="#616161" stroke-width="2" stroke-linejoin="round"/>
<path d="M83.965 63.7107V53.7675C83.965 53.7675 84.2882 53.3946 84.3876 53.4692L83.791 52.8478L84.2881 35.1985L87.2958 34.8008L87.4201 53.1212L86.749 53.5189L87.4449 53.8918L87.1964 64.9785H83.9402L83.965 63.7107Z" fill="white" stroke="#616161" stroke-width="2" stroke-linejoin="round"/>
<path d="M88.216 13.7437C88.216 13.7437 90.0057 13.172 90.7017 14.0172C91.3976 14.8623 90.7016 63.7333 90.4034 64.8768C90.1051 66.0203 87.4951 63.3108 87.2466 64.5039C87.0974 65.2745 87.2466 47.2524 87.7437 32.3624C87.7437 31.9647 88.3403 31.741 88.3403 31.3432C88.3403 30.9455 87.6691 30.7715 87.694 30.3241C87.7934 23.0904 88.216 13.7437 88.216 13.7437Z" fill="white" stroke="#616161" stroke-width="2" stroke-linejoin="round"/>
<path d="M101.912 33.4575C102.061 34.079 102.285 34.2281 102.285 34.2281L101.713 45.5137C101.713 45.5137 100.421 48.3227 98.9044 48.6707C97.2174 48.6995 95.5373 48.4475 93.933 47.9249L86.998 46.1849V33.2835C86.998 33.2835 98.9044 31.9412 101.912 32.1152C102.26 32.14 101.912 32.8361 101.912 33.4575Z" fill="white" stroke="#616161" stroke-width="2" stroke-linejoin="round"/>
<path d="M99.6235 34.1797C99.6235 34.1797 99.4246 36.4666 98.7038 37.0135C98.4336 38.1447 98.3746 39.3161 98.5298 40.4688C98.5298 43.6009 98.5298 47.6776 98.5298 47.6776C98.5298 47.6776 99.6981 47.6776 99.3998 48.1251" fill="white"/>
<path d="M99.6235 34.1797C99.6235 34.1797 99.4246 36.4666 98.7038 37.0135C98.4336 38.1447 98.3746 39.3161 98.5298 40.4688C98.5298 43.6009 98.5298 47.6776 98.5298 47.6776C98.5298 47.6776 99.6981 47.6776 99.3998 48.1251" stroke="#616161" stroke-width="2" stroke-linejoin="round"/>
<path d="M96.9414 34.998V48.6203" stroke="#616161" stroke-width="2" stroke-linejoin="round"/>
<path d="M87.4199 33.0842L91.8195 30.1758L101.911 32.3136L98.0586 35.2965L89.7067 33.5813L87.4199 33.0842Z" fill="white" stroke="#616161" stroke-width="2" stroke-linejoin="round"/>
<path d="M71.7112 59.9557L70.8164 38.9258L67.3613 49.1922L67.8585 59.9806L71.7112 59.9557Z" fill="white" stroke="#616161" stroke-width="2" stroke-linejoin="round"/>
<path d="M111.854 68.4824L111.581 76.5116L109.518 78.9974L108.275 74.0258L108.076 69.5762L111.854 68.4824Z" fill="white" stroke="#616161" stroke-width="2" stroke-linejoin="round"/>
<path d="M78.7702 74.5742L71.5867 87.7739L68.8027 87.4258L73.8983 77.06L78.7702 74.5742Z" fill="white" stroke="#616161" stroke-width="2" stroke-linejoin="round"/>
<path d="M100.992 74.0764L108.872 67.6133L111.855 68.2596L103.354 75.717L100.992 74.0764Z" fill="white" stroke="#616161" stroke-width="2" stroke-linejoin="round"/>
<path d="M90.4788 94.608L103.628 80.9112L99.7752 77.9531L87.496 91.2771L86.1289 93.7629L90.4788 94.608Z" fill="white" stroke="#616161" stroke-width="2" stroke-linejoin="round"/>
<path d="M45.4119 55.3563C46.953 51.727 50.5075 49.2661 53.0429 50.1858C53.7192 50.3856 54.3576 50.6964 54.932 51.1056C56.3985 52.6219 55.802 55.754 54.5592 58.563C53.0429 62.1923 49.7618 64.3549 47.2265 63.5346C44.6911 62.7143 43.8957 58.9607 45.4119 55.3563Z" fill="white" stroke="#616161" stroke-width="2" stroke-linejoin="round"/>
<path d="M46.8789 55.7062C48.3951 52.1018 51.6762 49.9142 54.2116 50.7346C56.7469 51.5549 57.5423 55.3333 56.0261 58.9377C54.5098 62.5422 51.2039 64.7297 48.6934 63.9093C46.1829 63.089 45.3626 59.3355 46.8789 55.7062Z" fill="white" stroke="#616161" stroke-width="2" stroke-linejoin="round"/>
<path d="M34.7981 61.9449C36.3143 58.3404 39.8937 55.8546 42.4042 56.7744C43.0784 56.9795 43.716 57.2899 44.2933 57.6941C45.7847 59.2105 45.1633 62.3675 43.9453 65.2759C42.429 68.8803 39.148 71.0678 36.6126 70.2475C34.0772 69.4272 33.3315 65.5493 34.7981 61.9449Z" fill="white" stroke="#616161" stroke-width="2" stroke-linejoin="round"/>
<path d="M36.2896 62.3175C37.8308 58.7131 41.1118 56.5256 43.7466 57.3459C46.3814 58.1662 47.1023 61.9198 45.5612 65.5242C44.02 69.1286 40.7638 71.3161 38.1042 70.4958C35.4445 69.6755 34.7982 65.9219 36.2896 62.3175Z" fill="white" stroke="#616161" stroke-width="2" stroke-linejoin="round"/>
<path d="M23.0413 70.6207C24.7067 66.2456 28.5843 63.1632 31.3434 64.3813C32.0867 64.6296 32.7838 64.9992 33.4065 65.475C35.0222 67.3145 34.3759 71.1178 33.0337 74.6228C31.3683 78.973 27.7889 81.6079 25.0298 80.5142C22.2707 79.4204 21.3759 74.9708 23.0413 70.6207Z" fill="white" stroke="#616161" stroke-width="2" stroke-linejoin="round"/>
<path d="M24.6311 71.0417C26.2965 66.6915 29.8759 64.0566 32.635 65.1752C35.3941 66.2938 36.2889 70.7185 34.6235 75.1184C32.9581 79.5183 29.3788 82.029 26.6197 80.9601C23.8606 79.8912 22.9658 75.4167 24.6311 71.0417Z" fill="white" stroke="#616161" stroke-width="2" stroke-linejoin="round"/>
<path d="M47.8004 58.1406L27.6914 72.3097L30.1771 73.7515C30.1771 73.7515 44.4945 63.0128 45.091 62.6648C46.3263 61.4069 47.4882 60.0789 48.5709 58.6875L45.7621 65.4738L37.2861 71.6883L44.743 75.1933L51.0815 66.7167L46.1101 65.0015" fill="white"/>
<path d="M47.8004 58.1406L27.6914 72.3097L30.1771 73.7515C30.1771 73.7515 44.4945 63.0128 45.091 62.6648C46.3263 61.4069 47.4882 60.0789 48.5709 58.6875L45.7622 65.4738L37.2861 71.6883L44.743 75.1933L51.0815 66.7167L46.1101 65.0015" stroke="#616161" stroke-width="2" stroke-linejoin="round"/>
<path d="M110.165 77.7549L107.281 81.6327L75.4648 72.0872L77.5279 66.7676L110.165 77.7549Z" fill="white" stroke="#616161" stroke-width="2" stroke-linejoin="round"/>
<path d="M108.324 70.2237C108.835 70.431 109.281 70.7705 109.618 71.2073C109.954 71.6442 110.168 72.1627 110.238 72.7096C110.238 74.4745 110.089 77.532 110.089 77.532L47.9474 59.8331L47.2266 53.3948C47.2266 53.3948 47.5994 52.0028 48.5937 52.6988C49.5879 53.3948 108.324 70.2237 108.324 70.2237Z" fill="white" stroke="#616161" stroke-width="2" stroke-linejoin="round"/>
<path d="M85.4577 74.5742L78.9701 80.391C78.9701 80.391 78.3736 80.5153 78.1001 82.2802C77.977 83.9351 77.977 85.5969 78.1001 87.2518L87.7942 90.5083L89.6585 87.0033C89.879 86.264 90.2055 85.5607 90.6279 84.9152L97.3889 78.3527L85.4577 74.5742Z" fill="white" stroke="#616161" stroke-width="2" stroke-linejoin="round"/>
<path d="M78.9941 80.4883L90.9004 84.7639" stroke="#616161" stroke-width="2" stroke-linejoin="round"/>
<path d="M78.0742 82.875L89.9805 87.1257" stroke="#616161" stroke-width="2" stroke-linejoin="round"/>
<path d="M83.668 91.1288L100.744 74.4242C101.239 74.3145 101.756 74.3758 102.211 74.5982C102.663 74.8667 103.032 75.2535 103.28 75.7168L86.9988 92.5457L83.668 91.1288Z" fill="white" stroke="#616161" stroke-width="2" stroke-linejoin="round"/>
<path d="M22.918 75.5927L27.6159 72.2617L94.4552 94.8577L90.2545 98.7853L22.918 75.5927Z" fill="white" stroke="#616161" stroke-width="2" stroke-linejoin="round"/>
<path d="M90.1799 98.7851V105.323L23.0671 82.5528L22.918 75.4434L90.1799 98.7851Z" fill="white" stroke="#616161" stroke-width="2" stroke-linejoin="round"/>
<path d="M94.6537 94.7812L94.8277 101.045L90.2541 105.346L90.0801 98.9823L94.6537 94.7812Z" fill="white" stroke="#616161" stroke-width="2" stroke-linejoin="round"/>
<path d="M111.408 75.8397C112.725 71.0172 114.838 67.3879 116.155 67.7857C116.503 67.7857 117.547 68.0591 117.721 68.6308C118.194 70.2218 117.15 73.6025 116.18 77.182C115.655 80.1277 114.647 82.9666 113.197 85.5841C112.7 86.1309 111.855 85.3603 111.433 85.2361C110.115 84.8632 110.115 80.6622 111.408 75.8397Z" fill="white" stroke="#616161" stroke-width="2" stroke-linejoin="round"/>
<path d="M112.699 76.4633C114.016 71.6409 116.129 68.0364 117.472 68.4093C118.814 68.7822 118.789 73.0081 117.472 77.8305C116.154 82.653 114.041 86.2574 112.699 85.8846C111.357 85.5117 111.407 81.2858 112.699 76.4633Z" fill="white" stroke="#616161" stroke-width="2" stroke-linejoin="round"/>
<path d="M103.403 85.2133C104.696 80.3909 106.834 76.7864 108.151 77.1593C108.499 77.1593 109.543 77.4328 109.717 78.0045C110.189 79.5954 109.145 82.9761 108.176 86.5557C107.639 89.4983 106.632 92.3353 105.193 94.9577C104.696 95.5046 103.851 94.734 103.428 94.6097C102.111 94.2368 102.086 90.0358 103.403 85.2133Z" fill="white" stroke="#616161" stroke-width="2" stroke-linejoin="round"/>
<path d="M104.696 85.8344C106.014 81.012 108.127 77.4075 109.444 77.7804C110.761 78.1533 110.786 82.3792 109.444 87.2016C108.102 92.0241 105.989 95.6285 104.672 95.2557C103.354 94.8828 103.404 90.6569 104.696 85.8344Z" fill="white" stroke="#616161" stroke-width="2" stroke-linejoin="round"/>
<path d="M113.022 76.4867C115.508 68.209 119.435 62.0691 121.672 62.7899C122.343 63.0137 127.613 64.1323 127.812 65.4497C128.309 68.383 122.841 73.3795 121.051 79.0968C119.51 84.0685 121.772 92.2716 119.385 94.484C117.969 95.8015 113.271 93.0671 112.426 92.7688C110.189 91.9733 110.462 84.7645 113.022 76.4867Z" fill="white" stroke="#616161" stroke-width="2" stroke-linejoin="round"/>
<path d="M118.714 78.5746C121.199 70.2969 125.127 64.1569 127.339 64.8778C129.551 65.5987 129.253 72.907 126.767 81.1847C124.281 89.4625 120.354 95.5776 118.117 94.8567C115.88 94.1358 116.153 86.8524 118.714 78.5746Z" fill="white" stroke="#616161" stroke-width="2" stroke-linejoin="round"/>
<path d="M119.61 78.7974C121.474 72.732 124.382 68.2824 126.097 68.8542C127.813 69.4259 127.663 74.7704 125.799 80.8358C123.935 86.9011 121.027 91.3756 119.312 90.779C117.597 90.1824 117.746 84.8628 119.61 78.7974Z" fill="white" stroke="#616161" stroke-width="2" stroke-linejoin="round"/>
<path d="M122.891 77.63C123.049 76.7539 123.361 75.9126 123.81 75.1442C124.506 74.125 125.501 72.9815 126.122 73.5532C126.73 74.5409 126.96 75.7154 126.768 76.8594" stroke="#616161" stroke-width="2" stroke-linejoin="round"/>
<path d="M118.268 84.3416C118.268 84.3416 119.56 85.7586 120.331 84.3416C120.604 83.8942 120.927 83.5462 121.25 82.9744C121.629 82.2459 121.929 81.4793 122.145 80.6875C122.256 81.5873 122.256 82.4973 122.145 83.397C122.05 84.6205 121.629 85.7962 120.927 86.8026C120.18 87.8464 119.349 88.8274 118.442 89.7358" stroke="#616161" stroke-width="2" stroke-linejoin="round"/>
<path d="M120.231 76.8848C120.014 78.0008 120.074 79.153 120.405 80.2406C120.473 80.4513 120.606 80.6352 120.784 80.7656C120.963 80.896 121.178 80.9663 121.4 80.9663C121.621 80.9663 121.836 80.896 122.015 80.7656C122.194 80.6352 122.326 80.4513 122.394 80.2406" stroke="#616161" stroke-width="2" stroke-linejoin="round"/>
<path d="M122.617 81.3086H123.562C123.894 81.9444 123.965 82.6844 123.761 83.3718C123.59 84.9227 123.213 86.4441 122.642 87.896" stroke="#616161" stroke-width="2" stroke-linejoin="round"/>
<path d="M125.526 68.9805C124.667 69.5654 123.994 70.3851 123.587 71.342C123.012 72.8543 122.628 74.4326 122.444 76.0402C122.336 76.9344 122.421 77.8413 122.692 78.7" stroke="#616161" stroke-width="2" stroke-linejoin="round"/>
<path d="M122.344 79.2458C122.543 78.3012 122.891 77.6051 123.139 77.6548C123.388 77.7046 125.053 78.0029 125.028 78.3757C124.958 78.8395 124.85 79.2967 124.705 79.7429C124.638 80.1949 124.547 80.643 124.432 81.0853C124.233 81.5327 122.543 81.0853 122.393 81.0853C122.244 81.0853 122.145 80.1655 122.344 79.2458Z" fill="white" stroke="#616161" stroke-width="2" stroke-linejoin="round"/>
<path d="M124.283 79.5451C124.482 78.6254 124.83 77.9294 125.053 77.9791C125.277 78.0288 125.327 78.8242 125.053 79.744C124.78 80.6637 124.506 81.3598 124.283 81.31C124.059 81.2603 124.034 80.5643 124.283 79.5451Z" fill="white" stroke="#616161" stroke-width="2" stroke-linejoin="round"/>
<path d="M92.8644 95.4275C94.3309 90.0085 96.7172 85.9317 98.2086 86.3543C98.6063 86.3543 99.7745 86.6775 99.9485 87.3238C100.495 89.1136 99.3271 92.9417 98.2334 96.9439C97.1397 100.946 96.1703 104.973 94.8778 106.39C94.3061 107.011 93.3615 106.141 92.8892 106.017C91.3979 105.594 91.3979 100.847 92.8644 95.4275Z" fill="white" stroke="#616161" stroke-width="2" stroke-linejoin="round"/>
<path d="M94.4557 96.1255C95.9223 90.7064 98.3085 86.6546 99.7999 87.0771C101.291 87.4997 101.291 92.2476 99.7999 97.6667C98.3085 103.086 95.8477 107.138 94.4557 106.715C93.0638 106.292 92.8649 101.569 94.4557 96.1255Z" fill="white" stroke="#616161" stroke-width="2" stroke-linejoin="round"/>
<path d="M94.6794 96.1505C97.5379 86.8536 101.888 79.9431 104.398 80.7634C105.169 81.0119 111.085 82.2548 111.333 83.7463C111.855 87.0525 105.691 92.6704 103.702 99.0838C101.962 104.776 104.523 113.999 101.838 116.484C100.247 117.951 94.9777 114.869 93.9834 114.546C91.4978 113.675 91.796 105.472 94.6794 96.1505Z" fill="white" stroke="#616161" stroke-width="2" stroke-linejoin="round"/>
<path d="M101.067 98.4868C103.95 89.1899 108.3 82.3042 110.786 83.0996C113.272 83.8951 112.973 92.1231 110.115 101.445C107.256 110.767 102.882 117.628 100.396 116.832C97.9102 116.037 98.2085 107.809 101.067 98.4868Z" fill="white" stroke="#616161" stroke-width="2" stroke-linejoin="round"/>
<path d="M102.086 98.7599C104.174 91.9737 107.455 87.002 109.369 87.5489C111.283 88.0958 111.159 94.2109 109.046 101.022C106.933 107.833 103.677 112.879 101.763 112.233C99.8493 111.587 99.9736 105.596 102.086 98.7599Z" fill="white" stroke="#616161" stroke-width="2" stroke-linejoin="round"/>
<path d="M105.766 97.4411C105.963 96.444 106.342 95.4918 106.884 94.6321C107.68 93.4886 108.798 92.1463 109.494 92.8672C110.164 93.978 110.419 95.29 110.215 96.571" stroke="#616161" stroke-width="2" stroke-linejoin="round"/>
<path d="M100.594 105C100.594 105 102.011 106.591 102.905 105C103.204 104.503 103.577 104.105 103.925 103.458C104.344 102.665 104.686 101.832 104.944 100.973C105.067 101.988 105.067 103.015 104.944 104.03C104.821 105.406 104.341 106.725 103.552 107.858C102.753 109.035 101.855 110.141 100.867 111.164" stroke="#616161" stroke-width="2" stroke-linejoin="round"/>
<path d="M102.78 96.5977C102.536 97.8544 102.604 99.152 102.979 100.376C103.064 100.604 103.217 100.801 103.417 100.94C103.617 101.08 103.854 101.154 104.098 101.154C104.341 101.154 104.579 101.08 104.779 100.94C104.979 100.801 105.132 100.604 105.216 100.376" stroke="#616161" stroke-width="2" stroke-linejoin="round"/>
<path d="M105.465 101.568L106.534 101.718C106.901 102.432 106.973 103.263 106.733 104.029C106.547 105.735 106.129 107.408 105.49 109.001" stroke="#616161" stroke-width="2" stroke-linejoin="round"/>
<path d="M108.746 87.7227C107.786 88.3807 107.029 89.2932 106.559 90.3576C105.916 92.064 105.482 93.8418 105.266 95.6524C105.123 96.6562 105.225 97.6798 105.564 98.6354" stroke="#616161" stroke-width="2" stroke-linejoin="round"/>
<path d="M105.168 99.2561C105.392 98.2121 105.79 97.4166 106.038 97.4912C106.287 97.5657 108.201 97.8889 108.201 98.2866C108.105 98.8069 107.981 99.3215 107.828 99.8278C107.828 99.8278 107.604 101.046 107.505 101.344C107.405 101.642 105.367 101.344 105.218 101.344C105.069 101.344 104.92 100.275 105.168 99.2561Z" fill="white" stroke="#616161" stroke-width="2" stroke-linejoin="round"/>
<path d="M107.306 99.7047C107.53 98.6607 107.928 97.8901 108.201 97.9398C108.474 97.9895 108.474 98.8844 108.201 99.9284C107.928 100.972 107.555 101.768 107.306 101.693C107.058 101.619 107.082 100.749 107.306 99.7047Z" fill="white" stroke="#616161" stroke-width="2" stroke-linejoin="round"/>
<path d="M49.9612 79.7188L54.8082 81.5831L49.9612 87.0022L44.5176 83.8701L49.9612 79.7188Z" fill="white" stroke="#616161" stroke-width="2" stroke-linejoin="round"/>
<path d="M44.418 62.1437L46.1331 66.3695L67.3855 72.9072L69.374 70.1728L50.2841 60.8262L44.418 62.1437Z" fill="white" stroke="#616161" stroke-width="2" stroke-linejoin="round"/>
<path d="M42.3789 69.4023V74.2L53.5147 83.0246L66.4898 86.5296L67.7575 78.1027L42.3789 69.4023Z" fill="white" stroke="#616161" stroke-width="2" stroke-linejoin="round"/>
<path d="M46.7547 66.3457L42.4297 69.4281L67.7586 78.0787L71.835 74.4246L46.7547 66.3457Z" fill="white" stroke="#616161" stroke-width="2" stroke-linejoin="round"/>
<path d="M80.4121 67.4145L67.1138 78.1283C67.1138 78.1283 70.5937 73.3804 69.1769 70.6709C68.4312 69.1545 66.4178 68.7319 64.6033 68.1851C62.7888 67.6382 58.6377 66.1218 58.6377 66.1218L44.3203 61.896L48.0488 58.043L68.8041 63.8598L75.7142 65.5501L80.4121 67.4145Z" fill="white" stroke="#616161" stroke-width="2" stroke-linejoin="round"/>
<path d="M80.0126 67.7617L69.7966 76.1886L70.0203 78.5253L67.8578 79.2959L67.5098 84.6901L80.4601 74.5728L80.0126 67.7617Z" fill="white" stroke="#616161" stroke-width="2" stroke-linejoin="round"/>
<path d="M67.982 78.9475C68.678 78.3757 69.2994 77.6548 70.0451 78.5C71.0812 80.0899 72.0032 81.7513 72.8042 83.4716C72.8042 83.4716 73.3759 85.6094 72.3816 85.9574C71.5723 86.1786 70.7259 86.2293 69.896 86.1066L67.2363 80.8615C67.2368 80.1527 67.5028 79.4698 67.982 78.9475Z" fill="white" stroke="#616161" stroke-width="2" stroke-linejoin="round"/>
<path d="M75.8633 74.0753L76.0124 71.9375L77.653 72.4844L82.2017 72.0866L81.978 73.8764L80.3126 75.4922L75.8633 74.0753Z" fill="white" stroke="#616161" stroke-width="2" stroke-linejoin="round"/>
<path d="M76.0352 72.0875L77.8497 70.5215L82.1499 71.9633L80.5093 73.5542L76.0352 72.0875Z" fill="white" stroke="#616161" stroke-width="2" stroke-linejoin="round"/>
<path d="M63.1365 9.94141L66.343 10.5131L65.8707 29.2313L65.1002 30.4991L65.647 31.4685L64.6279 34.2278L63.5591 34.6006L64.1805 35.6447L63.4099 38.2548H62.4654L63.0619 39.1745L61.7445 42.2569L60.6509 42.8535L61.2474 43.6738L60.0543 45.9608L58.712 46.9551L59.234 47.7257L57.9663 50.6092L56.6241 51.7776L57.0715 52.5482L56.127 55.2577L54.735 55.8046L55.5055 56.6746L54.2379 58.7378L53.2436 59.1107L53.865 60.2045L52.5725 62.2428H51.6776L52.1996 63.2123L50.8325 65.4992H49.9874L50.7082 66.3941L48.9185 69.6008L47.974 69.7997L48.7694 70.6946L47.8 72.6087L46.6317 73.255L47.3526 74.0007L46.06 76.4865L45.0906 76.76L45.5878 77.7294L44.7426 80.2152L43.8975 80.9113L44.3449 81.8062L43.9969 83.1733L43.7981 87.7224L43.0275 88.3438L43.6489 89.0399L43.4501 91.0782C42.8654 91.4006 42.2031 91.5554 41.5361 91.5257C40.8958 91.341 40.3357 90.9472 39.9453 90.4071L40.1442 88.2941L40.7904 87.7224L40.169 86.7529L40.4673 82.5519L41.1633 80.2152L41.8096 79.9915L41.3621 78.9723L42.431 75.9894H43.2264L42.8038 74.9453L44.1461 71.8381L44.9663 72.2109L44.7178 71.1917L45.5878 68.7059H46.4329L45.9109 67.7613L47.2532 65.2755L48.0237 64.9772L47.7254 64.2812L49.1671 61.7954L50.0619 61.6711L49.2417 60.9254L50.5839 58.4395L51.5782 58.0418L51.2054 57.1718L52.6967 54.8351L53.343 55.0588L53.0945 54.0894L54.1633 51.9019L54.8841 51.703L54.3621 50.9821L55.953 47.4771L56.7981 47.1788L56.4501 46.1845L57.9663 42.2569L58.712 42.4061L58.1901 41.1632L59.8803 37.4593H60.7751L60.278 36.4153L61.0237 33.7555L61.844 33.5317L61.1728 32.6866L62.1423 29.629L62.9128 29.977L62.2914 28.6098L62.7885 10.4883L63.1365 9.94141Z" fill="white" stroke="#616161" stroke-width="2" stroke-linejoin="round"/>
<path d="M65.3974 13.4965C67.1125 5.93967 71.1641 0.446037 74.5695 1.21664C77.9748 1.98724 79.2425 8.67407 77.5523 16.3304C75.862 23.9867 71.7855 29.3809 68.4547 28.6103C65.124 27.8397 63.7071 21.0534 65.3974 13.4965Z" fill="white" stroke="#616161" stroke-width="2" stroke-linejoin="round"/>
<path d="M67.1123 13.9447C68.8026 6.48724 72.8791 0.894167 76.2098 1.66477C79.5406 2.43537 80.858 9.1222 79.1678 16.7785C77.4775 24.4348 73.4756 29.829 70.1697 29.0335C66.8638 28.2381 65.4967 21.5015 67.1123 13.9447Z" fill="white" stroke="#616161" stroke-width="2" stroke-linejoin="round"/>
<path d="M54.8828 81.1604L57.7413 79.0475L83.2442 7.25729L81.2805 5.5918L54.8828 81.1604Z" fill="white" stroke="#616161" stroke-width="2" stroke-linejoin="round"/>
<path d="M48.1953 78.5255L75.115 3.95117L81.3043 5.66638L54.6829 81.3593L48.1953 78.5255Z" fill="white" stroke="#616161" stroke-width="2" stroke-linejoin="round"/>
<path d="M73.8737 15.1121C75.5639 7.45579 79.541 2.06158 82.9463 2.85704C86.3517 3.6525 87.5945 10.3145 85.9043 17.9459C84.214 25.5773 80.1624 31.0213 76.8316 30.2258C73.5008 29.4303 72.084 22.6938 73.8737 15.1121Z" fill="white" stroke="#616161" stroke-width="2" stroke-linejoin="round"/>
<path d="M75.6642 15.5599C77.3544 8.10247 81.4309 2.5094 84.7368 3.28C88.0427 4.0506 89.4099 10.7374 87.7196 18.3937C86.0294 26.05 82.0274 31.4442 78.6221 30.6736C75.2167 29.903 73.9739 23.1168 75.6642 15.5599Z" fill="white" stroke="#616161" stroke-width="2" stroke-linejoin="round"/>
<path d="M84.1141 15.4844L87.3455 16.081L86.8484 34.7991L86.0778 36.042L86.6247 37.0363L85.6055 39.7707L84.5367 40.1436L85.183 41.1876L84.5119 43.8226H83.5673L84.1639 44.7424L82.8465 47.775L81.7528 48.3716L82.3493 49.192L81.1562 51.5037L79.814 52.4732L80.3359 53.2438L79.0683 56.1274L77.726 57.3205L78.1734 58.0911L77.0549 60.8753L75.6878 61.4221L76.4335 62.2922L75.1658 64.3554L74.1715 64.7283L74.7929 65.822L73.5004 67.8604H72.6055L73.1275 68.8298L71.7604 71.1168H70.9153L71.6361 72.0365L69.8465 75.1189L68.9268 75.2929L69.6973 76.1878L68.7279 78.1019L67.5597 78.7482L68.2805 79.5188L67.1122 82.0295L66.118 82.3278L66.6151 83.2972L65.77 85.7831L64.9249 86.4542L65.3723 87.3491L65.0243 88.7412L64.8254 93.2654L64.0549 93.8868L64.6763 94.5828L64.4774 96.6212C63.8928 96.9436 63.2305 97.0984 62.5635 97.0686C61.9231 96.884 61.3631 96.4902 60.9727 95.95L61.1715 93.8371L61.8178 93.2654L61.1964 92.3207L61.4946 88.1197L62.2155 85.7831L62.8369 85.5345L62.3895 84.5402L63.4583 81.5323H64.2537L63.8312 80.5131L65.1734 77.4059L65.9937 77.7788L65.7451 76.7347L66.64 74.2489H67.4602L66.9382 73.3292L68.2805 70.8433L69.0511 70.5451L68.7031 69.6004L70.1447 67.1146L71.0396 66.9903L70.2193 66.2695L71.5616 63.7836L72.5558 63.3611L72.0836 62.6402L73.575 60.3035L74.2212 60.5024L74.0721 59.6572L75.1409 57.4697L75.8618 57.2708L75.3398 56.5499L77.0549 52.9207L77.9 52.6224L77.552 51.6529L79.0683 47.7502L79.814 47.9242L79.292 46.6564L80.9822 42.9774H81.8771L81.4048 41.9334L82.0262 39.373L82.8465 39.1493L82.1753 38.2792L83.2442 35.172L84.0147 35.52L83.3933 34.1528L83.8904 16.0313L84.1141 15.4844Z" fill="white" stroke="#616161" stroke-width="2" stroke-linejoin="round"/>
<path d="M25.1055 103.135L33.0099 106.714C34.7896 106.609 36.5462 106.257 38.2298 105.67C38.925 105.006 39.6731 104.399 40.4668 103.856L38.876 102.538L37.7823 103.955L35.8932 104.179L35.1972 102.861L29.4554 100.674L25.8263 101.32L25.1055 103.135Z" fill="white" stroke="#616161" stroke-width="2" stroke-linejoin="round"/>
<path d="M30.7734 98.2632C30.7734 95.3796 34.6262 93.043 39.349 93.043C44.0717 93.043 47.9245 95.3796 47.9245 98.2632C47.9245 101.147 44.0966 103.508 39.349 103.508C34.6014 103.508 30.7734 101.172 30.7734 98.2632Z" fill="white" stroke="#616161" stroke-width="2" stroke-linejoin="round"/>
<path d="M30.7227 96.5732C30.7227 93.6648 34.5506 91.3281 39.2982 91.3281C44.0458 91.3281 47.8737 93.6648 47.8737 96.5732C47.8737 99.4816 44.0209 101.918 39.2982 101.918C34.5754 101.918 30.7227 99.4319 30.7227 96.5732Z" fill="white" stroke="#616161" stroke-width="2" stroke-linejoin="round"/>
<path d="M40.4648 93.8374C40.4648 92.4453 42.3042 91.3516 44.591 91.3516C46.8778 91.3516 48.7172 92.4702 48.7172 93.8374C48.7172 95.2046 46.853 96.3232 44.591 96.3232C42.3291 96.3232 40.4648 95.2294 40.4648 93.8374Z" fill="white" stroke="#616161" stroke-width="2" stroke-linejoin="round"/>
<path d="M24.0352 94.9311C24.0352 92.0476 27.8631 89.7109 32.6107 89.7109C37.3583 89.7109 41.1862 92.0476 41.1862 94.9311C41.1862 97.8147 37.2837 100.176 32.6107 100.176C27.9376 100.176 24.0352 97.8395 24.0352 94.9311Z" fill="white" stroke="#616161" stroke-width="2" stroke-linejoin="round"/>
<path d="M15.2872 101.122L25.2298 98.9844L30.3254 101.47L27.6658 102.937L20.3579 103.906L14.6409 104.876L13.7461 101.818L15.2872 101.122Z" fill="white" stroke="#616161" stroke-width="2" stroke-linejoin="round"/>
<path d="M40.392 99.9034L43.3748 108.057L45.8605 107.684L41.7343 96.9453L39.8203 98.5611L40.392 99.9034Z" fill="white" stroke="#616161" stroke-width="2" stroke-linejoin="round"/>
<path d="M33.2834 103.209L35.2222 111.686H37.7078L34.9239 100.4L32.8359 101.768L33.2834 103.209Z" fill="white" stroke="#616161" stroke-width="2" stroke-linejoin="round"/>
<path d="M14.0931 97.9389L29.7279 95.4531L28.336 97.6903L12.4277 100.648L13.1734 98.1627L14.0931 97.9389Z" fill="white" stroke="#616161" stroke-width="2" stroke-linejoin="round"/>
<path d="M14.6144 96.0014L30.2492 93.5156L28.8324 95.7529L12.8496 98.711L13.5705 96.2252L14.6144 96.0014Z" fill="white" stroke="#616161" stroke-width="2" stroke-linejoin="round"/>
<path d="M48.5703 91.6005L49.0177 95.0807L54.685 89.8107C54.685 89.8107 55.8781 87.7972 54.4862 86.9521C53.9687 86.5656 53.3885 86.2713 52.7711 86.082L48.8686 91.0536" fill="white"/>
<path d="M48.5703 91.6005L49.0177 95.0807L54.685 89.8107C54.685 89.8107 55.8781 87.7972 54.4862 86.9521C53.9687 86.5656 53.3885 86.2713 52.7711 86.082L48.8686 91.0536" stroke="#616161" stroke-width="2" stroke-linejoin="round"/>
<path d="M35.2958 86.4555L24.3091 96.3987C24.3091 96.3987 22.594 98.1636 23.4392 99.1828C26.1792 100.76 29.058 102.083 32.0395 103.135C33.4898 103.492 35.0138 103.406 36.4143 102.887C37.9554 101.967 55.3302 85.0137 55.3302 85.0137L44.5921 80.6387L35.2958 86.4555Z" fill="white" stroke="#616161" stroke-width="2" stroke-linejoin="round"/>
<path d="M31.7911 76.9091C31.6989 75.8781 31.8789 74.841 32.313 73.9013C33.2106 72.5517 34.5585 71.565 36.1161 71.1172C40.8594 72.3112 45.5316 73.7719 50.1104 75.4922L48.4947 83.1982L33.183 79.9418L31.7911 76.9091Z" fill="white" stroke="#616161" stroke-width="2" stroke-linejoin="round"/>
<path d="M31.8906 76.8598L32.8103 85.3364L46.2826 89.4877C47.2499 89.1844 48.1402 88.6756 48.8925 87.9962C49.5993 87.2621 50.0971 86.3524 50.3342 85.3613C50.4585 84.2178 49.9862 75.9152 49.9862 75.9152C49.9862 75.9152 48.5943 75.1197 47.5006 77.0835C46.7644 78.3627 46.1566 79.7116 45.686 81.1105L31.8906 76.8598Z" fill="white" stroke="#616161" stroke-width="2" stroke-linejoin="round"/>
<path d="M45.5371 81.1367L46.4568 89.489" stroke="#616161" stroke-width="2" stroke-linejoin="round"/>
<path d="M32.5371 74.2754L46.4568 78.6007" stroke="#616161" stroke-width="2" stroke-linejoin="round"/>
<path d="M46.4564 110.07C46.4564 110.07 47.7987 109.896 47.6744 111.189C47.6106 111.571 47.4488 111.93 47.2048 112.23C46.9608 112.531 46.643 112.763 46.2824 112.904L44.791 112.233L46.4564 110.07Z" fill="white" stroke="#616161" stroke-width="2" stroke-linejoin="round"/>
<path d="M22.3704 118.473L20.1582 120.263L20.9039 124.762C20.9039 124.762 22.271 126.105 23.0664 125.781C23.8618 125.458 36.4641 120.661 38.4527 118.175C40.8475 115.98 43.5846 114.192 46.5559 112.88L46.2328 108.828C46.2328 108.828 48.271 107.113 46.7051 106.69C45.4281 106.483 44.1211 106.559 42.8771 106.914L38.6515 109.996L34.7242 107.113L32.5119 108.853C32.7246 109.431 32.7815 110.054 32.6768 110.661C32.572 111.267 32.3094 111.835 31.9154 112.308C30.5522 114.241 28.7224 115.797 26.5961 116.832C25.1792 117.504 22.3704 118.473 22.3704 118.473Z" fill="white" stroke="#616161" stroke-width="2" stroke-linejoin="round"/>
<path d="M20.2344 120.212L21.8998 122.474C21.8998 122.474 29.3567 119.243 30.3759 118.696C31.395 118.149 36.1426 114.669 37.3109 114.022C38.4791 113.376 46.2592 108.777 46.2592 108.777" stroke="#616161" stroke-width="2" stroke-linejoin="round"/>
<path d="M17.8718 105.025C17.2696 105.281 16.6332 105.449 15.9827 105.522C15.4046 105.428 14.8726 105.149 14.4665 104.727L11.6328 106.889L13.0994 108.107L16.7781 106.889L17.8718 105.025Z" fill="white" stroke="#616161" stroke-width="2" stroke-linejoin="round"/>
<path d="M17.2012 101.419L12.5779 101.022L14.1935 97.9143C14.1935 97.9143 15.5358 95.2545 13.6218 95.1302C11.7079 95.0059 11.5836 95.1302 10.5893 96.6217C9.59507 98.1132 3.13236 106.913 3.13236 106.913L1.29297 113.451L3.2815 116.21L5.76716 114.171L9.79392 107.534L13.5721 104.626L17.0023 103.085L17.2012 101.419Z" fill="white" stroke="#616161" stroke-width="2" stroke-linejoin="round"/>
<path d="M5.41762 113.576C5.41762 113.576 5.11934 111.09 6.13846 109.922C7.6215 108.066 9.37233 106.44 11.3335 105.099C12.8746 104.403 16.7771 103.26 17.0008 101.918C17.0008 101.57 17.1499 101.47 17.2494 101.52C17.3488 101.57 17.8459 102.738 17.8459 102.738C17.2785 103.457 16.5673 104.049 15.758 104.478C14.7637 104.901 12.4272 105.621 12.4272 105.621V107.958L14.9128 107.337C14.9128 107.337 17.1002 106.442 17.0754 105.671L17.5973 105.05L18.1442 106.317C18.1442 106.317 16.4042 108.182 15.4845 108.331C14.5648 108.48 12.4272 109.176 12.4272 109.176C11.2657 109.819 10.1886 110.604 9.22068 111.513C7.90989 112.477 6.94284 113.836 6.46159 115.391C5.88989 117.454 5.7159 117.23 5.7159 117.23L5.41762 113.576Z" fill="white" stroke="#616161" stroke-width="2" stroke-linejoin="round"/>
<path d="M1.16797 113.775L3.10678 114.869L5.59244 113.029L6.08958 117.056L4.02648 119.02L1.78938 118.026L1.16797 113.775Z" fill="white" stroke="#616161" stroke-width="2" stroke-linejoin="round"/>
<path d="M3.10547 114.867L3.7766 118.844" stroke="#616161" stroke-width="2" stroke-linejoin="round"/>
</g>
<defs>
<clipPath id="clip0_827_13347">
<rect width="130" height="127" fill="white"/>
</clipPath>
</defs>
</svg>
