<svg width="110" height="127" viewBox="0 0 110 127" fill="none" xmlns="http://www.w3.org/2000/svg">
<g clip-path="url(#clip0_827_13182)">
<path d="M37.1289 84.665L43.5629 116.033L74.4354 119.707L65.0277 73.3984L52.7544 72.5879L37.1289 84.665Z" fill="white" stroke="#616161" stroke-width="2" stroke-linejoin="round"/>
<path d="M32.8027 84.2051L40.1559 115.006L43.8325 115.654L37.5336 85.3398L32.8027 84.2051Z" fill="white" stroke="#616161" stroke-width="2" stroke-linejoin="round"/>
<path d="M48.3467 102.415C52.2665 97.579 60.5388 97.7681 66.7836 102.82C73.0284 107.873 74.8937 115.924 71.0009 120.788C67.108 125.651 58.8087 125.462 52.5639 120.382C46.3191 115.303 44.2916 107.278 48.3467 102.415Z" fill="white" stroke="#616161" stroke-width="2" stroke-linejoin="round"/>
<path d="M45.94 103.875C49.8599 99.0116 58.1322 99.2008 64.377 104.28C70.6218 109.36 72.5141 117.384 68.6213 122.247C64.7284 127.11 56.4291 126.921 50.1573 121.842C43.8855 116.763 41.9931 108.738 45.94 103.875Z" fill="white" stroke="#616161" stroke-width="2" stroke-linejoin="round"/>
<path d="M53.3477 89.987C54.2128 89.3926 55.6456 89.987 56.5647 91.2839C57.4839 92.5807 57.4839 94.1748 56.5647 94.7692C55.6456 95.3636 54.2398 94.7692 53.3477 93.4723C52.4556 92.1755 52.4015 90.5814 53.3477 89.987Z" fill="white" stroke="#616161" stroke-width="2" stroke-linejoin="round"/>
<path d="M50.6192 82.0978C51.5113 81.5034 52.9441 82.0978 53.8632 83.4217C54.7824 84.7456 54.7553 86.2856 53.8632 86.88C52.9711 87.4744 51.5383 86.88 50.6462 85.5832C49.7541 84.2863 49.7 82.7193 50.6192 82.0978Z" fill="white" stroke="#616161" stroke-width="2" stroke-linejoin="round"/>
<path d="M58.8908 2.82812L80.5177 4.85448C81.2455 5.24964 81.8878 5.78497 82.4075 6.42955C82.9272 7.07414 83.314 7.81521 83.5455 8.61C83.8158 9.36651 95.143 47.6782 95.143 47.6782C95.143 47.6782 93.7372 52.8927 91.6015 53.0818C89.4659 53.2709 73.6242 47.6782 73.6242 47.6782C73.6242 47.6782 71.921 48.2726 71.2993 44.9764C70.6775 41.6802 54.9168 11.8252 53.457 7.15102C55.1498 5.56726 56.9669 4.12167 58.8908 2.82812Z" fill="white" stroke="#616161" stroke-width="2" stroke-linejoin="round"/>
<path d="M53.4023 6.74414L77.4893 8.14908C77.4893 8.14908 79.1114 7.52767 80.463 12.2829C81.8147 17.038 92.0605 51.0538 92.0605 51.0538C92.0546 51.6355 91.8281 52.1933 91.4267 52.6146C91.0253 53.0359 90.4789 53.2892 89.8978 53.3233C87.7351 53.5125 68.0546 51.4591 68.0546 51.4591C68.0546 51.4591 66.3244 52.0535 65.7297 48.7573C65.135 45.4611 53.4023 6.74414 53.4023 6.74414Z" fill="white" stroke="#616161" stroke-width="2" stroke-linejoin="round"/>
<path d="M50.2941 6.98828L61.3238 49.2986C61.3238 49.2986 62.27 51.2709 61.9997 52.0004C61.7293 52.7299 36.0203 75.5062 36.0203 75.5062L32.9385 72.8044L22.125 36.5461L22.3142 31.3316C23.1398 30.0961 24.0428 28.9139 25.0176 27.7922C30.7758 22.2805 50.2941 6.98828 50.2941 6.98828Z" fill="white" stroke="#616161" stroke-width="2" stroke-linejoin="round"/>
<path d="M49.6982 6.63672H44.8051L20.4748 30.1154C19.9795 30.7057 19.6447 31.4136 19.5026 32.1707C19.3606 32.9279 19.4161 33.7088 19.6637 34.4383C20.5829 36.7619 31.2342 73.6146 31.2342 73.6146C31.505 74.1352 31.8879 74.5893 32.3554 74.9444C32.8228 75.2994 33.3631 75.5465 33.9375 75.668C35.8028 75.8571 35.911 75.668 35.911 75.668L23.8269 35.7892C23.8269 35.7892 22.313 32.2769 24.7461 30.6558C27.1791 29.0347 49.6982 6.63672 49.6982 6.63672Z" fill="white" stroke="#616161" stroke-width="2" stroke-linejoin="round"/>
<path d="M26.3683 32.7617L47.9952 34.734C48.7368 35.1186 49.3923 35.6498 49.9221 36.2954C50.4519 36.941 50.8449 37.6875 51.0771 38.4896C51.3744 39.2461 62.6745 77.5577 62.6745 77.5577C62.6745 77.5577 61.2958 82.7992 59.1331 82.9613C56.9704 83.1234 41.1827 77.4226 41.1827 77.4226C41.1827 77.4226 39.4526 77.99 38.8578 74.7208C38.2631 71.4516 22.4484 40.8942 21.0156 36.0849C22.6947 34.8163 24.4864 33.7039 26.3683 32.7617Z" fill="white" stroke="#616161" stroke-width="2" stroke-linejoin="round"/>
<path d="M21.0156 36.5996L45.3459 38.3018C45.3459 38.3018 47.1301 39.1663 48.4818 43.9215C49.8335 48.6767 59.5927 80.9363 59.5927 80.9363C59.5868 81.5109 59.3632 82.0618 58.9668 82.478C58.5705 82.8942 58.0309 83.1447 57.457 83.1788C55.2943 83.368 35.5868 81.3416 35.5868 81.3416C35.5868 81.3416 33.8566 81.909 33.2619 78.6398C32.6671 75.3706 21.0156 36.5996 21.0156 36.5996Z" fill="white" stroke="#616161" stroke-width="2" stroke-linejoin="round"/>
<path d="M38.2097 67.454C37.1284 67.454 34.8305 70.3449 34.8305 70.3449L12.0682 100.065C11.7136 100.943 11.6938 101.92 12.0128 102.812C12.3317 103.703 12.9671 104.447 13.7983 104.901C16.1984 106.152 18.83 106.897 21.53 107.09C23.8819 107.549 52.4024 111.764 52.4024 111.764C52.4024 111.764 55.4302 112.034 55.1058 109.845C54.7814 107.657 44.7519 73.1548 44.7519 73.1548C44.3278 71.3348 43.3894 69.6749 42.0485 68.3726C41.5298 67.9221 40.91 67.6034 40.2417 67.4435C39.5734 67.2836 38.8764 67.2872 38.2097 67.454Z" fill="white" stroke="#616161" stroke-width="2" stroke-linejoin="round"/>
<path d="M37.4805 67.4528L41.9681 63.8594C43.0911 64.0051 44.153 64.4545 45.0391 65.1592C45.9253 65.8639 46.602 66.7971 46.9963 67.8581C48.5102 71.6676 58.1883 106.251 58.1883 106.251C57.4028 107.952 56.452 109.572 55.3497 111.087C55.0794 111.303 54.5387 106.332 52.8897 99.8205C51.2406 93.3091 48.2939 84.7174 46.5097 78.5032C45.6345 75.4421 44.5968 72.4298 43.4008 69.4791C42.4215 68.3305 41.2039 67.4086 39.8324 66.7773C39.4148 66.6971 38.9842 66.7165 38.5756 66.8339C38.1669 66.9512 37.7917 67.1633 37.4805 67.4528Z" fill="white" stroke="#616161" stroke-width="2" stroke-linejoin="round"/>
<path d="M23.5566 26.7651C23.5566 26.7651 51.6717 3.52952 53.0774 3.36741C53.8614 3.2053 61.4578 3.36741 67.189 3.63759C69.9164 3.48777 72.6508 3.75194 75.2991 4.42112C75.5153 4.6913 76.9752 5.93413 75.1098 8.14962C69.0543 15.3364 52.1312 28.9806 52.1312 28.9806L47.2652 31.8175L41.2637 30.5746L24.0703 28.4132" fill="white"/>
<path d="M23.5566 26.7651C23.5566 26.7651 51.6717 3.52952 53.0774 3.36741C53.8614 3.2053 61.4578 3.36741 67.189 3.63759C69.9164 3.48777 72.6508 3.75194 75.2991 4.42112C75.5153 4.6913 76.9752 5.93413 75.1098 8.14962C69.0543 15.3364 52.1312 28.9806 52.1312 28.9806L47.2652 31.8175L41.2637 30.5746L24.0703 28.4132" stroke="#616161" stroke-width="2" stroke-linejoin="round"/>
<path d="M23.4219 26.9L25.0169 31.0607L46.779 33.7626C48.3632 33.6876 49.9045 33.2236 51.2666 32.4116C52.9967 31.1148 76.7323 9.55434 76.7323 9.55434L75.5969 4.33984L50.4826 28.3049C49.2049 29.3054 47.6842 29.9487 46.0761 30.1691C44.2919 30.0341 23.4219 26.9 23.4219 26.9Z" fill="white" stroke="#616161" stroke-width="2" stroke-linejoin="round"/>
<path d="M31.532 73.8583L21.6647 68.6708C20.2967 68.1566 18.7884 68.1566 17.4204 68.6708C15.6903 69.4003 5.87704 79.2349 4.71459 80.0184C4.08667 80.3992 3.54726 80.9094 3.13236 81.5151C2.71746 82.1208 2.43662 82.808 2.30859 83.5308C2.38169 84.9191 2.55334 86.3005 2.82223 87.6645L16.0147 94.6082L31.532 73.8583Z" fill="white" stroke="#616161" stroke-width="2" stroke-linejoin="round"/>
<path d="M2.39062 85.125L17.2591 92.528L16.0967 94.5543L2.90426 87.5836L2.39062 85.125Z" fill="white" stroke="#616161" stroke-width="2" stroke-linejoin="round"/>
<path d="M48.7524 1.98934C47.5913 1.82674 46.4084 1.92834 45.2921 2.28653C43.8626 2.9151 42.54 3.76287 41.3722 4.79922C39.8313 6.04205 29.207 15.2012 29.207 15.2012L30.3965 21.1722L50.9962 23.0905C52.381 23.4536 53.8525 23.2698 55.1053 22.5771C56.9165 21.4424 70.136 9.31124 70.136 9.31124V5.60976C70.1258 5.20031 70.0318 4.7973 69.8598 4.42556C69.6877 4.05382 69.4413 3.72123 69.1358 3.44831C68.4744 3.09126 67.721 2.94068 66.9731 3.01602C63.8372 3.04304 48.7524 1.98934 48.7524 1.98934Z" fill="white" stroke="#616161" stroke-width="2" stroke-linejoin="round"/>
<path d="M30.0996 17.2548L49.699 18.7949C50.4078 19.0368 51.1636 19.1091 51.9055 19.0058C52.6474 18.9026 53.3546 18.6267 53.9703 18.2005C56.6737 16.7415 69.8121 4.69141 69.8121 4.69141" fill="white"/>
<path d="M30.0996 17.2548L49.699 18.7949C50.4078 19.0368 51.1636 19.1091 51.9055 19.0058C52.6474 18.9026 53.3546 18.6267 53.9703 18.2005C56.6737 16.7415 69.8121 4.69141 69.8121 4.69141" stroke="#616161" stroke-width="2" stroke-linejoin="round"/>
<path d="M91.2763 67.941C91.2763 67.941 78.8949 81.2609 77.7595 82.9901C76.6241 84.7193 77.0296 84.4221 77.3269 86.6916C77.6243 88.9611 82.4633 104.983 82.5444 105.604C82.6255 106.226 86.9239 108.522 88.4378 107.631C89.9517 106.739 97.6833 91.1226 97.6833 91.1226C97.6833 91.1226 98.8457 88.1506 98.1699 86.7456C97.4941 85.3407 94.25 70.913 94.25 70.913C94.25 70.913 96.0613 69.373 95.3043 68.5624C94.5474 67.7519 91.2763 67.941 91.2763 67.941Z" fill="white" stroke="#616161" stroke-width="2" stroke-linejoin="round"/>
<path d="M94.8994 68.9141C94.8994 68.9141 82.5179 82.234 81.3825 83.9631C80.2471 85.6923 80.6526 85.3951 80.95 87.6646C81.2473 89.9341 86.0864 105.956 86.1675 106.577C86.2648 106.832 86.4211 107.061 86.6237 107.244C86.8263 107.427 87.0694 107.559 87.3331 107.631C87.5968 107.702 87.8736 107.71 88.1409 107.653C88.4082 107.597 88.6583 107.478 88.8709 107.307C90.4118 106.388 101.333 92.0956 101.333 92.0956C101.333 92.0956 102.496 89.1236 101.82 87.7187C101.144 86.3137 97.792 72.1022 97.792 72.1022C97.4799 71.2995 97.0419 70.5516 96.4943 69.8867C96.0953 69.3833 95.5298 69.0385 94.8994 68.9141Z" fill="white" stroke="#616161" stroke-width="2" stroke-linejoin="round"/>
<path d="M94.6836 55.2969L103.767 89.4748C104.102 89.9942 104.28 90.5993 104.28 91.2174C104.28 91.8356 104.102 92.4406 103.767 92.9601C102.604 94.7163 80.9235 120.789 80.9235 120.789L76.9765 118.627L66.7578 82.0718L88.3848 56.918L94.6836 55.2969Z" fill="white" stroke="#616161" stroke-width="2" stroke-linejoin="round"/>
<path d="M88.6809 55.2969L65.1345 80.0455C64.6518 81.1346 64.4023 82.3126 64.4023 83.5038C64.4023 84.695 64.6518 85.873 65.1345 86.9621C66.9458 90.2853 75.5695 119.546 75.5695 119.546L79.949 120.816L69.4599 86.7189C69.1189 85.5397 69.015 84.3046 69.1542 83.085C69.2934 81.8654 69.6729 80.6854 70.2709 79.6132C72.2985 77.1275 93.6821 55.459 93.6821 55.459L88.6809 55.2969Z" fill="white" stroke="#616161" stroke-width="2" stroke-linejoin="round"/>
<path d="M82.6808 10.2852L93.7376 52.6766C93.7376 52.6766 94.6838 54.6489 94.4134 55.3784C94.1431 56.1079 68.4341 78.8841 68.4341 78.8841L65.3252 76.1823L54.5117 39.951L54.6739 34.7095C55.5465 33.4726 56.4945 32.2906 57.5125 31.1701C63.0544 25.6314 82.6808 10.2852 82.6808 10.2852Z" fill="white" stroke="#616161" stroke-width="2" stroke-linejoin="round"/>
<path d="M82.1403 9.93359H77.2742L52.7817 33.4123C52.2955 34.0076 51.9665 34.7152 51.8248 35.4704C51.6831 36.2257 51.7333 37.0044 51.9707 37.7352C52.9439 39.9507 63.5952 76.8574 63.5952 76.8574C63.866 77.378 64.2489 77.8322 64.7164 78.1872C65.1838 78.5422 65.7241 78.7894 66.2985 78.9108C68.1639 79.0999 68.272 78.9108 68.272 78.9108L56.215 38.951C56.215 38.951 54.7281 35.4657 57.1612 33.8176C59.5942 32.1695 82.1403 9.93359 82.1403 9.93359Z" fill="white" stroke="#616161" stroke-width="2" stroke-linejoin="round"/>
<path d="M81.625 23.9832C81.625 20.66 83.3011 17.9582 85.3556 17.9582C86.1937 17.9582 89.9514 17.3908 90.5731 18.1473C91.1949 18.9038 89.0863 22.0109 89.0863 23.9832C89.0863 25.9555 91.0598 28.9545 90.3839 30.0353C89.7081 31.116 86.3829 30.0353 85.3556 30.0353C83.3011 29.9812 81.625 27.3064 81.625 23.9832Z" fill="white" stroke="#616161" stroke-width="2" stroke-linejoin="round"/>
<path d="M85.9766 24.1969C85.9766 20.8737 87.6526 18.1719 89.7072 18.1719C91.7618 18.1719 93.4379 20.8737 93.4379 24.1969C93.4379 27.5201 91.7618 30.1949 89.7072 30.1949C87.6526 30.1949 85.9766 27.5201 85.9766 24.1969Z" fill="white" stroke="#616161" stroke-width="2" stroke-linejoin="round"/>
<path d="M88.8164 24.306C88.8164 22.1175 89.8977 20.3613 91.2494 20.3613C92.6011 20.3613 93.7095 22.1175 93.7095 24.306C93.7095 26.4944 92.6011 28.2776 91.2494 28.2776C89.8977 28.2776 88.8164 26.4944 88.8164 24.306Z" fill="white" stroke="#616161" stroke-width="2" stroke-linejoin="round"/>
<path d="M84.8418 34.0337C84.8418 34.0337 70.3517 46.1378 70.0273 48.1912C70.0585 49.8722 70.6805 51.4886 71.7845 52.7572L90.7081 54.1622C91.8837 54.4001 93.098 54.3681 94.2593 54.0685C95.4207 53.769 96.4989 53.2097 97.4125 52.433C101.809 47.7681 105.908 42.8321 109.686 37.6541C109.686 37.6541 110.037 34.0337 108.523 33.4123C107.009 32.7909 84.8418 34.0337 84.8418 34.0337Z" fill="white" stroke="#616161" stroke-width="2" stroke-linejoin="round"/>
<path d="M84.2477 31.4922C84.2477 31.4922 69.7577 43.5963 69.4062 45.6497C69.4548 47.3191 70.0751 48.9213 71.1634 50.1887L85.8427 51.1884C88.2036 51.6343 90.6169 51.7344 93.0066 51.4856C94.9531 51.0803 97.6024 47.9732 97.6024 47.9732L108.254 35.7881C108.362 35.6161 108.43 35.4215 108.451 35.2192C108.472 35.0169 108.447 34.8125 108.376 34.6217C108.306 34.431 108.192 34.259 108.044 34.1192C107.896 33.9795 107.718 33.8756 107.524 33.8157C106.01 33.0863 84.2477 31.4922 84.2477 31.4922Z" fill="white" stroke="#616161" stroke-width="2" stroke-linejoin="round"/>
<path d="M58.7266 46.7586C58.7266 43.4354 60.4026 40.7336 62.4572 40.7336C63.2953 40.7336 67.0529 40.1662 67.6747 40.9227C68.2965 41.6792 66.1879 44.7863 66.1879 46.7586C66.1879 48.7309 68.1613 51.7299 67.4584 52.8377C66.7556 53.9454 63.4845 52.8377 62.4572 52.8377C60.5108 52.7566 58.7266 50.0818 58.7266 46.7586Z" fill="white" stroke="#616161" stroke-width="2" stroke-linejoin="round"/>
<path d="M63.2148 46.9746C63.2148 43.6514 64.8639 40.9766 66.9455 40.9766C69.0271 40.9766 70.6491 43.6784 70.6491 46.9746C70.6491 50.2708 69 52.9996 66.9455 52.9996C64.8909 52.9996 63.2148 50.2978 63.2148 46.9746Z" fill="white" stroke="#616161" stroke-width="2" stroke-linejoin="round"/>
<path d="M65.918 47.1103C65.918 44.9219 66.9993 43.1387 68.351 43.1387C69.7027 43.1387 70.784 44.9219 70.784 47.1103C70.784 49.2988 69.7027 51.055 68.351 51.055C66.9993 51.055 65.918 49.2988 65.918 47.1103Z" fill="white" stroke="#616161" stroke-width="2" stroke-linejoin="round"/>
<path d="M62.7832 89.9883L66.9734 103.011" stroke="#616161" stroke-width="2" stroke-linejoin="round"/>
<path d="M60.5117 82.7734L62.2148 87.9879" stroke="#616161" stroke-width="2" stroke-linejoin="round"/>
</g>
<defs>
<clipPath id="clip0_827_13182">
<rect width="110" height="126.337" fill="white" transform="translate(0 0.664062)"/>
</clipPath>
</defs>
</svg>
