<svg width="184" height="204" viewBox="0 0 184 204" fill="none" xmlns="http://www.w3.org/2000/svg">
<mask id="mask0_2_2733" style="mask-type:luminance" maskUnits="userSpaceOnUse" x="9" y="0" width="166" height="142">
<path d="M175 0.873047H9V141.452H175V0.873047Z" fill="white"/>
</mask>
<g mask="url(#mask0_2_2733)">
<mask id="mask1_2_2733" style="mask-type:luminance" maskUnits="userSpaceOnUse" x="-42" y="-19" width="259" height="183">
<path d="M216.658 -18.8179H-41.224V163.506H216.658V-18.8179Z" fill="white"/>
</mask>
<g mask="url(#mask1_2_2733)">
<path d="M149.337 71.2875C151.739 71.2875 153.686 67.544 153.686 62.9262C153.686 58.3084 151.739 54.5649 149.337 54.5649C146.935 54.5649 144.988 58.3084 144.988 62.9262C144.988 67.544 146.935 71.2875 149.337 71.2875Z" fill="white"/>
</g>
<mask id="mask2_2_2733" style="mask-type:luminance" maskUnits="userSpaceOnUse" x="-42" y="-19" width="259" height="183">
<path d="M216.658 -18.8179H-41.224V163.506H216.658V-18.8179Z" fill="white"/>
</mask>
<g mask="url(#mask2_2_2733)">
<path d="M149.337 71.2875C151.739 71.2875 153.686 67.544 153.686 62.9262C153.686 58.3084 151.739 54.5649 149.337 54.5649C146.935 54.5649 144.988 58.3084 144.988 62.9262C144.988 67.544 146.935 71.2875 149.337 71.2875Z" stroke="#7E58BC" stroke-width="2" stroke-miterlimit="10" stroke-linejoin="round"/>
</g>
<mask id="mask3_2_2733" style="mask-type:luminance" maskUnits="userSpaceOnUse" x="-42" y="-19" width="259" height="183">
<path d="M216.658 -18.8179H-41.224V163.506H216.658V-18.8179Z" fill="white"/>
</mask>
<g mask="url(#mask3_2_2733)">
<path d="M170.469 78.3003L169.979 83.0781C169.979 83.0781 168.693 83.997 167.161 84.3645C165.63 84.732 162.108 84.8239 160.76 84.6708C159.994 84.5789 158.157 84.5482 156.472 83.9663C155.278 83.5682 153.961 82.6187 153.961 82.6187L153.318 78.8822L160.852 72.5117L168.999 75.0538L170.469 78.3003Z" fill="white"/>
</g>
<mask id="mask4_2_2733" style="mask-type:luminance" maskUnits="userSpaceOnUse" x="-42" y="-19" width="259" height="183">
<path d="M216.658 -18.8179H-41.224V163.506H216.658V-18.8179Z" fill="white"/>
</mask>
<g mask="url(#mask4_2_2733)">
<path d="M170.469 78.3003L169.979 83.0781C169.979 83.0781 168.693 83.997 167.161 84.3645C165.63 84.732 162.108 84.8239 160.76 84.6708C159.994 84.5789 158.157 84.5482 156.472 83.9663C155.278 83.5682 153.961 82.6187 153.961 82.6187L153.318 78.8822L160.852 72.5117L168.999 75.0538L170.469 78.3003Z" stroke="#7E58BC" stroke-width="2" stroke-miterlimit="10" stroke-linejoin="round"/>
</g>
<mask id="mask5_2_2733" style="mask-type:luminance" maskUnits="userSpaceOnUse" x="-42" y="-19" width="259" height="183">
<path d="M216.658 -18.8179H-41.224V163.506H216.658V-18.8179Z" fill="white"/>
</mask>
<g mask="url(#mask5_2_2733)">
<path d="M174.023 44.9785L172.4 76.0959C172.4 76.0959 172.768 76.5859 171.941 77.2597C171.114 77.9335 158.832 84.2733 158.832 84.2733C158.832 84.2733 158.281 83.9671 157.699 83.6608C157.117 83.3239 156.015 49.8176 156.015 49.8176L165.111 45.2542L174.023 44.9785Z" fill="white"/>
</g>
<mask id="mask6_2_2733" style="mask-type:luminance" maskUnits="userSpaceOnUse" x="-42" y="-19" width="259" height="183">
<path d="M216.658 -18.8179H-41.224V163.506H216.658V-18.8179Z" fill="white"/>
</mask>
<g mask="url(#mask6_2_2733)">
<path d="M174.023 44.9785L172.4 76.0959C172.4 76.0959 172.768 76.5859 171.941 77.2597C171.114 77.9335 158.832 84.2733 158.832 84.2733C158.832 84.2733 158.281 83.9671 157.699 83.6608C157.117 83.3239 156.015 49.8176 156.015 49.8176L165.111 45.2542L174.023 44.9785Z" stroke="#7E58BC" stroke-width="2" stroke-miterlimit="10" stroke-linejoin="round"/>
</g>
<mask id="mask7_2_2733" style="mask-type:luminance" maskUnits="userSpaceOnUse" x="-42" y="-19" width="259" height="183">
<path d="M216.658 -18.8179H-41.224V163.506H216.658V-18.8179Z" fill="white"/>
</mask>
<g mask="url(#mask7_2_2733)">
<path d="M105.571 29.6332L106.888 9.84793C106.888 9.84793 106.796 8.50033 107.715 7.73465C108.633 6.96897 117.546 2.49738 117.546 2.49738C117.546 2.49738 118.465 1.91546 119.384 2.31362C120.303 2.7424 172.706 43.9667 172.706 43.9667C172.706 43.9667 173.9 44.4874 173.717 45.1918C173.533 45.8656 162.599 51.1642 162.599 51.1642C162.599 51.1642 161.527 51.4398 160.853 51.1335C160.179 50.8273 159.628 51.2254 159.107 51.3786C158.556 51.5317 158.587 83.6597 158.587 83.6597C158.587 83.6597 158.158 83.966 157.086 83.2003C156.014 82.4346 150.562 77.6262 150.562 77.6262L149 62.6494L141.711 56.7996L114.391 34.8704L114.024 38.5763L103.672 31.5933L105.571 29.6332Z" fill="white"/>
</g>
<mask id="mask8_2_2733" style="mask-type:luminance" maskUnits="userSpaceOnUse" x="-42" y="-19" width="259" height="183">
<path d="M216.658 -18.8179H-41.224V163.506H216.658V-18.8179Z" fill="white"/>
</mask>
<g mask="url(#mask8_2_2733)">
<path d="M105.571 29.6332L106.888 9.84793C106.888 9.84793 106.796 8.50033 107.715 7.73465C108.633 6.96897 117.546 2.49738 117.546 2.49738C117.546 2.49738 118.465 1.91546 119.384 2.31362C120.303 2.7424 172.706 43.9667 172.706 43.9667C172.706 43.9667 173.9 44.4874 173.717 45.1918C173.533 45.8656 162.599 51.1642 162.599 51.1642C162.599 51.1642 161.527 51.4398 160.853 51.1335C160.179 50.8273 159.628 51.2254 159.107 51.3786C158.556 51.5317 158.587 83.6597 158.587 83.6597C158.587 83.6597 158.158 83.966 157.086 83.2003C156.014 82.4346 150.562 77.6262 150.562 77.6262L149 62.6494L141.711 56.7996L114.391 34.8704L114.024 38.5763L103.672 31.5933L105.571 29.6332Z" stroke="#7E58BC" stroke-width="2" stroke-miterlimit="10" stroke-linejoin="round"/>
</g>
<mask id="mask9_2_2733" style="mask-type:luminance" maskUnits="userSpaceOnUse" x="-42" y="-19" width="259" height="183">
<path d="M216.658 -18.8179H-41.224V163.506H216.658V-18.8179Z" fill="white"/>
</mask>
<g mask="url(#mask9_2_2733)">
<path d="M167.101 41.2723L170.776 44.5188L161.803 49.1129L158.28 46.6321C158.28 46.6321 156.014 47.5509 155.708 48.4697C155.401 49.4192 154.483 63.2321 154.483 63.2321L149.46 59.7712L148.204 59.7406L144.253 56.6779C144.253 56.6779 143.579 54.2583 142.385 53.7376C141.19 53.2476 141.742 52.0531 141.742 52.0531L140.21 51.2875L140.057 52.7882L135.708 49.3273L135.984 47.6734L133.87 46.1421L133.656 47.6122L129.062 45.1007L129.276 42.283L126.918 40.5985L127.071 42.4055L125.754 43.2937L122.324 39.0672L122.171 37.0764C122.171 37.0764 122.171 35.4838 120.854 35.6982C119.568 35.9126 119.2 36.617 119.2 36.617L113.993 32.7579L113.871 31.2572L109.43 28.1945C109.43 28.1945 108.358 27.49 108.725 26.2649C109.093 25.0399 109.675 12.6971 109.675 12.6971C109.675 12.6971 109.614 11.962 110.747 11.4413C111.911 10.89 112.554 10.5838 112.554 10.5838L109.522 7.91919L118.128 3.72325C118.128 3.72325 118.22 3.53949 119.231 4.09078C120.241 4.61144 167.101 41.2723 167.101 41.2723Z" stroke="#7E58BC" stroke-width="2" stroke-miterlimit="10" stroke-linejoin="round"/>
</g>
<mask id="mask10_2_2733" style="mask-type:luminance" maskUnits="userSpaceOnUse" x="-42" y="-19" width="259" height="183">
<path d="M216.658 -18.8179H-41.224V163.506H216.658V-18.8179Z" fill="white"/>
</mask>
<g mask="url(#mask10_2_2733)">
<path d="M106.92 9.54346L158.956 51.166" stroke="#7E58BC" stroke-width="2" stroke-miterlimit="10" stroke-linejoin="round"/>
</g>
<mask id="mask11_2_2733" style="mask-type:luminance" maskUnits="userSpaceOnUse" x="-42" y="-19" width="259" height="183">
<path d="M216.658 -18.8179H-41.224V163.506H216.658V-18.8179Z" fill="white"/>
</mask>
<g mask="url(#mask11_2_2733)">
<path d="M158.467 45.3774C161.528 45.3774 164.01 43.7045 164.01 41.6408C164.01 39.5772 161.528 37.9043 158.467 37.9043C155.405 37.9043 152.923 39.5772 152.923 41.6408C152.923 43.7045 155.405 45.3774 158.467 45.3774Z" fill="white"/>
</g>
<mask id="mask12_2_2733" style="mask-type:luminance" maskUnits="userSpaceOnUse" x="-42" y="-19" width="259" height="183">
<path d="M216.658 -18.8179H-41.224V163.506H216.658V-18.8179Z" fill="white"/>
</mask>
<g mask="url(#mask12_2_2733)">
<path d="M158.467 45.3774C161.528 45.3774 164.01 43.7045 164.01 41.6408C164.01 39.5772 161.528 37.9043 158.467 37.9043C155.405 37.9043 152.923 39.5772 152.923 41.6408C152.923 43.7045 155.405 45.3774 158.467 45.3774Z" stroke="#7E58BC" stroke-width="2" stroke-miterlimit="10" stroke-linejoin="round"/>
</g>
<mask id="mask13_2_2733" style="mask-type:luminance" maskUnits="userSpaceOnUse" x="-42" y="-19" width="259" height="183">
<path d="M216.658 -18.8179H-41.224V163.506H216.658V-18.8179Z" fill="white"/>
</mask>
<g mask="url(#mask13_2_2733)">
<path d="M158.619 39.7402L158.251 43.1399" stroke="#7E58BC" stroke-width="2" stroke-miterlimit="10" stroke-linecap="round" stroke-linejoin="round"/>
</g>
<mask id="mask14_2_2733" style="mask-type:luminance" maskUnits="userSpaceOnUse" x="-42" y="-19" width="259" height="183">
<path d="M216.658 -18.8179H-41.224V163.506H216.658V-18.8179Z" fill="white"/>
</mask>
<g mask="url(#mask14_2_2733)">
<path d="M155.187 40.9971L161.68 41.4565" stroke="#7E58BC" stroke-width="2" stroke-miterlimit="10" stroke-linecap="round" stroke-linejoin="round"/>
</g>
<mask id="mask15_2_2733" style="mask-type:luminance" maskUnits="userSpaceOnUse" x="-42" y="-19" width="259" height="183">
<path d="M216.658 -18.8179H-41.224V163.506H216.658V-18.8179Z" fill="white"/>
</mask>
<g mask="url(#mask15_2_2733)">
<path d="M72.6769 113.827L79.9662 117.41L80.058 112.724L73.9938 108.345L72.6769 113.827Z" fill="white"/>
</g>
<mask id="mask16_2_2733" style="mask-type:luminance" maskUnits="userSpaceOnUse" x="-42" y="-19" width="259" height="183">
<path d="M216.658 -18.8179H-41.224V163.506H216.658V-18.8179Z" fill="white"/>
</mask>
<g mask="url(#mask16_2_2733)">
<path d="M72.6769 113.827L79.9662 117.41L80.058 112.724L73.9938 108.345L72.6769 113.827Z" stroke="#7E58BC" stroke-width="2" stroke-miterlimit="10" stroke-linejoin="round"/>
</g>
<mask id="mask17_2_2733" style="mask-type:luminance" maskUnits="userSpaceOnUse" x="-42" y="-19" width="259" height="183">
<path d="M216.658 -18.8179H-41.224V163.506H216.658V-18.8179Z" fill="white"/>
</mask>
<g mask="url(#mask17_2_2733)">
<path d="M80.1817 112.725L80.243 117.717L158.373 77.0133L158.22 71.9292L80.1817 112.725Z" fill="white"/>
</g>
<mask id="mask18_2_2733" style="mask-type:luminance" maskUnits="userSpaceOnUse" x="-42" y="-19" width="259" height="183">
<path d="M216.658 -18.8179H-41.224V163.506H216.658V-18.8179Z" fill="white"/>
</mask>
<g mask="url(#mask18_2_2733)">
<path d="M80.1817 112.725L80.243 117.717L158.373 77.0133L158.22 71.9292L80.1817 112.725Z" stroke="#7E58BC" stroke-width="2" stroke-miterlimit="10" stroke-linejoin="round"/>
</g>
<mask id="mask19_2_2733" style="mask-type:luminance" maskUnits="userSpaceOnUse" x="-42" y="-19" width="259" height="183">
<path d="M216.658 -18.8179H-41.224V163.506H216.658V-18.8179Z" fill="white"/>
</mask>
<g mask="url(#mask19_2_2733)">
<path d="M38.5896 60.6279L103.979 28.3467L112.156 34.1352C112.156 34.1352 111.36 34.9622 112.738 35.5747C114.116 36.1566 115.893 36.5548 116.75 36.5854C117.639 36.6161 147.225 61.4854 147.225 61.4854C147.225 61.4854 146.03 62.0367 147.225 63.2006C148.388 64.3644 158.25 71.4393 158.25 71.4393L79.9364 112.511C79.9364 112.511 79.232 112.357 78.4051 111.775C77.5781 111.163 33.7811 66.9065 33.7811 66.9065L38.5896 60.6279Z" fill="white"/>
</g>
<mask id="mask20_2_2733" style="mask-type:luminance" maskUnits="userSpaceOnUse" x="-42" y="-19" width="259" height="183">
<path d="M216.658 -18.8179H-41.224V163.506H216.658V-18.8179Z" fill="white"/>
</mask>
<g mask="url(#mask20_2_2733)">
<path d="M38.5896 60.6279L103.979 28.3467L112.156 34.1352C112.156 34.1352 111.36 34.9622 112.738 35.5747C114.116 36.1566 115.893 36.5548 116.75 36.5854C117.639 36.6161 147.225 61.4854 147.225 61.4854C147.225 61.4854 146.03 62.0367 147.225 63.2006C148.388 64.3644 158.25 71.4393 158.25 71.4393L79.9364 112.511C79.9364 112.511 79.232 112.357 78.4051 111.775C77.5781 111.163 33.7811 66.9065 33.7811 66.9065L38.5896 60.6279Z" stroke="#7E58BC" stroke-width="2" stroke-miterlimit="10" stroke-linejoin="round"/>
</g>
<mask id="mask21_2_2733" style="mask-type:luminance" maskUnits="userSpaceOnUse" x="-42" y="-19" width="259" height="183">
<path d="M216.658 -18.8179H-41.224V163.506H216.658V-18.8179Z" fill="white"/>
</mask>
<g mask="url(#mask21_2_2733)">
<path d="M70.9317 79.9548L70.3804 80.8123L70.5029 91.4706L82.172 100.199L83.7646 99.8625L88.5731 87.1522L87.4705 81.2105L83.9177 78.4847L76.8734 77.1064L70.9317 79.9548Z" fill="white"/>
</g>
<mask id="mask22_2_2733" style="mask-type:luminance" maskUnits="userSpaceOnUse" x="-42" y="-19" width="259" height="183">
<path d="M216.658 -18.8179H-41.224V163.506H216.658V-18.8179Z" fill="white"/>
</mask>
<g mask="url(#mask22_2_2733)">
<path d="M70.9317 79.9548L70.3804 80.8123L70.5029 91.4706L82.172 100.199L83.7646 99.8625L88.5731 87.1522L87.4705 81.2105L83.9177 78.4847L76.8734 77.1064L70.9317 79.9548Z" stroke="#7E58BC" stroke-width="2" stroke-miterlimit="10" stroke-linejoin="round"/>
</g>
<mask id="mask23_2_2733" style="mask-type:luminance" maskUnits="userSpaceOnUse" x="-42" y="-19" width="259" height="183">
<path d="M216.658 -18.8179H-41.224V163.506H216.658V-18.8179Z" fill="white"/>
</mask>
<g mask="url(#mask23_2_2733)">
<path d="M83.8882 100.996C83.6126 99.342 85.2971 97.6882 87.6248 97.29C89.9524 96.8918 92.0657 97.9332 92.3414 99.5871C92.617 101.241 90.9325 102.895 88.6048 103.293C86.2771 103.691 84.1639 102.65 83.8882 100.996Z" fill="white"/>
</g>
<mask id="mask24_2_2733" style="mask-type:luminance" maskUnits="userSpaceOnUse" x="-42" y="-19" width="259" height="183">
<path d="M216.658 -18.8179H-41.224V163.506H216.658V-18.8179Z" fill="white"/>
</mask>
<g mask="url(#mask24_2_2733)">
<path d="M83.8882 100.996C83.6126 99.342 85.2971 97.6882 87.6248 97.29C89.9524 96.8918 92.0657 97.9332 92.3414 99.5871C92.617 101.241 90.9325 102.895 88.6048 103.293C86.2771 103.691 84.1639 102.65 83.8882 100.996Z" stroke="#7E58BC" stroke-width="2" stroke-miterlimit="10" stroke-linejoin="round"/>
</g>
<mask id="mask25_2_2733" style="mask-type:luminance" maskUnits="userSpaceOnUse" x="-42" y="-19" width="259" height="183">
<path d="M216.658 -18.8179H-41.224V163.506H216.658V-18.8179Z" fill="white"/>
</mask>
<g mask="url(#mask25_2_2733)">
<path d="M72.1268 76.7374L70.7486 77.5337C70.7486 77.5337 70.6873 78.2687 70.7792 79.2794C70.8711 80.2901 71.7899 81.3315 71.7899 81.3315C71.7899 81.3315 72.0043 82.8016 71.7286 83.751C71.453 84.7005 82.5707 93.4293 82.5707 93.4293L82.6932 90.9791C82.6932 90.9791 83.5508 91.806 84.1327 90.7341C84.7146 89.6315 84.439 87.6407 84.439 87.6407C84.439 87.6407 83.7039 86.9975 83.367 86.1093C83.0301 85.2211 83.4283 84.0267 83.4283 84.0267L73.5663 76.3086L72.1268 76.7374Z" fill="white"/>
</g>
<mask id="mask26_2_2733" style="mask-type:luminance" maskUnits="userSpaceOnUse" x="-42" y="-19" width="259" height="183">
<path d="M216.658 -18.8179H-41.224V163.506H216.658V-18.8179Z" fill="white"/>
</mask>
<g mask="url(#mask26_2_2733)">
<path d="M72.1268 76.7374L70.7486 77.5337C70.7486 77.5337 70.6873 78.2687 70.7792 79.2794C70.8711 80.2901 71.7899 81.3315 71.7899 81.3315C71.7899 81.3315 72.0043 82.8016 71.7286 83.751C71.4836 84.7005 82.5707 93.4293 82.5707 93.4293L82.6932 90.9791C82.6932 90.9791 83.5508 91.806 84.1327 90.7341C84.7146 89.6315 84.439 87.6407 84.439 87.6407C84.439 87.6407 83.7039 86.9975 83.367 86.1093C83.0301 85.2211 83.4283 84.0267 83.4283 84.0267L73.5663 76.3086L72.1268 76.7374Z" stroke="#7E58BC" stroke-width="2" stroke-miterlimit="10" stroke-linejoin="round"/>
</g>
<mask id="mask27_2_2733" style="mask-type:luminance" maskUnits="userSpaceOnUse" x="-42" y="-19" width="259" height="183">
<path d="M216.658 -18.8179H-41.224V163.506H216.658V-18.8179Z" fill="white"/>
</mask>
<g mask="url(#mask27_2_2733)">
<path d="M135.188 74.1649C134.912 72.511 136.597 70.8571 138.925 70.4589C141.252 70.0608 143.365 71.1021 143.641 72.756C143.917 74.4099 142.232 76.0637 139.905 76.4619C137.577 76.8601 135.464 75.8187 135.188 74.1649Z" fill="white"/>
</g>
<mask id="mask28_2_2733" style="mask-type:luminance" maskUnits="userSpaceOnUse" x="-42" y="-19" width="259" height="183">
<path d="M216.658 -18.8179H-41.224V163.506H216.658V-18.8179Z" fill="white"/>
</mask>
<g mask="url(#mask28_2_2733)">
<path d="M135.188 74.1649C134.912 72.511 136.597 70.8571 138.925 70.4589C141.252 70.0608 143.365 71.1021 143.641 72.756C143.917 74.4099 142.232 76.0637 139.905 76.4619C137.577 76.8601 135.464 75.8187 135.188 74.1649Z" stroke="#7E58BC" stroke-width="2" stroke-miterlimit="10" stroke-linejoin="round"/>
</g>
<mask id="mask29_2_2733" style="mask-type:luminance" maskUnits="userSpaceOnUse" x="-42" y="-19" width="259" height="183">
<path d="M216.658 -18.8179H-41.224V163.506H216.658V-18.8179Z" fill="white"/>
</mask>
<g mask="url(#mask29_2_2733)">
<path d="M89.9836 97.8403L93.4751 95.6658L94.0877 94.1344L100.213 91.4086L101.285 91.9599C101.285 91.9599 101.622 91.9293 102.296 91.5924C102.97 91.2248 109.126 88.2234 109.126 88.2234C109.126 88.2234 109.983 87.9783 110.167 87.2739C110.351 86.5695 110.443 85.2219 110.443 85.2219L116.139 83.2311C116.139 83.2311 116.17 84.058 116.752 84.0274C117.334 83.9662 124.868 80.2296 124.868 80.2296C124.868 80.2296 125.726 79.6171 125.787 78.3614C125.848 77.1056 125.909 76.2174 125.909 76.2174L131.422 74.1042L132.035 74.8392L133.107 75.4518L135.833 74.3492C135.833 74.3492 136.721 74.3186 137.088 73.5529C137.456 72.7872 138.497 69.1425 138.497 69.1425L136.598 66.0186L88.4829 90.5204L88.1766 97.7178L89.9836 97.8403Z" fill="white"/>
</g>
<mask id="mask30_2_2733" style="mask-type:luminance" maskUnits="userSpaceOnUse" x="-42" y="-19" width="259" height="183">
<path d="M216.658 -18.8179H-41.224V163.506H216.658V-18.8179Z" fill="white"/>
</mask>
<g mask="url(#mask30_2_2733)">
<path d="M89.9836 97.8403L93.4751 95.6658L94.0877 94.1344L100.213 91.4086L101.285 91.9599C101.285 91.9599 101.622 91.9293 102.296 91.5924C102.97 91.2248 109.126 88.2234 109.126 88.2234C109.126 88.2234 109.983 87.9783 110.167 87.2739C110.381 86.5695 110.443 85.2219 110.443 85.2219L116.139 83.2311C116.139 83.2311 116.17 84.058 116.752 84.0274C117.334 83.9662 124.868 80.2296 124.868 80.2296C124.868 80.2296 125.726 79.6171 125.787 78.3614C125.848 77.1056 125.909 76.2174 125.909 76.2174L131.422 74.1042L132.035 74.8392L133.107 75.4518L135.833 74.3492C135.833 74.3492 136.721 74.3186 137.088 73.5529C137.456 72.7872 138.497 69.1425 138.497 69.1425L136.598 66.0186L88.4829 90.5204L88.1766 97.7178L89.9836 97.8403Z" stroke="#7E58BC" stroke-width="2" stroke-miterlimit="10" stroke-linejoin="round"/>
</g>
<mask id="mask31_2_2733" style="mask-type:luminance" maskUnits="userSpaceOnUse" x="-42" y="-19" width="259" height="183">
<path d="M216.658 -18.8179H-41.224V163.506H216.658V-18.8179Z" fill="white"/>
</mask>
<g mask="url(#mask31_2_2733)">
<path d="M90.1667 94.6853L137.731 70.0303" stroke="#7E58BC" stroke-width="2" stroke-miterlimit="10" stroke-linejoin="round"/>
</g>
<mask id="mask32_2_2733" style="mask-type:luminance" maskUnits="userSpaceOnUse" x="-42" y="-19" width="259" height="183">
<path d="M216.658 -18.8179H-41.224V163.506H216.658V-18.8179Z" fill="white"/>
</mask>
<g mask="url(#mask32_2_2733)">
<path d="M139.69 57.6266C139.69 55.6971 140.578 54.1045 141.681 54.1045C142.783 54.1045 143.672 55.6665 143.672 57.6266C143.672 59.5868 142.783 61.1488 141.681 61.1488C140.578 61.1488 139.69 59.5868 139.69 57.6266Z" fill="white"/>
</g>
<mask id="mask33_2_2733" style="mask-type:luminance" maskUnits="userSpaceOnUse" x="-42" y="-19" width="259" height="183">
<path d="M216.658 -18.8179H-41.224V163.506H216.658V-18.8179Z" fill="white"/>
</mask>
<g mask="url(#mask33_2_2733)">
<path d="M139.69 57.6266C139.69 55.6971 140.578 54.1045 141.681 54.1045C142.783 54.1045 143.672 55.6665 143.672 57.6266C143.672 59.5868 142.783 61.1488 141.681 61.1488C140.578 61.1488 139.69 59.5868 139.69 57.6266Z" stroke="#7E58BC" stroke-width="2" stroke-miterlimit="10" stroke-linejoin="round"/>
</g>
<mask id="mask34_2_2733" style="mask-type:luminance" maskUnits="userSpaceOnUse" x="-42" y="-19" width="259" height="183">
<path d="M216.658 -18.8179H-41.224V163.506H216.658V-18.8179Z" fill="white"/>
</mask>
<g mask="url(#mask34_2_2733)">
<path d="M131.453 46.295L128.789 45.9888L73.3837 74.4109C73.3837 74.4109 71.8524 74.9009 71.9442 76.0954C72.0361 77.3205 82.6944 85.4367 82.6944 85.4367C82.6944 85.4367 83.6439 83.8747 84.1033 83.5685C84.5627 83.2622 140.978 54.2888 140.978 54.2888C142.387 54.8707 131.453 46.295 131.453 46.295Z" fill="white"/>
</g>
<mask id="mask35_2_2733" style="mask-type:luminance" maskUnits="userSpaceOnUse" x="-42" y="-19" width="259" height="183">
<path d="M216.658 -18.8179H-41.224V163.506H216.658V-18.8179Z" fill="white"/>
</mask>
<g mask="url(#mask35_2_2733)">
<path d="M131.453 46.295L128.789 45.9888L73.3837 74.4109C73.3837 74.4109 71.8524 74.9009 71.9442 76.0954C72.0361 77.3205 82.6944 85.4367 82.6944 85.4367C82.6944 85.4367 83.6439 83.8747 84.1033 83.5685C84.5627 83.2622 140.978 54.2888 140.978 54.2888C142.387 54.8707 131.453 46.295 131.453 46.295Z" stroke="#7E58BC" stroke-width="2" stroke-miterlimit="10" stroke-linejoin="round"/>
</g>
<mask id="mask36_2_2733" style="mask-type:luminance" maskUnits="userSpaceOnUse" x="-42" y="-19" width="259" height="183">
<path d="M216.658 -18.8179H-41.224V163.506H216.658V-18.8179Z" fill="white"/>
</mask>
<g mask="url(#mask36_2_2733)">
<path d="M86.2761 72.3886C86.2761 72.3886 84.2853 73.3075 83.9484 73.92C83.6115 74.5019 84.4997 75.1145 84.4997 75.1145L87.3174 77.2278C87.3174 77.2278 88.0831 77.4115 88.6037 77.1665C89.1244 76.8908 130.716 55.8805 130.716 55.8805C130.716 55.8805 131.513 55.4824 131.053 54.9923C130.594 54.5023 127.409 51.8683 127.409 51.8683C127.409 51.8683 126.888 51.4396 126.03 51.9908C125.173 52.5728 86.2761 72.3886 86.2761 72.3886Z" stroke="#7E58BC" stroke-width="2" stroke-miterlimit="10" stroke-linejoin="round"/>
</g>
<mask id="mask37_2_2733" style="mask-type:luminance" maskUnits="userSpaceOnUse" x="-42" y="-19" width="259" height="183">
<path d="M216.658 -18.8179H-41.224V163.506H216.658V-18.8179Z" fill="white"/>
</mask>
<g mask="url(#mask37_2_2733)">
<path d="M83.8262 84.2718C83.8262 84.2718 84.7144 83.5674 85.2963 84.6087C85.9089 85.6807 85.2657 91.1936 85.2657 91.1936C85.2657 91.1936 83.8875 90.9486 83.4281 91.8674C82.9686 92.7862 83.4893 101.821 83.4893 101.821L85.817 101.546C85.817 101.546 86.7052 102.311 87.5934 102.005C88.5122 101.699 89.8598 100.964 89.8598 100.964L90.0129 92.9087L95.3421 90.2135L95.1277 93.5519C95.1277 93.5519 94.6376 94.1951 94.1782 94.2563C93.7188 94.3176 100.212 91.3161 100.212 91.3161C100.212 91.3161 100.977 90.8261 101.008 90.0298C101.039 89.2335 101.314 87.3958 101.314 87.3958C101.314 87.3958 101.59 86.8139 102.049 86.477C102.509 86.1401 110.625 82.0973 110.625 82.0973L110.319 85.0069C110.319 85.0069 110.594 85.7419 111.115 85.7726C111.636 85.7726 115.954 83.4143 115.954 83.4143C115.954 83.4143 116.628 82.1279 116.597 81.3316C116.567 80.5353 116.812 78.8508 116.812 78.8508L125.694 74.0423C125.694 74.0423 126.459 74.3792 126.214 75.2368C126 76.0637 125.877 78.1157 125.877 78.1157L131.911 74.7161L132.248 70.8265L137.21 68.4988C137.21 68.4988 137.547 69.2032 137.455 69.9076C137.363 70.6121 137.301 74.8999 137.301 74.8999C137.301 74.8999 139.292 75.298 140.119 74.9305C140.977 74.563 141.375 73.3991 141.375 73.3991L141.406 72.6028L143.09 70.9796L143.519 61.3626L142.079 61.6383L142.324 57.7486C142.324 57.7486 141.865 55.4515 141.314 54.839C140.762 54.1958 140.456 53.6445 140.456 53.6445L83.8262 84.2718Z" fill="white"/>
</g>
<mask id="mask38_2_2733" style="mask-type:luminance" maskUnits="userSpaceOnUse" x="-42" y="-19" width="259" height="183">
<path d="M216.658 -18.8179H-41.224V163.506H216.658V-18.8179Z" fill="white"/>
</mask>
<g mask="url(#mask38_2_2733)">
<path d="M83.8262 84.2718C83.8262 84.2718 84.7144 83.5674 85.2963 84.6087C85.9089 85.6807 85.2657 91.1936 85.2657 91.1936C85.2657 91.1936 83.8875 90.9486 83.4281 91.8674C82.9686 92.7862 83.4893 101.821 83.4893 101.821L85.817 101.546C85.817 101.546 86.7052 102.311 87.5934 102.005C88.5122 101.699 89.8598 100.964 89.8598 100.964L90.0129 92.9087L95.3421 90.2135L95.1277 93.5519C95.1277 93.5519 94.6376 94.1951 94.1782 94.2563C93.7188 94.3176 100.212 91.3161 100.212 91.3161C100.212 91.3161 100.977 90.8261 101.008 90.0298C101.039 89.2335 101.314 87.3958 101.314 87.3958C101.314 87.3958 101.59 86.8139 102.049 86.477C102.509 86.1401 110.625 82.0973 110.625 82.0973L110.319 85.0069C110.319 85.0069 110.594 85.7419 111.115 85.7726C111.636 85.7726 115.954 83.4143 115.954 83.4143C115.954 83.4143 116.628 82.1279 116.597 81.3316C116.567 80.5353 116.812 78.8508 116.812 78.8508L125.694 74.0423C125.694 74.0423 126.459 74.3792 126.214 75.2368C126 76.0637 125.877 78.1157 125.877 78.1157L131.911 74.7161L132.248 70.8265L137.21 68.4988C137.21 68.4988 137.547 69.2032 137.455 69.9076C137.363 70.6121 137.301 74.8999 137.301 74.8999C137.301 74.8999 139.292 75.298 140.119 74.9305C140.977 74.563 141.375 73.3991 141.375 73.3991L141.406 72.6028L143.09 70.9796L143.519 61.3626L142.079 61.6383L142.324 57.7486C142.324 57.7486 141.865 55.4515 141.314 54.839C140.762 54.1958 140.456 53.6445 140.456 53.6445L83.8262 84.2718Z" stroke="#7E58BC" stroke-width="2" stroke-miterlimit="10" stroke-linejoin="round"/>
</g>
<mask id="mask39_2_2733" style="mask-type:luminance" maskUnits="userSpaceOnUse" x="-42" y="-19" width="259" height="183">
<path d="M216.658 -18.8179H-41.224V163.506H216.658V-18.8179Z" fill="white"/>
</mask>
<g mask="url(#mask39_2_2733)">
<path d="M85.5724 87.3355L142.141 57.9639" stroke="#7E58BC" stroke-width="2" stroke-miterlimit="10" stroke-linejoin="round"/>
</g>
<mask id="mask40_2_2733" style="mask-type:luminance" maskUnits="userSpaceOnUse" x="-42" y="-19" width="259" height="183">
<path d="M216.658 -18.8179H-41.224V163.506H216.658V-18.8179Z" fill="white"/>
</mask>
<g mask="url(#mask40_2_2733)">
<path d="M116.413 50.5517C116.413 50.5517 115.708 49.6942 114.759 49.8167C113.779 49.9392 109.277 51.3787 107.899 52.6956C106.52 54.0126 106.092 54.5945 105.969 55.5133C105.847 56.4322 105.448 65.1609 105.448 65.1609L107.684 66.6617L117.301 62.282L117.209 51.9606C117.209 51.93 116.842 50.8274 116.413 50.5517Z" fill="white"/>
</g>
<mask id="mask41_2_2733" style="mask-type:luminance" maskUnits="userSpaceOnUse" x="-42" y="-19" width="259" height="183">
<path d="M216.658 -18.8179H-41.224V163.506H216.658V-18.8179Z" fill="white"/>
</mask>
<g mask="url(#mask41_2_2733)">
<path d="M116.413 50.5517C116.413 50.5517 115.708 49.6942 114.759 49.8167C113.779 49.9392 109.277 51.3787 107.899 52.6956C106.52 54.0126 106.092 54.5945 105.969 55.5133C105.847 56.4322 105.448 65.1609 105.448 65.1609L107.684 66.6617L117.301 62.282L117.209 51.9606C117.209 51.93 116.842 50.8274 116.413 50.5517Z" stroke="#7E58BC" stroke-width="2" stroke-miterlimit="10" stroke-linejoin="round"/>
</g>
<mask id="mask42_2_2733" style="mask-type:luminance" maskUnits="userSpaceOnUse" x="-42" y="-19" width="259" height="183">
<path d="M216.658 -18.8179H-41.224V163.506H216.658V-18.8179Z" fill="white"/>
</mask>
<g mask="url(#mask42_2_2733)">
<path d="M114.761 52.8809C114.761 52.8809 115.312 54.0141 115.404 55.0554C115.496 55.7905 115.22 56.5255 115.006 56.7093C114.485 57.1993 113.658 57.5362 112.862 57.0462C112.035 56.5561 111.759 54.7185 111.759 54.7185L110.657 65.193L112.004 64.7642L112.678 57.5056L111.667 54.7491" stroke="#7E58BC" stroke-width="2" stroke-miterlimit="10" stroke-linejoin="round"/>
</g>
<mask id="mask43_2_2733" style="mask-type:luminance" maskUnits="userSpaceOnUse" x="-42" y="-19" width="259" height="183">
<path d="M216.658 -18.8179H-41.224V163.506H216.658V-18.8179Z" fill="white"/>
</mask>
<g mask="url(#mask43_2_2733)">
<path d="M115.098 56.6777L114.7 63.5995" stroke="#7E58BC" stroke-width="2" stroke-miterlimit="10" stroke-linejoin="round"/>
</g>
<mask id="mask44_2_2733" style="mask-type:luminance" maskUnits="userSpaceOnUse" x="-42" y="-19" width="259" height="183">
<path d="M216.658 -18.8179H-41.224V163.506H216.658V-18.8179Z" fill="white"/>
</mask>
<g mask="url(#mask44_2_2733)">
<path d="M116.996 51.502C116.996 51.502 110.564 54.4115 109.4 55.5448C108.236 56.678 108.451 57.1067 108.451 57.1067L107.624 66.4787" stroke="#7E58BC" stroke-width="2" stroke-miterlimit="10" stroke-linejoin="round"/>
</g>
<mask id="mask45_2_2733" style="mask-type:luminance" maskUnits="userSpaceOnUse" x="-42" y="-19" width="259" height="183">
<path d="M216.658 -18.8179H-41.224V163.506H216.658V-18.8179Z" fill="white"/>
</mask>
<g mask="url(#mask45_2_2733)">
<path d="M95.679 73.7376C95.679 73.7376 94.4539 73.5539 94.607 72.6657C94.7601 71.7775 95.8933 68.2247 95.8933 68.2247L97.5166 67.5815L100.824 70.583" stroke="#7E58BC" stroke-width="2" stroke-miterlimit="10" stroke-linejoin="round"/>
</g>
<mask id="mask46_2_2733" style="mask-type:luminance" maskUnits="userSpaceOnUse" x="-42" y="-19" width="259" height="183">
<path d="M216.658 -18.8179H-41.224V163.506H216.658V-18.8179Z" fill="white"/>
</mask>
<g mask="url(#mask46_2_2733)">
<path d="M94.6079 72.5435L88.9724 75.5143C88.9724 75.5143 88.513 76.0656 88.758 76.6169" stroke="#7E58BC" stroke-width="2" stroke-miterlimit="10" stroke-linejoin="round"/>
</g>
<mask id="mask47_2_2733" style="mask-type:luminance" maskUnits="userSpaceOnUse" x="-42" y="-19" width="259" height="183">
<path d="M216.658 -18.8179H-41.224V163.506H216.658V-18.8179Z" fill="white"/>
</mask>
<g mask="url(#mask47_2_2733)">
<path d="M124.285 58.9447L119.905 55.2388" stroke="#7E58BC" stroke-width="2" stroke-miterlimit="10" stroke-linejoin="round"/>
</g>
<mask id="mask48_2_2733" style="mask-type:luminance" maskUnits="userSpaceOnUse" x="-42" y="-19" width="259" height="183">
<path d="M216.658 -18.8179H-41.224V163.506H216.658V-18.8179Z" fill="white"/>
</mask>
<g mask="url(#mask48_2_2733)">
<path d="M33.1386 97.3816L53.8733 115.727L55.0065 104.426L43.2456 92.3281L36.6608 93.5226L33.1386 97.3816Z" fill="white"/>
</g>
<mask id="mask49_2_2733" style="mask-type:luminance" maskUnits="userSpaceOnUse" x="-42" y="-19" width="259" height="183">
<path d="M216.658 -18.8179H-41.224V163.506H216.658V-18.8179Z" fill="white"/>
</mask>
<g mask="url(#mask49_2_2733)">
<path d="M33.1386 97.3816L53.8733 115.727L55.0065 104.426L43.2456 92.3281L36.6608 93.5226L33.1386 97.3816Z" stroke="#7E58BC" stroke-width="2" stroke-miterlimit="10" stroke-linejoin="round"/>
</g>
<mask id="mask50_2_2733" style="mask-type:luminance" maskUnits="userSpaceOnUse" x="-42" y="-19" width="259" height="183">
<path d="M216.658 -18.8179H-41.224V163.506H216.658V-18.8179Z" fill="white"/>
</mask>
<g mask="url(#mask50_2_2733)">
<path d="M20.3363 103.722L29.9226 98.2702L29.2182 86.3561L21.0713 81.3945L17.1204 82.8646L17.4267 95.33L20.3363 103.722Z" fill="white"/>
</g>
<mask id="mask51_2_2733" style="mask-type:luminance" maskUnits="userSpaceOnUse" x="-42" y="-19" width="259" height="183">
<path d="M216.658 -18.8179H-41.224V163.506H216.658V-18.8179Z" fill="white"/>
</mask>
<g mask="url(#mask51_2_2733)">
<path d="M20.3363 103.722L29.9226 98.2702L29.2182 86.3561L21.0713 81.3945L17.1204 82.8646L17.4267 95.33L20.3363 103.722Z" stroke="#7E58BC" stroke-width="2" stroke-miterlimit="10" stroke-linejoin="round"/>
</g>
<mask id="mask52_2_2733" style="mask-type:luminance" maskUnits="userSpaceOnUse" x="-42" y="-19" width="259" height="183">
<path d="M216.658 -18.8179H-41.224V163.506H216.658V-18.8179Z" fill="white"/>
</mask>
<g mask="url(#mask52_2_2733)">
<path d="M12.8625 97.4737L12.8931 89.7556C12.8931 89.7556 12.5562 88.99 11.423 87.8261C10.2898 86.6317 10.6267 85.4066 10.6267 85.4066L10.1672 57.2294C10.1672 57.2294 10.106 55.6062 11.5761 54.7486C13.0462 53.8911 22.847 49.4807 22.847 49.4807C22.847 49.4807 24.9296 49.297 26.3997 50.3689C27.9005 51.4102 76.3529 91.8995 76.3529 91.8995C76.3529 91.8995 78.0374 93.0634 78.2211 95.6054C78.4049 98.1475 78.4049 126.294 78.4049 126.294C78.4049 126.294 78.4968 127.335 76.6898 128.193C74.8521 129.02 67.2566 133.277 67.2566 133.277C67.2566 133.277 67.8997 134.992 66.3071 136.615C64.7451 138.239 62.3868 140.505 62.3868 140.505L54.6381 134.441L53.9643 111.807L47.6244 105.682L46.6444 104.518L46.3687 100.72L28.8499 85.866L25.5115 87.5505L19.8148 82.3132L20.1517 103.752L12.8625 97.4737Z" fill="white"/>
</g>
<mask id="mask53_2_2733" style="mask-type:luminance" maskUnits="userSpaceOnUse" x="-42" y="-19" width="259" height="183">
<path d="M216.658 -18.8179H-41.224V163.506H216.658V-18.8179Z" fill="white"/>
</mask>
<g mask="url(#mask53_2_2733)">
<path d="M12.8625 97.4737L12.8931 89.7556C12.8931 89.7556 12.5562 88.99 11.423 87.8261C10.2898 86.6317 10.6267 85.4066 10.6267 85.4066L10.1672 57.2294C10.1672 57.2294 10.106 55.6062 11.5761 54.7486C13.0462 53.8911 22.847 49.4807 22.847 49.4807C22.847 49.4807 24.9296 49.297 26.3997 50.3689C27.9005 51.4102 76.3529 91.8995 76.3529 91.8995C76.3529 91.8995 78.0374 93.0634 78.2211 95.6054C78.4049 98.1475 78.4049 126.294 78.4049 126.294C78.4049 126.294 78.4968 127.335 76.6898 128.193C74.8521 129.02 67.2566 133.277 67.2566 133.277C67.2566 133.277 67.8997 134.992 66.3071 136.615C64.7451 138.239 62.3868 140.505 62.3868 140.505L54.6381 134.441L53.9643 111.807L47.6244 105.682L46.6444 104.518L46.3687 100.72L28.8499 85.866L25.5115 87.5505L19.8148 82.3132L20.1517 103.752L12.8625 97.4737Z" stroke="#7E58BC" stroke-width="2" stroke-miterlimit="10" stroke-linejoin="round"/>
</g>
<mask id="mask54_2_2733" style="mask-type:luminance" maskUnits="userSpaceOnUse" x="-42" y="-19" width="259" height="183">
<path d="M216.658 -18.8179H-41.224V163.506H216.658V-18.8179Z" fill="white"/>
</mask>
<g mask="url(#mask54_2_2733)">
<path d="M21.2232 84.0898L20.5494 85.2843L21.315 87.3976L23.1833 89.1127L25.266 87.7039L21.2232 84.0898Z" fill="white"/>
</g>
<mask id="mask55_2_2733" style="mask-type:luminance" maskUnits="userSpaceOnUse" x="-42" y="-19" width="259" height="183">
<path d="M216.658 -18.8179H-41.224V163.506H216.658V-18.8179Z" fill="white"/>
</mask>
<g mask="url(#mask55_2_2733)">
<path d="M21.2232 84.0898L20.5494 85.2843L21.315 87.3976L23.1833 89.1127L25.266 87.7039L21.2232 84.0898Z" stroke="#7E58BC" stroke-width="2" stroke-miterlimit="10" stroke-linejoin="round"/>
</g>
<mask id="mask56_2_2733" style="mask-type:luminance" maskUnits="userSpaceOnUse" x="-42" y="-19" width="259" height="183">
<path d="M216.658 -18.8179H-41.224V163.506H216.658V-18.8179Z" fill="white"/>
</mask>
<g mask="url(#mask56_2_2733)">
<path d="M28.5133 86.3862L23.2148 89.4183C23.2148 89.4183 22.6941 89.8777 22.8166 90.7353C22.9391 91.5622 22.8473 93.308 22.8473 93.308L28.7583 98.6065L39.9679 95.4213L28.5133 86.3862Z" fill="white"/>
</g>
<mask id="mask57_2_2733" style="mask-type:luminance" maskUnits="userSpaceOnUse" x="-42" y="-19" width="259" height="183">
<path d="M216.658 -18.8179H-41.224V163.506H216.658V-18.8179Z" fill="white"/>
</mask>
<g mask="url(#mask57_2_2733)">
<path d="M28.5133 86.3862L23.2148 89.4183C23.2148 89.4183 22.6941 89.8777 22.8166 90.7353C22.9391 91.5622 22.8473 93.308 22.8473 93.308L28.7583 98.6065L39.9679 95.4213L28.5133 86.3862Z" stroke="#7E58BC" stroke-width="2" stroke-miterlimit="10" stroke-linejoin="round"/>
</g>
<mask id="mask58_2_2733" style="mask-type:luminance" maskUnits="userSpaceOnUse" x="-42" y="-19" width="259" height="183">
<path d="M216.658 -18.8179H-41.224V163.506H216.658V-18.8179Z" fill="white"/>
</mask>
<g mask="url(#mask58_2_2733)">
<path d="M23.0311 89.7554L28.8502 94.6557L36.4458 92.5118" stroke="#7E58BC" stroke-width="2" stroke-miterlimit="10" stroke-linejoin="round"/>
</g>
<mask id="mask59_2_2733" style="mask-type:luminance" maskUnits="userSpaceOnUse" x="-42" y="-19" width="259" height="183">
<path d="M216.658 -18.8179H-41.224V163.506H216.658V-18.8179Z" fill="white"/>
</mask>
<g mask="url(#mask59_2_2733)">
<path d="M28.852 94.5947L28.7908 98.4538" stroke="#7E58BC" stroke-width="2" stroke-miterlimit="10" stroke-linejoin="round"/>
</g>
<mask id="mask60_2_2733" style="mask-type:luminance" maskUnits="userSpaceOnUse" x="-42" y="-19" width="259" height="183">
<path d="M216.658 -18.8179H-41.224V163.506H216.658V-18.8179Z" fill="white"/>
</mask>
<g mask="url(#mask60_2_2733)">
<path d="M37.7016 96.2495L46.4304 103.6V100.66L39.723 95.3613L37.7016 96.2495Z" stroke="#7E58BC" stroke-width="2" stroke-miterlimit="10" stroke-linejoin="round"/>
</g>
<mask id="mask61_2_2733" style="mask-type:luminance" maskUnits="userSpaceOnUse" x="-42" y="-19" width="259" height="183">
<path d="M216.658 -18.8179H-41.224V163.506H216.658V-18.8179Z" fill="white"/>
</mask>
<g mask="url(#mask61_2_2733)">
<path d="M10.3208 56.3115L63.4285 102.13L64.378 133.737L61.9584 132.849L62.326 139.924" stroke="#7E58BC" stroke-width="2" stroke-miterlimit="10" stroke-linejoin="round"/>
</g>
<mask id="mask62_2_2733" style="mask-type:luminance" maskUnits="userSpaceOnUse" x="-42" y="-19" width="259" height="183">
<path d="M216.658 -18.8179H-41.224V163.506H216.658V-18.8179Z" fill="white"/>
</mask>
<g mask="url(#mask62_2_2733)">
<path d="M67.1946 98.4227C68.3278 97.8714 69.9817 96.9526 71.268 96.2176C72.7381 95.36 73.5651 94.9618 73.9632 94.5024C74.7289 93.6449 73.9939 93.4917 73.9939 93.4917L71.7274 91.3478L72.9525 90.2452L27.5016 52.2674C27.5016 52.2674 26.154 53.125 25.4802 52.543C24.8064 51.9611 23.03 50.8892 23.03 50.8892L17.2415 53.8294C17.2415 53.8294 13.9031 55.2995 13.9337 55.8202C13.9643 56.3408 17.0271 58.6991 17.0271 58.6991L64.4075 99.2497C64.4075 99.2803 64.7444 99.6172 67.1946 98.4227Z" stroke="#7E58BC" stroke-width="2" stroke-miterlimit="10" stroke-linejoin="round"/>
</g>
<mask id="mask63_2_2733" style="mask-type:luminance" maskUnits="userSpaceOnUse" x="-42" y="-19" width="259" height="183">
<path d="M216.658 -18.8179H-41.224V163.506H216.658V-18.8179Z" fill="white"/>
</mask>
<g mask="url(#mask63_2_2733)">
<path d="M65.9086 102.038C65.9086 102.038 66.123 103.416 66.368 104.795C66.613 106.173 67.1643 133.247 67.1643 133.247" stroke="#7E58BC" stroke-width="2" stroke-miterlimit="10" stroke-linejoin="round"/>
</g>
<mask id="mask64_2_2733" style="mask-type:luminance" maskUnits="userSpaceOnUse" x="-42" y="-19" width="259" height="183">
<path d="M216.658 -18.8179H-41.224V163.506H216.658V-18.8179Z" fill="white"/>
</mask>
<g mask="url(#mask64_2_2733)">
<path d="M77.9465 94.1646C77.9465 94.1646 78.2528 95.4815 76.9052 96.431C75.5576 97.3804 70.7184 100.045 67.2576 101.423C63.7967 102.801 63.0922 101.913 63.0922 101.913" stroke="#7E58BC" stroke-width="2" stroke-miterlimit="10" stroke-linejoin="round"/>
</g>
<mask id="mask65_2_2733" style="mask-type:luminance" maskUnits="userSpaceOnUse" x="-42" y="-19" width="259" height="183">
<path d="M216.658 -18.8179H-41.224V163.506H216.658V-18.8179Z" fill="white"/>
</mask>
<g mask="url(#mask65_2_2733)">
<path d="M28.7565 76.0647C28.7565 76.0647 26.9801 75.8197 26.4595 77.7492C26.2145 78.6987 26.1226 80.0157 26.092 81.1489C26.0613 82.374 26.0307 82.4352 26.2757 83.2009C26.5207 83.936 28.4196 85.1611 29.4303 86.0492C30.441 86.9374 42.8145 97.4732 42.8145 97.4732C42.8145 97.4732 44.744 98.5452 45.479 97.8101C46.2141 97.0751 47.2248 94.533 46.6735 93.0323C46.1222 91.5315 45.6015 90.7659 41.0993 86.4168C36.5665 82.0983 28.7565 76.0647 28.7565 76.0647Z" fill="white"/>
</g>
<mask id="mask66_2_2733" style="mask-type:luminance" maskUnits="userSpaceOnUse" x="-42" y="-19" width="259" height="183">
<path d="M216.658 -18.8179H-41.224V163.506H216.658V-18.8179Z" fill="white"/>
</mask>
<g mask="url(#mask66_2_2733)">
<path d="M28.7565 76.0647C28.7565 76.0647 26.9801 75.8197 26.4595 77.7492C26.2145 78.6987 26.1226 80.0157 26.092 81.1489C26.0613 82.374 26.0307 82.4352 26.2757 83.2009C26.5207 83.936 28.4196 85.1611 29.4303 86.0492C30.441 86.9374 42.8145 97.4732 42.8145 97.4732C42.8145 97.4732 44.744 98.5452 45.479 97.8101C46.2141 97.0751 47.2248 94.533 46.6735 93.0323C46.1222 91.5315 45.6015 90.7659 41.0993 86.4168C36.5665 82.0983 28.7565 76.0647 28.7565 76.0647Z" stroke="#7E58BC" stroke-width="2" stroke-miterlimit="10" stroke-linejoin="round"/>
</g>
<mask id="mask67_2_2733" style="mask-type:luminance" maskUnits="userSpaceOnUse" x="-42" y="-19" width="259" height="183">
<path d="M216.658 -18.8179H-41.224V163.506H216.658V-18.8179Z" fill="white"/>
</mask>
<g mask="url(#mask67_2_2733)">
<path d="M28.0548 81.9767C27.5648 80.6291 27.626 79.3734 28.1773 79.159C28.7592 78.9446 29.6168 79.8634 30.1374 81.211C30.6275 82.5586 30.5662 83.8143 30.0149 84.0287C29.433 84.2431 28.5755 83.3243 28.0548 81.9767Z" fill="white"/>
</g>
<mask id="mask68_2_2733" style="mask-type:luminance" maskUnits="userSpaceOnUse" x="-42" y="-19" width="259" height="183">
<path d="M216.658 -18.8179H-41.224V163.506H216.658V-18.8179Z" fill="white"/>
</mask>
<g mask="url(#mask68_2_2733)">
<path d="M28.0548 81.9767C27.5648 80.6291 27.626 79.3734 28.1773 79.159C28.7592 78.9446 29.6168 79.8634 30.1374 81.211C30.6275 82.5586 30.5662 83.8143 30.0149 84.0287C29.433 84.2431 28.5755 83.3243 28.0548 81.9767Z" stroke="#7E58BC" stroke-width="2" stroke-miterlimit="10" stroke-linejoin="round"/>
</g>
<mask id="mask69_2_2733" style="mask-type:luminance" maskUnits="userSpaceOnUse" x="-42" y="-19" width="259" height="183">
<path d="M216.658 -18.8179H-41.224V163.506H216.658V-18.8179Z" fill="white"/>
</mask>
<g mask="url(#mask69_2_2733)">
<path d="M28.1771 79.2202L27.2583 79.8634L27.3502 80.6903C27.3502 80.6903 26.952 80.9966 27.0133 81.456C27.0745 81.9154 27.0745 82.3136 27.5339 82.773C27.9933 83.2324 28.4834 83.4468 28.8203 83.263C29.1572 83.1099 29.4941 83.4468 29.4941 83.4468C29.4941 83.4468 29.8616 83.508 30.0148 83.2018" fill="white"/>
</g>
<mask id="mask70_2_2733" style="mask-type:luminance" maskUnits="userSpaceOnUse" x="-42" y="-19" width="259" height="183">
<path d="M216.658 -18.8179H-41.224V163.506H216.658V-18.8179Z" fill="white"/>
</mask>
<g mask="url(#mask70_2_2733)">
<path d="M28.1771 79.2202L27.2583 79.8634L27.3502 80.6903C27.3502 80.6903 26.952 80.9966 27.0133 81.456C27.0745 81.9154 27.0745 82.3136 27.5339 82.773C27.9933 83.2324 28.4834 83.4468 28.8203 83.263C29.1572 83.1099 29.4941 83.4468 29.4941 83.4468C29.4941 83.4468 29.8616 83.508 30.0148 83.2018" stroke="#7E58BC" stroke-width="2" stroke-miterlimit="10" stroke-linejoin="round"/>
</g>
<mask id="mask71_2_2733" style="mask-type:luminance" maskUnits="userSpaceOnUse" x="-42" y="-19" width="259" height="183">
<path d="M216.658 -18.8179H-41.224V163.506H216.658V-18.8179Z" fill="white"/>
</mask>
<g mask="url(#mask71_2_2733)">
<path d="M34.5153 87.7335C34.0252 86.3859 34.0865 85.1302 34.6378 84.9158C35.2197 84.7014 36.0773 85.6202 36.5979 86.9678C37.088 88.3154 37.0267 89.5712 36.4754 89.7856C35.8935 90.0306 35.0053 89.1117 34.5153 87.7335Z" fill="white"/>
</g>
<mask id="mask72_2_2733" style="mask-type:luminance" maskUnits="userSpaceOnUse" x="-42" y="-19" width="259" height="183">
<path d="M216.658 -18.8179H-41.224V163.506H216.658V-18.8179Z" fill="white"/>
</mask>
<g mask="url(#mask72_2_2733)">
<path d="M34.5153 87.7335C34.0252 86.3859 34.0865 85.1302 34.6378 84.9158C35.2197 84.7014 36.0773 85.6202 36.5979 86.9678C37.088 88.3154 37.0267 89.5712 36.4754 89.7856C35.8935 90.0306 35.0053 89.1117 34.5153 87.7335Z" stroke="#7E58BC" stroke-width="2" stroke-miterlimit="10" stroke-linejoin="round"/>
</g>
<mask id="mask73_2_2733" style="mask-type:luminance" maskUnits="userSpaceOnUse" x="-42" y="-19" width="259" height="183">
<path d="M216.658 -18.8179H-41.224V163.506H216.658V-18.8179Z" fill="white"/>
</mask>
<g mask="url(#mask73_2_2733)">
<path d="M34.6077 84.9785L33.6889 85.6217L33.7807 86.4486C33.7807 86.4486 33.3826 86.7549 33.4438 87.2143C33.5051 87.6737 33.5051 88.0719 33.9645 88.5313C34.4239 88.9907 34.9139 89.2051 35.2508 89.0213C35.5877 88.8682 35.9246 89.2051 35.9246 89.2051C35.9246 89.2051 36.2922 89.2663 36.4453 88.9601" fill="white"/>
</g>
<mask id="mask74_2_2733" style="mask-type:luminance" maskUnits="userSpaceOnUse" x="-42" y="-19" width="259" height="183">
<path d="M216.658 -18.8179H-41.224V163.506H216.658V-18.8179Z" fill="white"/>
</mask>
<g mask="url(#mask74_2_2733)">
<path d="M34.6077 84.9785L33.6889 85.6217L33.7807 86.4486C33.7807 86.4486 33.3826 86.7549 33.4438 87.2143C33.5051 87.6737 33.5051 88.0719 33.9645 88.5313C34.4239 88.9907 34.9139 89.2051 35.2508 89.0213C35.5877 88.8682 35.9246 89.2051 35.9246 89.2051C35.9246 89.2051 36.2922 89.2663 36.4453 88.9601" stroke="#7E58BC" stroke-width="2" stroke-miterlimit="10" stroke-linejoin="round"/>
</g>
<mask id="mask75_2_2733" style="mask-type:luminance" maskUnits="userSpaceOnUse" x="-42" y="-19" width="259" height="183">
<path d="M216.658 -18.8179H-41.224V163.506H216.658V-18.8179Z" fill="white"/>
</mask>
<g mask="url(#mask75_2_2733)">
<path d="M41.2238 93.3707C40.7337 92.0231 40.795 90.7674 41.3463 90.553C41.9282 90.3386 42.7857 91.2574 43.3064 92.605C43.7964 93.9526 43.7352 95.2084 43.1839 95.4228C42.602 95.6371 41.7138 94.7183 41.2238 93.3707Z" fill="white"/>
</g>
<mask id="mask76_2_2733" style="mask-type:luminance" maskUnits="userSpaceOnUse" x="-42" y="-19" width="259" height="183">
<path d="M216.658 -18.8179H-41.224V163.506H216.658V-18.8179Z" fill="white"/>
</mask>
<g mask="url(#mask76_2_2733)">
<path d="M41.2238 93.3707C40.7337 92.0231 40.795 90.7674 41.3463 90.553C41.9282 90.3386 42.7857 91.2574 43.3064 92.605C43.7964 93.9526 43.7352 95.2084 43.1839 95.4228C42.602 95.6371 41.7138 94.7183 41.2238 93.3707Z" stroke="#7E58BC" stroke-width="2" stroke-miterlimit="10" stroke-linejoin="round"/>
</g>
<mask id="mask77_2_2733" style="mask-type:luminance" maskUnits="userSpaceOnUse" x="-42" y="-19" width="259" height="183">
<path d="M216.658 -18.8179H-41.224V163.506H216.658V-18.8179Z" fill="white"/>
</mask>
<g mask="url(#mask77_2_2733)">
<path d="M41.3162 90.6143L40.3973 91.2574L40.4892 92.0844C40.4892 92.0844 40.0911 92.3906 40.1523 92.8501C40.2136 93.3095 40.2136 93.7076 40.673 94.167C41.1324 94.6264 41.6224 94.8408 41.9593 94.6571C42.2962 94.5039 42.6331 94.8408 42.6331 94.8408C42.6331 94.8408 43.0007 94.9021 43.1538 94.5958" fill="white"/>
</g>
<mask id="mask78_2_2733" style="mask-type:luminance" maskUnits="userSpaceOnUse" x="-42" y="-19" width="259" height="183">
<path d="M216.658 -18.8179H-41.224V163.506H216.658V-18.8179Z" fill="white"/>
</mask>
<g mask="url(#mask78_2_2733)">
<path d="M41.3162 90.6143L40.3973 91.2574L40.4892 92.0844C40.4892 92.0844 40.0911 92.3906 40.1523 92.8501C40.2136 93.3095 40.2136 93.7076 40.673 94.167C41.1324 94.6264 41.6224 94.8408 41.9593 94.6571C42.2962 94.5039 42.6331 94.8408 42.6331 94.8408C42.6331 94.8408 43.0007 94.9021 43.1538 94.5958" stroke="#7E58BC" stroke-width="2" stroke-miterlimit="10" stroke-linejoin="round"/>
</g>
<mask id="mask79_2_2733" style="mask-type:luminance" maskUnits="userSpaceOnUse" x="-42" y="-19" width="259" height="183">
<path d="M216.658 -18.8179H-41.224V163.506H216.658V-18.8179Z" fill="white"/>
</mask>
<g mask="url(#mask79_2_2733)">
<path d="M63.5506 93.3991C66.6292 93.3991 69.1248 91.7399 69.1248 89.6932C69.1248 87.6465 66.6292 85.9873 63.5506 85.9873C60.4721 85.9873 57.9765 87.6465 57.9765 89.6932C57.9765 91.7399 60.4721 93.3991 63.5506 93.3991Z" fill="white"/>
</g>
<mask id="mask80_2_2733" style="mask-type:luminance" maskUnits="userSpaceOnUse" x="-42" y="-19" width="259" height="183">
<path d="M216.658 -18.8179H-41.224V163.506H216.658V-18.8179Z" fill="white"/>
</mask>
<g mask="url(#mask80_2_2733)">
<path d="M63.5506 93.3991C66.6292 93.3991 69.1248 91.7399 69.1248 89.6932C69.1248 87.6465 66.6292 85.9873 63.5506 85.9873C60.4721 85.9873 57.9765 87.6465 57.9765 89.6932C57.9765 91.7399 60.4721 93.3991 63.5506 93.3991Z" stroke="#7E58BC" stroke-width="2" stroke-miterlimit="10" stroke-linejoin="round"/>
</g>
<mask id="mask81_2_2733" style="mask-type:luminance" maskUnits="userSpaceOnUse" x="-42" y="-19" width="259" height="183">
<path d="M216.658 -18.8179H-41.224V163.506H216.658V-18.8179Z" fill="white"/>
</mask>
<g mask="url(#mask81_2_2733)">
<path d="M63.6099 87.4888L63.273 91.3478" stroke="#7E58BC" stroke-width="2" stroke-miterlimit="10" stroke-linecap="round" stroke-linejoin="round"/>
</g>
<mask id="mask82_2_2733" style="mask-type:luminance" maskUnits="userSpaceOnUse" x="-42" y="-19" width="259" height="183">
<path d="M216.658 -18.8179H-41.224V163.506H216.658V-18.8179Z" fill="white"/>
</mask>
<g mask="url(#mask82_2_2733)">
<path d="M60.488 89.0503L66.5829 89.5403" stroke="#7E58BC" stroke-width="2" stroke-miterlimit="10" stroke-linecap="round" stroke-linejoin="round"/>
</g>
<mask id="mask83_2_2733" style="mask-type:luminance" maskUnits="userSpaceOnUse" x="-42" y="-19" width="259" height="183">
<path d="M216.658 -18.8179H-41.224V163.506H216.658V-18.8179Z" fill="white"/>
</mask>
<g mask="url(#mask83_2_2733)">
<path d="M52.6186 58.5758H52.588L52.5574 58.5451L52.6186 58.5758ZM52.6186 58.5758L52.6799 58.6064L52.7718 58.637H52.8636H52.9249L52.9862 58.5758V58.5145H52.9555L52.9249 58.4839" stroke="#7E58BC" stroke-width="2" stroke-miterlimit="10" stroke-linecap="round" stroke-linejoin="round"/>
</g>
<mask id="mask84_2_2733" style="mask-type:luminance" maskUnits="userSpaceOnUse" x="-42" y="-19" width="259" height="183">
<path d="M216.658 -18.8179H-41.224V163.506H216.658V-18.8179Z" fill="white"/>
</mask>
<g mask="url(#mask84_2_2733)">
<path d="M54.1187 59.4639C54.6087 59.9539 56.5076 61.0259 57.1814 61.3628" stroke="#7E58BC" stroke-width="2" stroke-miterlimit="10" stroke-linecap="round" stroke-linejoin="round"/>
</g>
<mask id="mask85_2_2733" style="mask-type:luminance" maskUnits="userSpaceOnUse" x="-42" y="-19" width="259" height="183">
<path d="M216.658 -18.8179H-41.224V163.506H216.658V-18.8179Z" fill="white"/>
</mask>
<g mask="url(#mask85_2_2733)">
<path d="M55.8633 57.6883C55.8327 57.6577 56.5371 56.4939 56.9046 56.5857C58.0378 56.8614 59.416 58.8215 60.6105 59.4034" stroke="#7E58BC" stroke-width="2" stroke-miterlimit="10" stroke-linecap="round" stroke-linejoin="round"/>
</g>
<mask id="mask86_2_2733" style="mask-type:luminance" maskUnits="userSpaceOnUse" x="-42" y="-19" width="259" height="183">
<path d="M216.658 -18.8179H-41.224V163.506H216.658V-18.8179Z" fill="white"/>
</mask>
<g mask="url(#mask86_2_2733)">
<path d="M59.998 60.2011C60.5186 59.9254 61.4681 59.0679 62.05 59.0679" stroke="#7E58BC" stroke-width="2" stroke-miterlimit="10" stroke-linecap="round" stroke-linejoin="round"/>
</g>
<mask id="mask87_2_2733" style="mask-type:luminance" maskUnits="userSpaceOnUse" x="-42" y="-19" width="259" height="183">
<path d="M216.658 -18.8179H-41.224V163.506H216.658V-18.8179Z" fill="white"/>
</mask>
<g mask="url(#mask87_2_2733)">
<path d="M62.6018 54.3807C61.8362 53.9826 61.1317 54.9627 61.0398 55.6365C60.8561 57.1066 63.3982 58.2092 64.4701 57.321C64.8683 56.9841 64.5926 56.2796 64.1332 56.1265C63.3675 55.8815 62.6937 56.3715 62.3568 57.0147" stroke="#7E58BC" stroke-width="2" stroke-miterlimit="10" stroke-linecap="round" stroke-linejoin="round"/>
</g>
<mask id="mask88_2_2733" style="mask-type:luminance" maskUnits="userSpaceOnUse" x="-42" y="-19" width="259" height="183">
<path d="M216.658 -18.8179H-41.224V163.506H216.658V-18.8179Z" fill="white"/>
</mask>
<g mask="url(#mask88_2_2733)">
<path d="M72.9836 56.1566C71.8504 55.8809 69.7371 53.6451 68.6958 52.8795C68.5426 52.757 67.5013 52.175 67.5013 51.9913C67.5013 51.7156 69.7371 51.2256 70.0434 51.2256C71.4216 51.2256 73.9637 52.3282 71.8198 53.5533C71.5135 53.737 70.9928 54.0127 70.6253 54.0127" stroke="#7E58BC" stroke-width="2" stroke-miterlimit="10" stroke-linecap="round" stroke-linejoin="round"/>
</g>
<mask id="mask89_2_2733" style="mask-type:luminance" maskUnits="userSpaceOnUse" x="-42" y="-19" width="259" height="183">
<path d="M216.658 -18.8179H-41.224V163.506H216.658V-18.8179Z" fill="white"/>
</mask>
<g mask="url(#mask89_2_2733)">
<path d="M72.7994 50.0632C73.7488 51.0126 74.8208 51.6864 76.2603 51.6558C78.2204 51.5945 77.4547 49.7569 76.3521 49.1137C75.9846 48.8993 75.5558 48.8074 75.1577 48.6543" stroke="#7E58BC" stroke-width="2" stroke-miterlimit="10" stroke-linecap="round" stroke-linejoin="round"/>
</g>
<mask id="mask90_2_2733" style="mask-type:luminance" maskUnits="userSpaceOnUse" x="-42" y="-19" width="259" height="183">
<path d="M216.658 -18.8179H-41.224V163.506H216.658V-18.8179Z" fill="white"/>
</mask>
<g mask="url(#mask90_2_2733)">
<path d="M75.7412 46.4175C77.2726 47.2138 78.3139 49.3271 80.0903 49.7559" stroke="#7E58BC" stroke-width="2" stroke-miterlimit="10" stroke-linecap="round" stroke-linejoin="round"/>
</g>
<mask id="mask91_2_2733" style="mask-type:luminance" maskUnits="userSpaceOnUse" x="-42" y="-19" width="259" height="183">
<path d="M216.658 -18.8179H-41.224V163.506H216.658V-18.8179Z" fill="white"/>
</mask>
<g mask="url(#mask91_2_2733)">
<path d="M81.5299 45.1327C81.1317 44.7958 78.6816 45.929 78.9572 46.5109C79.4166 47.491 82.1118 46.5721 83.0613 47.0622C84.2863 47.736 83.3063 48.5017 82.4487 48.7161C81.9893 48.8079 81.4993 48.6854 81.0705 48.7773" stroke="#7E58BC" stroke-width="2" stroke-miterlimit="10" stroke-linecap="round" stroke-linejoin="round"/>
</g>
<mask id="mask92_2_2733" style="mask-type:luminance" maskUnits="userSpaceOnUse" x="-42" y="-19" width="259" height="183">
<path d="M216.658 -18.8179H-41.224V163.506H216.658V-18.8179Z" fill="white"/>
</mask>
<g mask="url(#mask92_2_2733)">
<path d="M84.5004 45.8972C84.8986 45.8666 85.3273 45.5909 85.6336 45.4071C87.8081 44.0595 85.6336 41.9769 84.1329 43.8452C83.8878 44.1514 83.6735 44.7027 83.7653 45.1009C84.2248 47.1223 88.4513 46.9691 88.9107 45.0702" stroke="#7E58BC" stroke-width="2" stroke-miterlimit="10" stroke-linecap="round" stroke-linejoin="round"/>
</g>
<mask id="mask93_2_2733" style="mask-type:luminance" maskUnits="userSpaceOnUse" x="-42" y="-19" width="259" height="183">
<path d="M216.658 -18.8179H-41.224V163.506H216.658V-18.8179Z" fill="white"/>
</mask>
<g mask="url(#mask93_2_2733)">
<path d="M109.768 42.866C112.157 42.5597 114.117 40.3851 116.414 39.8032" stroke="#7E58BC" stroke-width="2" stroke-miterlimit="10" stroke-linecap="round" stroke-linejoin="round"/>
</g>
<mask id="mask94_2_2733" style="mask-type:luminance" maskUnits="userSpaceOnUse" x="-42" y="-19" width="259" height="183">
<path d="M216.658 -18.8179H-41.224V163.506H216.658V-18.8179Z" fill="white"/>
</mask>
<g mask="url(#mask94_2_2733)">
<path d="M96.1088 100.077C96.5375 99.863 96.9357 99.4649 97.3645 99.2505" stroke="#7E58BC" stroke-width="2" stroke-miterlimit="10" stroke-linecap="round" stroke-linejoin="round"/>
</g>
<mask id="mask95_2_2733" style="mask-type:luminance" maskUnits="userSpaceOnUse" x="-42" y="-19" width="259" height="183">
<path d="M216.658 -18.8179H-41.224V163.506H216.658V-18.8179Z" fill="white"/>
</mask>
<g mask="url(#mask95_2_2733)">
<path d="M135.281 78.7603C135.802 79.3115 136.506 79.5566 137.057 80.016" stroke="#7E58BC" stroke-width="2" stroke-miterlimit="10" stroke-linecap="round" stroke-linejoin="round"/>
</g>
<mask id="mask96_2_2733" style="mask-type:luminance" maskUnits="userSpaceOnUse" x="-42" y="-19" width="259" height="183">
<path d="M216.658 -18.8179H-41.224V163.506H216.658V-18.8179Z" fill="white"/>
</mask>
<g mask="url(#mask96_2_2733)">
<path d="M108.482 91.6245C107.9 91.6245 106.185 92.2371 107.441 92.819C108.145 93.1252 109.003 92.574 109.707 92.819C110.657 93.1559 110.136 94.0134 109.37 94.1972C109.034 94.2891 108.727 94.1359 108.36 94.1359" stroke="#7E58BC" stroke-width="2" stroke-miterlimit="10" stroke-linecap="round" stroke-linejoin="round"/>
</g>
<mask id="mask97_2_2733" style="mask-type:luminance" maskUnits="userSpaceOnUse" x="-42" y="-19" width="259" height="183">
<path d="M216.658 -18.8179H-41.224V163.506H216.658V-18.8179Z" fill="white"/>
</mask>
<g mask="url(#mask97_2_2733)">
<path d="M110.503 90.1846C111.667 88.6226 114.729 90.7359 112.218 91.9916" stroke="#7E58BC" stroke-width="2" stroke-miterlimit="10" stroke-linecap="round" stroke-linejoin="round"/>
</g>
<mask id="mask98_2_2733" style="mask-type:luminance" maskUnits="userSpaceOnUse" x="-42" y="-19" width="259" height="183">
<path d="M216.658 -18.8179H-41.224V163.506H216.658V-18.8179Z" fill="white"/>
</mask>
<g mask="url(#mask98_2_2733)">
<path d="M115.098 89.9692C115.465 89.8773 115.618 89.8467 115.986 89.6629C117.946 88.5297 114.761 87.0596 114.455 88.9891C114.148 90.9799 117.579 90.9799 118.252 89.6323" stroke="#7E58BC" stroke-width="2" stroke-miterlimit="10" stroke-linecap="round" stroke-linejoin="round"/>
</g>
<mask id="mask99_2_2733" style="mask-type:luminance" maskUnits="userSpaceOnUse" x="-42" y="-19" width="259" height="183">
<path d="M216.658 -18.8179H-41.224V163.506H216.658V-18.8179Z" fill="white"/>
</mask>
<g mask="url(#mask99_2_2733)">
<path d="M119.079 87.8857C119.477 87.8857 119.784 87.4876 119.998 87.2119C120.825 86.2319 118.16 85.2824 118.16 87.12C118.16 87.3344 118.13 87.5795 118.191 87.7939C118.589 89.4171 121.591 88.6514 122.111 87.6101" stroke="#7E58BC" stroke-width="2" stroke-miterlimit="10" stroke-linecap="round" stroke-linejoin="round"/>
</g>
<mask id="mask100_2_2733" style="mask-type:luminance" maskUnits="userSpaceOnUse" x="-42" y="-19" width="259" height="183">
<path d="M216.658 -18.8179H-41.224V163.506H216.658V-18.8179Z" fill="white"/>
</mask>
<g mask="url(#mask100_2_2733)">
<path d="M122.508 84.1821C122.508 84.4578 125.663 85.7135 125.571 86.1117C125.479 86.4792 124.927 86.6017 124.652 86.6323C122.814 86.9998 122.171 85.5297 124.009 85.5297" stroke="#7E58BC" stroke-width="2" stroke-miterlimit="10" stroke-linecap="round" stroke-linejoin="round"/>
</g>
<mask id="mask101_2_2733" style="mask-type:luminance" maskUnits="userSpaceOnUse" x="-42" y="-19" width="259" height="183">
<path d="M216.658 -18.8179H-41.224V163.506H216.658V-18.8179Z" fill="white"/>
</mask>
<g mask="url(#mask101_2_2733)">
<path d="M110.104 90.3379C110.594 91.318 112.861 92.6349 113.749 93.5538" stroke="#7E58BC" stroke-width="2" stroke-miterlimit="10" stroke-linecap="round" stroke-linejoin="round"/>
</g>
<mask id="mask102_2_2733" style="mask-type:luminance" maskUnits="userSpaceOnUse" x="-42" y="-19" width="259" height="183">
<path d="M216.658 -18.8179H-41.224V163.506H216.658V-18.8179Z" fill="white"/>
</mask>
<g mask="url(#mask102_2_2733)">
<path d="M134.912 79.9861C135.463 79.8636 136.015 79.6798 136.505 79.3736C136.658 79.2817 137.117 79.1592 137.117 79.1592" stroke="#7E58BC" stroke-width="2" stroke-miterlimit="10" stroke-linecap="round" stroke-linejoin="round"/>
</g>
<mask id="mask103_2_2733" style="mask-type:luminance" maskUnits="userSpaceOnUse" x="-42" y="-19" width="259" height="183">
<path d="M216.658 -18.8179H-41.224V163.506H216.658V-18.8179Z" fill="white"/>
</mask>
<g mask="url(#mask103_2_2733)">
<path d="M113.198 39.2207C113.259 39.2207 116.353 39.5576 116.353 39.5576C116.598 39.8639 116.322 41.1502 116.383 41.579" stroke="#7E58BC" stroke-width="2" stroke-miterlimit="10" stroke-linecap="round" stroke-linejoin="round"/>
</g>
</g>
<path d="M34.3896 197V176.409H38.7431V193.411H47.5708V197H34.3896ZM49.8072 197V181.557H54.0903V197H49.8072ZM51.9588 179.566C51.322 179.566 50.7757 179.355 50.3199 178.932C49.8708 178.503 49.6463 177.991 49.6463 177.394C49.6463 176.804 49.8708 176.298 50.3199 175.876C50.7757 175.447 51.322 175.232 51.9588 175.232C52.5956 175.232 53.1385 175.447 53.5876 175.876C54.0434 176.298 54.2713 176.804 54.2713 177.394C54.2713 177.991 54.0434 178.503 53.5876 178.932C53.1385 179.355 52.5956 179.566 51.9588 179.566ZM65.1694 181.557V184.774H55.8692V181.557H65.1694ZM57.9806 177.857H62.2637V192.254C62.2637 192.65 62.324 192.958 62.4447 193.179C62.5653 193.394 62.7329 193.545 62.9474 193.632C63.1686 193.719 63.4233 193.763 63.7115 193.763C63.9126 193.763 64.1137 193.746 64.3148 193.712C64.5159 193.672 64.67 193.642 64.7773 193.622L65.4509 196.809C65.2364 196.876 64.9348 196.953 64.546 197.04C64.1573 197.134 63.6847 197.191 63.1284 197.211C62.0961 197.251 61.1913 197.114 60.4137 196.799C59.6429 196.484 59.043 195.995 58.614 195.331C58.185 194.667 57.9739 193.83 57.9806 192.817V177.857ZM75.6076 181.557V184.774H66.3073V181.557H75.6076ZM68.4187 177.857H72.7019V192.254C72.7019 192.65 72.7622 192.958 72.8828 193.179C73.0035 193.394 73.1711 193.545 73.3856 193.632C73.6068 193.719 73.8615 193.763 74.1497 193.763C74.3508 193.763 74.5519 193.746 74.7529 193.712C74.954 193.672 75.1082 193.642 75.2154 193.622L75.8891 196.809C75.6746 196.876 75.373 196.953 74.9842 197.04C74.5954 197.134 74.1229 197.191 73.5665 197.211C72.5343 197.251 71.6294 197.114 70.8519 196.799C70.0811 196.484 69.4811 195.995 69.0522 195.331C68.6232 194.667 68.412 193.83 68.4187 192.817V177.857ZM82.4463 176.409V197H78.1632V176.409H82.4463ZM92.349 197.302C90.7605 197.302 89.3931 196.98 88.2469 196.336C87.1074 195.686 86.2293 194.768 85.6127 193.582C84.996 192.388 84.6877 190.977 84.6877 189.349C84.6877 187.76 84.996 186.366 85.6127 185.166C86.2293 183.966 87.0974 183.031 88.2167 182.361C89.3428 181.691 90.6633 181.356 92.1781 181.356C93.1969 181.356 94.1454 181.52 95.0235 181.848C95.9083 182.17 96.6791 182.656 97.336 183.306C97.9995 183.956 98.5157 184.774 98.8843 185.759C99.253 186.738 99.4373 187.884 99.4373 189.198V190.374H86.3969V187.72H95.4055C95.4055 187.103 95.2715 186.557 95.0034 186.081C94.7353 185.605 94.3632 185.233 93.8873 184.965C93.4181 184.69 92.8719 184.553 92.2485 184.553C91.5983 184.553 91.0219 184.704 90.5192 185.005C90.0231 185.3 89.6344 185.699 89.3529 186.202C89.0713 186.698 88.9272 187.251 88.9205 187.861V190.384C88.9205 191.148 89.0613 191.809 89.3428 192.365C89.631 192.921 90.0366 193.35 90.5594 193.652C91.0822 193.954 91.7022 194.104 92.4194 194.104C92.8953 194.104 93.331 194.037 93.7265 193.903C94.1219 193.769 94.4604 193.568 94.742 193.3C95.0235 193.032 95.238 192.703 95.3854 192.315L99.3468 192.576C99.1457 193.528 98.7335 194.359 98.1101 195.07C97.4935 195.773 96.6958 196.323 95.7172 196.718C94.7453 197.107 93.6226 197.302 92.349 197.302ZM101.747 197V176.409H109.991C111.506 176.409 112.769 176.633 113.782 177.082C114.794 177.532 115.554 178.155 116.064 178.953C116.573 179.744 116.828 180.655 116.828 181.687C116.828 182.492 116.667 183.199 116.345 183.809C116.024 184.412 115.581 184.908 115.018 185.297C114.462 185.679 113.825 185.95 113.108 186.111V186.312C113.892 186.346 114.626 186.567 115.31 186.976C116 187.385 116.56 187.958 116.989 188.695C117.418 189.426 117.632 190.297 117.632 191.309C117.632 192.402 117.361 193.377 116.818 194.235C116.282 195.086 115.487 195.76 114.435 196.256C113.383 196.752 112.086 197 110.544 197H101.747ZM106.1 193.441H109.649C110.862 193.441 111.747 193.21 112.304 192.747C112.86 192.278 113.138 191.654 113.138 190.877C113.138 190.307 113.001 189.804 112.726 189.369C112.451 188.933 112.059 188.591 111.549 188.343C111.047 188.095 110.447 187.971 109.75 187.971H106.1V193.441ZM106.1 185.025H109.327C109.924 185.025 110.454 184.921 110.916 184.714C111.385 184.499 111.754 184.198 112.022 183.809C112.297 183.42 112.434 182.954 112.434 182.411C112.434 181.667 112.17 181.067 111.64 180.612C111.117 180.156 110.373 179.928 109.408 179.928H106.1V185.025ZM119.818 197V181.557H124.102V197H119.818ZM121.97 179.566C121.333 179.566 120.787 179.355 120.331 178.932C119.882 178.503 119.658 177.991 119.658 177.394C119.658 176.804 119.882 176.298 120.331 175.876C120.787 175.447 121.333 175.232 121.97 175.232C122.607 175.232 123.15 175.447 123.599 175.876C124.055 176.298 124.283 176.804 124.283 177.394C124.283 177.991 124.055 178.503 123.599 178.932C123.15 179.355 122.607 179.566 121.97 179.566ZM135.181 181.557V184.774H125.88V181.557H135.181ZM127.992 177.857H132.275V192.254C132.275 192.65 132.335 192.958 132.456 193.179C132.577 193.394 132.744 193.545 132.959 193.632C133.18 193.719 133.435 193.763 133.723 193.763C133.924 193.763 134.125 193.746 134.326 193.712C134.527 193.672 134.681 193.642 134.789 193.622L135.462 196.809C135.248 196.876 134.946 196.953 134.557 197.04C134.169 197.134 133.696 197.191 133.14 197.211C132.107 197.251 131.203 197.114 130.425 196.799C129.654 196.484 129.054 195.995 128.625 195.331C128.196 194.667 127.985 193.83 127.992 192.817V177.857ZM150.06 185.96L146.139 186.202C146.072 185.867 145.928 185.565 145.707 185.297C145.486 185.022 145.194 184.804 144.832 184.643C144.477 184.476 144.051 184.392 143.555 184.392C142.892 184.392 142.332 184.533 141.876 184.814C141.42 185.089 141.192 185.458 141.192 185.92C141.192 186.289 141.34 186.601 141.635 186.855C141.93 187.11 142.436 187.314 143.153 187.469L145.948 188.032C147.45 188.34 148.569 188.836 149.306 189.52C150.044 190.203 150.412 191.101 150.412 192.214C150.412 193.226 150.114 194.114 149.517 194.879C148.928 195.643 148.116 196.239 147.084 196.668C146.059 197.09 144.876 197.302 143.535 197.302C141.491 197.302 139.862 196.876 138.649 196.025C137.442 195.167 136.735 194 136.527 192.526L140.74 192.305C140.867 192.928 141.176 193.404 141.665 193.732C142.154 194.054 142.781 194.215 143.545 194.215C144.296 194.215 144.899 194.071 145.355 193.783C145.817 193.488 146.052 193.109 146.059 192.646C146.052 192.258 145.888 191.939 145.566 191.691C145.244 191.437 144.748 191.242 144.078 191.108L141.404 190.575C139.895 190.274 138.773 189.751 138.035 189.007C137.305 188.263 136.939 187.314 136.939 186.161C136.939 185.169 137.208 184.315 137.744 183.598C138.287 182.88 139.048 182.327 140.026 181.939C141.011 181.55 142.164 181.356 143.485 181.356C145.435 181.356 146.97 181.768 148.09 182.592C149.216 183.417 149.873 184.539 150.06 185.96Z" fill="#7E58BC"/>
</svg>
