<svg width="191" height="124" viewBox="0 0 191 124" fill="none" xmlns="http://www.w3.org/2000/svg">
<path d="M88.2376 63.6701C88.2376 68.5632 88.2376 73.3125 88.2376 78.2416C87.5872 78.2775 86.9368 78.3495 86.3225 78.3495C67.9669 78.3495 49.6112 78.3495 31.2556 78.3495C29.196 78.3495 29.0514 78.3855 29.3405 80.3643C29.7741 83.2066 30.0632 86.1929 31.1472 88.7834C33.7126 94.8998 38.9158 97.4542 45.2753 97.5262C58.9697 97.6341 72.6642 97.5622 86.3587 97.5622C88.2376 97.5622 88.2737 97.5622 88.2737 99.3971C88.2737 103.858 88.2376 108.32 88.3099 112.745C88.3099 113.789 88.0569 114.184 86.9368 114.184C72.7003 114.148 58.4277 114.22 44.1913 114.148C37.4705 114.112 31.5808 111.414 26.0163 107.888C17.8863 102.743 13.2974 95.3315 11.8159 85.905C11.5991 84.6098 11.5269 83.2426 11.4907 81.9114C11.4546 76.2267 11.4907 70.5061 11.4546 64.8215C11.4546 63.7781 11.7798 63.4902 12.7915 63.4902C37.5066 63.5262 62.2217 63.4902 86.9729 63.5262C87.3343 63.5982 87.6956 63.6341 88.2376 63.6701Z" fill="#099AD7"/>
<path d="M97.7769 52.3008C97.7769 51.6891 97.7769 51.1854 97.7769 50.6817C97.7769 37.4415 97.813 24.2373 97.7407 10.9971C97.7407 9.55794 98.1743 9.23413 99.5474 9.23413C103.847 9.30609 108.147 9.41402 112.411 9.19815C116.385 9.01825 119.348 10.6373 121.914 13.3717C125.888 17.6172 128.598 22.6902 131.381 27.7272C132.898 30.4976 134.416 33.268 136.078 36.3262C136.512 35.6786 136.837 35.2828 137.126 34.8151C140.161 29.4542 143.052 23.9854 146.34 18.8045C148.074 16.0701 150.495 13.6955 152.808 11.3569C154.398 9.73783 156.602 9.19815 158.914 9.23413C163.539 9.27011 168.128 9.30609 172.753 9.23413C174.09 9.19815 174.56 9.48598 174.56 10.9611C174.488 24.2373 174.524 37.5135 174.524 50.7897C174.524 51.2934 174.488 51.7611 174.451 52.3008C168.887 52.3008 163.467 52.3008 157.866 52.3008C157.866 43.7018 157.866 35.1389 157.866 26.5759C157.758 26.5399 157.65 26.504 157.541 26.468C156.855 27.6913 156.168 28.8786 155.518 30.1018C151.904 36.722 148.255 43.3061 144.678 49.9622C144.136 51.0055 143.485 51.3653 142.293 51.3294C138.174 51.2574 134.091 51.2574 129.972 51.3294C128.851 51.3294 128.237 51.0055 127.731 49.9981C123.72 42.5865 119.674 35.2468 115.627 27.8712C115.41 27.4394 115.121 27.0436 114.579 26.6839C114.579 35.1749 114.579 43.6659 114.579 52.2648C108.942 52.3008 103.486 52.3008 97.7769 52.3008Z" fill="#099AD7"/>
<path d="M50.0087 36.3981C50.8398 34.9229 51.5263 33.6997 52.249 32.4764C55.2841 27.2954 58.2109 22.0066 61.4268 16.9695C62.7637 14.8827 64.7149 13.1558 66.5577 11.4288C68.1837 9.91767 70.2794 9.30603 72.5558 9.30603C77.3615 9.342 82.1672 9.342 86.9368 9.30603C87.8763 9.30603 88.346 9.48592 88.346 10.6013C88.2737 24.2372 88.2737 37.8732 88.2376 51.5092C88.2376 51.7251 88.2015 51.9769 88.1653 52.3007C82.6731 52.3007 77.217 52.3007 71.5802 52.3007C71.5802 43.7737 71.5802 35.2468 71.5802 26.6838C71.4718 26.6478 71.3995 26.6118 71.2911 26.6118C71.0743 26.9357 70.8214 27.2235 70.6769 27.5473C66.5216 35.1388 62.4024 42.6944 58.2832 50.2859C57.8496 51.0774 57.3799 51.4012 56.4404 51.3653C52.2128 51.3293 47.9491 51.2933 43.7215 51.3653C42.6014 51.4012 42.0233 50.9695 41.4813 50.034C37.4705 42.5864 33.3874 35.1748 29.3405 27.7632C29.1598 27.4034 28.9069 27.0796 28.4011 26.7558C28.4011 35.2108 28.4011 43.7018 28.4011 52.2647C22.6559 52.2647 17.1636 52.2647 11.4907 52.2647C11.4907 51.7251 11.4907 51.2573 11.4907 50.7536C11.4907 37.4774 11.5269 24.2013 11.4546 10.9251C11.4546 9.59386 11.8159 9.19809 13.1528 9.23407C17.525 9.30603 21.9332 9.41396 26.3053 9.23407C30.1716 9.05418 33.0622 10.6372 35.5554 13.3357C39.783 17.905 42.7459 23.3018 45.6727 28.7346C46.7567 30.7494 47.8407 32.8002 48.9247 34.815C49.1776 35.2827 49.5028 35.6785 50.0087 36.3981Z" fill="#099AD7"/>
<path d="M137.632 114.256C126.177 114.04 116.674 112.097 108.364 106.125C103.522 102.635 99.8002 98.2816 98.6079 92.2731C97.0541 84.6096 99.6918 78.2414 105.256 73.0245C110.929 67.6996 117.867 64.7853 125.419 63.3821C135.211 61.5832 144.858 62.0149 154.289 65.3969C160.107 67.4837 165.346 70.5419 169.32 75.3271C176.728 84.2499 175.644 95.943 166.791 103.894C160.938 109.147 153.892 111.99 146.231 113.285C142.907 113.86 139.547 114.076 137.632 114.256ZM136.186 98.2816C136.222 98.3895 136.222 98.5334 136.259 98.6414C139.836 98.0297 143.449 97.634 146.954 96.7705C150.567 95.907 153.928 94.3239 156.565 91.5895C158.697 89.3588 158.806 87.2001 156.565 85.1133C154.976 83.6382 153.133 82.235 151.145 81.4075C141.57 77.27 131.814 77.27 122.094 80.9758C119.529 81.9472 117.18 83.3504 115.41 85.5091C113.748 87.5239 113.675 89.3229 115.482 91.1578C116.819 92.525 118.373 93.7483 120.035 94.6477C125.057 97.3821 130.55 98.2456 136.186 98.2816Z" fill="#099AD7"/>
</svg>
