<svg width="566" height="400" viewBox="0 0 566 400" fill="none" xmlns="http://www.w3.org/2000/svg">
<mask id="mask0_853_6264" style="mask-type:luminance" maskUnits="userSpaceOnUse" x="30" y="64" width="475" height="278">
<path d="M504.829 64.7069H30.9214V341.542H504.829V64.7069Z" fill="white"/>
</mask>
<g mask="url(#mask0_853_6264)">
<mask id="mask1_853_6264" style="mask-type:luminance" maskUnits="userSpaceOnUse" x="0" y="0" width="566" height="400">
<path d="M566 0H0V400H566V0Z" fill="white"/>
</mask>
<g mask="url(#mask1_853_6264)">
<path d="M60.5659 144.734L182.437 79.4221L483.856 118.394L363.262 214.95L60.5659 144.734Z" fill="white"/>
</g>
<mask id="mask2_853_6264" style="mask-type:luminance" maskUnits="userSpaceOnUse" x="0" y="0" width="566" height="400">
<path d="M566 0H0V400H566V0Z" fill="white"/>
</mask>
<g mask="url(#mask2_853_6264)">
<path d="M60.5659 144.734L182.437 79.4221L483.856 118.394L363.262 214.95L60.5659 144.734Z" stroke="#63BD4C" stroke-width="1.3465" stroke-miterlimit="10" stroke-linejoin="round"/>
</g>
<mask id="mask3_853_6264" style="mask-type:luminance" maskUnits="userSpaceOnUse" x="0" y="0" width="566" height="400">
<path d="M566 0H0V400H566V0Z" fill="white"/>
</mask>
<g mask="url(#mask3_853_6264)">
<path d="M116.763 148.765L170.002 129.078L271.438 134.924L294.629 168.117L282.261 174.702L116.763 148.765Z" fill="white"/>
</g>
<mask id="mask4_853_6264" style="mask-type:luminance" maskUnits="userSpaceOnUse" x="0" y="0" width="566" height="400">
<path d="M566 0H0V400H566V0Z" fill="white"/>
</mask>
<g mask="url(#mask4_853_6264)">
<path d="M116.763 148.765L170.002 129.078L271.438 134.924L294.629 168.117L282.261 174.702L116.763 148.765Z" stroke="#63BD4C" stroke-width="1.3465" stroke-miterlimit="10" stroke-linejoin="round"/>
</g>
<mask id="mask5_853_6264" style="mask-type:luminance" maskUnits="userSpaceOnUse" x="0" y="0" width="566" height="400">
<path d="M566 0H0V400H566V0Z" fill="white"/>
</mask>
<g mask="url(#mask5_853_6264)">
<path d="M70.313 140.568L128.392 110.062L128.795 116.714L74.9512 146.279L70.313 140.568Z" fill="white"/>
</g>
<mask id="mask6_853_6264" style="mask-type:luminance" maskUnits="userSpaceOnUse" x="0" y="0" width="566" height="400">
<path d="M566 0H0V400H566V0Z" fill="white"/>
</mask>
<g mask="url(#mask6_853_6264)">
<path d="M70.313 140.568L128.392 110.062L128.795 116.714L74.9512 146.279L70.313 140.568Z" stroke="#63BD4C" stroke-width="1.3465" stroke-miterlimit="10" stroke-linejoin="round"/>
</g>
<mask id="mask7_853_6264" style="mask-type:luminance" maskUnits="userSpaceOnUse" x="0" y="0" width="566" height="400">
<path d="M566 0H0V400H566V0Z" fill="white"/>
</mask>
<g mask="url(#mask7_853_6264)">
<path d="M78.0435 118.327L130.677 89.9714C130.677 89.9714 139.887 89.8371 140.626 91.3825C141.366 92.9279 142.508 96.3548 142.508 96.3548L86.9166 126.86L79.9256 124.643L78.0435 118.327Z" fill="white"/>
</g>
<mask id="mask8_853_6264" style="mask-type:luminance" maskUnits="userSpaceOnUse" x="0" y="0" width="566" height="400">
<path d="M566 0H0V400H566V0Z" fill="white"/>
</mask>
<g mask="url(#mask8_853_6264)">
<path d="M78.0435 118.327L130.677 89.9714C130.677 89.9714 139.887 89.8371 140.626 91.3825C141.366 92.9279 142.508 96.3548 142.508 96.3548L86.9166 126.86L79.9256 124.643L78.0435 118.327Z" stroke="#63BD4C" stroke-width="1.3465" stroke-miterlimit="10" stroke-linejoin="round"/>
</g>
<mask id="mask9_853_6264" style="mask-type:luminance" maskUnits="userSpaceOnUse" x="0" y="0" width="566" height="400">
<path d="M566 0H0V400H566V0Z" fill="white"/>
</mask>
<g mask="url(#mask9_853_6264)">
<path d="M108.562 102.133C108.562 102.133 112.326 102.738 114.141 104.149C115.889 105.493 115.62 108.517 115.62 108.517L175.917 73.8451L193.193 65.9835L215.107 66.8571L218.333 75.3906L219.476 77.2048L231.71 77.6751L235.206 71.023L326.357 82.5802V90.7106C326.357 90.7106 336.373 93.7343 338.591 93.5327C340.81 93.3311 343.902 86.8134 343.902 86.8134L345.246 84.9992L439.356 97.833L439.961 106.971L455.421 108.651L457.64 101.529L479.083 102.671L502.476 118.394L301.418 97.4299L175.715 74.3827L156.893 102.133L169.598 123.837L264.178 129.347L298.124 116.647L295.436 112.011L307.535 107.509L331.802 107.24L187.479 84.5288L158.171 99.7144" fill="white"/>
</g>
<mask id="mask10_853_6264" style="mask-type:luminance" maskUnits="userSpaceOnUse" x="0" y="0" width="566" height="400">
<path d="M566 0H0V400H566V0Z" fill="white"/>
</mask>
<g mask="url(#mask10_853_6264)">
<path d="M108.562 102.133C108.562 102.133 112.326 102.738 114.141 104.149C115.889 105.493 115.62 108.517 115.62 108.517L175.917 73.8451L193.193 65.9835L215.107 66.8571L218.333 75.3906L219.476 77.2048L231.71 77.6751L235.206 71.023L326.357 82.5802V90.7106C326.357 90.7106 336.373 93.7343 338.591 93.5327C340.81 93.3311 343.902 86.8134 343.902 86.8134L345.246 84.9992L439.356 97.833L439.961 106.971L455.421 108.651L457.64 101.529L479.083 102.671L502.476 118.394L301.418 97.4299L175.715 74.3827L156.893 102.133L169.598 123.837L264.178 129.347L298.124 116.647L295.436 112.011L307.535 107.509L331.802 107.24L187.479 84.5288L158.171 99.7144" stroke="#63BD4C" stroke-width="1.3465" stroke-miterlimit="10" stroke-linejoin="round"/>
</g>
<mask id="mask11_853_6264" style="mask-type:luminance" maskUnits="userSpaceOnUse" x="0" y="0" width="566" height="400">
<path d="M566 0H0V400H566V0Z" fill="white"/>
</mask>
<g mask="url(#mask11_853_6264)">
<path d="M75.4891 124.307C75.4891 124.307 75.2202 118.864 78.3796 118.193C81.539 117.453 85.5722 120.141 85.5722 120.141L85.8411 126.188L75.4891 124.307Z" fill="white"/>
</g>
<mask id="mask12_853_6264" style="mask-type:luminance" maskUnits="userSpaceOnUse" x="0" y="0" width="566" height="400">
<path d="M566 0H0V400H566V0Z" fill="white"/>
</mask>
<g mask="url(#mask12_853_6264)">
<path d="M75.4891 124.307C75.4891 124.307 75.2202 118.864 78.3796 118.193C81.539 117.453 85.5722 120.141 85.5722 120.141L85.8411 126.188L75.4891 124.307Z" stroke="#63BD4C" stroke-width="1.3465" stroke-miterlimit="10" stroke-linejoin="round"/>
</g>
<mask id="mask13_853_6264" style="mask-type:luminance" maskUnits="userSpaceOnUse" x="0" y="0" width="566" height="400">
<path d="M566 0H0V400H566V0Z" fill="white"/>
</mask>
<g mask="url(#mask13_853_6264)">
<path d="M128.123 109.861L128.93 117.117L185.328 86.8134L186.471 78.6158L128.123 109.861Z" fill="white"/>
</g>
<mask id="mask14_853_6264" style="mask-type:luminance" maskUnits="userSpaceOnUse" x="0" y="0" width="566" height="400">
<path d="M566 0H0V400H566V0Z" fill="white"/>
</mask>
<g mask="url(#mask14_853_6264)">
<path d="M128.123 109.861L128.93 117.117L185.328 86.8134L186.471 78.6158L128.123 109.861Z" stroke="#63BD4C" stroke-width="1.3465" stroke-miterlimit="10" stroke-linejoin="round"/>
</g>
<mask id="mask15_853_6264" style="mask-type:luminance" maskUnits="userSpaceOnUse" x="0" y="0" width="566" height="400">
<path d="M566 0H0V400H566V0Z" fill="white"/>
</mask>
<g mask="url(#mask15_853_6264)">
<path d="M186.538 78.7502L185.597 87.0821L467.051 124.71L472.966 121.351L186.538 78.7502Z" fill="white"/>
</g>
<mask id="mask16_853_6264" style="mask-type:luminance" maskUnits="userSpaceOnUse" x="0" y="0" width="566" height="400">
<path d="M566 0H0V400H566V0Z" fill="white"/>
</mask>
<g mask="url(#mask16_853_6264)">
<path d="M186.538 78.7502L185.597 87.0821L467.051 124.71L472.966 121.351L186.538 78.7502Z" stroke="#63BD4C" stroke-width="1.3465" stroke-miterlimit="10" stroke-linejoin="round"/>
</g>
<mask id="mask17_853_6264" style="mask-type:luminance" maskUnits="userSpaceOnUse" x="0" y="0" width="566" height="400">
<path d="M566 0H0V400H566V0Z" fill="white"/>
</mask>
<g mask="url(#mask17_853_6264)">
<path d="M31.9971 180.951L33.3415 147.825L67.288 152.259L68.0275 139.493L76.699 140.097L77.7073 153.402L93.5714 155.216L93.7731 144.398L102.176 144.196L102.982 157.03L181.765 170.805L182.975 157.366L192.521 158.172L194.268 170.939L209.326 173.022L210.401 162.809L218.401 162.674L217.997 175.911L302.628 188.812L303.906 175.038L315.602 176.382L313.922 187.67L332.004 189.82L332.609 179.473L340.877 181.018L339.869 196.405L385.041 199.563L386.05 235.31C386.05 235.31 384.436 236.318 382.218 236.721C380 237.057 376.101 236.923 376.101 236.923L31.9971 180.951Z" fill="white"/>
</g>
<mask id="mask18_853_6264" style="mask-type:luminance" maskUnits="userSpaceOnUse" x="0" y="0" width="566" height="400">
<path d="M566 0H0V400H566V0Z" fill="white"/>
</mask>
<g mask="url(#mask18_853_6264)">
<path d="M31.9971 180.951L33.3415 147.825L67.288 152.259L68.0275 139.493L76.699 140.097L77.7073 153.402L93.5714 155.216L93.7731 144.398L102.176 144.196L102.982 157.03L181.765 170.805L182.975 157.366L192.521 158.172L194.268 170.939L209.326 173.022L210.401 162.809L218.401 162.674L217.997 175.911L302.628 188.812L303.906 175.038L315.602 176.382L313.922 187.67L332.004 189.82L332.609 179.473L340.877 181.018L339.869 196.405L385.041 199.563L386.05 235.31C386.05 235.31 384.436 236.318 382.218 236.721C380 237.057 376.101 236.923 376.101 236.923L31.9971 180.951Z" stroke="#63BD4C" stroke-width="1.3465" stroke-miterlimit="10" stroke-linejoin="round"/>
</g>
<mask id="mask19_853_6264" style="mask-type:luminance" maskUnits="userSpaceOnUse" x="0" y="0" width="566" height="400">
<path d="M566 0H0V400H566V0Z" fill="white"/>
</mask>
<g mask="url(#mask19_853_6264)">
<path d="M33.6777 147.892L53.239 136.671L68.6326 139.426L67.2882 152.327L33.6777 147.892Z" fill="white"/>
</g>
<mask id="mask20_853_6264" style="mask-type:luminance" maskUnits="userSpaceOnUse" x="0" y="0" width="566" height="400">
<path d="M566 0H0V400H566V0Z" fill="white"/>
</mask>
<g mask="url(#mask20_853_6264)">
<path d="M33.6777 147.892L53.239 136.671L68.6326 139.426L67.2882 152.327L33.6777 147.892Z" stroke="#63BD4C" stroke-width="1.3465" stroke-miterlimit="10" stroke-linejoin="round"/>
</g>
<mask id="mask21_853_6264" style="mask-type:luminance" maskUnits="userSpaceOnUse" x="0" y="0" width="566" height="400">
<path d="M566 0H0V400H566V0Z" fill="white"/>
</mask>
<g mask="url(#mask21_853_6264)">
<path d="M76.9009 139.963L79.3881 140.366L80.2619 148.833L93.2356 149.504L93.37 155.35L77.9092 153.536L76.9009 139.963Z" fill="white"/>
</g>
<mask id="mask22_853_6264" style="mask-type:luminance" maskUnits="userSpaceOnUse" x="0" y="0" width="566" height="400">
<path d="M566 0H0V400H566V0Z" fill="white"/>
</mask>
<g mask="url(#mask22_853_6264)">
<path d="M76.9009 139.963L79.3881 140.366L80.2619 148.833L93.2356 149.504L93.37 155.35L77.9092 153.536L76.9009 139.963Z" stroke="#63BD4C" stroke-width="1.3465" stroke-miterlimit="10" stroke-linejoin="round"/>
</g>
<mask id="mask23_853_6264" style="mask-type:luminance" maskUnits="userSpaceOnUse" x="0" y="0" width="566" height="400">
<path d="M566 0H0V400H566V0Z" fill="white"/>
</mask>
<g mask="url(#mask23_853_6264)">
<path d="M102.042 144.196L103.386 157.097L181.564 170.872L182.975 157.03L102.042 144.196Z" fill="white"/>
</g>
<mask id="mask24_853_6264" style="mask-type:luminance" maskUnits="userSpaceOnUse" x="0" y="0" width="566" height="400">
<path d="M566 0H0V400H566V0Z" fill="white"/>
</mask>
<g mask="url(#mask24_853_6264)">
<path d="M102.042 144.196L103.386 157.097L181.564 170.872L182.975 157.03L102.042 144.196Z" stroke="#63BD4C" stroke-width="1.3465" stroke-miterlimit="10" stroke-linejoin="round"/>
</g>
<mask id="mask25_853_6264" style="mask-type:luminance" maskUnits="userSpaceOnUse" x="0" y="0" width="566" height="400">
<path d="M566 0H0V400H566V0Z" fill="white"/>
</mask>
<g mask="url(#mask25_853_6264)">
<path d="M192.655 158.038L194.941 159.651L196.42 167.042L209.46 168.386L209.124 173.022L194.403 170.939L192.655 158.038Z" fill="white"/>
</g>
<mask id="mask26_853_6264" style="mask-type:luminance" maskUnits="userSpaceOnUse" x="0" y="0" width="566" height="400">
<path d="M566 0H0V400H566V0Z" fill="white"/>
</mask>
<g mask="url(#mask26_853_6264)">
<path d="M192.655 158.038L194.941 159.651L196.42 167.042L209.46 168.386L209.124 173.022L194.403 170.939L192.655 158.038Z" stroke="#63BD4C" stroke-width="1.3465" stroke-miterlimit="10" stroke-linejoin="round"/>
</g>
<mask id="mask27_853_6264" style="mask-type:luminance" maskUnits="userSpaceOnUse" x="0" y="0" width="566" height="400">
<path d="M566 0H0V400H566V0Z" fill="white"/>
</mask>
<g mask="url(#mask27_853_6264)">
<path d="M362.724 190.089L471.353 121.351L186.605 78.7502L72.1955 139.425L54.1803 136.738L34.014 147.69L33.5435 145.54L74.9515 123.904C74.9515 123.904 84.5641 125.449 85.5052 124.71C86.5135 123.971 142.038 94.2718 142.038 94.2718L140.694 91.1809L173.161 73.7107L181.9 74.3155L501.737 117.924L476.126 161.062L420.736 201.176L389.747 209.575L364.001 198.69V189.887" fill="white"/>
</g>
<mask id="mask28_853_6264" style="mask-type:luminance" maskUnits="userSpaceOnUse" x="0" y="0" width="566" height="400">
<path d="M566 0H0V400H566V0Z" fill="white"/>
</mask>
<g mask="url(#mask28_853_6264)">
<path d="M362.724 190.089L471.353 121.351L186.605 78.7502L72.1955 139.426L54.1803 136.738L34.014 147.69L33.5435 145.54L74.9515 123.904C74.9515 123.904 84.5641 125.449 85.5052 124.71C86.5135 123.971 142.038 94.2718 142.038 94.2718L140.694 91.1809L173.161 73.7107L181.9 74.3155L501.737 117.924L476.126 161.062L420.736 201.176L389.747 209.575L364.001 198.69V189.887" stroke="#63BD4C" stroke-width="1.3465" stroke-miterlimit="10" stroke-linejoin="round"/>
</g>
<mask id="mask29_853_6264" style="mask-type:luminance" maskUnits="userSpaceOnUse" x="0" y="0" width="566" height="400">
<path d="M566 0H0V400H566V0Z" fill="white"/>
</mask>
<g mask="url(#mask29_853_6264)">
<path d="M219.006 162.876L303.704 175.038L302.158 188.745L217.998 176.247L219.006 162.876Z" fill="white"/>
</g>
<mask id="mask30_853_6264" style="mask-type:luminance" maskUnits="userSpaceOnUse" x="0" y="0" width="566" height="400">
<path d="M566 0H0V400H566V0Z" fill="white"/>
</mask>
<g mask="url(#mask30_853_6264)">
<path d="M219.006 162.876L303.704 175.038L302.158 188.745L217.998 176.247L219.006 162.876Z" stroke="#63BD4C" stroke-width="1.3465" stroke-miterlimit="10" stroke-linejoin="round"/>
</g>
<mask id="mask31_853_6264" style="mask-type:luminance" maskUnits="userSpaceOnUse" x="0" y="0" width="566" height="400">
<path d="M566 0H0V400H566V0Z" fill="white"/>
</mask>
<g mask="url(#mask31_853_6264)">
<path d="M314.997 184.714L332.139 187.065L331.937 190.022L313.922 187.737L314.997 184.714Z" fill="white"/>
</g>
<mask id="mask32_853_6264" style="mask-type:luminance" maskUnits="userSpaceOnUse" x="0" y="0" width="566" height="400">
<path d="M566 0H0V400H566V0Z" fill="white"/>
</mask>
<g mask="url(#mask32_853_6264)">
<path d="M314.997 184.714L332.139 187.065L331.937 190.022L313.922 187.737L314.997 184.714Z" stroke="#63BD4C" stroke-width="1.3465" stroke-miterlimit="10" stroke-linejoin="round"/>
</g>
<mask id="mask33_853_6264" style="mask-type:luminance" maskUnits="userSpaceOnUse" x="0" y="0" width="566" height="400">
<path d="M566 0H0V400H566V0Z" fill="white"/>
</mask>
<g mask="url(#mask33_853_6264)">
<path d="M365.816 189.619L378.857 198.891L339.734 196.741L340.877 181.085L355.33 182.16L365.816 189.619Z" fill="white"/>
</g>
<mask id="mask34_853_6264" style="mask-type:luminance" maskUnits="userSpaceOnUse" x="0" y="0" width="566" height="400">
<path d="M566 0H0V400H566V0Z" fill="white"/>
</mask>
<g mask="url(#mask34_853_6264)">
<path d="M365.816 189.619L378.857 198.891L339.734 196.741L340.877 181.085L355.33 182.16L365.816 189.619Z" stroke="#63BD4C" stroke-width="1.3465" stroke-miterlimit="10" stroke-linejoin="round"/>
</g>
<mask id="mask35_853_6264" style="mask-type:luminance" maskUnits="userSpaceOnUse" x="0" y="0" width="566" height="400">
<path d="M566 0H0V400H566V0Z" fill="white"/>
</mask>
<g mask="url(#mask35_853_6264)">
<path d="M55.3901 180.346L69.1032 285.839L366.085 340.669L369.984 232.958L55.3901 180.346Z" fill="white"/>
</g>
<mask id="mask36_853_6264" style="mask-type:luminance" maskUnits="userSpaceOnUse" x="0" y="0" width="566" height="400">
<path d="M566 0H0V400H566V0Z" fill="white"/>
</mask>
<g mask="url(#mask36_853_6264)">
<path d="M55.3901 180.346L69.1032 285.839L366.085 340.669L369.984 232.958L55.3901 180.346Z" stroke="#63BD4C" stroke-width="1.3465" stroke-miterlimit="10" stroke-linejoin="round"/>
</g>
<mask id="mask37_853_6264" style="mask-type:luminance" maskUnits="userSpaceOnUse" x="0" y="0" width="566" height="400">
<path d="M566 0H0V400H566V0Z" fill="white"/>
</mask>
<g mask="url(#mask37_853_6264)">
<path d="M61.4399 190.089L363.262 240.417L362.321 336.368L72.6658 283.286L61.4399 190.089Z" fill="white"/>
</g>
<mask id="mask38_853_6264" style="mask-type:luminance" maskUnits="userSpaceOnUse" x="0" y="0" width="566" height="400">
<path d="M566 0H0V400H566V0Z" fill="white"/>
</mask>
<g mask="url(#mask38_853_6264)">
<path d="M61.4399 190.089L363.262 240.417L362.321 336.368L72.6658 283.286L61.4399 190.089Z" stroke="#63BD4C" stroke-width="1.3465" stroke-miterlimit="10" stroke-linejoin="round"/>
</g>
<mask id="mask39_853_6264" style="mask-type:luminance" maskUnits="userSpaceOnUse" x="0" y="0" width="566" height="400">
<path d="M566 0H0V400H566V0Z" fill="white"/>
</mask>
<g mask="url(#mask39_853_6264)">
<path d="M65.0698 223.887L97.672 251.705L185.866 252.646L192.588 236.788L181.093 227.314L184.656 216.832L200.385 216.765L201.73 213.943" fill="white"/>
</g>
<mask id="mask40_853_6264" style="mask-type:luminance" maskUnits="userSpaceOnUse" x="0" y="0" width="566" height="400">
<path d="M566 0H0V400H566V0Z" fill="white"/>
</mask>
<g mask="url(#mask40_853_6264)">
<path d="M65.0698 223.887L97.672 251.705L185.866 252.646L192.588 236.788L181.093 227.314L184.656 216.832L200.386 216.765L201.73 213.943" stroke="#63BD4C" stroke-width="1.3465" stroke-miterlimit="10" stroke-linejoin="round"/>
</g>
<mask id="mask41_853_6264" style="mask-type:luminance" maskUnits="userSpaceOnUse" x="0" y="0" width="566" height="400">
<path d="M566 0H0V400H566V0Z" fill="white"/>
</mask>
<g mask="url(#mask41_853_6264)">
<path d="M501.334 118.797L503.216 118.663L503.485 151.52L479.487 169.595L472.025 258.223L366.757 340.131L370.387 236.116C370.387 236.116 376.706 237.662 378.252 237.393C379.798 237.057 382.42 237.662 384.369 236.519C386.319 235.377 427.458 207.29 427.458 207.29L421.475 190.425C421.475 190.425 432.365 186.057 434.045 185.117C435.793 184.176 451.456 174.836 451.456 174.836L461.27 167.512L467.118 155.417L474.512 152.663L468.866 168.318L468.395 166.571L471.622 166.37L472.092 156.089C472.092 156.089 494.611 138.418 496.09 136.066C496.695 135.125 498.51 131.698 499.451 128.473C500.863 123.635 501.334 118.797 501.334 118.797Z" fill="white"/>
</g>
<mask id="mask42_853_6264" style="mask-type:luminance" maskUnits="userSpaceOnUse" x="0" y="0" width="566" height="400">
<path d="M566 0H0V400H566V0Z" fill="white"/>
</mask>
<g mask="url(#mask42_853_6264)">
<path d="M501.334 118.797L503.216 118.663L503.485 151.52L479.487 169.595L472.025 258.223L366.757 340.131L370.387 236.116C370.387 236.116 376.706 237.662 378.252 237.393C379.798 237.057 382.42 237.662 384.369 236.519C386.319 235.377 427.458 207.29 427.458 207.29L421.475 190.425C421.475 190.425 432.365 186.057 434.045 185.117C435.793 184.176 451.456 174.836 451.456 174.836L461.27 167.512L467.118 155.417L474.512 152.663L468.866 168.318L468.395 166.571L471.622 166.37L472.092 156.089C472.092 156.089 494.611 138.418 496.09 136.066C496.695 135.125 498.51 131.698 499.451 128.473C500.863 123.635 501.334 118.797 501.334 118.797Z" stroke="#63BD4C" stroke-width="1.3465" stroke-miterlimit="10" stroke-linejoin="round"/>
</g>
<mask id="mask43_853_6264" style="mask-type:luminance" maskUnits="userSpaceOnUse" x="0" y="0" width="566" height="400">
<path d="M566 0H0V400H566V0Z" fill="white"/>
</mask>
<g mask="url(#mask43_853_6264)">
<path d="M87.4546 284.966L99.5544 255.266L203.209 255.468L279.303 320.645" fill="white"/>
</g>
<mask id="mask44_853_6264" style="mask-type:luminance" maskUnits="userSpaceOnUse" x="0" y="0" width="566" height="400">
<path d="M566 0H0V400H566V0Z" fill="white"/>
</mask>
<g mask="url(#mask44_853_6264)">
<path d="M87.4546 284.966L99.5544 255.266L203.209 255.468L279.303 320.645" stroke="#63BD4C" stroke-width="1.3465" stroke-miterlimit="10" stroke-linejoin="round"/>
</g>
<mask id="mask45_853_6264" style="mask-type:luminance" maskUnits="userSpaceOnUse" x="0" y="0" width="566" height="400">
<path d="M566 0H0V400H566V0Z" fill="white"/>
</mask>
<g mask="url(#mask45_853_6264)">
<path d="M385.512 199.765L388.469 198.757C388.469 198.757 393.982 204.804 402.115 202.721C410.182 200.638 420.87 190.358 420.87 190.358L427.525 207.089L386.251 235.377L385.512 199.765Z" fill="white"/>
</g>
<mask id="mask46_853_6264" style="mask-type:luminance" maskUnits="userSpaceOnUse" x="0" y="0" width="566" height="400">
<path d="M566 0H0V400H566V0Z" fill="white"/>
</mask>
<g mask="url(#mask46_853_6264)">
<path d="M385.512 199.765L388.469 198.757C388.469 198.757 393.982 204.804 402.115 202.721C410.249 200.638 420.87 190.358 420.87 190.358L427.525 207.089L386.251 235.377L385.512 199.765Z" stroke="#63BD4C" stroke-width="1.3465" stroke-miterlimit="10" stroke-linejoin="round"/>
</g>
<mask id="mask47_853_6264" style="mask-type:luminance" maskUnits="userSpaceOnUse" x="0" y="0" width="566" height="400">
<path d="M566 0H0V400H566V0Z" fill="white"/>
</mask>
<g mask="url(#mask47_853_6264)">
<path d="M388.604 199.026L419.257 176.986L424.567 182.832L445.338 168.184L447.624 170.2L449.775 169.259V165.16L472.227 148.429L471.891 138.686L501.401 118.73C501.401 118.73 499.72 131.631 496.225 135.864C492.729 140.03 471.891 155.753 471.891 155.753L467.992 159.247L467.185 166.639C467.185 166.639 456.833 177.255 447.893 181.959C438.952 186.729 430.953 192.441 427.39 193.247C423.828 194.053 422.147 194.389 422.147 194.389L420.332 190.291C420.332 190.291 410.585 200.235 402.653 202.385C394.721 204.536 388.604 199.026 388.604 199.026Z" fill="white"/>
</g>
<mask id="mask48_853_6264" style="mask-type:luminance" maskUnits="userSpaceOnUse" x="0" y="0" width="566" height="400">
<path d="M566 0H0V400H566V0Z" fill="white"/>
</mask>
<g mask="url(#mask48_853_6264)">
<path d="M388.604 199.026L419.257 176.986L424.567 182.832L445.338 168.184L447.624 170.2L449.775 169.259V165.16L472.227 148.429L471.891 138.686L501.401 118.73C501.401 118.73 499.72 131.631 496.225 135.864C492.729 140.03 471.891 155.753 471.891 155.753L467.992 159.247L467.185 166.639C467.185 166.639 456.833 177.255 447.893 181.959C438.952 186.729 430.953 192.441 427.39 193.247C423.828 194.053 422.147 194.389 422.147 194.389L420.332 190.291C420.332 190.291 410.585 200.235 402.653 202.385C394.721 204.536 388.604 199.026 388.604 199.026Z" stroke="#63BD4C" stroke-width="1.3465" stroke-miterlimit="10" stroke-linejoin="round"/>
</g>
<mask id="mask49_853_6264" style="mask-type:luminance" maskUnits="userSpaceOnUse" x="0" y="0" width="566" height="400">
<path d="M566 0H0V400H566V0Z" fill="white"/>
</mask>
<g mask="url(#mask49_853_6264)">
<path d="M424.366 198.488C424.366 198.488 430.012 197.682 433.978 195.33C436.129 194.053 440.902 191.097 446.481 187.67C451.052 184.848 456.363 181.824 458.85 179.137C464.429 173.224 468.059 169.998 468.059 169.998C468.059 169.998 469.269 168.117 469 167.378C468.732 166.639 467.858 166.303 467.858 166.303" stroke="#63BD4C" stroke-width="1.3465" stroke-miterlimit="10" stroke-linejoin="round"/>
</g>
<mask id="mask50_853_6264" style="mask-type:luminance" maskUnits="userSpaceOnUse" x="0" y="0" width="566" height="400">
<path d="M566 0H0V400H566V0Z" fill="white"/>
</mask>
<g mask="url(#mask50_853_6264)">
<path d="M472.025 155.552L471.622 166.303L467.588 165.967" fill="white"/>
</g>
<mask id="mask51_853_6264" style="mask-type:luminance" maskUnits="userSpaceOnUse" x="0" y="0" width="566" height="400">
<path d="M566 0H0V400H566V0Z" fill="white"/>
</mask>
<g mask="url(#mask51_853_6264)">
<path d="M472.025 155.552L471.622 166.303L467.588 165.967" stroke="#63BD4C" stroke-width="1.3465" stroke-miterlimit="10" stroke-linejoin="round"/>
</g>
<mask id="mask52_853_6264" style="mask-type:luminance" maskUnits="userSpaceOnUse" x="0" y="0" width="566" height="400">
<path d="M566 0H0V400H566V0Z" fill="white"/>
</mask>
<g mask="url(#mask52_853_6264)">
<path d="M469.202 168.184L470.95 168.587L471.084 175.911L461.606 176.247" stroke="#63BD4C" stroke-width="1.3465" stroke-miterlimit="10" stroke-linejoin="round"/>
</g>
<mask id="mask53_853_6264" style="mask-type:luminance" maskUnits="userSpaceOnUse" x="0" y="0" width="566" height="400">
<path d="M566 0H0V400H566V0Z" fill="white"/>
</mask>
<g mask="url(#mask53_853_6264)">
<path d="M420.668 178.532L431.357 168.587L429.138 167.848L421.811 172.753L446.212 155.283L445.473 167.848L424.903 182.832L420.668 178.532Z" stroke="#63BD4C" stroke-width="1.3465" stroke-miterlimit="10" stroke-linejoin="round"/>
</g>
<mask id="mask54_853_6264" style="mask-type:luminance" maskUnits="userSpaceOnUse" x="0" y="0" width="566" height="400">
<path d="M566 0H0V400H566V0Z" fill="white"/>
</mask>
<g mask="url(#mask54_853_6264)">
<path d="M449.036 165.295L448.498 153.133L472.429 138.149L471.756 148.497L449.036 165.295Z" stroke="#63BD4C" stroke-width="1.3465" stroke-miterlimit="10" stroke-linejoin="round"/>
</g>
</g>
</svg>
