<svg width="329" height="164" viewBox="0 0 329 164" fill="none" xmlns="http://www.w3.org/2000/svg">
<g clip-path="url(#clip0_853_6151)">
<path d="M89.0582 34.2675C89.0582 34.2675 101.658 40.5902 102.675 40.5902C103.693 40.5902 105.101 34.97 105.101 34.97C105.101 34.97 90.7017 31.0671 90.0756 30.911C89.7626 30.7549 88.98 31.6916 88.7452 32.6283C88.667 33.4089 89.0582 34.2675 89.0582 34.2675Z" fill="white"/>
<path d="M89.0582 34.2675C89.0582 34.2675 101.658 40.5902 102.675 40.5902C103.693 40.5902 105.101 34.97 105.101 34.97C105.101 34.97 90.7017 31.0671 90.0756 30.911C89.7626 30.7549 88.98 31.6916 88.7452 32.6283C88.667 33.4089 89.0582 34.2675 89.0582 34.2675Z" stroke="#D8B13C" stroke-width="1.3465" stroke-miterlimit="10" stroke-linejoin="round"/>
<path d="M88.6672 32.0038C88.6672 32.0038 83.7369 30.5207 79.9804 37.4679C76.1457 44.337 73.1719 42.7758 71.5285 43.01C69.885 43.2442 81.2326 40.4341 83.189 41.605C85.1455 42.8539 76.0675 48.3179 74.111 48.7863C72.1546 49.2546 83.1108 46.1323 85.0673 48.0057C87.0237 49.9572 78.4153 55.4212 76.1458 54.4845C73.8762 53.5478 84.989 51.5964 87.3368 54.4845C89.6845 57.4507 77.2414 60.4169 75.9892 59.4022C74.7371 58.3874 88.1976 57.0605 88.1976 60.8072C88.1976 64.6321 77.0066 66.2713 76.224 65.4907C75.4414 64.7101 74.6588 64.2418 76.3023 63.6954C77.9457 63.149 87.7281 64.6321 87.8063 67.2861C87.8846 69.94 75.7545 71.8134 75.3632 69.862C74.9719 67.9105 79.4326 67.5202 82.4847 69.0814C85.5368 70.5645 88.1193 73.7649 86.9455 74.7796C85.7716 75.7944 74.3458 76.0286 73.798 74.4674C73.2502 72.9062 75.911 72.2818 78.5718 73.6088C81.2326 74.8577 86.7107 79.8534 85.302 81.0243C83.9716 82.1952 73.1719 80.5559 72.3893 78.9167C71.6067 77.2775 74.8154 77.1214 76.7718 78.6045C78.7283 80.0876 83.7369 85.0833 82.7195 86.02C81.6239 86.9567 70.3546 84.4588 69.8068 82.7416C69.259 81.1023 76.7718 85.0052 77.8674 86.8786C79.0413 88.752 79.2761 92.5769 77.3196 92.0305C75.3632 91.406 67.0677 87.8153 66.7547 86.5664C66.4417 85.3175 75.7545 92.3427 75.5197 94.8406C75.2849 97.3384 74.9719 97.2604 73.485 96.8701C72.0763 96.4798 64.0156 93.3575 63.3113 91.406C62.607 89.4545 63.233 88.5179 64.2504 89.0643C65.2678 89.6107 72.5458 98.6654 71.1372 99.9924C69.7285 101.319 68.6329 101.475 67.5373 101.007C66.5199 100.461 59.1636 96.0895 58.6158 95.3089C58.068 94.5283 58.694 93.3575 59.7897 93.5916C60.8853 93.8258 66.6764 103.739 65.8938 104.832C65.1113 105.925 58.1462 103.739 56.8158 102.802C55.4854 101.866 53.9203 99.7582 53.9203 99.7582C53.9203 99.7582 52.7464 97.4165 55.2507 97.4945C57.7549 97.4945 59.0071 103.427 59.5549 105.144C60.1027 106.861 60.494 111.233 58.381 110.374C56.1898 109.515 48.7552 104.91 48.7552 103.193C48.7552 101.397 49.303 100.227 50.9464 101.944C52.5899 103.661 56.8941 111.389 55.6419 112.482C54.3115 113.574 52.5899 114.121 50.9464 113.34C49.3812 112.56 46.5639 110.842 45.3118 108.657C44.0596 106.471 42.8858 104.832 44.8422 105.222C46.7987 105.613 49.303 108.188 49.616 109.75C50.0073 111.389 52.4333 116.228 50.1638 117.009C47.8943 117.79 46.7987 117.946 44.9205 116.619C43.0423 115.292 39.4424 111.623 39.4424 110.374C39.4424 109.125 39.9902 108.579 41.0858 108.501C42.1814 108.423 44.0596 111.155 44.764 112.013C45.4683 112.872 46.9552 116.385 46.877 117.868C46.7987 119.351 45.7031 120.99 44.2944 120.834C42.964 120.678 40.6163 119.741 39.3641 118.804C38.112 117.868 36.312 114.823 35.8425 113.965C35.3729 113.106 35.1381 112.248 35.999 111.701C36.7816 111.155 37.8772 112.326 39.2859 113.262C40.6163 114.199 40.9293 114.823 41.7119 116.619C42.5727 118.414 42.8075 119.351 42.7292 120.678C42.651 122.005 42.2597 123.254 41.0076 123.488C39.7554 123.722 39.2076 123.956 37.4859 123.176C35.7642 122.473 35.6077 122.473 34.5121 121.38C33.4164 120.287 33.0252 119.819 32.3991 118.882C31.6948 117.946 31.0687 117.399 31.3035 115.994C31.46 114.511 32.2426 114.199 33.1034 114.511C33.9643 114.745 34.9034 115.838 35.9207 117.009C36.8598 118.18 38.112 119.507 38.1902 120.834C38.1902 122.161 39.0511 123.488 38.0337 124.503C37.0164 125.595 33.0252 126.298 31.0687 124.815C29.1122 123.332 25.5906 121.224 25.9819 118.96C26.3732 116.697 29.5035 116.385 30.7556 118.18C32.0078 119.975 33.573 122.161 33.7295 124.19C33.886 126.22 33.7295 129.03 31.9295 129.186C30.2078 129.342 27.6253 129.108 25.5123 127.391C23.3993 125.673 21.3646 125.673 21.3646 123.254C21.3646 120.834 21.9124 118.336 24.4167 119.975C26.9992 121.614 28.0166 123.332 29.034 125.205C30.1296 127.157 30.4426 127.937 29.4252 129.654C28.3296 131.372 26.8427 132.308 25.1993 131.606C23.5558 130.903 18.3125 128.952 17.3734 127.625C16.5125 126.298 16.2778 124.346 17.2169 123.254C18.156 122.239 20.1907 123.02 21.5994 123.878C23.008 124.737 23.3993 125.439 23.9471 127.079C24.4949 128.718 25.1993 130.045 24.808 131.45C24.4167 132.855 24.4167 133.713 23.2428 134.26C22.0689 134.806 16.356 133.401 14.7909 131.84C13.2257 130.279 12.1301 129.186 12.3648 127.391C12.5996 125.595 13.2257 124.893 15.73 125.283C18.156 125.673 19.0168 127 20.1125 128.64C21.2081 130.279 21.1298 130.747 21.0516 132.855C20.9733 134.962 20.6603 136.133 19.7994 136.758C18.9386 137.382 17.6082 136.914 15.3387 135.899C12.9909 134.962 12.5213 134.494 11.4257 133.635C10.3301 132.777 9.23448 132.621 9.31274 130.669C9.391 128.718 10.2518 127.703 12.0518 127.781C13.8517 127.859 14.5561 127.313 15.6517 128.64C16.7473 129.967 16.7473 130.279 17.4517 131.84C18.156 133.401 18.469 134.962 18.3125 136.211C18.156 137.538 18.8603 138.787 17.2951 139.099C15.73 139.412 15.1821 139.568 13.93 139.099C12.6779 138.709 11.817 138.397 10.5649 137.616C9.31274 136.836 8.45189 136.524 7.35627 134.884C6.26064 133.323 5.55632 133.011 6.02587 131.996C6.57368 130.981 7.51279 130.123 8.29537 129.889C9.07796 129.654 10.1736 129.733 11.3475 130.669C12.5996 131.606 12.2866 131.84 13.2257 132.855C14.1648 133.87 14.0865 134.65 14.7126 135.743C15.3387 136.836 15.8865 138.709 15.6517 139.256C15.4169 139.802 12.6779 141.91 12.6779 141.91L8.76493 142.612C8.76493 142.612 6.96497 141.832 6.10413 141.441C5.24328 141.051 4.61721 140.895 3.91288 140.036C3.20855 139.178 1.4086 139.958 2.66074 137.226C3.91288 134.494 3.59985 134.182 4.69547 134.104C5.79109 134.104 7.19975 133.479 8.29537 133.792C9.391 134.104 10.9562 135.353 11.5822 135.821C12.2083 136.289 13.617 139.021 13.617 139.021C13.617 139.021 13.0692 142.612 12.8344 143.002C12.5996 143.393 14.243 144.876 10.7997 145.188C7.43453 145.5 7.6693 145.656 6.57368 145.5C5.47806 145.422 4.85199 145.266 4.0694 144.876C3.28681 144.485 2.66074 144.329 2.11293 143.237C1.56512 142.144 0.860788 141.207 1.87815 140.348C2.89552 139.568 2.58248 138.865 3.75636 138.397C4.93025 137.929 6.41716 137.382 6.88672 137.382C7.35627 137.46 10.2518 138.787 10.2518 138.787C10.2518 138.787 11.8953 140.27 12.8344 140.817C13.7735 141.363 13.93 141.441 14.4778 142.612C15.0256 143.783 15.1039 146.047 14.8691 146.905C14.6343 147.764 14.8691 149.559 13.1474 150.34C11.4257 151.042 12.8344 151.667 9.86055 151.277C6.88672 150.886 5.79109 150.262 4.85199 149.013C3.91288 147.764 3.59985 147.139 3.75636 145.578C3.91288 144.017 3.44333 142.066 4.14766 141.832C4.77373 141.597 5.08676 141.597 6.18239 140.895C7.27801 140.192 7.51279 140.192 9.15622 139.88C10.7997 139.568 12.5996 139.802 13.617 140.114C14.6343 140.426 15.8865 141.91 16.5908 142.378C17.2951 142.846 17.9212 145.734 17.9212 146.125C17.9212 146.593 18.0777 147.92 17.5299 149.091C16.9821 150.262 16.356 152.057 15.2604 152.682C14.1648 153.306 10.7214 154.165 10.7214 154.165C10.7214 154.165 8.60841 153.228 7.74756 152.604C6.96497 151.979 5.86935 151.042 5.63457 149.481C5.3998 147.92 5.08676 145.969 6.26064 145.11C7.35627 144.251 9.46926 143.549 10.0953 143.315C10.7214 143.08 13.0692 142.612 14.1648 142.534C15.2604 142.456 16.9038 143.315 17.6864 143.471C18.5473 143.627 19.7994 145.11 20.269 145.422C20.6603 145.734 21.5211 147.218 21.7559 148.154C21.9907 149.091 21.9124 150.574 21.5211 151.355C21.1298 152.135 20.7385 153.306 19.4864 154.243C18.3125 155.179 16.6691 156.194 15.5734 155.96C14.4778 155.726 13.617 156.194 12.0518 154.477C10.4866 152.76 10.0171 151.042 9.93881 150.028C9.86055 149.013 10.3301 146.827 10.7997 146.281C11.2692 145.734 13.1474 144.485 13.8517 144.095C14.5561 143.705 17.0604 143.783 17.9212 143.705C18.7821 143.627 19.5646 144.173 20.895 144.485C22.2254 144.798 23.2428 145.266 24.0254 146.203C24.8862 147.139 24.8862 148.232 25.0428 148.935C25.1993 149.559 26.0601 150.964 25.121 152.682C24.1819 154.399 25.121 154.789 22.9298 156.116C20.6603 157.365 21.2081 157.833 19.9559 157.521C18.7038 157.209 16.9038 156.194 16.5908 155.57C16.1995 154.945 15.1039 154.321 15.73 151.979C16.4343 149.637 15.73 148.857 17.5299 147.92C19.3299 146.983 19.0168 146.905 21.1298 146.515C23.1645 146.125 24.5732 145.969 25.7471 146.203C26.921 146.437 27.3905 146.749 28.4079 148.388C29.4252 149.95 29.4252 151.12 29.4252 151.12C29.4252 151.12 30.1296 153.618 28.8774 155.179C27.6253 156.819 26.8427 159.16 24.8862 158.77C22.9298 158.302 20.895 159.551 21.4429 155.492C21.9907 151.511 24.2602 149.013 25.5906 147.92C26.921 146.905 28.0166 146.593 29.034 146.437C30.0513 146.281 31.3817 147.139 32.1643 147.53C32.9469 147.92 34.0425 152.447 34.1208 152.838C34.199 153.306 33.4164 157.755 33.4164 157.755C33.4164 157.755 30.4426 162.049 29.5035 159.785C28.5644 157.521 28.9557 155.648 30.9904 152.291C33.0252 148.857 34.9816 147.764 36.6251 147.686C38.2685 147.608 39.6772 147.842 40.0684 150.496C40.4597 153.15 41.5554 159.238 40.225 159.941C38.8946 160.643 36.7816 157.99 37.4076 155.648C38.0337 153.306 39.0511 150.964 40.538 149.403C42.0249 147.842 43.7466 147.139 44.5292 148.466C45.3118 149.793 45.9379 150.964 46.3292 152.994C46.7204 154.945 48.0508 156.428 47.3465 158.536C46.7204 160.644 45.077 160.8 44.8422 160.253C44.6075 159.707 46.7204 154.087 47.1117 152.447C47.503 150.808 49.2247 148.779 50.0856 148.545C50.9464 148.31 52.1986 149.013 52.5899 150.574C52.9811 152.135 53.2159 153.931 53.4507 155.336C53.6855 156.741 54.8594 159.629 54.4681 160.644C54.0768 161.658 53.6072 163.376 52.6681 161.814C51.6507 160.253 53.0594 158.302 53.6072 156.194C54.155 154.009 55.4072 153.228 56.0332 151.901C56.6593 150.574 57.6767 149.247 58.2245 149.013C58.7723 148.857 58.7723 149.871 59.1636 152.447C59.5549 155.023 59.6331 156.116 59.8679 157.599C60.181 159.16 60.9635 161.97 61.5114 161.892C62.0592 161.814 62.607 161.112 62.92 159.395C63.2331 157.755 66.5982 152.291 65.7373 150.34C64.7982 148.388 64.4069 145.891 63.7026 147.608C62.9983 149.325 63.3113 150.964 63.5461 152.916C63.7809 154.867 63.7809 155.882 64.4069 157.287C65.033 158.692 65.346 160.722 66.5982 161.268C67.8503 161.814 68.7112 162.517 69.9633 161.58C71.2154 160.644 71.998 159.317 72.4676 157.521C72.9371 155.726 73.0154 154.477 72.6241 152.525C72.2328 150.574 73.3284 146.515 71.4502 148.779C69.572 151.042 69.885 153.696 69.885 153.696C69.885 153.696 70.0416 155.648 70.4329 156.506C70.8242 157.443 71.7633 158.926 72.2328 159.473C72.7024 160.019 73.3284 161.814 74.1893 161.034C75.1284 160.253 78.1805 158.536 78.1805 155.257C78.1805 151.979 78.9631 149.637 77.2414 148.31C75.5197 147.061 75.5197 146.515 74.5806 148.388C73.6415 150.34 74.111 152.057 74.0328 154.399C73.9545 156.741 74.5023 158.458 75.2849 159.082C76.0675 159.707 76.1458 160.878 77.7109 160.878C79.2761 160.956 80.6065 162.049 82.0934 160.019C83.5021 157.99 83.8151 156.584 83.8934 154.633C83.9716 152.682 84.1281 152.291 83.4238 150.496C82.7195 148.701 80.0587 145.969 78.8848 147.374C77.7892 148.779 78.024 154.009 78.337 155.414C78.65 156.819 81.3108 159.707 81.3108 159.707C81.3108 159.707 82.7977 161.424 83.8151 160.722C84.8325 160.019 87.3368 157.911 87.7281 157.443C88.1193 156.897 88.9019 156.663 89.215 155.492C89.4497 154.321 88.9019 152.135 88.5889 151.277C88.2759 150.418 86.5542 148.154 86.5542 148.154L84.2064 147.998C84.2064 147.998 82.7978 149.169 82.7978 150.652C82.7978 152.135 83.8934 154.945 83.8934 155.648C83.9716 156.35 85.6933 157.833 85.6933 157.833C85.6933 157.833 88.3541 159.707 89.0585 159.082C89.841 158.536 90.7801 158.302 91.5627 157.677C92.4236 157.053 92.9714 156.194 93.3627 155.336C93.754 154.477 93.6757 153.384 93.8322 152.447C93.9888 151.433 93.2062 149.715 92.5018 148.623C91.7975 147.53 90.7019 145.969 89.9976 146.359C89.2932 146.671 87.8846 147.53 87.6498 148.388C87.415 149.247 86.3977 149.637 86.9455 151.589C87.4933 153.54 88.1193 154.711 88.8237 155.336C89.528 155.96 90.2323 157.053 91.328 157.521C92.4236 157.911 93.5192 158.38 94.1453 158.146C94.7713 157.911 95.867 156.741 96.3365 156.194C96.8061 155.648 97.6669 153.696 97.7452 152.447C97.8234 151.198 97.4321 149.793 97.1191 148.857C96.8061 147.92 96.1017 146.671 95.3192 146.593C94.5366 146.515 93.2062 146.125 92.7366 146.983C92.2671 147.764 91.954 148.466 92.1105 149.871C92.2671 151.277 92.9714 153.696 92.9714 153.696L95.5539 157.131C95.5539 157.131 96.7278 158.614 98.0582 157.911C99.3886 157.287 101.11 155.336 101.11 155.336C101.11 155.336 101.58 153.54 101.502 151.745C101.423 150.028 101.345 148.857 100.719 147.92C100.171 146.983 97.0409 144.72 97.0409 144.72L95.867 146.749L95.7887 149.871L97.5887 154.555C97.5887 154.555 100.484 156.819 101.423 156.506C102.441 156.194 105.18 149.871 105.102 149.169C105.023 148.388 104.788 147.92 104.084 146.827C103.38 145.734 100.719 144.564 100.719 144.564C100.719 144.564 99.0756 146.515 98.7625 147.53C98.4495 148.545 99.7799 152.291 99.7799 152.291C99.7799 152.291 102.049 154.789 102.597 155.023C103.145 155.258 104.71 156.272 105.649 155.57C106.588 154.867 107.058 153.54 107.371 152.604C107.684 151.667 107.606 150.34 107.606 149.013C107.606 147.686 107.293 146.359 106.275 145.656C105.336 144.954 103.693 145.032 103.693 145.032C103.693 145.032 103.145 148.701 103.223 149.403C103.38 150.106 106.119 154.243 106.119 154.243C106.119 154.243 109.484 155.57 109.797 154.789C110.11 153.931 110.814 152.525 110.971 151.901C111.127 151.277 109.249 144.173 109.249 144.173L106.119 143.315L103.771 144.095L105.415 148.701L109.249 151.042L113.397 151.198L115.04 148.31L114.101 144.798C114.101 144.798 112.614 142.3 111.91 141.988C111.284 141.675 105.962 140.583 105.962 140.583L103.38 141.441L103.067 143.627L108.623 146.593L113.788 147.608L115.666 145.891L115.823 143.549L114.023 140.661L111.284 139.099L107.841 137.616L106.354 138.241L103.928 139.49L106.51 142.612L109.954 143.861L114.571 144.173L116.371 142.066L116.684 139.568L113.553 136.992L110.188 135.275L106.667 135.04L104.867 137.304L108.858 140.505L116.449 142.066L120.205 140.661L120.832 138.163L118.797 134.962L115.432 132.933L112.536 132.465L110.345 133.87L123.649 140.505L124.197 138.631L124.04 135.431L123.336 133.011L120.91 131.45L117.545 131.059L116.136 132.621C116.136 132.621 115.979 134.572 116.058 135.197C116.136 135.821 118.797 139.334 118.797 139.334L123.101 140.27L127.327 138.475L129.127 134.884L127.953 131.84L124.901 129.576L122.005 131.918L123.179 137.304L126.231 138.865L129.675 139.256L131.24 137.382L131.71 134.494L132.179 131.372L134.449 130.435" stroke="#D8B13C" stroke-width="3.6661" stroke-miterlimit="10" stroke-linejoin="round"/>
<path d="M240.724 29.2718L240.176 36.4531L188.604 35.9067L187.977 29.3498L240.724 29.2718ZM211.533 0.624479C204.412 0.780595 198.308 1.17089 194.473 1.24894C169.117 1.327 111.753 20.0609 111.753 20.0609L105.884 32.8625C105.884 32.8625 104.084 37.3898 102.049 43.3222C100.015 49.2547 103.301 66.5055 103.301 66.5055L107.684 80.1656C107.684 80.1656 109.484 84.7711 117.701 83.5221C125.918 82.2732 124.823 82.7416 140.396 75.248C155.97 67.8325 161.839 60.8072 163.952 58.1533C166.143 55.4993 163.639 50.1914 163.639 50.1914L153.231 39.6535C153.231 39.6535 153.544 38.0924 154.561 35.2823C155.5 32.3941 155.735 30.7549 158.239 29.0376C160.743 27.3203 170.682 28.1009 170.682 28.1009L171.23 36.5312C171.23 36.5312 166.613 52.6892 166.378 60.417C166.143 68.1447 160.43 86.4883 158.396 90.7815C156.361 95.1528 147.596 102.881 143.996 105.456C140.396 108.11 134.918 109.047 134.918 109.047C134.918 109.047 135.701 119.663 134.762 119.897C133.822 120.131 132.883 120.366 132.883 120.366C132.883 120.366 133.04 151.355 133.275 152.135C133.509 152.838 139.848 153.228 139.848 153.228C139.848 153.228 140.161 159.16 140.318 160.8C140.396 162.439 142.04 162.595 142.04 162.595C142.04 162.595 174.204 163.376 175.769 162.361C177.334 161.346 176.943 159.785 176.943 159.785L177.021 153.618L251.602 153.384C251.602 153.384 251.915 157.365 251.758 159.238C251.602 161.112 253.402 162.751 253.402 162.751C253.402 162.751 286.505 163.297 288.071 162.361C289.636 161.424 289.166 153.15 289.166 153.15L294.957 151.979L295.583 120.6L293.627 120.444L292.844 109.203C285.958 108.267 279.384 101.632 273.827 95.6992C268.271 89.8448 266.393 79.1509 265.062 74.6235C263.732 70.0962 258.802 40.5902 258.802 40.5902L257.784 27.8667C257.784 27.8667 259.115 26.3836 265.219 29.7401C271.323 33.0966 270.384 49.9572 270.384 49.9572C270.384 49.9572 264.045 61.5878 263.106 62.9929C262.245 64.3199 266.862 70.1742 269.523 71.8134C272.184 73.5307 293.392 79.1509 293.392 79.1509C293.392 79.1509 313.27 83.0538 318.435 83.6783C323.6 84.2247 328.061 82.1952 327.904 78.2923C327.748 74.3894 328.843 75.8725 328.374 61.5098C327.904 47.4593 325.948 44.0248 322.113 33.565C318.278 23.1052 313.27 19.4365 313.27 19.4365C313.27 19.4365 268.349 5.62019 234.933 1.56118C226.794 0.546421 218.655 0.390305 211.533 0.624479Z" fill="white"/>
<path d="M240.724 29.2718L240.176 36.4531L188.604 35.9067L187.977 29.3498L240.724 29.2718ZM211.533 0.624479C204.412 0.780595 198.308 1.17089 194.473 1.24894C169.117 1.327 111.753 20.0609 111.753 20.0609L105.884 32.8625C105.884 32.8625 104.084 37.3898 102.049 43.3222C100.015 49.2547 103.301 66.5055 103.301 66.5055L107.684 80.1656C107.684 80.1656 109.484 84.7711 117.701 83.5221C125.918 82.2732 124.823 82.7416 140.396 75.248C155.97 67.8325 161.839 60.8072 163.952 58.1533C166.143 55.4993 163.639 50.1914 163.639 50.1914L153.231 39.6535C153.231 39.6535 153.544 38.0924 154.561 35.2823C155.5 32.3941 155.735 30.7549 158.239 29.0376C160.743 27.3203 170.682 28.1009 170.682 28.1009L171.23 36.5312C171.23 36.5312 166.613 52.6892 166.378 60.417C166.143 68.1447 160.43 86.4883 158.396 90.7815C156.361 95.1528 147.596 102.881 143.996 105.456C140.396 108.11 134.918 109.047 134.918 109.047C134.918 109.047 135.701 119.663 134.762 119.897C133.822 120.131 132.883 120.366 132.883 120.366C132.883 120.366 133.04 151.355 133.275 152.135C133.509 152.838 139.848 153.228 139.848 153.228C139.848 153.228 140.161 159.16 140.318 160.8C140.396 162.439 142.04 162.595 142.04 162.595C142.04 162.595 174.204 163.376 175.769 162.361C177.334 161.346 176.943 159.785 176.943 159.785L177.021 153.618L251.602 153.384C251.602 153.384 251.915 157.365 251.758 159.238C251.602 161.112 253.402 162.751 253.402 162.751C253.402 162.751 286.505 163.297 288.071 162.361C289.636 161.424 289.166 153.15 289.166 153.15L294.957 151.979L295.583 120.6L293.627 120.444L292.844 109.203C285.958 108.267 279.384 101.632 273.827 95.6992C268.271 89.8448 266.393 79.1509 265.062 74.6235C263.732 70.0962 258.802 40.5902 258.802 40.5902L257.784 27.8667C257.784 27.8667 259.115 26.3836 265.219 29.7401C271.323 33.0966 270.384 49.9572 270.384 49.9572C270.384 49.9572 264.045 61.5878 263.106 62.9929C262.245 64.3199 266.862 70.1742 269.523 71.8134C272.184 73.5307 293.392 79.1509 293.392 79.1509C293.392 79.1509 313.27 83.0538 318.435 83.6783C323.6 84.2247 328.061 82.1952 327.904 78.2923C327.748 74.3893 328.843 75.8725 328.374 61.5098C327.904 47.4593 325.948 44.0248 322.113 33.565C318.278 23.1052 313.27 19.4365 313.27 19.4365C313.27 19.4365 268.349 5.62019 234.933 1.56118C226.794 0.546421 218.655 0.390305 211.533 0.624479Z" stroke="#D8B13C" stroke-width="1.3465" stroke-miterlimit="10" stroke-linejoin="round"/>
<path d="M170.683 28.3351L171.152 16.0019L187.665 15.7677L188.134 41.9952L172.17 41.8391L170.683 28.3351Z" stroke="#D8B13C" stroke-width="1.3465" stroke-miterlimit="10" stroke-linejoin="round"/>
<path d="M241.35 15.8458L257.237 15.7677L258.567 40.5121L240.489 41.8391L241.35 15.8458Z" stroke="#D8B13C" stroke-width="1.3465" stroke-miterlimit="10" stroke-linejoin="round"/>
<path d="M214.899 94.2942C238.195 94.2942 257.08 81.9576 257.08 66.7397C257.08 51.5217 238.195 39.1852 214.899 39.1852C191.603 39.1852 172.717 51.5217 172.717 66.7397C172.717 81.9576 191.603 94.2942 214.899 94.2942Z" fill="white"/>
<path d="M214.899 94.2942C238.195 94.2942 257.08 81.9576 257.08 66.7397C257.08 51.5217 238.195 39.1852 214.899 39.1852C191.603 39.1852 172.717 51.5217 172.717 66.7397C172.717 81.9576 191.603 94.2942 214.899 94.2942Z" stroke="#D8B13C" stroke-width="1.3465" stroke-miterlimit="10" stroke-linejoin="round"/>
<path d="M214.116 88.1276C237.412 88.1276 256.298 75.791 256.298 60.5731C256.298 45.3552 237.412 33.0186 214.116 33.0186C190.82 33.0186 171.935 45.3552 171.935 60.5731C171.935 75.791 190.82 88.1276 214.116 88.1276Z" fill="white"/>
<path d="M214.116 88.1276C237.412 88.1276 256.298 75.791 256.298 60.5731C256.298 45.3552 237.412 33.0186 214.116 33.0186C190.82 33.0186 171.935 45.3552 171.935 60.5731C171.935 75.791 190.82 88.1276 214.116 88.1276Z" stroke="#D8B13C" stroke-width="1.3465" stroke-miterlimit="10" stroke-linejoin="round"/>
<path d="M103.458 66.5055C103.458 66.5055 119.501 54.6407 127.014 51.5183C134.527 48.318 148.066 40.9805 153.387 39.8877" stroke="#D8B13C" stroke-width="1.3465" stroke-miterlimit="10" stroke-linejoin="round"/>
<path d="M107.997 79.6973C107.997 79.6973 121.692 69.1595 129.049 66.0372C136.483 62.9148 153.387 53.782 158.004 52.5331C162.622 51.2842 163.561 50.4255 163.561 50.4255" stroke="#D8B13C" stroke-width="1.3465" stroke-miterlimit="10" stroke-linejoin="round"/>
<path d="M270.619 49.723C270.619 49.723 286.662 51.128 293.548 52.7673C300.435 54.4065 323.6 59.6364 328.139 62.1342" stroke="#D8B13C" stroke-width="1.3465" stroke-miterlimit="10" stroke-linejoin="round"/>
<path d="M263.263 63.149L286.193 65.881C286.193 65.881 316.244 71.3451 328.061 75.9505" stroke="#D8B13C" stroke-width="1.3465" stroke-miterlimit="10" stroke-linejoin="round"/>
<path d="M220.142 79.8534C220.142 77.4336 223.194 75.4821 227.029 75.4821C230.785 75.4821 233.916 77.4336 233.916 79.8534C233.916 82.2732 230.864 84.2247 227.029 84.2247C223.194 84.2247 220.142 82.2732 220.142 79.8534Z" fill="white"/>
<path d="M220.142 79.8534C220.142 77.4336 223.194 75.4821 227.029 75.4821C230.785 75.4821 233.916 77.4336 233.916 79.8534C233.916 82.2732 230.864 84.2247 227.029 84.2247C223.194 84.2247 220.142 82.2732 220.142 79.8534Z" stroke="#D8B13C" stroke-width="1.3465" stroke-miterlimit="10" stroke-linejoin="round"/>
<path d="M202.299 80.7901C202.299 78.3703 205.351 76.4189 209.186 76.4189C212.942 76.4189 216.072 78.3703 216.072 80.7901C216.072 83.2099 213.02 85.1614 209.186 85.1614C205.429 85.1614 202.299 83.2099 202.299 80.7901Z" fill="white"/>
<path d="M202.299 80.7901C202.299 78.3703 205.351 76.4189 209.186 76.4189C212.942 76.4189 216.072 78.3703 216.072 80.7901C216.072 83.2099 213.02 85.1614 209.186 85.1614C205.429 85.1614 202.299 83.2099 202.299 80.7901Z" stroke="#D8B13C" stroke-width="1.3465" stroke-miterlimit="10" stroke-linejoin="round"/>
<path d="M185.865 76.4189C185.865 73.9991 188.917 72.0476 192.752 72.0476C196.508 72.0476 199.638 73.9991 199.638 76.4189C199.638 78.8387 196.586 80.7901 192.752 80.7901C188.917 80.7901 185.865 78.8387 185.865 76.4189Z" fill="white"/>
<path d="M185.865 76.4189C185.865 73.9991 188.917 72.0476 192.752 72.0476C196.508 72.0476 199.638 73.9991 199.638 76.4189C199.638 78.8387 196.586 80.7901 192.752 80.7901C188.917 80.7901 185.865 78.8387 185.865 76.4189Z" stroke="#D8B13C" stroke-width="1.3465" stroke-miterlimit="10" stroke-linejoin="round"/>
<path d="M176.082 66.9738C176.082 64.7102 178.978 62.8368 182.578 62.8368C186.177 62.8368 189.073 64.7102 189.073 66.9738C189.073 69.2375 186.177 71.1109 182.578 71.1109C178.978 71.1109 176.082 69.3156 176.082 66.9738Z" fill="white"/>
<path d="M176.082 66.9738C176.082 64.7102 178.978 62.8368 182.578 62.8368C186.177 62.8368 189.073 64.7102 189.073 66.9738C189.073 69.2375 186.177 71.1109 182.578 71.1109C178.978 71.1109 176.082 69.3156 176.082 66.9738Z" stroke="#D8B13C" stroke-width="1.3465" stroke-miterlimit="10" stroke-linejoin="round"/>
<path d="M181.873 60.5731C185.461 60.5731 188.369 58.7208 188.369 56.436C188.369 54.1512 185.461 52.2989 181.873 52.2989C178.286 52.2989 175.378 54.1512 175.378 56.436C175.378 58.7208 178.286 60.5731 181.873 60.5731Z" fill="white"/>
<path d="M181.873 60.5731C185.461 60.5731 188.369 58.7208 188.369 56.436C188.369 54.1512 185.461 52.2989 181.873 52.2989C178.286 52.2989 175.378 54.1512 175.378 56.436C175.378 58.7208 178.286 60.5731 181.873 60.5731Z" stroke="#D8B13C" stroke-width="1.3465" stroke-miterlimit="10" stroke-linejoin="round"/>
<path d="M184.064 46.2885C184.064 44.1028 186.804 42.3856 190.169 42.3856C193.534 42.3856 196.273 44.1028 196.273 46.2885C196.273 48.4741 193.534 50.1914 190.169 50.1914C186.804 50.1914 184.064 48.4741 184.064 46.2885Z" fill="white"/>
<path d="M184.064 46.2885C184.064 44.1028 186.804 42.3856 190.169 42.3856C193.534 42.3856 196.273 44.1028 196.273 46.2885C196.273 48.4741 193.534 50.1914 190.169 50.1914C186.804 50.1914 184.064 48.4741 184.064 46.2885Z" stroke="#D8B13C" stroke-width="1.3465" stroke-miterlimit="10" stroke-linejoin="round"/>
<path d="M198.229 40.6683C198.229 38.6388 200.812 36.9995 203.942 36.9995C207.073 36.9995 209.655 38.6388 209.655 40.6683C209.655 42.6978 207.073 44.337 203.942 44.337C200.812 44.337 198.229 42.6978 198.229 40.6683Z" fill="white"/>
<path d="M198.229 40.6683C198.229 38.6388 200.812 36.9995 203.942 36.9995C207.073 36.9995 209.655 38.6388 209.655 40.6683C209.655 42.6978 207.073 44.337 203.942 44.337C200.812 44.337 198.229 42.6978 198.229 40.6683Z" stroke="#D8B13C" stroke-width="1.3465" stroke-miterlimit="10" stroke-linejoin="round"/>
<path d="M241.976 77.8239C245.78 77.8239 248.863 75.8668 248.863 73.4527C248.863 71.0385 245.78 69.0814 241.976 69.0814C238.173 69.0814 235.089 71.0385 235.089 73.4527C235.089 75.8668 238.173 77.8239 241.976 77.8239Z" fill="white"/>
<path d="M241.976 77.8239C245.78 77.8239 248.863 75.8668 248.863 73.4527C248.863 71.0385 245.78 69.0814 241.976 69.0814C238.173 69.0814 235.089 71.0385 235.089 73.4527C235.089 75.8668 238.173 77.8239 241.976 77.8239Z" stroke="#D8B13C" stroke-width="1.3465" stroke-miterlimit="10" stroke-linejoin="round"/>
<path d="M220.298 44.337C223.453 44.337 226.011 42.6945 226.011 40.6683C226.011 38.6421 223.453 36.9995 220.298 36.9995C217.143 36.9995 214.585 38.6421 214.585 40.6683C214.585 42.6945 217.143 44.337 220.298 44.337Z" fill="white"/>
<path d="M220.298 44.337C223.453 44.337 226.011 42.6945 226.011 40.6683C226.011 38.6421 223.453 36.9995 220.298 36.9995C217.143 36.9995 214.585 38.6421 214.585 40.6683C214.585 42.6945 217.143 44.337 220.298 44.337Z" stroke="#D8B13C" stroke-width="1.3465" stroke-miterlimit="10" stroke-linejoin="round"/>
<path d="M215.29 75.4041C227.953 75.4041 238.22 68.7291 238.22 60.495C238.22 52.261 227.953 45.5859 215.29 45.5859C202.626 45.5859 192.36 52.261 192.36 60.495C192.36 68.7291 202.626 75.4041 215.29 75.4041Z" fill="white"/>
<path d="M215.29 75.4041C227.953 75.4041 238.22 68.7291 238.22 60.495C238.22 52.261 227.953 45.5859 215.29 45.5859C202.626 45.5859 192.36 52.261 192.36 60.495C192.36 68.7291 202.626 75.4041 215.29 75.4041Z" stroke="#D8B13C" stroke-width="1.3465" stroke-miterlimit="10" stroke-linejoin="round"/>
<path d="M215.603 68.3789C228.267 68.3789 238.533 61.7039 238.533 53.4698C238.533 45.2357 228.267 38.5607 215.603 38.5607C202.939 38.5607 192.673 45.2357 192.673 53.4698C192.673 61.7039 202.939 68.3789 215.603 68.3789Z" fill="white"/>
<path d="M215.603 68.3789C228.267 68.3789 238.533 61.7039 238.533 53.4698C238.533 45.2357 228.267 38.5607 215.603 38.5607C202.939 38.5607 192.673 45.2357 192.673 53.4698C192.673 61.7039 202.939 68.3789 215.603 68.3789Z" stroke="#D8B13C" stroke-width="1.3465" stroke-miterlimit="10" stroke-linejoin="round"/>
<path d="M139.692 153.072L294.175 152.682" stroke="#D8B13C" stroke-width="1.3465" stroke-miterlimit="10" stroke-linejoin="round"/>
<path d="M293.392 119.585L134.84 120.287" stroke="#D8B13C" stroke-width="1.3465" stroke-miterlimit="10" stroke-linejoin="round"/>
<path d="M135.779 110.062L293.001 109.594" stroke="#D8B13C" stroke-width="1.3465" stroke-miterlimit="10" stroke-linejoin="round"/>
</g>
<defs>
<clipPath id="clip0_853_6151">
<rect width="329" height="164" fill="white"/>
</clipPath>
</defs>
</svg>
