<svg width="227" height="331" viewBox="0 0 227 331" fill="none" xmlns="http://www.w3.org/2000/svg">
<g clip-path="url(#clip0_853_5732)">
<path d="M119.522 114.48C119.522 114.48 126.975 108.059 130.611 105.871C134.288 103.595 137.496 103.766 140.116 105.479C142.735 107.192 145.479 110.981 145.514 113.017C145.55 115.053 145.047 119.93 145.047 119.93L147.907 147.906L152.058 151.16L136.981 193.057C136.981 193.057 124.251 192.845 120.598 194.6C116.945 196.355 122.029 172.386 122.029 172.386C122.029 172.386 107.273 171.261 105.003 168.536C102.734 165.812 92.9766 180.869 92.9766 180.869C92.9766 180.869 92.4644 172.132 88.4019 168.918C84.3394 165.704 81.2228 163.448 81.2228 163.448L94.4648 128.911L99.0745 129.501L119.522 114.48Z" fill="white"/>
<path d="M119.522 114.48C119.522 114.48 126.975 108.059 130.611 105.871C134.288 103.595 137.496 103.766 140.116 105.479C142.735 107.192 145.479 110.981 145.514 113.017C145.55 115.053 145.047 119.93 145.047 119.93L147.907 147.906L152.058 151.16L136.981 193.057C136.981 193.057 124.251 192.845 120.598 194.6C116.945 196.355 122.029 172.386 122.029 172.386C122.029 172.386 107.273 171.261 105.003 168.536C102.734 165.812 92.9766 180.869 92.9766 180.869C92.9766 180.869 92.4644 172.132 88.4019 168.918C84.3394 165.704 81.2228 163.448 81.2228 163.448L94.4648 128.911L99.0745 129.501L119.522 114.48Z" stroke="#63BD4C" stroke-width="1.3465" stroke-miterlimit="10" stroke-linejoin="round"/>
<path d="M95.562 138.23L101.539 133.908L109.58 142.638L115.519 139.575C115.519 139.575 119.441 140.28 123.325 142.244C127.209 144.208 135.29 143.918 135.29 143.918C135.29 143.918 139.963 143.899 141.913 147.33C143.776 150.721 143.94 157.175 140.662 158.567C137.384 159.96 129.179 158.174 129.179 158.174L124.247 155.95L121.198 159.891L104.382 152.521L102.026 146.461L95.562 138.23Z" fill="white"/>
<path d="M95.562 138.23L101.539 133.908L109.58 142.638L115.519 139.575C115.519 139.575 119.441 140.28 123.325 142.244C127.209 144.208 135.29 143.918 135.29 143.918C135.29 143.918 139.963 143.899 141.913 147.33C143.776 150.721 143.94 157.175 140.662 158.567C137.384 159.96 129.179 158.174 129.179 158.174L124.247 155.95L121.198 159.891L104.382 152.521L102.026 146.461L95.562 138.23Z" stroke="#63BD4C" stroke-width="1.3465" stroke-miterlimit="10" stroke-linejoin="round"/>
<path d="M138.385 65.3599C138.385 65.3599 143.085 58.2291 146.845 53.6517C150.605 49.0742 167.223 35.7286 167.223 35.7286L183.518 25.2145C183.518 25.2145 178.632 35.3445 171.693 47.2068C164.753 59.0691 155.938 72.7431 155.938 72.7431C155.938 72.7431 148.241 72.8873 143.885 71.0294C139.529 69.1714 138.385 65.3599 138.385 65.3599Z" fill="white"/>
<path d="M138.385 65.3599C138.385 65.3599 143.085 58.2291 146.845 53.6517C150.605 49.0742 167.223 35.7286 167.223 35.7286L183.518 25.2145C183.518 25.2145 178.632 35.3445 171.693 47.2068C164.753 59.0691 155.938 72.7431 155.938 72.7431C155.938 72.7431 148.241 72.8873 143.885 71.0294C139.529 69.1714 138.385 65.3599 138.385 65.3599Z" stroke="#63BD4C" stroke-width="1.3465" stroke-miterlimit="10" stroke-linejoin="round"/>
<path d="M186.464 26.4369L156.401 72.4205C156.401 72.4205 157.529 76.9696 158.872 80.3393C160.214 83.709 161.047 88.4438 161.047 88.4438C161.047 88.4438 167.391 79.0773 173.755 63.5535C180.159 47.9413 186.464 26.4369 186.464 26.4369Z" fill="white"/>
<path d="M186.464 26.4369L156.401 72.4205C156.401 72.4205 157.529 76.9696 158.872 80.3393C160.214 83.709 161.047 88.4438 161.047 88.4438C161.047 88.4438 167.391 79.0773 173.755 63.5535C180.159 47.9413 186.464 26.4369 186.464 26.4369Z" stroke="#63BD4C" stroke-width="1.3465" stroke-miterlimit="10" stroke-linejoin="round"/>
<path d="M138.601 65.351C138.601 65.351 128.158 77.2279 129.334 81.9051C130.471 86.6706 130.331 93.093 134.918 94.2044C139.505 95.3158 145.19 97.986 145.19 97.986C145.19 97.986 148.699 104.778 148.314 108.219C147.888 111.748 145.821 118.684 145.821 118.684L147.913 146.952C147.913 146.952 150.153 151.152 152.55 149.362C154.947 147.572 162.531 116.65 162.531 116.65C162.531 116.65 162.824 92.9661 161.592 89.1149C160.361 85.2638 155.465 72.8493 155.465 72.8493C155.465 72.8493 148.345 73.3599 144.165 71.5814C139.937 69.6748 138.601 65.351 138.601 65.351Z" fill="white"/>
<path d="M138.601 65.351C138.601 65.351 128.158 77.2279 129.334 81.9051C130.471 86.6706 130.331 93.093 134.918 94.2044C139.505 95.3158 145.19 97.986 145.19 97.986C145.19 97.986 148.699 104.778 148.314 108.219C147.888 111.748 145.821 118.684 145.821 118.684L147.913 146.952C147.913 146.952 150.153 151.152 152.55 149.362C154.947 147.572 162.531 116.65 162.531 116.65C162.531 116.65 162.824 92.9661 161.592 89.1149C160.361 85.2638 155.465 72.8493 155.465 72.8493C155.465 72.8493 148.345 73.3599 144.165 71.5814C139.937 69.6748 138.601 65.351 138.601 65.351Z" stroke="#63BD4C" stroke-width="1.3465" stroke-miterlimit="10" stroke-linejoin="round"/>
<path d="M147.339 80.0843L137.292 82.958L140.058 92.7389L150.105 89.8651L147.339 80.0843Z" fill="white"/>
<path d="M147.339 80.0844L137.292 82.9582L140.058 92.739L150.105 89.8653L147.339 80.0844Z" stroke="#63BD4C" stroke-width="1.3465" stroke-miterlimit="10" stroke-linejoin="round"/>
<path d="M94.5315 126.177C94.5315 126.177 103.297 106.738 104.89 103.204C106.484 99.67 114.105 88.6467 114.105 88.6467L132.981 72.173C132.981 72.173 128.766 77.2895 128.984 82.9167C129.203 88.5439 132.622 94.1258 133.815 94.7702C135.008 95.4147 124.745 100.781 124.745 100.781L119.226 114.666C119.226 114.666 112.418 119.889 110.948 121.034C109.478 122.178 97.9627 129.85 97.9627 129.85C97.9627 129.85 94.6637 128.469 94.5315 126.177Z" fill="white"/>
<path d="M94.5315 126.177C94.5315 126.177 103.297 106.738 104.89 103.204C106.484 99.67 114.105 88.6467 114.105 88.6467L132.981 72.173C132.981 72.173 128.766 77.2895 128.984 82.9167C129.203 88.5439 132.622 94.1258 133.815 94.7702C135.008 95.4147 124.745 100.781 124.745 100.781L119.226 114.666C119.226 114.666 112.418 119.889 110.948 121.034C109.478 122.178 97.9627 129.85 97.9627 129.85C97.9627 129.85 94.6637 128.469 94.5315 126.177Z" stroke="#63BD4C" stroke-width="1.3465" stroke-miterlimit="10" stroke-linejoin="round"/>
<path d="M114.657 114.147C115.947 111.68 115 108.637 112.542 107.35C110.083 106.063 107.044 107.019 105.754 109.485C104.463 111.951 105.41 114.994 107.869 116.282C110.327 117.569 113.366 116.613 114.657 114.147Z" fill="white"/>
<path d="M114.59 114.268C115.947 111.838 115.084 108.769 112.662 107.415C110.24 106.06 107.176 106.932 105.819 109.362C104.461 111.792 105.324 114.86 107.746 116.215C110.168 117.569 113.232 116.698 114.59 114.268Z" stroke="#63BD4C" stroke-width="1.3465" stroke-miterlimit="10" stroke-linejoin="round"/>
<path d="M121.111 152.09C123.641 153.231 126.619 152.099 127.763 149.561C128.908 147.024 127.784 144.042 125.255 142.901C122.725 141.761 119.747 142.893 118.603 145.43C117.458 147.968 118.581 150.95 121.111 152.09Z" fill="white"/>
<path d="M127.344 150.331C128.879 148.009 128.247 144.884 125.933 143.352C123.619 141.819 120.5 142.459 118.965 144.781C117.43 147.103 118.062 150.228 120.375 151.76C122.689 153.293 125.809 152.653 127.344 150.331Z" stroke="#63BD4C" stroke-width="1.3465" stroke-miterlimit="10" stroke-linejoin="round"/>
<path d="M131.834 148.526C132.989 145.964 135.932 144.845 138.486 145.997C141.041 147.149 142.15 150.095 140.995 152.657C139.839 155.219 136.897 156.338 134.343 155.186C131.828 153.946 130.718 151 131.834 148.526Z" fill="white"/>
<path d="M131.834 148.526C132.989 145.964 135.932 144.845 138.486 145.997C141.041 147.149 142.15 150.095 140.995 152.657C139.839 155.219 136.897 156.338 134.343 155.186C131.828 153.946 130.718 151 131.834 148.526Z" stroke="#63BD4C" stroke-width="1.3465" stroke-miterlimit="10" stroke-linejoin="round"/>
<path d="M111.866 142.424C113.175 139.968 112.252 136.918 109.803 135.611C107.355 134.305 104.309 135.237 102.999 137.694C101.69 140.15 102.614 143.2 105.062 144.507C107.51 145.813 110.557 144.88 111.866 142.424Z" fill="white"/>
<path d="M105.287 144.636C107.817 145.777 110.795 144.644 111.94 142.107C113.084 139.569 111.961 136.588 109.431 135.447C106.901 134.306 103.923 135.438 102.779 137.976C101.635 140.513 102.758 143.495 105.287 144.636Z" stroke="#63BD4C" stroke-width="1.3465" stroke-miterlimit="10" stroke-linejoin="round"/>
<path d="M131.453 110.823C132.608 108.26 135.55 107.142 138.105 108.294C140.659 109.445 141.769 112.391 140.614 114.954C139.458 117.516 136.516 118.634 133.961 117.483C131.407 116.331 130.337 113.297 131.453 110.823Z" fill="white"/>
<path d="M131.453 110.823C132.608 108.26 135.55 107.142 138.105 108.294C140.659 109.445 141.769 112.391 140.614 114.954C139.458 117.516 136.516 118.634 133.961 117.483C131.407 116.331 130.337 113.297 131.453 110.823Z" stroke="#63BD4C" stroke-width="1.3465" stroke-miterlimit="10" stroke-linejoin="round"/>
<path d="M86.0105 165.288L92.0773 157.711L104.273 163.104L93.1901 179.689C93.1901 179.689 94.119 175.749 92.376 172.092C90.5931 168.524 86.0105 165.288 86.0105 165.288Z" fill="white"/>
<path d="M86.0105 165.288L92.0773 157.711L104.273 163.104L93.1901 179.689C93.1901 179.689 94.119 175.749 92.376 172.092C90.5931 168.524 86.0105 165.288 86.0105 165.288Z" stroke="#63BD4C" stroke-width="1.3465" stroke-miterlimit="10" stroke-linejoin="round"/>
<path d="M80.7258 162.905L67.356 162.936C67.356 162.936 70.8818 170.161 70.601 174.075C70.4083 178.028 64.3225 184.002 64.3225 184.002L50.2941 182.674C50.2941 182.674 44.5772 184.774 46.943 187.754C49.3089 190.735 55.412 194.125 55.412 194.125L54.5043 200.839L21.5837 267.968C21.5837 267.968 14.5436 272.768 12.8849 275.741C11.2262 278.714 11.9563 284.147 16.7484 283.863C21.5406 283.578 31.945 285.186 35.9924 280.207C40.0397 275.227 76.5446 212.373 76.5446 212.373C76.5446 212.373 77.4776 206.308 77.3705 204.665C77.2635 203.022 87.9083 191.874 87.9083 191.874C87.9083 191.874 92.5072 186.611 92.9306 181.911C93.354 177.211 86.808 167.987 86.808 167.987L80.7258 162.905Z" fill="white"/>
<path d="M80.7258 162.905L67.356 162.936C67.356 162.936 70.8818 170.161 70.601 174.075C70.4083 178.028 64.3225 184.002 64.3225 184.002L50.2941 182.674C50.2941 182.674 44.5772 184.774 46.943 187.754C49.3089 190.735 55.412 194.125 55.412 194.125L54.5043 200.839L21.5837 267.968C21.5837 267.968 14.5436 272.768 12.8849 275.741C11.2262 278.714 11.9563 284.147 16.7484 283.863C21.5804 283.49 31.945 285.186 35.9924 280.207C40.0397 275.227 76.5446 212.373 76.5446 212.373C76.5446 212.373 77.4776 206.308 77.3705 204.665C77.2635 203.022 87.9083 191.874 87.9083 191.874C87.9083 191.874 92.5072 186.611 92.9306 181.911C93.354 177.211 86.808 167.987 86.808 167.987L80.7258 162.905Z" stroke="#63BD4C" stroke-width="1.3465" stroke-miterlimit="10" stroke-linejoin="round"/>
<path d="M75.0799 164.612C75.0799 164.612 80.8705 167.755 81.8795 172.569C82.8885 177.383 82.2744 182.741 79.6551 185.494C76.9477 188.207 67.6971 191.797 67.6971 191.797L63.1377 192.506C63.1377 192.506 67.2927 198.1 65.6466 203.631C64.0006 209.162 56.4702 221.395 56.4702 221.395L30.476 274.105C30.476 274.105 23.4443 279.121 19.6504 278.367C15.8564 277.613 13.1678 277.464 13.1678 277.464" stroke="#63BD4C" stroke-width="1.3465" stroke-miterlimit="10" stroke-linejoin="round"/>
<path d="M118.861 194.455C118.861 194.455 116.128 196.519 115.16 200.547C114.191 204.576 107.587 237.322 107.587 237.322C107.587 237.322 104.446 252.279 101.344 258.217C98.243 264.154 83.6398 298.184 83.1157 300.287C82.5915 302.39 78.3536 312.493 81.9548 317.2C85.6042 322.036 91.4119 330.077 94.2241 327.836C96.9483 325.556 100.834 319.76 100.834 319.76C100.834 319.76 100.41 315.528 100.804 312.304C101.238 308.991 108.904 279.062 114.719 269.458C120.534 259.853 120.905 257.15 122.646 250.704C124.386 244.259 126.782 229.073 129.412 223.241C132.041 217.41 134.933 214.993 139.874 212.968C144.815 210.943 147.617 211.781 149.06 208.817C150.591 205.892 150.54 204.594 148.6 202.549C146.572 200.465 139.609 194.986 139.609 194.986C139.609 194.986 136.293 193.172 135.381 193.08C134.5 192.682 118.861 194.455 118.861 194.455Z" fill="white"/>
<path d="M118.861 194.455C118.861 194.455 116.128 196.519 115.16 200.547C114.191 204.576 107.587 237.322 107.587 237.322C107.587 237.322 104.446 252.279 101.344 258.217C98.243 264.154 83.6398 298.184 83.1157 300.287C82.5915 302.39 78.3536 312.493 81.9548 317.2C85.6042 322.036 91.4119 330.077 94.2241 327.836C96.9483 325.556 100.834 319.76 100.834 319.76C100.834 319.76 100.41 315.528 100.804 312.304C101.238 308.991 108.904 279.062 114.719 269.458C120.534 259.853 120.905 257.15 122.646 250.704C124.386 244.259 126.782 229.073 129.412 223.241C132.041 217.41 134.933 214.993 139.874 212.968C144.815 210.943 147.617 211.781 149.06 208.817C150.591 205.892 150.54 204.594 148.6 202.549C146.572 200.465 139.609 194.986 139.609 194.986C139.609 194.986 136.293 193.172 135.381 193.08C134.5 192.682 118.861 194.455 118.861 194.455Z" stroke="#63BD4C" stroke-width="1.3465" stroke-miterlimit="10" stroke-linejoin="round"/>
<path d="M148.316 208.587C148.316 208.587 142.472 202.975 137.483 204.872C132.494 206.769 124.248 208.367 122.577 213.248C120.945 218.041 119.549 228.894 118.56 234.615C117.57 240.335 117.39 242.38 114.943 247.337C112.495 252.294 93.5017 304.758 93.5017 304.758C93.5017 304.758 92.4851 313.124 95.4737 315.428C98.4624 317.733 100.465 319.168 100.465 319.168" stroke="#63BD4C" stroke-width="1.3465" stroke-miterlimit="10" stroke-linejoin="round"/>
</g>
<defs>
<clipPath id="clip0_853_5732">
<rect width="106" height="315" fill="white" transform="translate(129.487) rotate(24.2721)"/>
</clipPath>
</defs>
</svg>
