<svg width="91" height="91" viewBox="0 0 91 91" fill="none" xmlns="http://www.w3.org/2000/svg">
<path fill-rule="evenodd" clip-rule="evenodd" d="M45.2454 0C54.1941 0 62.9418 2.6534 70.3824 7.62469C77.823 12.596 83.6222 19.6619 87.0467 27.9288C90.4712 36.1957 91.3672 45.2925 89.6214 54.0686C87.8756 62.8447 83.5664 70.9061 77.2387 77.2334C70.9111 83.5606 62.8491 87.8695 54.0723 89.6152C45.2956 91.3609 36.1983 90.4649 27.9307 87.0407C19.6632 83.6164 12.5969 77.8176 7.62523 70.3775C2.6536 62.9375 0 54.1903 0 45.2423C0.0101366 33.2464 4.7803 21.7447 13.2633 13.2623C21.7462 4.77996 33.2487 0.0101359 45.2454 0Z" fill="#007DC3"/>
<path d="M21.2061 29.2051V43.7883H42.2211V26.6406L21.2061 29.2051Z" fill="white"/>
<path d="M45.2452 46.6968V64.2272L69.2843 67.1362V46.6968H45.2452Z" fill="white"/>
<path d="M21.2063 46.6968V61.3182L42.2213 63.8444V46.6968H21.2063Z" fill="white"/>
<path d="M45.2452 26.2959V43.788H69.2843V23.3486L45.2452 26.2959Z" fill="white"/>
</svg>
